  0
LINE
  5
160C3
  8
Piano Terra_RITORNO
  6
CONTINUOUS
 62
     1
 10
7.8071999999999999
 20
7.2694999999999999
 30
0.0
 11
10.0190000000000001
 21
7.2694999999999999
 31
0.0
  0
LINE
  5
160C3
  8
Piano Terra_RITORNO
  6
CONTINUOUS
 62
     1
 10
10.0190000000000001
 20
7.2694999999999999
 30
0.0
 11
10.1824999999999992
 21
7.1059999999999999
 31
0.0
  0
LINE
  5
160C3
  8
Piano Terra_RITORNO
  6
CONTINUOUS
 62
     1
 10
10.1824999999999992
 20
7.1059999999999999
 30
0.0
 11
10.1824999999999992
 21
4.3460999999999999
 31
0.0
  0
LINE
  5
160C3
  8
Piano Terra_RITORNO
  6
CONTINUOUS
 62
     1
 10
10.1824999999999992
 20
4.3460999999999999
 30
0.0
 11
10.4037000000000006
 21
4.1249000000000002
 31
0.0
  0
LINE
  5
160C3
  8
Piano Terra_RITORNO
  6
CONTINUOUS
 62
     1
 10
10.4037000000000006
 20
4.1249000000000002
 30
0.0
 11
11.3841999999999999
 21
4.1265999999999998
 31
0.0
  0
LINE
  5
160C3
  8
Piano Terra_RITORNO
  6
CONTINUOUS
 62
     1
 10
11.3841999999999999
 20
4.7266000000000004
 30
0.0
 11
11.3502999999999990
 21
4.7274500000000002
 31
0.0
  0
ARC
  5
7E
  8
Piano Terra_RITORNO
  6
CONTINUOUS
 62
     1
 10
11.3517870678024018
 20
4.7867577629429103
 30
0.0
 40
0.0593264031940363
 50
209.0595729464780280
 51
268.5636811103482270
  0
LINE
  5
160C3
  8
Piano Terra_RITORNO
  6
CONTINUOUS
 62
     1
 10
11.2999289595871808
 20
4.7579418172135117
 30
0.0
 11
11.2871769686909467
 21
4.7808907125947853
 31
0.0
  0
ARC
  5
7E
  8
Piano Terra_RITORNO
  6
CONTINUOUS
 62
     1
 10
11.4619999999999997
 20
4.8780344603293342
 30
0.0
 40
0.2000000000000000
 50
180.0000000000000280
 51
209.0595729464767770
  0
LINE
  5
160C3
  8
Piano Terra_RITORNO
  6
CONTINUOUS
 62
     1
 10
11.2620000000000005
 20
4.8780344603293342
 30
0.0
 11
11.2620000000000005
 21
6.4083842003928613
 31
0.0
  0
ARC
  5
7E
  8
Piano Terra_RITORNO
  6
CONTINUOUS
 62
     1
 10
11.4619999999999997
 20
6.4083842003928613
 30
0.0
 40
0.2000000000000000
 50
135.0131623658406280
 51
180.0000000000000280
  0
LINE
  5
160C3
  8
Piano Terra_RITORNO
  6
CONTINUOUS
 62
     1
 10
11.3205461592443406
 20
6.5497730646484040
 30
0.0
 11
11.4185867608267877
 21
6.6478587216543739
 31
0.0
  0
ARC
  5
7E
  8
Piano Terra_RITORNO
  6
CONTINUOUS
 62
     1
 10
11.5600406015824486
 20
6.5064698573988311
 30
0.0
 40
0.2000000000000000
 50
448.3300720018926880
 51
135.0131623658409980
  0
LINE
  5
160C3
  8
Piano Terra_RITORNO
  6
CONTINUOUS
 62
     1
 10
11.5658689246998865
 20
6.7063849159853186
 30
0.0
 11
12.0387000000000004
 21
6.6925999999999997
 31
0.0
  0
LINE
  5
160C3
  8
Piano Terra_RITORNO
  6
CONTINUOUS
 62
     1
 10
11.3796249929849704
 20
4.5263903635599583
 30
0.0
 11
11.3285499999999999
 21
4.5240499999999999
 31
0.0
  0
ARC
  5
7E
  8
Piano Terra_RITORNO
  6
CONTINUOUS
 62
     1
 10
11.3227715964105951
 20
4.6501551606864000
 30
0.0
 40
0.1262374805665295
 50
224.9999999999997160
 51
272.6235778927840560
  0
LINE
  5
160C3
  8
Piano Terra_RITORNO
  6
CONTINUOUS
 62
     1
 10
11.2335082178620969
 20
4.5608917821379027
 30
0.0
 11
11.1573786437626907
 21
4.6370213562373097
 31
0.0
  0
ARC
  5
7E
  8
Piano Terra_RITORNO
  6
CONTINUOUS
 62
     1
 10
11.2988000000000000
 20
4.7784427124746189
 30
0.0
 40
0.2000000000000000
 50
180.0000000000002840
 51
225.0000000000000280
  0
LINE
  5
160C3
  8
Piano Terra_RITORNO
  6
CONTINUOUS
 62
     1
 10
11.0988000000000007
 20
4.7784427124746181
 30
0.0
 11
11.0988000000000007
 21
6.5389674440215950
 31
0.0
  0
ARC
  5
7E
  8
Piano Terra_RITORNO
  6
CONTINUOUS
 62
     1
 10
11.2988000000000000
 20
6.5389674440215950
 30
0.0
 40
0.2000000000000000
 50
135.0049671243490930
 51
180.0000000000000280
  0
LINE
  5
160C3
  8
Piano Terra_RITORNO
  6
CONTINUOUS
 62
     1
 10
11.1573663840985731
 20
6.6803765395319168
 30
0.0
 11
11.6169095877739714
 21
7.1399994281741410
 31
0.0
  0
ARC
  5
7E
  8
Piano Terra_RITORNO
  6
CONTINUOUS
 62
     1
 10
11.7583432036754001
 20
6.9985903326638193
 30
0.0
 40
0.2000000000000000
 50
449.9933148461891510
 51
135.0049671243494630
  0
LINE
  5
160C3
  8
Piano Terra_RITORNO
  6
CONTINUOUS
 62
     1
 10
11.7583665392643475
 20
7.1985903313024453
 30
0.0
 11
15.9608000000000008
 21
7.1981000000000002
 31
0.0
  0
LINE
  5
160C3
  8
Piano Terra_RITORNO
  6
CONTINUOUS
 62
     1
 10
11.5592000000000006
 20
4.5266000000000002
 30
0.0
 11
13.9133069246581744
 21
4.5229476885993138
 31
0.0
  0
ARC
  5
7E
  8
Piano Terra_RITORNO
  6
CONTINUOUS
 62
     1
 10
13.9136172170214323
 20
4.7229474478957920
 30
0.0
 40
0.2000000000000000
 50
269.9111077501897850
 51
320.8168229838991580
  0
LINE
  5
160C3
  8
Piano Terra_RITORNO
  6
CONTINUOUS
 62
     1
 10
14.0686432229220628
 20
4.5965871001022789
 30
0.0
 11
14.8164999999999996
 21
5.5141000000000000
 31
0.0
  0
LINE
  5
160C3
  8
Piano Terra_RITORNO
  6
CONTINUOUS
 62
     1
 10
11.3841999999999999
 20
4.3266000000000000
 30
0.0
 11
11.3013500000000011
 21
4.3261000000000003
 31
0.0
  0
ARC
  5
7E
  8
Piano Terra_RITORNO
  6
CONTINUOUS
 62
     1
 10
11.3001531210118849
 20
4.5244228483308451
 30
0.0
 40
0.1983264598821133
 50
224.9999999999998290
 51
270.3457760044262840
  0
LINE
  5
160C3
  8
Piano Terra_RITORNO
  6
CONTINUOUS
 62
     1
 10
11.1599151363405191
 20
4.3841848636594802
 30
0.0
 11
11.0602646937283673
 21
4.4838353062716321
 31
0.0
  0
ARC
  5
7E
  8
Piano Terra_RITORNO
  6
CONTINUOUS
 62
     1
 10
11.2016860499656765
 20
4.6252566625089413
 30
0.0
 40
0.2000000000000000
 50
179.3885492798968070
 51
225.0000000000000280
  0
LINE
  5
160C3
  8
Piano Terra_RITORNO
  6
CONTINUOUS
 62
     1
 10
11.0016974386494741
 20
4.6273909876519932
 30
0.0
 11
11.0463000000000005
 21
8.8066999999999993
 31
0.0
  0
LINE
  5
160C3
  8
Piano Terra_RITORNO
  6
CONTINUOUS
 62
     1
 10
11.3841999999999999
 20
3.9266000000000001
 30
0.0
 11
10.4050963138876327
 21
3.9244799298832067
 31
0.0
  0
ARC
  5
7E
  8
Piano Terra_RITORNO
  6
CONTINUOUS
 62
     1
 10
10.4046632514496498
 20
4.1244794610249693
 30
0.0
 40
0.2000000000000000
 50
225.0000000000001990
 51
270.1240633467571680
  0
LINE
  5
160C3
  8
Piano Terra_RITORNO
  6
CONTINUOUS
 62
     1
 10
10.2632418952123405
 20
3.9830581047876592
 30
0.0
 11
10.0533932000151332
 21
4.1929067999848657
 31
0.0
  0
ARC
  5
7E
  8
Piano Terra_RITORNO
  6
CONTINUOUS
 62
     1
 10
10.1948145562524424
 20
4.3343281562221749
 30
0.0
 40
0.2000000000000000
 50
180.4748784969561650
 51
225.0000000000000280
  0
LINE
  5
160C3
  8
Piano Terra_RITORNO
  6
CONTINUOUS
 62
     1
 10
9.9948214256279684
 20
4.3326705365366944
 30
0.0
 11
9.9765999999999995
 21
6.5311000000000004
 31
0.0
  0
LINE
  5
160C3
  8
Piano Terra_RITORNO
  6
CONTINUOUS
 62
     1
 10
11.3841999999999999
 20
3.7265999999999999
 30
0.0
 11
8.1108649200770078
 21
3.7204892313380396
 31
0.0
  0
ARC
  5
7E
  8
Piano Terra_RITORNO
  6
CONTINUOUS
 62
     1
 10
8.1104915542061402
 20
3.9204888828325522
 30
0.0
 40
0.2000000000000000
 50
216.3528547483786040
 51
270.1069615052024350
  0
LINE
  5
160C3
  8
Piano Terra_RITORNO
  6
CONTINUOUS
 62
     1
 10
7.9494151914989502
 20
3.8019376054163141
 30
0.0
 11
5.8575999999999997
 21
6.6440999999999999
 31
0.0
  0
LINE
  5
160C3
  8
Piano Terra_RITORNO
  6
CONTINUOUS
 62
     1
 10
11.3841999999999999
 20
3.5266000000000002
 30
0.0
 11
7.8201398959525719
 21
3.5297273972614218
 31
0.0
  0
ARC
  5
7E
  8
Piano Terra_RITORNO
  6
CONTINUOUS
 62
     1
 10
7.8203153922105537
 20
3.7297273202640655
 30
0.0
 40
0.2000000000000000
 50
225.0000000000001990
 51
269.9497240190346470
  0
LINE
  5
160C3
  8
Piano Terra_RITORNO
  6
CONTINUOUS
 62
     1
 10
7.6788940359732445
 20
3.5883059640267554
 30
0.0
 11
4.7352786437626904
 21
6.5319213562373086
 31
0.0
  0
ARC
  5
7E
  8
Piano Terra_RITORNO
  6
CONTINUOUS
 62
     1
 10
4.5938572875253811
 20
6.3904999999999994
 30
0.0
 40
0.2000000000000000
 50
45.0000000000000071
 51
90.0000000000000000
  0
LINE
  5
160C3
  8
Piano Terra_RITORNO
  6
CONTINUOUS
 62
     1
 10
4.5938572875253811
 20
6.5904999999999996
 30
0.0
 11
2.3233999999999999
 21
6.5904999999999996
 31
0.0
  0
LINE
  5
160C3
  8
Piano Terra_RITORNO
  6
CONTINUOUS
 62
     1
 10
11.3841999999999999
 20
3.3266000000000000
 30
0.0
 11
2.7463319648180531
 21
3.3258075986528422
 31
0.0
  0
ARC
  5
7E
  8
Piano Terra_RITORNO
  6
CONTINUOUS
 62
     1
 10
2.7463503119690076
 20
3.1258075994943870
 30
0.0
 40
0.2000000000000000
 50
90.0052560715862882
 51
-225.0000000000002840
  0
LINE
  5
160C3
  8
Piano Terra_RITORNO
  6
CONTINUOUS
 62
     1
 10
2.6049289557316979
 20
3.2672289557316980
 30
0.0
 11
1.4428803247277349
 21
2.1051803247277348
 31
0.0
  0
ARC
  5
7E
  8
Piano Terra_RITORNO
  6
CONTINUOUS
 62
     1
 10
1.3014589684904254
 20
2.2466016809650444
 30
0.0
 40
0.2000000000000000
 50
270.3450768829455910
 51
314.9999999999999430
  0
LINE
  5
160C3
  8
Piano Terra_RITORNO
  6
CONTINUOUS
 62
     1
 10
1.3026635067642922
 20
2.0466053082790707
 30
0.0
 11
0.4550000000000000
 21
2.0415000000000001
 31
0.0
  0
LINE
  5
160C3
  8
Piano Terra_RITORNO
  6
CONTINUOUS
 62
     1
 10
11.3841999999999999
 20
3.1265999999999998
 30
0.0
 11
10.2819382724417157
 21
3.1220405854591968
 31
0.0
  0
ARC
  5
7E
  8
Piano Terra_RITORNO
  6
CONTINUOUS
 62
     1
 10
10.2827655488356324
 20
2.9220422964320951
 30
0.0
 40
0.2000000000000000
 50
90.2369979051398730
 51
-225.0095732295701510
  0
LINE
  5
160C3
  8
Piano Terra_RITORNO
  6
CONTINUOUS
 62
     1
 10
10.1413678238713221
 20
3.0634872799943191
 30
0.0
 11
9.9589022750356921
 21
2.8810826952578648
 31
0.0
  0
ARC
  5
7E
  8
Piano Terra_RITORNO
  6
CONTINUOUS
 62
     1
 10
10.1003000000000007
 20
2.7396377116956407
 30
0.0
 40
0.2000000000000000
 50
134.9904267704295080
 51
180.0000000000000280
  0
LINE
  5
160C3
  8
Piano Terra_RITORNO
  6
CONTINUOUS
 62
     1
 10
9.9002999999999997
 20
2.7396377116956407
 30
0.0
 11
9.9002999999999997
 21
1.0696526131732058
 31
0.0
  0
ARC
  5
7E
  8
Piano Terra_RITORNO
  6
CONTINUOUS
 62
     1
 10
10.1002999999999990
 20
1.0696526131732058
 30
0.0
 40
0.2000000000000000
 50
180.0000000000000280
 51
237.9959689206617100
  0
LINE
  5
160C3
  8
Piano Terra_RITORNO
  6
CONTINUOUS
 62
     1
 10
9.9943042144279826
 20
0.9000504509199756
 30
0.0
 11
10.6621000000000006
 21
0.4827000000000000
 31
0.0
  0
LINE
  5
160C3
  8
Piano Terra_RITORNO
  6
CONTINUOUS
 62
     1
 10
11.3841999999999999
 20
2.9266000000000001
 30
0.0
 11
10.3373296149501339
 21
2.9309534691291228
 31
0.0
  0
ARC
  5
7E
  8
Piano Terra_RITORNO
  6
CONTINUOUS
 62
     1
 10
10.3364979109401194
 20
2.7309551984654998
 30
0.0
 40
0.2000000000000000
 50
89.7617336653721765
 51
-224.9999999999995450
  0
LINE
  5
160C3
  8
Piano Terra_RITORNO
  6
CONTINUOUS
 62
     1
 10
10.1950765547028084
 20
2.8723765547028086
 30
0.0
 11
10.0948786437626907
 21
2.7721786437626905
 31
0.0
  0
ARC
  5
7E
  8
Piano Terra_RITORNO
  6
CONTINUOUS
 62
     1
 10
10.2363000000000000
 20
2.6307572875253813
 30
0.0
 40
0.2000000000000000
 50
135.0000000000000280
 51
180.0000000000000280
  0
LINE
  5
160C3
  8
Piano Terra_RITORNO
  6
CONTINUOUS
 62
     1
 10
10.0363000000000007
 20
2.6307572875253813
 30
0.0
 11
10.0363000000000007
 21
2.1163550153030553
 31
0.0
  0
ARC
  5
7E
  8
Piano Terra_RITORNO
  6
CONTINUOUS
 62
     1
 10
10.2363000000000000
 20
2.1163550153030553
 30
0.0
 40
0.2000000000000000
 50
180.0000000000000280
 51
225.0060165682350540
  0
LINE
  5
160C3
  8
Piano Terra_RITORNO
  6
CONTINUOUS
 62
     1
 10
10.0948934950470246
 20
1.9749188093408481
 30
0.0
 11
10.4542055548951947
 21
1.6156822035161647
 31
0.0
  0
ARC
  5
7E
  8
Piano Terra_RITORNO
  6
CONTINUOUS
 62
     1
 10
10.5956120598481700
 20
1.7571184094783721
 30
0.0
 40
0.2000000000000000
 50
225.0060165682351110
 51
269.8050800575301200
  0
LINE
  5
160C3
  8
Piano Terra_RITORNO
  6
CONTINUOUS
 62
     1
 10
10.5949316622058305
 20
1.5571195668341000
 30
0.0
 11
14.7158999999999995
 21
1.5430999999999999
 31
0.0
  0
LINE
  5
160C3
  8
Piano Terra_COLLE
  6
1
 62
     5
 10
11.3841999999999999
 20
4.1015999999999995
 30
0.0
 11
11.6842000000000006
 21
4.1015999999999995
 31
0.0
  0
LINE
  5
160C3
  8
Piano Terra_COLLE
  6
1
 62
     5
 10
11.3841999999999999
 20
4.1015999999999995
 30
0.0
 11
11.3841999999999999
 21
4.2515999999999998
 31
0.0
  0
LINE
  5
160C3
  8
Piano Terra_COLLE
  6
1
 62
     5
 10
11.3841999999999999
 20
4.2515999999999998
 30
0.0
 11
11.6842000000000006
 21
4.2515999999999998
 31
0.0
  0
LINE
  5
160C3
  8
Piano Terra_COLLE
  6
1
 62
     5
 10
11.6842000000000006
 20
4.2515999999999998
 30
0.0
 11
11.6842000000000006
 21
4.1015999999999995
 31
0.0
  0
LINE
  5
160C3
  8
Piano Terra_COLLE
  6
1
 62
     5
 10
11.3841999999999999
 20
4.1015999999999995
 30
0.0
 11
11.6842000000000006
 21
4.2515999999999998
 31
0.0
  0
LINE
  5
160C3
  8
Piano Terra_RITORNO
  6
CONTINUOUS
 62
     1
 10
7.8071999999999999
 20
7.2694999999999999
 30
0.0
 11
10.0190000000000001
 21
7.2694999999999999
 31
0.0
  0
LINE
  5
160C3
  8
Piano Terra_RITORNO
  6
CONTINUOUS
 62
     1
 10
10.0190000000000001
 20
7.2694999999999999
 30
0.0
 11
10.1824999999999992
 21
7.1059999999999999
 31
0.0
  0
LINE
  5
160C3
  8
Piano Terra_RITORNO
  6
CONTINUOUS
 62
     1
 10
10.1824999999999992
 20
7.1059999999999999
 30
0.0
 11
10.1824999999999992
 21
4.3460999999999999
 31
0.0
  0
LINE
  5
160C3
  8
Piano Terra_RITORNO
  6
CONTINUOUS
 62
     1
 10
10.1824999999999992
 20
4.3460999999999999
 30
0.0
 11
10.4037000000000006
 21
4.1249000000000002
 31
0.0
  0
LINE
  5
160C3
  8
Piano Terra_RITORNO
  6
CONTINUOUS
 62
     1
 10
10.4037000000000006
 20
4.1249000000000002
 30
0.0
 11
11.3841999999999999
 21
4.1265999999999998
 31
0.0
  0
LINE
  5
160C3
  8
Piano Terra_RITORNO
  6
CONTINUOUS
 62
     1
 10
11.3841999999999999
 20
4.7266000000000004
 30
0.0
 11
11.3502999999999990
 21
4.7274500000000002
 31
0.0
  0
ARC
  5
7E
  8
Piano Terra_RITORNO
  6
CONTINUOUS
 62
     1
 10
11.3517870678024018
 20
4.7867577629429103
 30
0.0
 40
0.0593264031940363
 50
209.0595729464780280
 51
268.5636811103482270
  0
LINE
  5
160C3
  8
Piano Terra_RITORNO
  6
CONTINUOUS
 62
     1
 10
11.2999289595871808
 20
4.7579418172135117
 30
0.0
 11
11.2871769686909467
 21
4.7808907125947853
 31
0.0
  0
ARC
  5
7E
  8
Piano Terra_RITORNO
  6
CONTINUOUS
 62
     1
 10
11.4619999999999997
 20
4.8780344603293342
 30
0.0
 40
0.2000000000000000
 50
180.0000000000000280
 51
209.0595729464767770
  0
LINE
  5
160C3
  8
Piano Terra_RITORNO
  6
CONTINUOUS
 62
     1
 10
11.2620000000000005
 20
4.8780344603293342
 30
0.0
 11
11.2620000000000005
 21
6.4083842003928613
 31
0.0
  0
ARC
  5
7E
  8
Piano Terra_RITORNO
  6
CONTINUOUS
 62
     1
 10
11.4619999999999997
 20
6.4083842003928613
 30
0.0
 40
0.2000000000000000
 50
135.0131623658406280
 51
180.0000000000000280
  0
LINE
  5
160C3
  8
Piano Terra_RITORNO
  6
CONTINUOUS
 62
     1
 10
11.3205461592443406
 20
6.5497730646484040
 30
0.0
 11
11.4185867608267877
 21
6.6478587216543739
 31
0.0
  0
ARC
  5
7E
  8
Piano Terra_RITORNO
  6
CONTINUOUS
 62
     1
 10
11.5600406015824486
 20
6.5064698573988311
 30
0.0
 40
0.2000000000000000
 50
448.3300720018926880
 51
135.0131623658409980
  0
LINE
  5
160C3
  8
Piano Terra_RITORNO
  6
CONTINUOUS
 62
     1
 10
11.5658689246998865
 20
6.7063849159853186
 30
0.0
 11
12.0387000000000004
 21
6.6925999999999997
 31
0.0
  0
LINE
  5
160C3
  8
Piano Terra_RITORNO
  6
CONTINUOUS
 62
     1
 10
11.3796249929849704
 20
4.5263903635599583
 30
0.0
 11
11.3285499999999999
 21
4.5240499999999999
 31
0.0
  0
ARC
  5
7E
  8
Piano Terra_RITORNO
  6
CONTINUOUS
 62
     1
 10
11.3227715964105951
 20
4.6501551606864000
 30
0.0
 40
0.1262374805665295
 50
224.9999999999997160
 51
272.6235778927840560
  0
LINE
  5
160C3
  8
Piano Terra_RITORNO
  6
CONTINUOUS
 62
     1
 10
11.2335082178620969
 20
4.5608917821379027
 30
0.0
 11
11.1573786437626907
 21
4.6370213562373097
 31
0.0
  0
ARC
  5
7E
  8
Piano Terra_RITORNO
  6
CONTINUOUS
 62
     1
 10
11.2988000000000000
 20
4.7784427124746189
 30
0.0
 40
0.2000000000000000
 50
180.0000000000002840
 51
225.0000000000000280
  0
LINE
  5
160C3
  8
Piano Terra_RITORNO
  6
CONTINUOUS
 62
     1
 10
11.0988000000000007
 20
4.7784427124746181
 30
0.0
 11
11.0988000000000007
 21
6.5389674440215950
 31
0.0
  0
ARC
  5
7E
  8
Piano Terra_RITORNO
  6
CONTINUOUS
 62
     1
 10
11.2988000000000000
 20
6.5389674440215950
 30
0.0
 40
0.2000000000000000
 50
135.0049671243490930
 51
180.0000000000000280
  0
LINE
  5
160C3
  8
Piano Terra_RITORNO
  6
CONTINUOUS
 62
     1
 10
11.1573663840985731
 20
6.6803765395319168
 30
0.0
 11
11.6169095877739714
 21
7.1399994281741410
 31
0.0
  0
ARC
  5
7E
  8
Piano Terra_RITORNO
  6
CONTINUOUS
 62
     1
 10
11.7583432036754001
 20
6.9985903326638193
 30
0.0
 40
0.2000000000000000
 50
449.9933148461891510
 51
135.0049671243494630
  0
LINE
  5
160C3
  8
Piano Terra_RITORNO
  6
CONTINUOUS
 62
     1
 10
11.7583665392643475
 20
7.1985903313024453
 30
0.0
 11
15.9608000000000008
 21
7.1981000000000002
 31
0.0
  0
LINE
  5
160C3
  8
Piano Terra_RITORNO
  6
CONTINUOUS
 62
     1
 10
11.5592000000000006
 20
4.5266000000000002
 30
0.0
 11
13.9133069246581744
 21
4.5229476885993138
 31
0.0
  0
ARC
  5
7E
  8
Piano Terra_RITORNO
  6
CONTINUOUS
 62
     1
 10
13.9136172170214323
 20
4.7229474478957920
 30
0.0
 40
0.2000000000000000
 50
269.9111077501897850
 51
320.8168229838991580
  0
LINE
  5
160C3
  8
Piano Terra_RITORNO
  6
CONTINUOUS
 62
     1
 10
14.0686432229220628
 20
4.5965871001022789
 30
0.0
 11
14.8164999999999996
 21
5.5141000000000000
 31
0.0
  0
LINE
  5
160C3
  8
Piano Terra_RITORNO
  6
CONTINUOUS
 62
     1
 10
11.3841999999999999
 20
4.3266000000000000
 30
0.0
 11
11.3013500000000011
 21
4.3261000000000003
 31
0.0
  0
ARC
  5
7E
  8
Piano Terra_RITORNO
  6
CONTINUOUS
 62
     1
 10
11.3001531210118849
 20
4.5244228483308451
 30
0.0
 40
0.1983264598821133
 50
224.9999999999998290
 51
270.3457760044262840
  0
LINE
  5
160C3
  8
Piano Terra_RITORNO
  6
CONTINUOUS
 62
     1
 10
11.1599151363405191
 20
4.3841848636594802
 30
0.0
 11
11.0602646937283673
 21
4.4838353062716321
 31
0.0
  0
ARC
  5
7E
  8
Piano Terra_RITORNO
  6
CONTINUOUS
 62
     1
 10
11.2016860499656765
 20
4.6252566625089413
 30
0.0
 40
0.2000000000000000
 50
179.3885492798968070
 51
225.0000000000000280
  0
LINE
  5
160C3
  8
Piano Terra_RITORNO
  6
CONTINUOUS
 62
     1
 10
11.0016974386494741
 20
4.6273909876519932
 30
0.0
 11
11.0463000000000005
 21
8.8066999999999993
 31
0.0
  0
LINE
  5
160C3
  8
Piano Terra_RITORNO
  6
CONTINUOUS
 62
     1
 10
11.3841999999999999
 20
3.9266000000000001
 30
0.0
 11
10.4050963138876327
 21
3.9244799298832067
 31
0.0
  0
ARC
  5
7E
  8
Piano Terra_RITORNO
  6
CONTINUOUS
 62
     1
 10
10.4046632514496498
 20
4.1244794610249693
 30
0.0
 40
0.2000000000000000
 50
225.0000000000001990
 51
270.1240633467571680
  0
LINE
  5
160C3
  8
Piano Terra_RITORNO
  6
CONTINUOUS
 62
     1
 10
10.2632418952123405
 20
3.9830581047876592
 30
0.0
 11
10.0533932000151332
 21
4.1929067999848657
 31
0.0
  0
ARC
  5
7E
  8
Piano Terra_RITORNO
  6
CONTINUOUS
 62
     1
 10
10.1948145562524424
 20
4.3343281562221749
 30
0.0
 40
0.2000000000000000
 50
180.4748784969561650
 51
225.0000000000000280
  0
LINE
  5
160C3
  8
Piano Terra_RITORNO
  6
CONTINUOUS
 62
     1
 10
9.9948214256279684
 20
4.3326705365366944
 30
0.0
 11
9.9765999999999995
 21
6.5311000000000004
 31
0.0
  0
LINE
  5
160C3
  8
Piano Terra_RITORNO
  6
CONTINUOUS
 62
     1
 10
11.3841999999999999
 20
3.7265999999999999
 30
0.0
 11
8.1108649200770078
 21
3.7204892313380396
 31
0.0
  0
ARC
  5
7E
  8
Piano Terra_RITORNO
  6
CONTINUOUS
 62
     1
 10
8.1104915542061402
 20
3.9204888828325522
 30
0.0
 40
0.2000000000000000
 50
216.3528547483786040
 51
270.1069615052024350
  0
LINE
  5
160C3
  8
Piano Terra_RITORNO
  6
CONTINUOUS
 62
     1
 10
7.9494151914989502
 20
3.8019376054163141
 30
0.0
 11
5.8575999999999997
 21
6.6440999999999999
 31
0.0
  0
LINE
  5
160C3
  8
Piano Terra_RITORNO
  6
CONTINUOUS
 62
     1
 10
11.3841999999999999
 20
3.5266000000000002
 30
0.0
 11
7.8201398959525719
 21
3.5297273972614218
 31
0.0
  0
ARC
  5
7E
  8
Piano Terra_RITORNO
  6
CONTINUOUS
 62
     1
 10
7.8203153922105537
 20
3.7297273202640655
 30
0.0
 40
0.2000000000000000
 50
225.0000000000001990
 51
269.9497240190346470
  0
LINE
  5
160C3
  8
Piano Terra_RITORNO
  6
CONTINUOUS
 62
     1
 10
7.6788940359732445
 20
3.5883059640267554
 30
0.0
 11
4.7352786437626904
 21
6.5319213562373086
 31
0.0
  0
ARC
  5
7E
  8
Piano Terra_RITORNO
  6
CONTINUOUS
 62
     1
 10
4.5938572875253811
 20
6.3904999999999994
 30
0.0
 40
0.2000000000000000
 50
45.0000000000000071
 51
90.0000000000000000
  0
LINE
  5
160C3
  8
Piano Terra_RITORNO
  6
CONTINUOUS
 62
     1
 10
4.5938572875253811
 20
6.5904999999999996
 30
0.0
 11
2.3233999999999999
 21
6.5904999999999996
 31
0.0
  0
LINE
  5
160C3
  8
Piano Terra_RITORNO
  6
CONTINUOUS
 62
     1
 10
11.3841999999999999
 20
3.3266000000000000
 30
0.0
 11
2.7463319648180531
 21
3.3258075986528422
 31
0.0
  0
ARC
  5
7E
  8
Piano Terra_RITORNO
  6
CONTINUOUS
 62
     1
 10
2.7463503119690076
 20
3.1258075994943870
 30
0.0
 40
0.2000000000000000
 50
90.0052560715862882
 51
-225.0000000000002840
  0
LINE
  5
160C3
  8
Piano Terra_RITORNO
  6
CONTINUOUS
 62
     1
 10
2.6049289557316979
 20
3.2672289557316980
 30
0.0
 11
1.4428803247277349
 21
2.1051803247277348
 31
0.0
  0
ARC
  5
7E
  8
Piano Terra_RITORNO
  6
CONTINUOUS
 62
     1
 10
1.3014589684904254
 20
2.2466016809650444
 30
0.0
 40
0.2000000000000000
 50
270.3450768829455910
 51
314.9999999999999430
  0
LINE
  5
160C3
  8
Piano Terra_RITORNO
  6
CONTINUOUS
 62
     1
 10
1.3026635067642922
 20
2.0466053082790707
 30
0.0
 11
0.4550000000000000
 21
2.0415000000000001
 31
0.0
  0
LINE
  5
160C3
  8
Piano Terra_RITORNO
  6
CONTINUOUS
 62
     1
 10
11.3841999999999999
 20
3.1265999999999998
 30
0.0
 11
10.2819382724417157
 21
3.1220405854591968
 31
0.0
  0
ARC
  5
7E
  8
Piano Terra_RITORNO
  6
CONTINUOUS
 62
     1
 10
10.2827655488356324
 20
2.9220422964320951
 30
0.0
 40
0.2000000000000000
 50
90.2369979051398730
 51
-225.0095732295701510
  0
LINE
  5
160C3
  8
Piano Terra_RITORNO
  6
CONTINUOUS
 62
     1
 10
10.1413678238713221
 20
3.0634872799943191
 30
0.0
 11
9.9589022750356921
 21
2.8810826952578648
 31
0.0
  0
ARC
  5
7E
  8
Piano Terra_RITORNO
  6
CONTINUOUS
 62
     1
 10
10.1003000000000007
 20
2.7396377116956407
 30
0.0
 40
0.2000000000000000
 50
134.9904267704295080
 51
180.0000000000000280
  0
LINE
  5
160C3
  8
Piano Terra_RITORNO
  6
CONTINUOUS
 62
     1
 10
9.9002999999999997
 20
2.7396377116956407
 30
0.0
 11
9.9002999999999997
 21
1.0696526131732058
 31
0.0
  0
ARC
  5
7E
  8
Piano Terra_RITORNO
  6
CONTINUOUS
 62
     1
 10
10.1002999999999990
 20
1.0696526131732058
 30
0.0
 40
0.2000000000000000
 50
180.0000000000000280
 51
237.9959689206617100
  0
LINE
  5
160C3
  8
Piano Terra_RITORNO
  6
CONTINUOUS
 62
     1
 10
9.9943042144279826
 20
0.9000504509199756
 30
0.0
 11
10.6621000000000006
 21
0.4827000000000000
 31
0.0
  0
LINE
  5
160C3
  8
Piano Terra_RITORNO
  6
CONTINUOUS
 62
     1
 10
11.3841999999999999
 20
2.9266000000000001
 30
0.0
 11
10.3373296149501339
 21
2.9309534691291228
 31
0.0
  0
ARC
  5
7E
  8
Piano Terra_RITORNO
  6
CONTINUOUS
 62
     1
 10
10.3364979109401194
 20
2.7309551984654998
 30
0.0
 40
0.2000000000000000
 50
89.7617336653721765
 51
-224.9999999999995450
  0
LINE
  5
160C3
  8
Piano Terra_RITORNO
  6
CONTINUOUS
 62
     1
 10
10.1950765547028084
 20
2.8723765547028086
 30
0.0
 11
10.0948786437626907
 21
2.7721786437626905
 31
0.0
  0
ARC
  5
7E
  8
Piano Terra_RITORNO
  6
CONTINUOUS
 62
     1
 10
10.2363000000000000
 20
2.6307572875253813
 30
0.0
 40
0.2000000000000000
 50
135.0000000000000280
 51
180.0000000000000280
  0
LINE
  5
160C3
  8
Piano Terra_RITORNO
  6
CONTINUOUS
 62
     1
 10
10.0363000000000007
 20
2.6307572875253813
 30
0.0
 11
10.0363000000000007
 21
2.1163550153030553
 31
0.0
  0
ARC
  5
7E
  8
Piano Terra_RITORNO
  6
CONTINUOUS
 62
     1
 10
10.2363000000000000
 20
2.1163550153030553
 30
0.0
 40
0.2000000000000000
 50
180.0000000000000280
 51
225.0060165682350540
  0
LINE
  5
160C3
  8
Piano Terra_RITORNO
  6
CONTINUOUS
 62
     1
 10
10.0948934950470246
 20
1.9749188093408481
 30
0.0
 11
10.4542055548951947
 21
1.6156822035161647
 31
0.0
  0
ARC
  5
7E
  8
Piano Terra_RITORNO
  6
CONTINUOUS
 62
     1
 10
10.5956120598481700
 20
1.7571184094783721
 30
0.0
 40
0.2000000000000000
 50
225.0060165682351110
 51
269.8050800575301200
  0
LINE
  5
160C3
  8
Piano Terra_RITORNO
  6
CONTINUOUS
 62
     1
 10
10.5949316622058305
 20
1.5571195668341000
 30
0.0
 11
14.7158999999999995
 21
1.5430999999999999
 31
0.0
  0
LINE
  5
160C3
  8
Piano Terra_RITORNO
  6
CONTINUOUS
 62
     5
 10
12.0387000000000004
 20
6.6925999999999997
 30
0.0
 11
12.0357858384412815
 21
6.5926424707067559
 31
0.0
  0
LINE
  5
160C3
  8
Piano Terra_RITORNO
  6
CONTINUOUS
 62
     5
 10
15.9608000000000008
 20
7.1981000000000002
 30
0.0
 11
15.9608116677944754
 21
7.2980999993193132
 31
0.0
  0
LINE
  5
160C3
  8
Piano Terra_RITORNO
  6
CONTINUOUS
 62
     5
 10
14.8164999999999996
 20
5.5141000000000000
 30
0.0
 11
14.8940130029503148
 21
5.4509198261032434
 31
0.0
  0
LINE
  5
160C3
  8
Piano Terra_RITORNO
  6
CONTINUOUS
 62
     5
 10
11.0463000000000005
 20
8.8066999999999993
 30
0.0
 11
11.1462943056581025
 21
8.8056328374284743
 31
0.0
  0
LINE
  5
160C3
  8
Piano Terra_RITORNO
  6
CONTINUOUS
 62
     5
 10
9.9765999999999995
 20
6.5311000000000004
 30
0.0
 11
9.8766034346877625
 21
6.5302711901572597
 31
0.0
  0
LINE
  5
160C3
  8
Piano Terra_RITORNO
  6
CONTINUOUS
 62
     5
 10
5.8575999999999997
 20
6.6440999999999999
 30
0.0
 11
5.7770618186464056
 21
6.5848243612918802
 31
0.0
  0
LINE
  5
160C3
  8
Piano Terra_RITORNO
  6
CONTINUOUS
 62
     5
 10
2.3233999999999999
 20
6.5904999999999996
 30
0.0
 11
2.3233999999999999
 21
6.4904999999999999
 31
0.0
  0
LINE
  5
160C3
  8
Piano Terra_RITORNO
  6
CONTINUOUS
 62
     5
 10
0.4550000000000000
 20
2.0415000000000001
 30
0.0
 11
0.4556022691369335
 21
1.9415018136570135
 31
0.0
  0
LINE
  5
160C3
  8
Piano Terra_RITORNO
  6
CONTINUOUS
 62
     5
 10
10.6621000000000006
 20
0.4827000000000000
 30
0.0
 11
10.7150978927860088
 21
0.5675010811266150
 31
0.0
  0
LINE
  5
160C3
  8
Piano Terra_RITORNO
  6
CONTINUOUS
 62
     5
 10
14.7158999999999995
 20
1.5430999999999999
 30
0.0
 11
14.7162401988211702
 21
1.6430994213221359
 31
0.0
  0
LINE
  5
160C3
  8
Piano Terra_RITORNO
  6
ACAD_ISO02W100
 62
     5
 10
7.8071999999999999
 20
7.3694999999999995
 30
0.0
 11
10.0897106781186547
 21
7.3694999999999995
 31
0.0
  0
LINE
  5
160C3
  8
Piano Terra_RITORNO
  6
ACAD_ISO02W100
 62
     5
 10
10.0897106781186547
 20
7.3694999999999995
 30
0.0
 11
10.3032106781186545
 21
7.1267106781186547
 31
0.0
  0
LINE
  5
160C3
  8
Piano Terra_RITORNO
  6
ACAD_ISO02W100
 62
     5
 10
10.3032106781186545
 20
7.1267106781186547
 30
0.0
 11
10.2824999999999989
 21
4.4168106781186545
 31
0.0
  0
LINE
  5
160C3
  8
Piano Terra_RITORNO
  6
ACAD_ISO02W100
 62
     5
 10
10.2824999999999989
 20
4.4168106781186545
 30
0.0
 11
10.4243240629371012
 21
4.2456972933002080
 31
0.0
  0
LINE
  5
160C3
  8
Piano Terra_RITORNO
  6
ACAD_ISO02W100
 62
     5
 10
10.4243240629371012
 20
4.2456972933002080
 30
0.0
 11
11.3841999997394012
 21
4.2266001503041659
 31
0.0
  0
LINE
  5
160C3
  8
Piano Terra_RITORNO
  6
ACAD_ISO02W100
 62
     5
 10
11.3958763275902637
 20
4.8263543703344265
 30
0.0
 11
11.3958763275902637
 21
4.8263543703344265
 31
0.0
  0
ARC
  5
7E
  8
Piano Terra_RITORNO
  6
ACAD_ISO02W100
 62
     5
 10
11.3958965792675340
 20
4.8271103972187204
 30
0.0
 40
0.0007562980762953
 50
268.4655860139408790
 51
439.0390608432153950
  0
LINE
  5
160C3
  8
Piano Terra_RITORNO
  6
ACAD_ISO02W100
 62
     5
 10
11.3960403815842906
 20
4.8278528981775777
 30
0.0
 11
11.3890249266631258
 21
4.8292116017034692
 31
0.0
  0
ARC
  5
7E
  8
Piano Terra_RITORNO
  6
ACAD_ISO02W100
 62
     5
 10
11.3928130421889389
 20
4.8487709486846846
 30
0.0
 40
0.0199227978348548
 50
180.3969675607559110
 51
259.0390608430875550
  0
LINE
  5
160C3
  8
Piano Terra_RITORNO
  6
ACAD_ISO02W100
 62
     5
 10
11.3728907225252325
 20
4.8486329168566122
 30
0.0
 11
11.3625025183819020
 21
6.3479764129593956
 31
0.0
  0
ARC
  5
7E
  8
Piano Terra_RITORNO
  6
ACAD_ISO02W100
 62
     5
 10
11.5624977181409765
 20
6.3493620800651547
 30
0.0
 40
0.2000000000000000
 50
140.5301610419430460
 51
180.3969675607554850
  0
LINE
  5
160C3
  8
Piano Terra_RITORNO
  6
ACAD_ISO02W100
 62
     5
 10
11.4081058553267596
 20
6.4764964683979560
 30
0.0
 11
11.4397416585498526
 21
6.5149149533986615
 31
0.0
  0
ARC
  5
7E
  8
Piano Terra_RITORNO
  6
ACAD_ISO02W100
 62
     5
 10
11.5941335213640713
 20
6.3877805650658592
 30
0.0
 40
0.2000000000000000
 50
90.6291478865871340
 51
140.5301610419432170
  0
LINE
  5
160C3
  8
Piano Terra_RITORNO
  6
ACAD_ISO02W100
 62
     5
 10
11.5919374250767948
 20
6.5877685076051460
 30
0.0
 11
12.0357858384412815
 21
6.5926424707067559
 31
0.0
  0
LINE
  5
160C3
  8
Piano Terra_RITORNO
  6
ACAD_ISO02W100
 62
     5
 10
11.3842587659173553
 20
4.4263955052225654
 30
0.0
 11
11.2962294855018488
 21
4.4224116687603017
 31
0.0
  0
ARC
  5
7E
  8
Piano Terra_RITORNO
  6
ACAD_ISO02W100
 62
     5
 10
11.2875029906293403
 20
4.6152376221981584
 30
0.0
 40
0.1930233147367911
 50
221.3133101254754820
 51
272.5911989228025620
  0
LINE
  5
160C3
  8
Piano Terra_RITORNO
  6
ACAD_ISO02W100
 62
     5
 10
11.1425210959759404
 20
4.4878082289849415
 30
0.0
 11
11.0286426280743335
 21
4.6173726538031312
 31
0.0
  0
ARC
  5
7E
  8
Piano Terra_RITORNO
  6
ACAD_ISO02W100
 62
     5
 10
11.1788647863157866
 20
4.7494078883932955
 30
0.0
 40
0.2000000000000000
 50
179.4118835165413660
 51
221.3133101254753400
  0
LINE
  5
160C3
  8
Piano Terra_RITORNO
  6
ACAD_ISO02W100
 62
     5
 10
10.9788753223609970
 20
4.7514607661481687
 30
0.0
 11
10.9979346302054513
 21
6.6082010177841779
 31
0.0
  0
ARC
  5
7E
  8
Piano Terra_RITORNO
  6
ACAD_ISO02W100
 62
     5
 10
11.1979240941602392
 20
6.6061481400293047
 30
0.0
 40
0.2000000000000000
 50
133.6971591678031640
 51
179.4118835165413660
  0
LINE
  5
160C3
  8
Piano Terra_RITORNO
  6
ACAD_ISO02W100
 62
     5
 10
11.0597547813280883
 20
6.7507484200825987
 30
0.0
 11
11.5963968120992984
 21
7.2635237798618491
 31
0.0
  0
ARC
  5
7E
  8
Piano Terra_RITORNO
  6
ACAD_ISO02W100
 62
     5
 10
11.7345661249314492
 20
7.1189234998085551
 30
0.0
 40
0.2000000000000000
 50
449.7176623667769490
 51
133.6971591678031640
  0
LINE
  5
160C3
  8
Piano Terra_RITORNO
  6
ACAD_ISO02W100
 62
     5
 10
11.7355516652032907
 20
7.3189210715697453
 30
0.0
 11
15.9608116677944754
 21
7.2980999993193132
 31
0.0
  0
LINE
  5
160C3
  8
Piano Terra_RITORNO
  6
ACAD_ISO02W100
 62
     5
 10
11.5716224117727844
 20
4.4265804869746512
 30
0.0
 11
13.9885683737816802
 21
4.4228307982039601
 31
0.0
  0
ARC
  5
7E
  8
Piano Terra_RITORNO
  6
ACAD_ISO02W100
 62
     5
 10
13.9888786566193684
 20
4.6228305575152167
 30
0.0
 40
0.2000000000000000
 50
269.9111104790677590
 51
321.8374555636027030
  0
LINE
  5
160C3
  8
Piano Terra_RITORNO
  6
ACAD_ISO02W100
 62
     5
 10
14.1461308552117266
 20
4.4992516513949994
 30
0.0
 11
14.8940130029503148
 21
5.4509198261032434
 31
0.0
  0
LINE
  5
160C3
  8
Piano Terra_RITORNO
  6
ACAD_ISO02W100
 62
     5
 10
11.3835965106880703
 20
4.4265999999999997
 30
0.0
 11
11.3363139239152506
 21
4.4263137389394869
 31
0.0
  0
ARC
  5
7E
  8
Piano Terra_RITORNO
  6
ACAD_ISO02W100
 62
     5
 10
11.3355232507511730
 20
4.5569115660502364
 30
0.0
 40
0.1306002205591616
 50
230.5415782140714210
 51
270.3468792918432650
  0
LINE
  5
160C3
  8
Piano Terra_RITORNO
  6
ACAD_ISO02W100
 62
     5
 10
11.2525244463510745
 20
4.4560769684249371
 30
0.0
 11
11.1954782975702507
 21
4.5030326984614959
 31
0.0
  0
ARC
  5
7E
  8
Piano Terra_RITORNO
  6
ACAD_ISO02W100
 62
     5
 10
11.3225819181380274
 20
4.6574498919295895
 30
0.0
 40
0.2000000000000000
 50
179.6724367721662080
 51
230.5415782140713650
  0
LINE
  5
160C3
  8
Piano Terra_RITORNO
  6
ACAD_ISO02W100
 62
     5
 10
11.1225851866030094
 20
4.6585932970677479
 30
0.0
 11
11.1462943056581025
 21
8.8056328374284743
 31
0.0
  0
LINE
  5
160C3
  8
Piano Terra_RITORNO
  6
ACAD_ISO02W100
 62
     5
 10
11.3844165312189922
 20
3.8266000000000000
 30
0.0
 11
10.3388897027333808
 21
3.8243363190240829
 31
0.0
  0
ARC
  5
7E
  8
Piano Terra_RITORNO
  6
ACAD_ISO02W100
 62
     5
 10
10.3384566816748045
 20
4.0243358502554409
 30
0.0
 40
0.2000000000000000
 50
222.8475836216957480
 51
270.1240514924026570
  0
LINE
  5
160C3
  8
Piano Terra_RITORNO
  6
ACAD_ISO02W100
 62
     5
 10
10.1918236133274984
 20
3.8883257650887360
 30
0.0
 11
9.9286200678889163
 21
4.1720866598800637
 31
0.0
  0
ARC
  5
7E
  8
Piano Terra_RITORNO
  6
ACAD_ISO02W100
 62
     5
 10
10.0752531362362223
 20
4.3080967450467682
 30
0.0
 40
0.2000000000000000
 50
179.9651834226238520
 51
222.8475836216956620
  0
LINE
  5
160C3
  8
Piano Terra_RITORNO
  6
ACAD_ISO02W100
 62
     5
 10
9.8752531731617648
 20
4.3082182778211866
 30
0.0
 11
9.8766034346877625
 21
6.5302711901572597
 31
0.0
  0
LINE
  5
160C3
  8
Piano Terra_RITORNO
  6
ACAD_ISO02W100
 62
     5
 10
11.3843866829354337
 20
3.6265999999999998
 30
0.0
 11
8.0312335946942284
 21
3.6203403935764995
 31
0.0
  0
ARC
  5
7E
  8
Piano Terra_RITORNO
  6
ACAD_ISO02W100
 62
     5
 10
8.0308602389092805
 20
3.8203400450898406
 30
0.0
 40
0.2000000000000000
 50
215.9748711008130610
 51
270.1069586157942690
  0
LINE
  5
160C3
  8
Piano Terra_RITORNO
  6
ACAD_ISO02W100
 62
     5
 10
7.8690052971881039
 20
3.7028539699982170
 30
0.0
 11
5.7770618186464056
 21
6.5848243612918802
 31
0.0
  0
LINE
  5
160C3
  8
Piano Terra_RITORNO
  6
ACAD_ISO02W100
 62
     5
 10
11.3841122518710094
 20
3.4266000000000001
 30
0.0
 11
7.7499703499242747
 21
3.4297889303874536
 31
0.0
  0
ARC
  5
7E
  8
Piano Terra_RITORNO
  6
ACAD_ISO02W100
 62
     5
 10
7.7501458482534966
 20
3.6297888533882801
 30
0.0
 40
0.2000000000000000
 50
224.7229933705522460
 51
269.9497234256677980
  0
LINE
  5
160C3
  8
Piano Terra_RITORNO
  6
ACAD_ISO02W100
 62
     5
 10
7.6080424207935584
 20
3.4890528739653255
 30
0.0
 11
4.7139509656615539
 21
6.4112644991874559
 31
0.0
  0
ARC
  5
7E
  8
Piano Terra_RITORNO
  6
ACAD_ISO02W100
 62
     5
 10
4.5718475382016157
 20
6.2705285197645022
 30
0.0
 40
0.2000000000000000
 50
44.7229933705520608
 51
89.4912935358475323
  0
LINE
  5
160C3
  8
Piano Terra_RITORNO
  6
ACAD_ISO02W100
 62
     5
 10
4.5736232354169495
 20
6.4705206368576489
 30
0.0
 11
2.3233999999999999
 21
6.4904999999999999
 31
0.0
  0
LINE
  5
160C3
  8
Piano Terra_RITORNO
  6
ACAD_ISO02W100
 62
     5
 10
11.3842091735754778
 20
3.2265999999999999
 30
0.0
 11
2.8157426251768452
 21
3.2258139656674509
 31
0.0
  0
ARC
  5
7E
  8
Piano Terra_RITORNO
  6
ACAD_ISO02W100
 62
     5
 10
2.8157609723180705
 20
3.0258139665089949
 30
0.0
 40
0.2000000000000000
 50
90.0052560687990990
 51
-225.6385755453282230
  0
LINE
  5
160C3
  8
Piano Terra_RITORNO
  6
ACAD_ISO02W100
 62
     5
 10
2.6759245425671154
 20
3.1688026825480784
 30
0.0
 11
1.4654128249708893
 21
1.9849775427091907
 31
0.0
  0
ARC
  5
7E
  8
Piano Terra_RITORNO
  6
ACAD_ISO02W100
 62
     5
 10
1.3255763952199340
 20
2.1279662587482759
 30
0.0
 40
0.2000000000000000
 50
269.1070319299398080
 51
314.3614244546714640
  0
LINE
  5
160C3
  8
Piano Terra_RITORNO
  6
ACAD_ISO02W100
 62
     5
 10
1.3224594748190244
 20
1.9279905482051842
 30
0.0
 11
0.4556022691369335
 21
1.9415018136570135
 31
0.0
  0
LINE
  5
160C3
  8
Piano Terra_RITORNO
  6
ACAD_ISO02W100
 62
     5
 10
11.3846136381969583
 20
3.0265999999999997
 30
0.0
 11
10.3456060422441869
 21
3.0223030287041515
 31
0.0
  0
ARC
  5
7E
  8
Piano Terra_RITORNO
  6
ACAD_ISO02W100
 62
     5
 10
10.3464331650806756
 20
2.8223047390419311
 30
0.0
 40
0.2000000000000000
 50
90.2369539138008889
 51
-228.5565855285078100
  0
LINE
  5
160C3
  8
Piano Terra_RITORNO
  6
ACAD_ISO02W100
 62
     5
 10
10.2140571543432621
 20
2.9722266913412794
 30
0.0
 11
10.0875794952747828
 21
2.8605511982056111
 31
0.0
  0
ARC
  5
7E
  8
Piano Terra_RITORNO
  6
ACAD_ISO02W100
 62
     5
 10
10.2199555060121963
 20
2.7106292459062629
 30
0.0
 40
0.2000000000000000
 50
131.4434144714921900
 51
179.3249483684221560
  0
LINE
  5
160C3
  8
Piano Terra_RITORNO
  6
ACAD_ISO02W100
 62
     5
 10
10.0199693871061566
 20
2.7129855661093112
 30
0.0
 11
10.0015796160469872
 21
1.1522049315693781
 31
0.0
  0
ARC
  5
7E
  8
Piano Terra_RITORNO
  6
ACAD_ISO02W100
 62
     5
 10
10.2015657349530269
 20
1.1498486113663293
 30
0.0
 40
0.2000000000000000
 50
179.3249483684220140
 51
236.3339081866289750
  0
LINE
  5
160C3
  8
Piano Terra_RITORNO
  6
ACAD_ISO02W100
 62
     5
 10
10.0906953405610835
 20
0.9833921436416578
 30
0.0
 11
10.7150978927860088
 21
0.5675010811266150
 31
0.0
  0
LINE
  5
160C3
  8
Piano Terra_RITORNO
  6
ACAD_ISO02W100
 62
     5
 10
11.3837841479949926
 20
2.8266000000000000
 30
0.0
 11
10.3968548168655524
 21
2.8307050065725865
 31
0.0
  0
ARC
  5
7E
  8
Piano Terra_RITORNO
  6
ACAD_ISO02W100
 62
     5
 10
10.3960229495910710
 20
2.6307067365879746
 30
0.0
 40
0.2000000000000000
 50
89.7616868931432066
 51
-230.5047897314818500
  0
LINE
  5
160C3
  8
Piano Terra_RITORNO
  6
ACAD_ISO02W100
 62
     5
 10
10.2688202070159793
 20
2.7850422875196212
 30
0.0
 11
10.2265173082524754
 21
2.7501764078884450
 31
0.0
  0
ARC
  5
7E
  8
Piano Terra_RITORNO
  6
ACAD_ISO02W100
 62
     5
 10
10.3537200508275671
 20
2.5958408569567983
 30
0.0
 40
0.2000000000000000
 50
129.4952102685181500
 51
177.9850463632703280
  0
LINE
  5
160C3
  8
Piano Terra_RITORNO
  6
ACAD_ISO02W100
 62
     5
 10
10.1538437139164639
 20
2.6028729223005662
 30
0.0
 11
10.1392115782472843
 21
2.1869755243427886
 31
0.0
  0
ARC
  5
7E
  8
Piano Terra_RITORNO
  6
ACAD_ISO02W100
 62
     5
 10
10.3390879151583874
 20
2.1799434589990212
 30
0.0
 40
0.2000000000000000
 50
177.9850463632704420
 51
222.9683740026272860
  0
LINE
  5
160C3
  8
Piano Terra_RITORNO
  6
ACAD_ISO02W100
 62
     5
 10
10.1927419075326107
 20
2.0436245459605287
 30
0.0
 11
10.4747297213168213
 21
1.7408947938916595
 31
0.0
  0
ARC
  5
7E
  8
Piano Terra_RITORNO
  6
ACAD_ISO02W100
 62
     5
 10
10.6210757289425981
 20
1.8772137069301518
 30
0.0
 40
0.2000000000000000
 50
222.9683740026272290
 51
269.5228123364037740
  0
LINE
  5
160C3
  8
Piano Terra_RITORNO
  6
ACAD_ISO02W100
 62
     5
 10
10.6194100490231502
 20
1.6772206432744190
 30
0.0
 11
14.7162401988211702
 21
1.6430994213221359
 31
0.0
  0
LINE
  5
160C3
  8
Piano Terra_RITORNO
  6
ACAD_ISO02W100
 62
     5
 10
7.8071999999999999
 20
7.3694999999999995
 30
0.0
 11
10.0897106781186547
 21
7.3694999999999995
 31
0.0
  0
LINE
  5
160C3
  8
Piano Terra_RITORNO
  6
ACAD_ISO02W100
 62
     5
 10
10.0897106781186547
 20
7.3694999999999995
 30
0.0
 11
10.3032106781186545
 21
7.1267106781186547
 31
0.0
  0
LINE
  5
160C3
  8
Piano Terra_RITORNO
  6
ACAD_ISO02W100
 62
     5
 10
10.3032106781186545
 20
7.1267106781186547
 30
0.0
 11
10.2824999999999989
 21
4.4168106781186545
 31
0.0
  0
LINE
  5
160C3
  8
Piano Terra_RITORNO
  6
ACAD_ISO02W100
 62
     5
 10
10.2824999999999989
 20
4.4168106781186545
 30
0.0
 11
10.4243240629371012
 21
4.2456972933002080
 31
0.0
  0
LINE
  5
160C3
  8
Piano Terra_RITORNO
  6
ACAD_ISO02W100
 62
     5
 10
10.4243240629371012
 20
4.2456972933002080
 30
0.0
 11
11.3841999997394012
 21
4.2266001503041659
 31
0.0
  0
LINE
  5
160C3
  8
Piano Terra_RITORNO
  6
ACAD_ISO02W100
 62
     5
 10
11.3958763275902637
 20
4.8263543703344265
 30
0.0
 11
11.3958763275902637
 21
4.8263543703344265
 31
0.0
  0
ARC
  5
7E
  8
Piano Terra_RITORNO
  6
ACAD_ISO02W100
 62
     5
 10
11.3958965792675340
 20
4.8271103972187204
 30
0.0
 40
0.0007562980762953
 50
268.4655860139408790
 51
439.0390608432153950
  0
LINE
  5
160C3
  8
Piano Terra_RITORNO
  6
ACAD_ISO02W100
 62
     5
 10
11.3960403815842906
 20
4.8278528981775777
 30
0.0
 11
11.3890249266631258
 21
4.8292116017034692
 31
0.0
  0
ARC
  5
7E
  8
Piano Terra_RITORNO
  6
ACAD_ISO02W100
 62
     5
 10
11.3928130421889389
 20
4.8487709486846846
 30
0.0
 40
0.0199227978348548
 50
180.3969675607559110
 51
259.0390608430875550
  0
LINE
  5
160C3
  8
Piano Terra_RITORNO
  6
ACAD_ISO02W100
 62
     5
 10
11.3728907225252325
 20
4.8486329168566122
 30
0.0
 11
11.3625025183819020
 21
6.3479764129593956
 31
0.0
  0
ARC
  5
7E
  8
Piano Terra_RITORNO
  6
ACAD_ISO02W100
 62
     5
 10
11.5624977181409765
 20
6.3493620800651547
 30
0.0
 40
0.2000000000000000
 50
140.5301610419430460
 51
180.3969675607554850
  0
LINE
  5
160C3
  8
Piano Terra_RITORNO
  6
ACAD_ISO02W100
 62
     5
 10
11.4081058553267596
 20
6.4764964683979560
 30
0.0
 11
11.4397416585498526
 21
6.5149149533986615
 31
0.0
  0
ARC
  5
7E
  8
Piano Terra_RITORNO
  6
ACAD_ISO02W100
 62
     5
 10
11.5941335213640713
 20
6.3877805650658592
 30
0.0
 40
0.2000000000000000
 50
90.6291478865871340
 51
140.5301610419432170
  0
LINE
  5
160C3
  8
Piano Terra_RITORNO
  6
ACAD_ISO02W100
 62
     5
 10
11.5919374250767948
 20
6.5877685076051460
 30
0.0
 11
12.0357858384412815
 21
6.5926424707067559
 31
0.0
  0
LINE
  5
160C3
  8
Piano Terra_RITORNO
  6
ACAD_ISO02W100
 62
     5
 10
11.3842587659173553
 20
4.4263955052225654
 30
0.0
 11
11.2962294855018488
 21
4.4224116687603017
 31
0.0
  0
ARC
  5
7E
  8
Piano Terra_RITORNO
  6
ACAD_ISO02W100
 62
     5
 10
11.2875029906293403
 20
4.6152376221981584
 30
0.0
 40
0.1930233147367911
 50
221.3133101254754820
 51
272.5911989228025620
  0
LINE
  5
160C3
  8
Piano Terra_RITORNO
  6
ACAD_ISO02W100
 62
     5
 10
11.1425210959759404
 20
4.4878082289849415
 30
0.0
 11
11.0286426280743335
 21
4.6173726538031312
 31
0.0
  0
ARC
  5
7E
  8
Piano Terra_RITORNO
  6
ACAD_ISO02W100
 62
     5
 10
11.1788647863157866
 20
4.7494078883932955
 30
0.0
 40
0.2000000000000000
 50
179.4118835165413660
 51
221.3133101254753400
  0
LINE
  5
160C3
  8
Piano Terra_RITORNO
  6
ACAD_ISO02W100
 62
     5
 10
10.9788753223609970
 20
4.7514607661481687
 30
0.0
 11
10.9979346302054513
 21
6.6082010177841779
 31
0.0
  0
ARC
  5
7E
  8
Piano Terra_RITORNO
  6
ACAD_ISO02W100
 62
     5
 10
11.1979240941602392
 20
6.6061481400293047
 30
0.0
 40
0.2000000000000000
 50
133.6971591678031640
 51
179.4118835165413660
  0
LINE
  5
160C3
  8
Piano Terra_RITORNO
  6
ACAD_ISO02W100
 62
     5
 10
11.0597547813280883
 20
6.7507484200825987
 30
0.0
 11
11.5963968120992984
 21
7.2635237798618491
 31
0.0
  0
ARC
  5
7E
  8
Piano Terra_RITORNO
  6
ACAD_ISO02W100
 62
     5
 10
11.7345661249314492
 20
7.1189234998085551
 30
0.0
 40
0.2000000000000000
 50
449.7176623667769490
 51
133.6971591678031640
  0
LINE
  5
160C3
  8
Piano Terra_RITORNO
  6
ACAD_ISO02W100
 62
     5
 10
11.7355516652032907
 20
7.3189210715697453
 30
0.0
 11
15.9608116677944754
 21
7.2980999993193132
 31
0.0
  0
LINE
  5
160C3
  8
Piano Terra_RITORNO
  6
ACAD_ISO02W100
 62
     5
 10
11.5716224117727844
 20
4.4265804869746512
 30
0.0
 11
13.9885683737816802
 21
4.4228307982039601
 31
0.0
  0
ARC
  5
7E
  8
Piano Terra_RITORNO
  6
ACAD_ISO02W100
 62
     5
 10
13.9888786566193684
 20
4.6228305575152167
 30
0.0
 40
0.2000000000000000
 50
269.9111104790677590
 51
321.8374555636027030
  0
LINE
  5
160C3
  8
Piano Terra_RITORNO
  6
ACAD_ISO02W100
 62
     5
 10
14.1461308552117266
 20
4.4992516513949994
 30
0.0
 11
14.8940130029503148
 21
5.4509198261032434
 31
0.0
  0
LINE
  5
160C3
  8
Piano Terra_RITORNO
  6
ACAD_ISO02W100
 62
     5
 10
11.3835965106880703
 20
4.4265999999999997
 30
0.0
 11
11.3363139239152506
 21
4.4263137389394869
 31
0.0
  0
ARC
  5
7E
  8
Piano Terra_RITORNO
  6
ACAD_ISO02W100
 62
     5
 10
11.3355232507511730
 20
4.5569115660502364
 30
0.0
 40
0.1306002205591616
 50
230.5415782140714210
 51
270.3468792918432650
  0
LINE
  5
160C3
  8
Piano Terra_RITORNO
  6
ACAD_ISO02W100
 62
     5
 10
11.2525244463510745
 20
4.4560769684249371
 30
0.0
 11
11.1954782975702507
 21
4.5030326984614959
 31
0.0
  0
ARC
  5
7E
  8
Piano Terra_RITORNO
  6
ACAD_ISO02W100
 62
     5
 10
11.3225819181380274
 20
4.6574498919295895
 30
0.0
 40
0.2000000000000000
 50
179.6724367721662080
 51
230.5415782140713650
  0
LINE
  5
160C3
  8
Piano Terra_RITORNO
  6
ACAD_ISO02W100
 62
     5
 10
11.1225851866030094
 20
4.6585932970677479
 30
0.0
 11
11.1462943056581025
 21
8.8056328374284743
 31
0.0
  0
LINE
  5
160C3
  8
Piano Terra_RITORNO
  6
ACAD_ISO02W100
 62
     5
 10
11.3844165312189922
 20
3.8266000000000000
 30
0.0
 11
10.3388897027333808
 21
3.8243363190240829
 31
0.0
  0
ARC
  5
7E
  8
Piano Terra_RITORNO
  6
ACAD_ISO02W100
 62
     5
 10
10.3384566816748045
 20
4.0243358502554409
 30
0.0
 40
0.2000000000000000
 50
222.8475836216957480
 51
270.1240514924026570
  0
LINE
  5
160C3
  8
Piano Terra_RITORNO
  6
ACAD_ISO02W100
 62
     5
 10
10.1918236133274984
 20
3.8883257650887360
 30
0.0
 11
9.9286200678889163
 21
4.1720866598800637
 31
0.0
  0
ARC
  5
7E
  8
Piano Terra_RITORNO
  6
ACAD_ISO02W100
 62
     5
 10
10.0752531362362223
 20
4.3080967450467682
 30
0.0
 40
0.2000000000000000
 50
179.9651834226238520
 51
222.8475836216956620
  0
LINE
  5
160C3
  8
Piano Terra_RITORNO
  6
ACAD_ISO02W100
 62
     5
 10
9.8752531731617648
 20
4.3082182778211866
 30
0.0
 11
9.8766034346877625
 21
6.5302711901572597
 31
0.0
  0
LINE
  5
160C3
  8
Piano Terra_RITORNO
  6
ACAD_ISO02W100
 62
     5
 10
11.3843866829354337
 20
3.6265999999999998
 30
0.0
 11
8.0312335946942284
 21
3.6203403935764995
 31
0.0
  0
ARC
  5
7E
  8
Piano Terra_RITORNO
  6
ACAD_ISO02W100
 62
     5
 10
8.0308602389092805
 20
3.8203400450898406
 30
0.0
 40
0.2000000000000000
 50
215.9748711008130610
 51
270.1069586157942690
  0
LINE
  5
160C3
  8
Piano Terra_RITORNO
  6
ACAD_ISO02W100
 62
     5
 10
7.8690052971881039
 20
3.7028539699982170
 30
0.0
 11
5.7770618186464056
 21
6.5848243612918802
 31
0.0
  0
LINE
  5
160C3
  8
Piano Terra_RITORNO
  6
ACAD_ISO02W100
 62
     5
 10
11.3841122518710094
 20
3.4266000000000001
 30
0.0
 11
7.7499703499242747
 21
3.4297889303874536
 31
0.0
  0
ARC
  5
7E
  8
Piano Terra_RITORNO
  6
ACAD_ISO02W100
 62
     5
 10
7.7501458482534966
 20
3.6297888533882801
 30
0.0
 40
0.2000000000000000
 50
224.7229933705522460
 51
269.9497234256677980
  0
LINE
  5
160C3
  8
Piano Terra_RITORNO
  6
ACAD_ISO02W100
 62
     5
 10
7.6080424207935584
 20
3.4890528739653255
 30
0.0
 11
4.7139509656615539
 21
6.4112644991874559
 31
0.0
  0
ARC
  5
7E
  8
Piano Terra_RITORNO
  6
ACAD_ISO02W100
 62
     5
 10
4.5718475382016157
 20
6.2705285197645022
 30
0.0
 40
0.2000000000000000
 50
44.7229933705520608
 51
89.4912935358475323
  0
LINE
  5
160C3
  8
Piano Terra_RITORNO
  6
ACAD_ISO02W100
 62
     5
 10
4.5736232354169495
 20
6.4705206368576489
 30
0.0
 11
2.3233999999999999
 21
6.4904999999999999
 31
0.0
  0
LINE
  5
160C3
  8
Piano Terra_RITORNO
  6
ACAD_ISO02W100
 62
     5
 10
11.3842091735754778
 20
3.2265999999999999
 30
0.0
 11
2.8157426251768452
 21
3.2258139656674509
 31
0.0
  0
ARC
  5
7E
  8
Piano Terra_RITORNO
  6
ACAD_ISO02W100
 62
     5
 10
2.8157609723180705
 20
3.0258139665089949
 30
0.0
 40
0.2000000000000000
 50
90.0052560687990990
 51
-225.6385755453282230
  0
LINE
  5
160C3
  8
Piano Terra_RITORNO
  6
ACAD_ISO02W100
 62
     5
 10
2.6759245425671154
 20
3.1688026825480784
 30
0.0
 11
1.4654128249708893
 21
1.9849775427091907
 31
0.0
  0
ARC
  5
7E
  8
Piano Terra_RITORNO
  6
ACAD_ISO02W100
 62
     5
 10
1.3255763952199340
 20
2.1279662587482759
 30
0.0
 40
0.2000000000000000
 50
269.1070319299398080
 51
314.3614244546714640
  0
LINE
  5
160C3
  8
Piano Terra_RITORNO
  6
ACAD_ISO02W100
 62
     5
 10
1.3224594748190244
 20
1.9279905482051842
 30
0.0
 11
0.4556022691369335
 21
1.9415018136570135
 31
0.0
  0
LINE
  5
160C3
  8
Piano Terra_RITORNO
  6
ACAD_ISO02W100
 62
     5
 10
11.3846136381969583
 20
3.0265999999999997
 30
0.0
 11
10.3456060422441869
 21
3.0223030287041515
 31
0.0
  0
ARC
  5
7E
  8
Piano Terra_RITORNO
  6
ACAD_ISO02W100
 62
     5
 10
10.3464331650806756
 20
2.8223047390419311
 30
0.0
 40
0.2000000000000000
 50
90.2369539138008889
 51
-228.5565855285078100
  0
LINE
  5
160C3
  8
Piano Terra_RITORNO
  6
ACAD_ISO02W100
 62
     5
 10
10.2140571543432621
 20
2.9722266913412794
 30
0.0
 11
10.0875794952747828
 21
2.8605511982056111
 31
0.0
  0
ARC
  5
7E
  8
Piano Terra_RITORNO
  6
ACAD_ISO02W100
 62
     5
 10
10.2199555060121963
 20
2.7106292459062629
 30
0.0
 40
0.2000000000000000
 50
131.4434144714921900
 51
179.3249483684221560
  0
LINE
  5
160C3
  8
Piano Terra_RITORNO
  6
ACAD_ISO02W100
 62
     5
 10
10.0199693871061566
 20
2.7129855661093112
 30
0.0
 11
10.0015796160469872
 21
1.1522049315693781
 31
0.0
  0
ARC
  5
7E
  8
Piano Terra_RITORNO
  6
ACAD_ISO02W100
 62
     5
 10
10.2015657349530269
 20
1.1498486113663293
 30
0.0
 40
0.2000000000000000
 50
179.3249483684220140
 51
236.3339081866289750
  0
LINE
  5
160C3
  8
Piano Terra_RITORNO
  6
ACAD_ISO02W100
 62
     5
 10
10.0906953405610835
 20
0.9833921436416578
 30
0.0
 11
10.7150978927860088
 21
0.5675010811266150
 31
0.0
  0
LINE
  5
160C3
  8
Piano Terra_RITORNO
  6
ACAD_ISO02W100
 62
     5
 10
11.3837841479949926
 20
2.8266000000000000
 30
0.0
 11
10.3968548168655524
 21
2.8307050065725865
 31
0.0
  0
ARC
  5
7E
  8
Piano Terra_RITORNO
  6
ACAD_ISO02W100
 62
     5
 10
10.3960229495910710
 20
2.6307067365879746
 30
0.0
 40
0.2000000000000000
 50
89.7616868931432066
 51
-230.5047897314818500
  0
LINE
  5
160C3
  8
Piano Terra_RITORNO
  6
ACAD_ISO02W100
 62
     5
 10
10.2688202070159793
 20
2.7850422875196212
 30
0.0
 11
10.2265173082524754
 21
2.7501764078884450
 31
0.0
  0
ARC
  5
7E
  8
Piano Terra_RITORNO
  6
ACAD_ISO02W100
 62
     5
 10
10.3537200508275671
 20
2.5958408569567983
 30
0.0
 40
0.2000000000000000
 50
129.4952102685181500
 51
177.9850463632703280
  0
LINE
  5
160C3
  8
Piano Terra_RITORNO
  6
ACAD_ISO02W100
 62
     5
 10
10.1538437139164639
 20
2.6028729223005662
 30
0.0
 11
10.1392115782472843
 21
2.1869755243427886
 31
0.0
  0
ARC
  5
7E
  8
Piano Terra_RITORNO
  6
ACAD_ISO02W100
 62
     5
 10
10.3390879151583874
 20
2.1799434589990212
 30
0.0
 40
0.2000000000000000
 50
177.9850463632704420
 51
222.9683740026272860
  0
LINE
  5
160C3
  8
Piano Terra_RITORNO
  6
ACAD_ISO02W100
 62
     5
 10
10.1927419075326107
 20
2.0436245459605287
 30
0.0
 11
10.4747297213168213
 21
1.7408947938916595
 31
0.0
  0
ARC
  5
7E
  8
Piano Terra_RITORNO
  6
ACAD_ISO02W100
 62
     5
 10
10.6210757289425981
 20
1.8772137069301518
 30
0.0
 40
0.2000000000000000
 50
222.9683740026272290
 51
269.5228123364037740
  0
LINE
  5
160C3
  8
Piano Terra_RITORNO
  6
ACAD_ISO02W100
 62
     5
 10
10.6194100490231502
 20
1.6772206432744190
 30