  0
SECTION
  2
HEADER
  9
$ACADVER
  1
AC1009
  9
$INSBASE
 10
0.0
 20
0.0
 30
0.0
  9
$EXTMIN
 10
-1.815022739026203
 20
-1.298193047673688
 30
0.0
  9
$EXTMAX
 10
0.0
 20
1.846278665555769
 30
0.0
  9
$LIMMIN
 10
0.0
 20
0.0
  9
$LIMMAX
 10
420.0
 20
297.0
  9
$ORTHOMODE
 70
     1
  9
$REGENMODE
 70
     1
  9
$FILLMODE
 70
     1
  9
$QTEXTMODE
 70
     0
  9
$MIRRTEXT
 70
     1
  9
$DRAGMODE
 70
     2
  9
$LTSCALE
 40
1.0
  9
$OSMODE
 70
   677
  9
$ATTMODE
 70
     1
  9
$TEXTSIZE
 40
2.5
  9
$TRACEWID
 40
1.0
  9
$TEXTSTYLE
  7
STANDARD
  9
$CLAYER
  8
0
  9
$CELTYPE
  6
BYLAYER
  9
$CECOLOR
 62
   256
  9
$DIMSCALE
 40
1.0
  9
$DIMASZ
 40
2.5
  9
$DIMEXO
 40
0.625
  9
$DIMDLI
 40
3.75
  9
$DIMRND
 40
0.0
  9
$DIMDLE
 40
0.0
  9
$DIMEXE
 40
1.25
  9
$DIMTP
 40
0.0
  9
$DIMTM
 40
0.0
  9
$DIMTXT
 40
2.5
  9
$DIMCEN
 40
2.5
  9
$DIMTSZ
 40
0.0
  9
$DIMTOL
 70
     0
  9
$DIMLIM
 70
     0
  9
$DIMTIH
 70
     0
  9
$DIMTOH
 70
     0
  9
$DIMSE1
 70
     0
  9
$DIMSE2
 70
     0
  9
$DIMTAD
 70
     1
  9
$DIMZIN
 70
     8
  9
$DIMBLK
  1

  9
$DIMASO
 70
     1
  9
$DIMSHO
 70
     1
  9
$DIMPOST
  1

  9
$DIMAPOST
  1

  9
$DIMALT
 70
     0
  9
$DIMALTD
 70
     3
  9
$DIMALTF
 40
0.03937007874016
  9
$DIMLFAC
 40
1.0
  9
$DIMTOFL
 70
     1
  9
$DIMTVP
 40
0.0
  9
$DIMTIX
 70
     0
  9
$DIMSOXD
 70
     0
  9
$DIMSAH
 70
     0
  9
$DIMBLK1
  1

  9
$DIMBLK2
  1

  9
$DIMSTYLE
  2
ISO-25
  9
$DIMCLRD
 70
     0
  9
$DIMCLRE
 70
     0
  9
$DIMCLRT
 70
     0
  9
$DIMTFAC
 40
1.0
  9
$DIMGAP
 40
0.625
  9
$LUNITS
 70
     2
  9
$LUPREC
 70
     4
  9
$SKETCHINC
 40
1.0
  9
$FILLETRAD
 40
0.0
  9
$AUNITS
 70
     0
  9
$AUPREC
 70
     0
  9
$MENU
  1
.
  9
$ELEVATION
 40
0.0
  9
$PELEVATION
 40
0.0
  9
$THICKNESS
 40
0.0
  9
$LIMCHECK
 70
     0
  9
$BLIPMODE
 70
     0
  9
$CHAMFERA
 40
10.0
  9
$CHAMFERB
 40
10.0
  9
$SKPOLY
 70
     0
  9
$TDCREATE
 40
2453266.415125682
  9
$TDUPDATE
 40
2453398.7451204392
  9
$TDINDWG
 40
0.0125307523
  9
$TDUSRTIMER
 40
0.0125195255
  9
$USRTIMER
 70
     1
  9
$ANGBASE
 50
0.0
  9
$ANGDIR
 70
     0
  9
$PDMODE
 70
     0
  9
$PDSIZE
 40
0.0
  9
$PLINEWID
 40
0.0
  9
$COORDS
 70
     2
  9
$SPLFRAME
 70
     0
  9
$SPLINETYPE
 70
     6
  9
$SPLINESEGS
 70
     8
  9
$ATTDIA
 70
     0
  9
$ATTREQ
 70
     1
  9
$HANDLING
 70
 22529
  9
$HANDSEED
  5
2E6B
  9
$SURFTAB1
 70
     6
  9
$SURFTAB2
 70
     6
  9
$SURFTYPE
 70
     6
  9
$SURFU
 70
     6
  9
$SURFV
 70
     6
  9
$UCSNAME
  2

  9
$UCSORG
 10
0.0
 20
0.0
 30
0.0
  9
$UCSXDIR
 10
1.0
 20
0.0
 30
0.0
  9
$UCSYDIR
 10
0.0
 20
1.0
 30
0.0
  9
$PUCSNAME
  2

  9
$PUCSORG
 10
0.0
 20
0.0
 30
0.0
  9
$PUCSXDIR
 10
1.0
 20
0.0
 30
0.0
  9
$PUCSYDIR
 10
0.0
 20
1.0
 30
0.0
  9
$USERI1
 70
     0
  9
$USERI2
 70
     0
  9
$USERI3
 70
     0
  9
$USERI4
 70
     0
  9
$USERI5
 70
     0
  9
$USERR1
 40
0.0
  9
$USERR2
 40
0.0
  9
$USERR3
 40
0.0
  9
$USERR4
 40
0.0
  9
$USERR5
 40
0.0
  9
$WORLDVIEW
 70
     1
  9
$SHADEDGE
 70
     3
  9
$SHADEDIF
 70
    70
  9
$TILEMODE
 70
     1
  9
$MAXACTVP
 70
    64
  9
$PLIMCHECK
 70
     0
  9
$PEXTMIN
 10
0.0
 20
0.0
 30
0.0
  9
$PEXTMAX
 10
0.0
 20
0.0
 30
0.0
  9
$PLIMMIN
 10
0.0
 20
0.0
  9
$PLIMMAX
 10
12.0
 20
9.0
  9
$UNITMODE
 70
     0
  9
$VISRETAIN
 70
     1
  9
$PLINEGEN
 70
     0
  9
$PSLTSCALE
 70
     1
  0
ENDSEC
  0
SECTION
  2
TABLES
  0
TABLE
  2
VPORT
 70
     2
  0
VPORT
  2
*ACTIVE
 70
     0
 10
0.0
 20
0.0
 11
1.0
 21
1.0
 12
-0.125208307422902
 22
0.0655747435629569
 13
0.0
 23
0.0
 14
10.0
 24
10.0
 15
10.0
 25
10.0
 16
0.0
 26
0.0
 36
1.0
 17
0.0
 27
0.0
 37
0.0
 40
1.6208996903187329
 41
1.9682539682539679
 42
50.0
 43
0.0
 44
0.0
 50
0.0
 51
0.0
 71
     0
 72
   100
 73
     1
 74
     3
 75
     0
 76
     0
 77
     0
 78
     0
  0
ENDTAB
  0
TABLE
  2
LTYPE
 70
     1
  0
LTYPE
  2
CONTINUOUS
 70
     0
  3
Solid line
 72
    65
 73
     0
 40
0.0
  0
ENDTAB
  0
TABLE
  2
LAYER
 70
     1
  0
LAYER
  2
0
 70
     0
 62
     7
  6
CONTINUOUS
  0
ENDTAB
  0
TABLE
  2
STYLE
 70
     1
  0
STYLE
  2
STANDARD
 70
     0
 40
0.0
 41
1.0
 50
0.0
 71
     0
 42
2.5
  3
txt
  4

  0
ENDTAB
  0
TABLE
  2
VIEW
 70
     0
  0
ENDTAB
  0
TABLE
  2
UCS
 70
     0
  0
ENDTAB
  0
TABLE
  2
APPID
 70
     2
  0
APPID
  2
ACAD
 70
     0
  0
APPID
  2
CONTENTBLOCKICON
 70
     0
  0
ENDTAB
  0
TABLE
  2
DIMSTYLE
 70
     1
  0
DIMSTYLE
  2
ISO-25
 70
     0
  3

  4

  5

  6

  7

 40
1.0
 41
2.5
 42
0.625
 43
3.75
 44
1.25
 45
0.0
 46
0.0
 47
0.0
 48
0.0
140
2.5
141
2.5
142
0.0
143
0.03937007874016
144
1.0
145
0.0
146
1.0
147
0.625
 71
     0
 72
     0
 73
     0
 74
     0
 75
     0
 76
     0
 77
     1
 78
     8
170
     0
171
     3
172
     1
173
     0
174
     0
175
     0
176
     0
177
     0
178
     0
  0
ENDTAB
  0
ENDSEC
  0
SECTION
  2
BLOCKS
  0
BLOCK
  8
0
  2
$MODEL_SPACE
 70
     0
 10
0.0
 20
0.0
 30
0.0
  3
$MODEL_SPACE
  1

  0
ENDBLK
  5
252F
  8
0
  0
BLOCK
 67
     1
  8
0
  2
$PAPER_SPACE
 70
     0
 10
0.0
 20
0.0
 30
0.0
  3
$PAPER_SPACE
  1

  0
ENDBLK
  5
252B
 67
     1
  8
0
  0
BLOCK
  8
0
  2
RR
 70
     0
 10
0.0
 20
0.0
 30
0.0
  3
RR
  1

  0
LINE
  5
253D
  8
0
 10
-1.099999999999965
 20
-0.1500000000000057
 30
0.0
 11
0.0
 21
-0.1500000000000057
 31
0.0
  0
LINE
  5
253E
  8
0
 10
0.0
 20
0.1500000000000057
 30
0.0
 11
-1.099999999999965
 21
0.1500000000000057
 31
0.0
  0
LINE
  5
253F
  8
0
 10
-0.7555570000000103
 20
-0.1247199999999964
 30
0.0
 11
-0.7595699999999968
 21
-0.1204809999999838
 31
0.0
  0
LINE
  5
2540
  8
0
 10
-0.7595699999999968
 20
0.1204810000000123
 30
0.0
 11
-0.7555570000000103
 21
0.1247199999999964
 31
0.0
  0
LINE
  5
2541
  8
0
 10
-1.1098020000000011
 20
0.1492780000000096
 30
0.0
 11
-1.1049059999999691
 21
0.1498190000000079
 31
0.0
  0
LINE
  5
2542
  8
0
 10
-1.1049059999999691
 20
-0.1498189999999795
 30
0.0
 11
-1.1098020000000011
 21
-0.1492779999999811
 31
0.0
  0
LINE
  5
2543
  8
0
 10
-1.199999999999988
 20
0.1500000000000057
 30
0.0
 11
-1.199999999999988
 21
-0.1500000000000057
 31
0.0
  0
LINE
  5
2544
  8
0
 10
-1.1881919999999571
 20
-0.0707094999999924
 30
0.0
 11
-1.1903979999999581
 21
-0.0641332999999804
 31
0.0
  0
LINE
  5
2545
  8
0
 10
-1.1831459999999641
 20
-0.083335500000004
 30
0.0
 11
-1.1857719999999841
 21
-0.0771153999999967
 31
0.0
  0
LINE
  5
2546
  8
0
 10
-1.1671559999999761
 20
-0.1111429999999984
 30
0.0
 11
-1.170709999999985
 21
-0.1060659999999984
 31
0.0
  0
LINE
  5
2547
  8
0
 10
-1.1471399999999781
 20
-0.1322879999999884
 30
0.0
 11
-1.151409999999998
 21
-0.128658999999999
 31
0.0
  0
LINE
  5
2548
  8
0
 10
-1.151409999999998
 20
-0.128658999999999
 30
0.0
 11
-1.1555579999999841
 21
-0.1247199999999964
 31
0.0
  0
LINE
  5
2549
  8
0
 10
-1.1555579999999841
 20
-0.1247199999999964
 30
0.0
 11
-1.159569999999972
 21
-0.1204809999999838
 31
0.0
  0
LINE
  5
254A
  8
0
 10
-1.159569999999972
 20
-0.1204809999999838
 30
0.0
 11
-1.163439999999978
 21
-0.1159519999999929
 31
0.0
  0
LINE
  5
254B
  8
0
 10
-1.163439999999978
 20
-0.1159519999999929
 30
0.0
 11
-1.1671559999999761
 21
-0.1111429999999984
 31
0.0
  0
LINE
  5
254C
  8
0
 10
-1.170709999999985
 20
-0.1060659999999984
 30
0.0
 11
-1.1740959999999621
 21
-0.1007339999999886
 31
0.0
  0
LINE
  5
254D
  8
0
 10
-1.1740959999999621
 20
-0.1007339999999886
 30
0.0
 11
-1.1773019999999961
 21
-0.0951589999999953
 31
0.0
  0
LINE
  5
254E
  8
0
 10
-1.1773019999999961
 20
-0.0951589999999953
 30
0.0
 11
-1.180319999999994
 21
-0.0893548999999894
 31
0.0
  0
LINE
  5
254F
  8
0
 10
-1.180319999999994
 20
-0.0893548999999894
 30
0.0
 11
-1.1831459999999641
 21
-0.083335500000004
 31
0.0
  0
LINE
  5
2550
  8
0
 10
-1.1098020000000011
 20
-0.1492779999999811
 30
0.0
 11
-1.1146739999999791
 21
-0.1483759999999847
 31
0.0
  0
LINE
  5
2551
  8
0
 10
-1.1146739999999791
 20
-0.1483759999999847
 30
0.0
 11
-1.11950999999999
 21
-0.1471180000000061
 31
0.0
  0
LINE
  5
2552
  8
0
 10
-1.11950999999999
 20
-0.1471180000000061
 30
0.0
 11
-1.1242979999999521
 21
-0.1455049999999858
 31
0.0
  0
LINE
  5
2553
  8
0
 10
-1.1242979999999521
 20
-0.1455049999999858
 30
0.0
 11
-1.129028000000003
 21
-0.143540999999999
 31
0.0
  0
LINE
  5
2554
  8
0
 10
-1.129028000000003
 20
-0.143540999999999
 30
0.0
 11
-1.133688000000004
 21
-0.1412320000000022
 31
0.0
  0
LINE
  5
2555
  8
0
 10
-1.133688000000004
 20
-0.1412320000000022
 30
0.0
 11
-1.1382679999999801
 21
-0.1385819999999853
 31
0.0
  0
LINE
  5
2556
  8
0
 10
-1.1382679999999801
 20
-0.1385819999999853
 30
0.0
 11
-1.142755999999961
 21
-0.1355979999999874
 31
0.0
  0
LINE
  5
2557
  8
0
 10
-1.142755999999961
 20
-0.1355979999999874
 30
0.0
 11
-1.1471399999999781
 21
-0.1322879999999884
 31
0.0
  0
LINE
  5
2558
  8
0
 10
-1.1857719999999841
 20
-0.0771153999999967
 30
0.0
 11
-1.1881919999999571
 21
-0.0707094999999924
 31
0.0
  0
LINE
  5
2559
  8
0
 10
-1.199999999999988
 20
0.0
 30
0.0
 11
-1.1998800000000061
 21
0.0073601999999937
 31
0.0
  0
LINE
  5
255A
  8
0
 10
-1.198077999999952
 20
-0.0292634999999848
 30
0.0
 11
-1.198917999999989
 21
-0.0220095999999899
 31
0.0
  0
LINE
  5
255B
  8
0
 10
-1.198917999999989
 20
-0.0220095999999899
 30
0.0
 11
-1.199517999999953
 21
-0.0147025999999926
 31
0.0
  0
LINE
  5
255C
  8
0
 10
-1.199517999999953
 20
-0.0147025999999926
 30
0.0
 11
-1.1998800000000061
 21
-0.0073601999999937
 31
0.0
  0
LINE
  5
255D
  8
0
 10
-1.1998800000000061
 20
-0.0073601999999937
 30
0.0
 11
-1.199999999999988
 21
0.0
 31
0.0
  0
LINE
  5
255E
  8
0
 10
-1.1998800000000061
 20
0.0073601999999937
 30
0.0
 11
-1.199517999999953
 21
0.014702600000021
 31
0.0
  0
LINE
  5
255F
  8
0
 10
-1.199517999999953
 20
0.014702600000021
 30
0.0
 11
-1.198917999999989
 21
0.0220096000000183
 31
0.0
  0
LINE
  5
2560
  8
0
 10
-1.198917999999989
 20
0.0220096000000183
 30
0.0
 11
-1.198077999999952
 21
0.0292635000000132
 31
0.0
  0
LINE
  5
2561
  8
0
 10
-1.1970039999999911
 20
-0.0364470000000097
 30
0.0
 11
-1.198077999999952
 21
-0.0292634999999848
 31
0.0
  0
LINE
  5
2562
  8
0
 10
-1.198077999999952
 20
0.0292635000000132
 30
0.0
 11
-1.1970039999999911
 21
0.0364470000000097
 31
0.0
  0
LINE
  5
2563
  8
0
 10
-1.1956939999999441
 20
-0.0435426999999891
 30
0.0
 11
-1.1970039999999911
 21
-0.0364470000000097
 31
0.0
  0
LINE
  5
2564
  8
0
 10
-1.1903979999999581
 20
-0.0641332999999804
 30
0.0
 11
-1.192387999999992
 21
-0.0574024999999949
 31
0.0
  0
LINE
  5
2565
  8
0
 10
-1.192387999999992
 20
-0.0574024999999949
 30
0.0
 11
-1.1941539999999671
 21
-0.0505335000000002
 31
0.0
  0
LINE
  5
2566
  8
0
 10
-1.1941539999999671
 20
-0.0505335000000002
 30
0.0
 11
-1.1956939999999441
 21
-0.0435426999999891
 31
0.0
  0
LINE
  5
2567
  8
0
 10
-1.1970039999999911
 20
0.0364470000000097
 30
0.0
 11
-1.1956939999999441
 21
0.0435427000000175
 31
0.0
  0
LINE
  5
2568
  8
0
 10
-1.1956939999999441
 20
0.0435427000000175
 30
0.0
 11
-1.1941539999999671
 21
0.0505335000000003
 31
0.0
  0
LINE
  5
2569
  8
0
 10
-1.1941539999999671
 20
0.0505335000000003
 30
0.0
 11
-1.192387999999992
 21
0.0574024999999949
 31
0.0
  0
LINE
  5
256A
  8
0
 10
-1.192387999999992
 20
0.0574024999999949
 30
0.0
 11
-1.1903979999999581
 21
0.0641333000000089
 31
0.0
  0
LINE
  5
256B
  8
0
 10
-1.1903979999999581
 20
0.0641333000000089
 30
0.0
 11
-1.1881919999999571
 21
0.0707095000000209
 31
0.0
  0
LINE
  5
256C
  8
0
 10
-1.170709999999985
 20
0.1060659999999984
 30
0.0
 11
-1.1671559999999761
 21
0.1111429999999984
 31
0.0
  0
LINE
  5
256D
  8
0
 10
-1.1671559999999761
 20
0.1111429999999984
 30
0.0
 11
-1.163439999999978
 21
0.1159520000000214
 31
0.0
  0
LINE
  5
256E
  8
0
 10
-1.163439999999978
 20
0.1159520000000214
 30
0.0
 11
-1.159569999999972
 21
0.1204810000000123
 31
0.0
  0
LINE
  5
256F
  8
0
 10
-1.159569999999972
 20
0.1204810000000123
 30
0.0
 11
-1.1555579999999841
 21
0.1247199999999964
 31
0.0
  0
LINE
  5
2570
  8
0
 10
-1.1555579999999841
 20
0.1247199999999964
 30
0.0
 11
-1.151409999999998
 21
0.128658999999999
 31
0.0
  0
LINE
  5
2571
  8
0
 10
-1.151409999999998
 20
0.128658999999999
 30
0.0
 11
-1.1471399999999781
 21
0.1322880000000168
 31
0.0
  0
LINE
  5
2572
  8
0
 10
-1.1471399999999781
 20
0.1322880000000168
 30
0.0
 11
-1.142755999999961
 21
0.1355980000000159
 31
0.0
  0
LINE
  5
2573
  8
0
 10
-1.142755999999961
 20
0.1355980000000159
 30
0.0
 11
-1.1382679999999801
 21
0.1385820000000138
 31
0.0
  0
LINE
  5
2574
  8
0
 10
-1.1382679999999801
 20
0.1385820000000138
 30
0.0
 11
-1.133688000000004
 21
0.1412320000000022
 31
0.0
  0
LINE
  5
2575
  8
0
 10
-1.133688000000004
 20
0.1412320000000022
 30
0.0
 11
-1.129028000000003
 21
0.143540999999999
 31
0.0
  0
LINE
  5
2576
  8
0
 10
-1.129028000000003
 20
0.143540999999999
 30
0.0
 11
-1.1242979999999521
 21
0.1455050000000142
 31
0.0
  0
LINE
  5
2577
  8
0
 10
-1.1242979999999521
 20
0.1455050000000142
 30
0.0
 11
-1.11950999999999
 21
0.1471180000000061
 31
0.0
  0
LINE
  5
2578
  8
0
 10
-1.11950999999999
 20
0.1471180000000061
 30
0.0
 11
-1.1146739999999791
 21
0.1483760000000132
 31
0.0
  0
LINE
  5
2579
  8
0
 10
-1.1146739999999791
 20
0.1483760000000132
 30
0.0
 11
-1.1098020000000011
 21
0.1492780000000096
 31
0.0
  0
LINE
  5
257A
  8
0
 10
-1.1740959999999621
 20
0.100734000000017
 30
0.0
 11
-1.170709999999985
 21
0.1060659999999984
 31
0.0
  0
LINE
  5
257B
  8
0
 10
-1.1773019999999961
 20
0.0951589999999953
 30
0.0
 11
-1.1740959999999621
 21
0.100734000000017
 31
0.0
  0
LINE
  5
257C
  8
0
 10
-1.1857719999999841
 20
0.0771153999999968
 30
0.0
 11
-1.1831459999999641
 21
0.083335500000004
 31
0.0
  0
LINE
  5
257D
  8
0
 10
-1.1831459999999641
 20
0.083335500000004
 30
0.0
 11
-1.180319999999994
 21
0.0893549000000178
 31
0.0
  0
LINE
  5
257E
  8
0
 10
-1.180319999999994
 20
0.0893549000000178
 30
0.0
 11
-1.1773019999999961
 21
0.0951589999999953
 31
0.0
  0
LINE
  5
257F
  8
0
 10
-1.1881919999999571
 20
0.0707095000000209
 30
0.0
 11
-1.1857719999999841
 21
0.0771153999999968
 31
0.0
  0
LINE
  5
2580
  8
0
 10
-1.009601999999971
 20
-0.0641332999999804
 30
0.0
 11
-1.0118079999999721
 21
-0.0707094999999924
 31
0.0
  0
LINE
  5
2581
  8
0
 10
-0.9881919999999697
 20
-0.0707094999999924
 30
0.0
 11
-0.9903979999999704
 21
-0.0641332999999804
 31
0.0
  0
LINE
  5
2582
  8
0
 10
-0.9098019999999555
 20
-0.1492779999999811
 30
0.0
 11
-0.9146739999999906
 21
-0.1483759999999847
 31
0.0
  0
LINE
  5
2583
  8
0
 10
-1.019679999999991
 20
-0.0893548999999894
 30
0.0
 11
-1.022697999999989
 21
-0.0951589999999953
 31
0.0
  0
LINE
  5
2584
  8
0
 10
-1.022697999999989
 20
-0.0951589999999953
 30
0.0
 11
-1.0259039999999671
 21
-0.1007339999999886
 31
0.0
  0
LINE
  5
2585
  8
0
 10
-1.0259039999999671
 20
-0.1007339999999886
 30
0.0
 11
-1.0292899999999441
 21
-0.1060659999999984
 31
0.0
  0
LINE
  5
2586
  8
0
 10
-1.0292899999999441
 20
-0.1060659999999984
 30
0.0
 11
-1.032843999999953
 21
-0.1111429999999984
 31
0.0
  0
LINE
  5
2587
  8
0
 10
-1.032843999999953
 20
-0.1111429999999984
 30
0.0
 11
-1.0365599999999511
 21
-0.1159519999999929
 31
0.0
  0
LINE
  5
2588
  8
0
 10
-1.0365599999999511
 20
-0.1159519999999929
 30
0.0
 11
-1.040429999999956
 21
-0.1204809999999838
 31
0.0
  0
LINE
  5
2589
  8
0
 10
-1.040429999999956
 20
-0.1204809999999838
 30
0.0
 11
-1.0444420000000021
 21
-0.1247199999999964
 31
0.0
  0
LINE
  5
258A
  8
0
 10
-1.0444420000000021
 20
-0.1247199999999964
 30
0.0
 11
-1.048589999999989
 21
-0.128658999999999
 31
0.0
  0
LINE
  5
258B
  8
0
 10
-1.048589999999989
 20
-0.128658999999999
 30
0.0
 11
-1.0528599999999511
 21
-0.1322879999999884
 31
0.0
  0
LINE
  5
258C
  8
0
 10
-1.014228000000001
 20
-0.0771153999999967
 30
0.0
 11
-1.0168539999999651
 21
-0.083335500000004
 31
0.0
  0
LINE
  5
258D
  8
0
 10
-1.0118079999999721
 20
-0.0707094999999924
 30
0.0
 11
-1.014228000000001
 21
-0.0771153999999967
 31
0.0
  0
LINE
  5
258E
  8
0
 10
-1.0168539999999651
 20
-0.083335500000004
 30
0.0
 11
-1.019679999999991
 21
-0.0893548999999894
 31
0.0
  0
LINE
  5
258F
  8
0
 10
-1.095093999999958
 20
-0.1498189999999795
 30
0.0
 11
-1.099999999999965
 21
-0.1500000000000057
 31
0.0
  0
LINE
  5
2590
  8
0
 10
-1.0572439999999681
 20
-0.1355979999999874
 30
0.0
 11
-1.061732000000005
 21
-0.1385819999999853
 31
0.0
  0
LINE
  5
2591
  8
0
 10
-1.061732000000005
 20
-0.1385819999999853
 30
0.0
 11
-1.0663119999999811
 21
-0.1412320000000022
 31
0.0
  0
LINE
  5
2592
  8
0
 10
-1.0663119999999811
 20
-0.1412320000000022
 30
0.0
 11
-1.070971999999982
 21
-0.143540999999999
 31
0.0
  0
LINE
  5
2593
  8
0
 10
-1.070971999999982
 20
-0.143540999999999
 30
0.0
 11
-1.0757019999999771
 21
-0.1455049999999858
 31
0.0
  0
LINE
  5
2594
  8
0
 10
-1.0757019999999771
 20
-0.1455049999999858
 30
0.0
 11
-1.0804899999999971
 21
-0.1471180000000061
 31
0.0
  0
LINE
  5
2595
  8
0
 10
-1.0804899999999971
 20
-0.1471180000000061
 30
0.0
 11
-1.0853259999999501
 21
-0.1483759999999847
 31
0.0
  0
LINE
  5
2596
  8
0
 10
-1.0853259999999501
 20
-0.1483759999999847
 30
0.0
 11
-1.090197999999986
 21
-0.1492779999999811
 31
0.0
  0
LINE
  5
2597
  8
0
 10
-1.090197999999986
 20
-0.1492779999999811
 30
0.0
 11
-1.095093999999958
 21
-0.1498189999999795
 31
0.0
  0
LINE
  5
2598
  8
0
 10
-1.0528599999999511
 20
-0.1322879999999884
 30
0.0
 11
-1.0572439999999681
 21
-0.1355979999999874
 31
0.0
  0
LINE
  5
2599
  8
0
 10
-0.9831459999999767
 20
-0.083335500000004
 30
0.0
 11
-0.9857719999999968
 21
-0.0771153999999967
 31
0.0
  0
LINE
  5
259A
  8
0
 10
-0.9773019999999515
 20
-0.0951589999999953
 30
0.0
 11
-0.9803200000000051
 21
-0.0893548999999894
 31
0.0
  0
LINE
  5
259B
  8
0
 10
-0.9471399999999896
 20
-0.1322879999999884
 30
0.0
 11
-0.9514099999999526
 21
-0.128658999999999
 31
0.0
  0
LINE
  5
259C
  8
0
 10
-0.9514099999999526
 20
-0.128658999999999
 30
0.0
 11
-0.9555579999999952
 21
-0.1247199999999964
 31
0.0
  0
LINE
  5
259D
  8
0
 10
-0.9555579999999952
 20
-0.1247199999999964
 30
0.0
 11
-0.9595699999999848
 21
-0.1204809999999838
 31
0.0
  0
LINE
  5
259E
  8
0
 10
-0.9595699999999848
 20
-0.1204809999999838
 30
0.0
 11
-0.9634399999999903
 21
-0.1159519999999929
 31
0.0
  0
LINE
  5
259F
  8
0
 10
-0.9634399999999903
 20
-0.1159519999999929
 30
0.0
 11
-0.9671559999999884
 21
-0.1111429999999984
 31
0.0
  0
LINE
  5
25A0
  8
0
 10
-0.9671559999999884
 20
-0.1111429999999984
 30
0.0
 11
-0.9707099999999959
 21
-0.1060659999999984
 31
0.0
  0
LINE
  5
25A1
  8
0
 10
-0.9707099999999959
 20
-0.1060659999999984
 30
0.0
 11
-0.9740959999999747
 21
-0.1007339999999886
 31
0.0
  0
LINE
  5
25A2
  8
0
 10
-0.9740959999999747
 20
-0.1007339999999886
 30
0.0
 11
-0.9773019999999515
 21
-0.0951589999999953
 31
0.0
  0
LINE
  5
25A3
  8
0
 10
-0.9803200000000051
 20
-0.0893548999999894
 30
0.0
 11
-0.9831459999999767
 21
-0.083335500000004
 31
0.0
  0
LINE
  5
25A4
  8
0
 10
-0.9857719999999968
 20
-0.0771153999999967
 30
0.0
 11
-0.9881919999999697
 21
-0.0707094999999924
 31
0.0
  0
LINE
  5
25A5
  8
0
 10
-0.9146739999999906
 20
-0.1483759999999847
 30
0.0
 11
-0.9195100000000023
 21
-0.1471180000000061
 31
0.0
  0
LINE
  5
25A6
  8
0
 10
-0.9195100000000023
 20
-0.1471180000000061
 30
0.0
 11
-0.9242979999999647
 21
-0.1455049999999858
 31
0.0
  0
LINE
  5
25A7
  8
0
 10
-0.9242979999999647
 20
-0.1455049999999858
 30
0.0
 11
-0.9290279999999596
 21
-0.143540999999999
 31
0.0
  0
LINE
  5
25A8
  8
0
 10
-0.9290279999999596
 20
-0.143540999999999
 30
0.0
 11
-0.9336879999999608
 21
-0.1412320000000022
 31
0.0
  0
LINE
  5
25A9
  8
0
 10
-0.9336879999999608
 20
-0.1412320000000022
 30
0.0
 11
-0.9382679999999934
 21
-0.1385819999999853
 31
0.0
  0
LINE
  5
25AA
  8
0
 10
-0.9382679999999934
 20
-0.1385819999999853
 30
0.0
 11
-0.9427559999999736
 21
-0.1355979999999874
 31
0.0
  0
LINE
  5
25AB
  8
0
 10
-0.9427559999999736
 20
-0.1355979999999874
 30
0.0
 11
-0.9471399999999896
 21
-0.1322879999999884
 31
0.0
  0
LINE
  5
25AC
  8
0
 10
-0.9146739999999906
 20
0.1483760000000132
 30
0.0
 11
-0.9098019999999555
 21
0.1492780000000096
 31
0.0
  0
LINE
  5
25AD
  8
0
 10
-1.0663119999999811
 20
0.1412320000000022
 30
0.0
 11
-1.061732000000005
 21
0.1385820000000138
 31
0.0
  0
LINE
  5
25AE
  8
0
 10
-1.061732000000005
 20
0.1385820000000138
 30
0.0
 11
-1.0572439999999681
 21
0.1355980000000159
 31
0.0
  0
LINE
  5
25AF
  8
0
 10
-1.0572439999999681
 20
0.1355980000000159
 30
0.0
 11
-1.0528599999999511
 21
0.1322880000000168
 31
0.0
  0
LINE
  5
25B0
  8
0
 10
-1.0528599999999511
 20
0.1322880000000168
 30
0.0
 11
-1.048589999999989
 21
0.128658999999999
 31
0.0
  0
LINE
  5
25B1
  8
0
 10
-1.048589999999989
 20
0.128658999999999
 30
0.0
 11
-1.0444420000000021
 21
0.1247199999999964
 31
0.0
  0
LINE
  5
25B2
  8
0
 10
-1.0444420000000021
 20
0.1247199999999964
 30
0.0
 11
-1.040429999999956
 21
0.1204810000000123
 31
0.0
  0
LINE
  5
25B3
  8
0
 10
-1.040429999999956
 20
0.1204810000000123
 30
0.0
 11
-1.0365599999999511
 21
0.1159520000000214
 31
0.0
  0
LINE
  5
25B4
  8
0
 10
-1.0365599999999511
 20
0.1159520000000214
 30
0.0
 11
-1.032843999999953
 21
0.1111429999999984
 31
0.0
  0
LINE
  5
25B5
  8
0
 10
-1.032843999999953
 20
0.1111429999999984
 30
0.0
 11
-1.0292899999999441
 21
0.1060659999999984
 31
0.0
  0
LINE
  5
25B6
  8
0
 10
-1.0292899999999441
 20
0.1060659999999984
 30
0.0
 11
-1.0259039999999671
 21
0.100734000000017
 31
0.0
  0
LINE
  5
25B7
  8
0
 10
-1.095093999999958
 20
0.1498190000000079
 30
0.0
 11
-1.090197999999986
 21
0.1492780000000096
 31
0.0
  0
LINE
  5
25B8
  8
0
 10
-1.0168539999999651
 20
0.083335500000004
 30
0.0
 11
-1.014228000000001
 21
0.0771153999999968
 31
0.0
  0
LINE
  5
25B9
  8
0
 10
-1.014228000000001
 20
0.0771153999999968
 30
0.0
 11
-1.0118079999999721
 21
0.0707095000000209
 31
0.0
  0
LINE
  5
25BA
  8
0
 10
-1.0118079999999721
 20
0.0707095000000209
 30
0.0
 11
-1.009601999999971
 21
0.0641333000000089
 31
0.0
  0
LINE
  5
25BB
  8
0
 10
-1.009601999999971
 20
0.0641333000000089
 30
0.0
 11
-1.0076119999999931
 21
0.0574024999999949
 31
0.0
  0
LINE
  5
25BC
  8
0
 10
-1.0076119999999931
 20
0.0574024999999949
 30
0.0
 11
-1.005845999999962
 21
0.0505335000000003
 31
0.0
  0
LINE
  5
25BD
  8
0
 10
-1.005845999999962
 20
0.0505335000000003
 30
0.0
 11
-1.004305999999985
 21
0.0435427000000175
 31
0.0
  0
LINE
  5
25BE
  8
0
 10
-1.004305999999985
 20
0.0435427000000175
 30
0.0
 11
-1.002995999999994
 21
0.0364470000000097
 31
0.0
  0
LINE
  5
25BF
  8
0
 10
-1.002995999999994
 20
0.0364470000000097
 30
0.0
 11
-1.0019219999999771
 21
0.0292635000000132
 31
0.0
  0
LINE
  5
25C0
  8
0
 10
-1.0019219999999771
 20
0.0292635000000132
 30
0.0
 11
-1.001081999999996
 21
0.0220096000000183
 31
0.0
  0
LINE
  5
25C1
  8
0
 10
-1.001081999999996
 20
0.0220096000000183
 30
0.0
 11
-1.000481999999975
 21
0.014702600000021
 31
0.0
  0
LINE
  5
25C2
  8
0
 10
-1.000481999999975
 20
0.014702600000021
 30
0.0
 11
-1.000119999999979
 21
0.0073601999999937
 31
0.0
  0
LINE
  5
25C3
  8
0
 10
-0.9998799999999615
 20
0.0073601999999937
 30
0.0
 11
-0.9995179999999651
 21
0.014702600000021
 31
0.0
  0
LINE
  5
25C4
  8
0
 10
-0.9995179999999651
 20
0.014702600000021
 30
0.0
 11
-0.9989180000000022
 21
0.0220096000000183
 31
0.0
  0
LINE
  5
25C5
  8
0
 10
-0.9989180000000022
 20
0.0220096000000183
 30
0.0
 11
-0.9980779999999631
 21
0.0292635000000132
 31
0.0
  0
LINE
  5
25C6
  8
0
 10
-0.9980779999999631
 20
0.0292635000000132
 30
0.0
 11
-0.9970040000000036
 21
0.0364470000000097
 31
0.0
  0
LINE
  5
25C7
  8
0
 10
-0.9970040000000036
 20
0.0364470000000097
 30
0.0
 11
-0.9956939999999575
 21
0.0435427000000175
 31
0.0
  0
LINE
  5
25C8
  8
0
 10
-0.9956939999999575
 20
0.0435427000000175
 30
0.0
 11
-0.9941539999999796
 21
0.0505335000000003
 31
0.0
  0
LINE
  5
25C9
  8
0
 10
-0.9941539999999796
 20
0.0505335000000003
 30
0.0
 11
-0.9923880000000043
 21
0.0574024999999949
 31
0.0
  0
LINE
  5
25CA
  8
0
 10
-1.019679999999991
 20
0.0893549000000178
 30
0.0
 11
-1.0168539999999651
 21
0.083335500000004
 31
0.0
  0
LINE
  5
25CB
  8
0
 10
-1.000119999999979
 20
0.0073601999999937
 30
0.0
 11
-0.9999999999999996
 21
0.0
 31
0.0
  0
LINE
  5
25CC
  8
0
 10
-0.9999999999999996
 20
0.0
 30
0.0
 11
-0.9998799999999615
 21
0.0073601999999937
 31
0.0
  0
LINE
  5
25CD
  8
0
 10
-1.002995999999994
 20
-0.0364470000000097
 30
0.0
 11
-1.004305999999985
 21
-0.0435426999999891
 31
0.0
  0
LINE
  5
25CE
  8
0
 10
-0.9956939999999575
 20
-0.0435426999999891
 30
0.0
 11
-0.9970040000000036
 21
-0.0364470000000097
 31
0.0
  0
LINE
  5
25CF
  8
0
 10
-1.004305999999985
 20
-0.0435426999999891
 30
0.0
 11
-1.005845999999962
 21
-0.0505335000000002
 31
0.0
  0
LINE
  5
25D0
  8
0
 10
-1.005845999999962
 20
-0.0505335000000002
 30
0.0
 11
-1.0076119999999931
 21
-0.0574024999999949
 31
0.0
  0
LINE
  5
25D1
  8
0
 10
-1.0076119999999931
 20
-0.0574024999999949
 30
0.0
 11
-1.009601999999971
 21
-0.0641332999999804
 31
0.0
  0
LINE
  5
25D2
  8
0
 10
-0.9923880000000043
 20
-0.0574024999999949
 30
0.0
 11
-0.9941539999999796
 21
-0.0505335000000002
 31
0.0
  0
LINE
  5
25D3
  8
0
 10
-0.9941539999999796
 20
-0.0505335000000002
 30
0.0
 11
-0.9956939999999575
 21
-0.0435426999999891
 31
0.0
  0
LINE
  5
25D4
  8
0
 10
-0.9999999999999996
 20
0.0
 30
0.0
 11
-1.000119999999979
 21
-0.0073601999999937
 31
0.0
  0
LINE
  5
25D5
  8
0
 10
-1.000119999999979
 20
-0.0073601999999937
 30
0.0
 11
-1.000481999999975
 21
-0.0147025999999926
 31
0.0
  0
LINE
  5
25D6
  8
0
 10
-1.000481999999975
 20
-0.0147025999999926
 30
0.0
 11
-1.001081999999996
 21
-0.0220095999999899
 31
0.0
  0
LINE
  5
25D7
  8
0
 10
-1.001081999999996
 20
-0.0220095999999899
 30
0.0
 11
-1.0019219999999771
 21
-0.0292634999999848
 31
0.0
  0
LINE
  5
25D8
  8
0
 10
-1.0019219999999771
 20
-0.0292634999999848
 30
0.0
 11
-1.002995999999994
 21
-0.0364470000000097
 31
0.0
  0
LINE
  5
25D9
  8
0
 10
-0.9970040000000036
 20
-0.0364470000000097
 30
0.0
 11
-0.9980779999999631
 21
-0.0292634999999848
 31
0.0
  0
LINE
  5
25DA
  8
0
 10
-0.9980779999999631
 20
-0.0292634999999848
 30
0.0
 11
-0.9989180000000022
 21
-0.0220095999999899
 31
0.0
  0
LINE
  5
25DB
  8
0
 10
-0.9989180000000022
 20
-0.0220095999999899
 30
0.0
 11
-0.9995179999999651
 21
-0.0147025999999926
 31
0.0
  0
LINE
  5
25DC
  8
0
 10
-0.9995179999999651
 20
-0.0147025999999926
 30
0.0
 11
-0.9998799999999615
 21
-0.0073601999999937
 31
0.0
  0
LINE
  5
25DD
  8
0
 10
-0.9998799999999615
 20
-0.0073601999999937
 30
0.0
 11
-0.9999999999999996
 21
0.0
 31
0.0
  0
LINE
  5
25DE
  8
0
 10
-1.0259039999999671
 20
0.100734000000017
 30
0.0
 11
-1.022697999999989
 21
0.0951589999999953
 31
0.0
  0
LINE
  5
25DF
  8
0
 10
-1.099999999999965
 20
0.1500000000000057
 30
0.0
 11
-1.095093999999958
 21
0.1498190000000079
 31
0.0
  0
LINE
  5
25E0
  8
0
 10
-1.090197999999986
 20
0.1492780000000096
 30
0.0
 11
-1.0853259999999501
 21
0.1483760000000132
 31
0.0
  0
LINE
  5
25E1
  8
0
 10
-1.0853259999999501
 20
0.1483760000000132
 30
0.0
 11
-1.0804899999999971
 21
0.1471180000000061
 31
0.0
  0
LINE
  5
25E2
  8
0
 10
-1.0804899999999971
 20
0.1471180000000061
 30
0.0
 11
-1.0757019999999771
 21
0.1455050000000142
 31
0.0
  0
LINE
  5
25E3
  8
0
 10
-1.0757019999999771
 20
0.1455050000000142
 30
0.0
 11
-1.070971999999982
 21
0.143540999999999
 31
0.0
  0
LINE
  5
25E4
  8
0
 10
-1.070971999999982
 20
0.143540999999999
 30
0.0
 11
-1.0663119999999811
 21
0.1412320000000022
 31
0.0
  0
LINE
  5
25E5
  8
0
 10
-0.9773019999999515
 20
0.0951589999999953
 30
0.0
 11
-0.9740959999999747
 21
0.100734000000017
 31
0.0
  0
LINE
  5
25E6
  8
0
 10
-0.9803200000000051
 20
0.0893549000000178
 30
0.0
 11
-0.9773019999999515
 21
0.0951589999999953
 31
0.0
  0
LINE
  5
25E7
  8
0
 10
-0.9903979999999704
 20
0.0641333000000089
 30
0.0
 11
-0.9881919999999697
 21
0.0707095000000209
 31
0.0
  0
LINE
  5
25E8
  8
0
 10
-0.9881919999999697
 20
0.0707095000000209
 30
0.0
 11
-0.9857719999999968
 21
0.0771153999999968
 31
0.0
  0
LINE
  5
25E9
  8
0
 10
-0.9857719999999968
 20
0.0771153999999968
 30
0.0
 11
-0.9831459999999767
 21
0.083335500000004
 31
0.0
  0
LINE
  5
25EA
  8
0
 10
-0.9831459999999767
 20
0.083335500000004
 30
0.0
 11
-0.9803200000000051
 21
0.0893549000000178
 31
0.0
  0
LINE
  5
25EB
  8
0
 10
-0.9740959999999747
 20
0.100734000000017
 30
0.0
 11
-0.9707099999999959
 21
0.1060659999999984
 31
0.0
  0
LINE
  5
25EC
  8
0
 10
-0.9707099999999959
 20
0.1060659999999984
 30
0.0
 11
-0.9671559999999884
 21
0.1111429999999984
 31
0.0
  0
LINE
  5
25ED
  8
0
 10
-0.9671559999999884
 20
0.1111429999999984
 30
0.0
 11
-0.9634399999999903
 21
0.1159520000000214
 31
0.0
  0
LINE
  5
25EE
  8
0
 10
-0.9634399999999903
 20
0.1159520000000214
 30
0.0
 11
-0.9595699999999848
 21
0.1204810000000123
 31
0.0
  0
LINE
  5
25EF
  8
0
 10
-0.9595699999999848
 20
0.1204810000000123
 30
0.0
 11
-0.9555579999999952
 21
0.1247199999999964
 31
0.0
  0
LINE
  5
25F0
  8
0
 10
-0.9555579999999952
 20
0.1247199999999964
 30
0.0
 11
-0.9514099999999526
 21
0.128658999999999
 31
0.0
  0
LINE
  5
25F1
  8
0
 10
-0.9514099999999526
 20
0.128658999999999
 30
0.0
 11
-0.9471399999999896
 21
0.1322880000000168
 31
0.0
  0
LINE
  5
25F2
  8
0
 10
-0.9471399999999896
 20
0.1322880000000168
 30
0.0
 11
-0.9427559999999736
 21
0.1355980000000159
 31
0.0
  0
LINE
  5
25F3
  8
0
 10
-0.9427559999999736
 20
0.1355980000000159
 30
0.0
 11
-0.9382679999999934
 21
0.1385820000000138
 31
0.0
  0
LINE
  5
25F4
  8
0
 10
-0.9382679999999934
 20
0.1385820000000138
 30
0.0
 11
-0.9336879999999608
 21
0.1412320000000022
 31
0.0
  0
LINE
  5
25F5
  8
0
 10
-0.9336879999999608
 20
0.1412320000000022
 30
0.0
 11
-0.9290279999999596
 21
0.143540999999999
 31
0.0
  0
LINE
  5
25F6
  8
0
 10
-0.9290279999999596
 20
0.143540999999999
 30
0.0
 11
-0.9242979999999647
 21
0.1455050000000142
 31
0.0
  0
LINE
  5
25F7
  8
0
 10
-0.9242979999999647
 20
0.1455050000000142
 30
0.0
 11
-0.9195100000000023
 21
0.1471180000000061
 31
0.0
  0
LINE
  5
25F8
  8
0
 10
-0.9195100000000023
 20
0.1471180000000061
 30
0.0
 11
-0.9146739999999906
 21
0.1483760000000132
 31
0.0
  0
LINE
  5
25F9
  8
0
 10
-0.9923880000000043
 20
0.0574024999999949
 30
0.0
 11
-0.9903979999999704
 21
0.0641333000000089
 31
0.0
  0
LINE
  5
25FA
  8
0
 10
-0.9903979999999704
 20
-0.0641332999999804
 30
0.0
 11
-0.9923880000000043
 21
-0.0574024999999949
 31
0.0
  0
LINE
  5
25FB
  8
0
 10
-0.8999999999999762
 20
-0.1500000000000057
 30
0.0
 11
-0.9049059999999825
 21
-0.1498189999999795
 31
0.0
  0
LINE
  5
25FC
  8
0
 10
-0.8292899999999575
 20
-0.1060659999999984
 30
0.0
 11
-0.8328439999999655
 21
-0.1111429999999984
 31
0.0
  0
LINE
  5
25FD
  8
0
 10
-0.8328439999999655
 20
-0.1111429999999984
 30
0.0
 11
-0.8365599999999627
 21
-0.1159519999999929
 31
0.0
  0
LINE
  5
25FE
  8
0
 10
-0.8365599999999627
 20
-0.1159519999999929
 30
0.0
 11
-0.8404299999999683
 21
-0.1204809999999838
 31
0.0
  0
LINE
  5
25FF
  8
0
 10
-0.8404299999999683
 20
-0.1204809999999838
 30
0.0
 11
-0.8444419999999574
 21
-0.1247199999999964
 31
0.0
  0
LINE
  5
2600
  8
0
 10
-0.8444419999999574
 20
-0.1247199999999964
 30
0.0
 11
-0.8485900000000013
 21
-0.128658999999999
 31
0.0
  0
LINE
  5
2601
  8
0
 10
-0.8485900000000013
 20
-0.128658999999999
 30
0.0
 11
-0.8528599999999634
 21
-0.1322879999999884
 31
0.0
  0
LINE
  5
2602
  8
0
 10
-0.8572439999999797
 20
-0.1355979999999874
 30
0.0
 11
-0.8617319999999601
 21
-0.1385819999999853
 31
0.0
  0
LINE
  5
2603
  8
0
 10
-0.8663119999999935
 20
-0.1412320000000022
 30
0.0
 11
-0.8709719999999945
 21
-0.143540999999999
 31
0.0
  0
LINE
  5
2604
  8
0
 10
-0.8617319999999601
 20
-0.1385819999999853
 30
0.0
 11
-0.8663119999999935
 21
-0.1412320000000022
 31
0.0
  0
LINE
  5
2605
  8
0
 10
-0.8709719999999945
 20
-0.143540999999999
 30
0.0
 11
-0.8757019999999895
 21
-0.1455049999999858
 31
0.0
  0
LINE
  5
2606
  8
0
 10
-0.8757019999999895
 20
-0.1455049999999858
 30
0.0
 11
-0.8804899999999516
 21
-0.1471180000000061
 31
0.0
  0
LINE
  5
2607
  8
0
 10
-0.8804899999999516
 20
-0.1471180000000061
 30
0.0
 11
-0.8853259999999634
 21
-0.1483759999999847
 31
0.0
  0
LINE
  5
2608
  8
0
 10
-0.8853259999999634
 20
-0.1483759999999847
 30
0.0
 11
-0.8901979999999973
 21
-0.1492779999999811
 31
0.0
  0
LINE
  5
2609
  8
0
 10
-0.8901979999999973
 20
-0.1492779999999811
 30
0.0
 11
-0.8950939999999715
 21
-0.1498189999999795
 31
0.0
  0
LINE
  5
260A
  8
0
 10
-0.8950939999999715
 20
-0.1498189999999795
 30
0.0
 11
-0.8999999999999762
 21
-0.1500000000000057
 31
0.0
  0
LINE
  5
260B
  8
0
 10
-0.8528599999999634
 20
-0.1322879999999884
 30
0.0
 11
-0.8572439999999797
 21
-0.1355979999999874
 31
0.0
  0
LINE
  5
260C
  8
0
 10
-0.9049059999999825
 20
0.1498190000000079
 30
0.0
 11
-0.8999999999999762
 21
0.1500000000000057
 31
0.0
  0
LINE
  5
260D
  8
0
 10
-0.8617319999999601
 20
0.1385820000000138
 30
0.0
 11
-0.8572439999999797
 21
0.1355980000000159
 31
0.0
  0
LINE
  5
260E
  8
0
 10
-0.8572439999999797
 20
0.1355980000000159
 30
0.0
 11
-0.8528599999999634
 21
0.1322880000000168
 31
0.0
  0
LINE
  5
260F
  8
0
 10
-0.8528599999999634
 20
0.1322880000000168
 30
0.0
 11
-0.8485900000000013
 21
0.128658999999999
 31
0.0
  0
LINE
  5
2610
  8
0
 10
-0.8485900000000013
 20
0.128658999999999
 30
0.0
 11
-0.8444419999999574
 21
0.1247199999999964
 31
0.0
  0
LINE
  5
2611
  8
0
 10
-0.8444419999999574
 20
0.1247199999999964
 30
0.0
 11
-0.8404299999999683
 21
0.1204810000000123
 31
0.0
  0
LINE
  5
2612
  8
0
 10
-0.8404299999999683
 20
0.1204810000000123
 30
0.0
 11
-0.8365599999999627
 21
0.1159520000000214
 31
0.0
  0
LINE
  5
2613
  8
0
 10
-0.8365599999999627
 20
0.1159520000000214
 30
0.0
 11
-0.8328439999999655
 21
0.1111429999999984
 31
0.0
  0
LINE
  5
2614
  8
0
 10
-0.8328439999999655
 20
0.1111429999999984
 30
0.0
 11
-0.8292899999999575
 21
0.1060659999999984
 31
0.0
  0
LINE
  5
2615
  8
0
 10
-0.8709719999999945
 20
0.143540999999999
 30
0.0
 11
-0.8663119999999935
 21
0.1412320000000022
 31
0.0
  0
LINE
  5
2616
  8
0
 10
-0.8663119999999935
 20
0.1412320000000022
 30
0.0
 11
-0.8617319999999601
 21
0.1385820000000138
 31
0.0
  0
LINE
  5
2617
  8
0
 10
-0.8999999999999762
 20
0.1500000000000057
 30
0.0
 11
-0.8950939999999715
 21
0.1498190000000079
 31
0.0
  0
LINE
  5
2618
  8
0
 10
-0.8950939999999715
 20
0.1498190000000079
 30
0.0
 11
-0.8901979999999973
 21
0.1492780000000096
 31
0.0
  0
LINE
  5
2619
  8
0
 10
-0.8901979999999973
 20
0.1492780000000096
 30
0.0
 11
-0.8853259999999634
 21
0.1483760000000132
 31
0.0
  0
LINE
  5
261A
  8
0
 10
-0.8853259999999634
 20
0.1483760000000132
 30
0.0
 11
-0.8804899999999516
 21
0.1471180000000061
 31
0.0
  0
LINE
  5
261B
  8
0
 10
-0.8804899999999516
 20
0.1471180000000061
 30
0.0
 11
-0.8757019999999895
 21
0.1455050000000142
 31
0.0
  0
LINE
  5
261C
  8
0
 10
-0.8757019999999895
 20
0.1455050000000142
 30
0.0
 11
-0.8709719999999945
 21
0.143540999999999
 31
0.0
  0
LINE
  5
261D
  8
0
 10
-0.9049059999999825
 20
-0.1498189999999795
 30
0.0
 11
-0.9098019999999555
 21
-0.1492779999999811
 31
0.0
  0
LINE
  5
261E
  8
0
 10
-0.9098019999999555
 20
0.1492780000000096
 30
0.0
 11
-0.9049059999999825
 21
0.1498190000000079
 31
0.0
  0
LINE
  5
261F
  8
0
 10
-1.099999999999965
 20
0.1500000000000057
 30
0.0
 11
-1.199999999999988
 21
0.1500000000000057
 31
0.0
  0
LINE
  5
2620
  8
0
 10
-1.199999999999988
 20
-0.1500000000000057
 30
0.0
 11
-1.099999999999965
 21
-0.1500000000000057
 31
0.0
  0
LINE
  5
2621
  8
0
 10
-1.099999999999965
 20
-0.1500000000000057
 30
0.0
 11
-1.1049059999999691
 21
-0.1498189999999795
 31
0.0
  0
LINE
  5
2622
  8
0
 10
-1.1049059999999691
 20
0.1498190000000079
 30
0.0
 11
-1.099999999999965
 21
0.1500000000000057
 31
0.0
  0
LINE
  5
2623
  8
0
 10
-1.022697999999989
 20
0.0951589999999953
 30
0.0
 11
-0.9941539999999796
 21
0.0505335000000003
 31
0.0
  0
LINE
  5
2624
  8
0
 10
-0.8259039999999797
 20
-0.1007339999999886
 30
0.0
 11
-0.8292899999999575
 21
-0.1060659999999984
 31
0.0
  0
LINE
  5
2625
  8
0
 10
-0.8292899999999575
 20
0.1060659999999984
 30
0.0
 11
-0.8259039999999797
 21
0.100734000000017
 31
0.0
  0
LINE
  5
2626
  8
0
 10
-0.8096019999999841
 20
-0.0641332999999804
 30
0.0
 11
-0.8118079999999848
 21
-0.0707094999999924
 31
0.0
  0
LINE
  5
2627
  8
0
 10
-0.7881921999999692
 20
-0.0707094999999924
 30
0.0
 11
-0.7903989999999797
 21
-0.0641332999999804
 31
0.0
  0
LINE
  5
2628
  8
0
 10
-0.8142279999999573
 20
-0.0771153999999967
 30
0.0
 11
-0.8168539999999778
 21
-0.083335500000004
 31
0.0
  0
LINE
  5
2629
  8
0
 10
-0.8168539999999778
 20
-0.083335500000004
 30
0.0
 11
-0.8196800000000042
 21
-0.0893548999999894
 31
0.0
  0
LINE
  5
262A
  8
0
 10
-0.8196800000000042
 20
-0.0893548999999894
 30
0.0
 11
-0.8226980000000024
 21
-0.0951589999999953
 31
0.0
  0
LINE
  5
262B
  8
0
 10
-0.8226980000000024
 20
-0.0951589999999953
 30
0.0
 11
-0.8259039999999797
 21
-0.1007339999999886
 31
0.0
  0
LINE
  5
262C
  8
0
 10
-0.8118079999999848
 20
-0.0707094999999924
 30
0.0
 11
-0.8142279999999573
 21
-0.0771153999999967
 31
0.0
  0
LINE
  5
262D
  8
0
 10
-0.7831469999999854
 20
-0.083335500000004
 30
0.0
 11
-0.7857727999999611
 21
-0.0771153999999967
 31
0.0
  0
LINE
  5
262E
  8
0
 10
-0.7595699999999968
 20
-0.1204809999999838
 30
0.0
 11
-0.7634393999999815
 21
-0.1159519999999929
 31
0.0
  0
LINE
  5
262F
  8
0
 10
-0.7634393999999815
 20
-0.1159519999999929
 30
0.0
 11
-0.767155800000012
 21
-0.1111429999999984
 31
0.0
  0
LINE
  5
2630
  8
0
 10
-0.767155800000012
 20
-0.1111429999999984
 30
0.0
 11
-0.7707105999999726
 21
-0.1060659999999984
 31
0.0
  0
LINE
  5
2631
  8
0
 10
-0.7707105999999726
 20
-0.1060659999999984
 30
0.0
 11
-0.7740951999999765
 21
-0.1007339999999886
 31
0.0
  0
LINE
  5
2632
  8
0
 10
-0.7740951999999765
 20
-0.1007339999999886
 30
0.0
 11
-0.7773009999999661
 21
-0.0951589999999953
 31
0.0
  0
LINE
  5
2633
  8
0
 10
-0.7773009999999661
 20
-0.0951589999999953
 30
0.0
 11
-0.78032079999997
 21
-0.0893548999999894
 31
0.0
  0
LINE
  5
2634
  8
0
 10
-0.78032079999997
 20
-0.0893548999999894
 30
0.0
 11
-0.7831469999999854
 21
-0.083335500000004
 31
0.0
  0
LINE
  5
2635
  8
0
 10
-0.7857727999999611
 20
-0.0771153999999967
 30
0.0
 11
-0.7881921999999692
 21
-0.0707094999999924
 31
0.0
  0
LINE
  5
2636
  8
0
 10
-0.7956939999999692
 20
-0.0435426999999891
 30
0.0
 11
-0.7970032000000061
 21
-0.0364470000000097
 31
0.0
  0
LINE
  5
2637
  8
0
 10
-0.7970032000000061
 20
0.0364470000000097
 30
0.0
 11
-0.7956939999999692
 21
0.0435427000000175
 31
0.0
  0
LINE
  5
2638
  8
0
 10
-0.7999999999999548
 20
0.0
 30
0.0
 11
-0.7998795999999973
 21
0.0073601999999937
 31
0.0
  0
LINE
  5
2639
  8
0
 10
-0.8001199999999926
 20
0.0073601999999937
 30
0.0
 11
-0.7999999999999548
 21
0.0
 31
0.0
  0
LINE
  5
263A
  8
0
 10
-0.8029960000000072
 20
-0.0364470000000097
 30
0.0
 11
-0.8043059999999966
 21
-0.0435426999999891
 31
0.0
  0
LINE
  5
263B
  8
0
 10
-0.8043059999999966
 20
-0.0435426999999891
 30
0.0
 11
-0.805845999999974
 21
-0.0505335000000002
 31
0.0
  0
LINE
  5
263C
  8
0
 10
-0.805845999999974
 20
-0.0505335000000002
 30
0.0
 11
-0.8076120000000058
 21
-0.0574024999999949
 31
0.0
  0
LINE
  5
263D
  8
0
 10
-0.8076120000000058
 20
-0.0574024999999949
 30
0.0
 11
-0.8096019999999841
 21
-0.0641332999999804
 31
0.0
  0
LINE
  5
263E
  8
0
 10
-0.7970032000000061
 20
-0.0364470000000097
 30
0.0
 11
-0.7980785999999968
 21
-0.0292634999999848
 31
0.0
  0
LINE
  5
263F
  8
0
 10
-0.7980785999999968
 20
-0.0292634999999848
 30
0.0
 11
-0.7989175999999814
 21
-0.0220095999999899
 31
0.0
  0
LINE
  5
2640
  8
0
 10
-0.7989175999999814
 20
-0.0220095999999899
 30
0.0
 11
-0.7995183999999541
 21
-0.0147025999999926
 31
0.0
  0
LINE
  5
2641
  8
0
 10
-0.7995183999999541
 20
-0.0147025999999926
 30
0.0
 11
-0.7998795999999973
 21
-0.0073601999999937
 31
0.0
  0
LINE
  5
2642
  8
0
 10
-0.7998795999999973
 20
-0.0073601999999937
 30
0.0
 11
-0.7999999999999548
 21
0.0
 31
0.0
  0
LINE
  5
2643
  8
0
 10
-0.7999999999999548
 20
0.0
 30
0.0
 11
-0.8001199999999926
 21
-0.0073601999999937
 31
0.0
  0
LINE
  5
2644
  8
0
 10
-0.8001199999999926
 20
-0.0073601999999937
 30
0.0
 11
-0.8004819999999882
 21
-0.0147025999999926
 31
0.0
  0
LINE
  5
2645
  8
0
 10
-0.8004819999999882
 20
-0.0147025999999926
 30
0.0
 11
-0.8010819999999512
 21
-0.0220095999999899
 31
0.0
  0
LINE
  5
2646
  8
0
 10
-0.8010819999999512
 20
-0.0220095999999899
 30
0.0
 11
-0.8019219999999903
 21
-0.0292634999999848
 31
0.0
  0
LINE
  5
2647
  8
0
 10
-0.8019219999999903
 20
-0.0292634999999848
 30
0.0
 11
-0.8029960000000072
 21
-0.0364470000000097
 31
0.0
  0
LINE
  5
2648
  8
0
 10
-0.8259039999999797
 20
0.100734000000017
 30
0.0
 11
-0.8226980000000024
 21
0.0951589999999953
 31
0.0
  0
LINE
  5
2649
  8
0
 10
-0.7998795999999973
 20
0.0073601999999937
 30
0.0
 11
-0.7995183999999541
 21
0.014702600000021
 31
0.0
  0
LINE
  5
264A
  8
0
 10
-0.7995183999999541
 20
0.014702600000021
 30
0.0
 11
-0.7989175999999814
 21
0.0220096000000183
 31
0.0
  0
LINE
  5
264B
  8
0
 10
-0.7989175999999814
 20
0.0220096000000183
 30
0.0
 11
-0.7980785999999968
 21
0.0292635000000132
 31
0.0
  0
LINE
  5
264C
  8
0
 10
-0.7980785999999968
 20
0.0292635000000132
 30
0.0
 11
-0.7970032000000061
 21
0.0364470000000097
 31
0.0
  0
LINE
  5
264D
  8
0
 10
-0.8226980000000024
 20
0.0951589999999953
 30
0.0
 11
-0.8196800000000042
 21
0.0893549000000178
 31
0.0
  0
LINE
  5
264E
  8
0
 10
-0.8196800000000042
 20
0.0893549000000178
 30
0.0
 11
-0.8168539999999778
 21
0.083335500000004
 31
0.0
  0
LINE
  5
264F
  8
0
 10
-0.8168539999999778
 20
0.083335500000004
 30
0.0
 11
-0.8142279999999573
 21
0.0771153999999968
 31
0.0
  0
LINE
  5
2650
  8
0
 10
-0.8142279999999573
 20
0.0771153999999968
 30
0.0
 11
-0.8118079999999848
 21
0.0707095000000209
 31
0.0
  0
LINE
  5
2651
  8
0
 10
-0.8118079999999848
 20
0.0707095000000209
 30
0.0
 11
-0.8096019999999841
 21
0.0641333000000089
 31
0.0
  0
LINE
  5
2652
  8
0
 10
-0.8096019999999841
 20
0.0641333000000089
 30
0.0
 11
-0.8076120000000058
 21
0.0574024999999949
 31
0.0
  0
LINE
  5
2653
  8
0
 10
-0.8076120000000058
 20
0.0574024999999949
 30
0.0
 11
-0.805845999999974
 21
0.0505335000000003
 31
0.0
  0
LINE
  5
2654
  8
0
 10
-0.805845999999974
 20
0.0505335000000003
 30
0.0
 11
-0.8043059999999966
 21
0.0435427000000175
 31
0.0
  0
LINE
  5
2655
  8
0
 10
-0.8043059999999966
 20
0.0435427000000175
 30
0.0
 11
-0.8029960000000072
 21
0.0364470000000097
 31
0.0
  0
LINE
  5
2656
  8
0
 10
-0.8029960000000072
 20
0.0364470000000097
 30
0.0
 11
-0.8019219999999903
 21
0.0292635000000132
 31
0.0
  0
LINE
  5
2657
  8
0
 10
-0.8019219999999903
 20
0.0292635000000132
 30
0.0
 11
-0.8010819999999512
 21
0.0220096000000183
 31
0.0
  0
LINE
  5
2658
  8
0
 10
-0.8010819999999512
 20
0.0220096000000183
 30
0.0
 11
-0.8004819999999882
 21
0.014702600000021
 31
0.0
  0
LINE
  5
2659
  8
0
 10
-0.8004819999999882
 20
0.014702600000021
 30
0.0
 11
-0.8001199999999926
 21
0.0073601999999937
 31
0.0
  0
LINE
  5
265A
  8
0
 10
-0.7903989999999797
 20
-0.0641332999999804
 30
0.0
 11
-0.7923879999999599
 21
-0.0574024999999949
 31
0.0
  0
LINE
  5
265B
  8
0
 10
-0.7923879999999599
 20
-0.0574024999999949
 30
0.0
 11
-0.794154399999968
 21
-0.0505335000000002
 31
0.0
  0
LINE
  5
265C
  8
0
 10
-0.794154399999968
 20
-0.0505335000000002
 30
0.0
 11
-0.7956939999999692
 21
-0.0435426999999891
 31
0.0
  0
LINE
  5
265D
  8
0
 10
-0.7773009999999661
 20
0.0951589999999953
 30
0.0
 11
-0.7740951999999765
 21
0.100734000000017
 31
0.0
  0
LINE
  5
265E
  8
0
 10
-0.7956939999999692
 20
0.0435427000000175
 30
0.0
 11
-0.794154399999968
 21
0.0505335000000003
 31
0.0
  0
LINE
  5
265F
  8
0
 10
-0.794154399999968
 20
0.0505335000000003
 30
0.0
 11
-0.7923879999999599
 21
0.0574024999999949
 31
0.0
  0
LINE
  5
2660
  8
0
 10
-0.7923879999999599
 20
0.0574024999999949
 30
0.0
 11
-0.7903989999999797
 21
0.0641333000000089
 31
0.0
  0
LINE
  5
2661
  8
0
 10
-0.7903989999999797
 20
0.0641333000000089
 30
0.0
 11
-0.7881921999999692
 21
0.0707095000000209
 31
0.0
  0
LINE
  5
2662
  8
0
 10
-0.7881921999999692
 20
0.0707095000000209
 30
0.0
 11
-0.7857727999999611
 21
0.0771153999999968
 31
0.0
  0
LINE
  5
2663
  8
0
 10
-0.7857727999999611
 20
0.0771153999999968
 30
0.0
 11
-0.7831469999999854
 21
0.083335500000004
 31
0.0
  0
LINE
  5
2664
  8
0
 10
-0.7831469999999854
 20
0.083335500000004
 30
0.0
 11
-0.78032079999997
 21
0.0893549000000178
 31
0.0
  0
LINE
  5
2665
  8
0
 10
-0.78032079999997
 20
0.0893549000000178
 30
0.0
 11
-0.7773009999999661
 21
0.0951589999999953
 31
0.0
  0
LINE
  5
2666
  8
0
 10
-0.7740951999999765
 20
0.100734000000017
 30
0.0
 11
-0.7707105999999726
 21
0.1060659999999984
 31
0.0
  0
LINE
  5
2667
  8
0
 10
-0.7707105999999726
 20
0.1060659999999984
 30
0.0
 11
-0.767155800000012
 21
0.1111429999999984
 31
0.0
  0
LINE
  5
2668
  8
0
 10
-0.767155800000012
 20
0.1111429999999984
 30
0.0
 11
-0.7634393999999815
 21
0.1159520000000214
 31
0.0
  0
LINE
  5
2669
  8
0
 10
-0.7634393999999815
 20
0.1159520000000214
 30
0.0
 11
-0.7595699999999968
 21
0.1204810000000123
 31
0.0
  0
LINE
  5
266A
  8
0
 10
-0.6485897999999679
 20
-0.128658999999999
 30
0.0
 11
-0.6528603999999521
 21
-0.1322879999999884
 31
0.0
  0
LINE
  5
266B
  8
0
 10
-0.6572443999999678
 20
-0.1355979999999874
 30
0.0
 11
-0.6617315999999959
 21
-0.1385819999999853
 31
0.0
  0
LINE
  5
266C
  8
0
 10
-0.6617315999999959
 20
-0.1385819999999853
 30
0.0
 11
-0.6663110000000077
 21
-0.1412320000000022
 31
0.0
  0
LINE
  5
266D
  8
0
 10
-0.6663110000000077
 20
-0.1412320000000022
 30
0.0
 11
-0.6709715999999732
 21
-0.143540999999999
 31
0.0
  0
LINE
  5
266E
  8
0
 10
-0.6709715999999732
 20
-0.143540999999999
 30
0.0
 11
-0.6757020000000013
 21
-0.1455049999999858
 31
0.0
  0
LINE
  5
266F
  8
0
 10
-0.6757020000000013
 20
-0.1455049999999858
 30
0.0
 11
-0.6804909999999608
 21
-0.1471180000000061
 31
0.0
  0
LINE
  5
2670
  8
0
 10
-0.6804909999999608
 20
-0.1471180000000061
 30
0.0
 11
-0.6853269999999725
 21
-0.1483759999999847
 31
0.0
  0
LINE
  5
2671
  8
0
 10
-0.6853269999999725
 20
-0.1483759999999847
 30
0.0
 11
-0.6901981999999977
 21
-0.1492779999999811
 31
0.0
  0
LINE
  5
2672
  8
0
 10
-0.6901981999999977
 20
-0.1492779999999811
 30
0.0
 11
-0.6950931999999738
 21
-0.1498189999999795
 31
0.0
  0
LINE
  5
2673
  8
0
 10
-0.6950931999999738
 20
-0.1498189999999795
 30
0.0
 11
-0.6999999999999889
 21
-0.1500000000000057
 31
0.0
  0
LINE
  5
2674
  8
0
 10
-0.6999999999999889
 20
-0.1500000000000057
 30
0.0
 11
-0.7049068000000034
 21
-0.1498189999999795
 31
0.0
  0
LINE
  5
2675
  8
0
 10
-0.7049068000000034
 20
-0.1498189999999795
 30
0.0
 11
-0.7098017999999798
 21
-0.1492779999999811
 31
0.0
  0
LINE
  5
2676
  8
0
 10
-0.6528603999999521
 20
-0.1322879999999884
 30
0.0
 11
-0.6572443999999678
 21
-0.1355979999999874
 31
0.0
  0
LINE
  5
2677
  8
0
 10
-0.5831469999999968
 20
-0.083335500000004
 30
0.0
 11
-0.5857727999999725
 21
-0.0771153999999967
 31
0.0
  0
LINE
  5
2678
  8
0
 10
-0.5671557999999664
 20
-0.1111429999999984
 30
0.0
 11
-0.570710599999984
 21
-0.1060659999999984
 31
0.0
  0
LINE
  5
2679
  8
0
 10
-0.54713959999998
 20
-0.1322879999999884
 30
0.0
 11
-0.5514101999999639
 21
-0.128658999999999
 31
0.0
  0
LINE
  5
267A
  8
0
 10
-0.5514101999999639
 20
-0.128658999999999
 30
0.0
 11
-0.5555569999999648
 21
-0.1247199999999964
 31
0.0
  0
LINE
  5
267B
  8
0
 10
-0.5555569999999648
 20
-0.1247199999999964
 30
0.0
 11
-0.5595700000000079
 21
-0.1204809999999838
 31
0.0
  0
LINE
  5
267C
  8
0
 10
-0.5595700000000079
 20
-0.1204809999999838
 30
0.0
 11
-0.563439399999993
 21
-0.1159519999999929
 31
0.0
  0
LINE
  5
267D
  8
0
 10
-0.563439399999993
 20
-0.1159519999999929
 30
0.0
 11
-0.5671557999999664
 21
-0.1111429999999984
 31
0.0
  0
LINE
  5
267E
  8
0
 10
-0.570710599999984
 20
-0.1060659999999984
 30
0.0
 11
-0.5740951999999882
 21
-0.1007339999999886
 31
0.0
  0
LINE
  5
267F
  8
0
 10
-0.5740951999999882
 20
-0.1007339999999886
 30
0.0
 11
-0.5773009999999773
 21
-0.0951589999999953
 31
0.0
  0
LINE
  5
2680
  8
0
 10
-0.5773009999999773
 20
-0.0951589999999953
 30
0.0
 11
-0.5803207999999814
 21
-0.0893548999999894
 31
0.0
  0
LINE
  5
2681
  8
0
 10
-0.5803207999999814
 20
-0.0893548999999894
 30
0.0
 11
-0.5831469999999968
 21
-0.083335500000004
 31
0.0
  0
LINE
  5
2682
  8
0
 10
-0.5857727999999725
 20
-0.0771153999999967
 30
0.0
 11
-0.5881921999999805
 21
-0.0707094999999924
 31
0.0
  0
LINE
  5
2683
  8
0
 10
-0.5242979999999876
 20
-0.1455049999999858
 30
0.0
 11
-0.5290283999999588
 21
-0.143540999999999
 31
0.0
  0
LINE
  5
2684
  8
0
 10
-0.5290283999999588
 20
-0.143540999999999
 30
0.0
 11
-0.5336889999999813
 21
-0.1412320000000022
 31
0.0
  0
LINE
  5
2685
  8
0
 10
-0.5336889999999813
 20
-0.1412320000000022
 30
0.0
 11
-0.5382683999999927
 21
-0.1385819999999853
 31
0.0
  0
LINE
  5
2686
  8
0
 10
-0.5382683999999927
 20
-0.1385819999999853
 30
0.0
 11
-0.5427555999999641
 21
-0.1355979999999874
 31
0.0
  0
LINE
  5
2687
  8
0
 10
-0.5427555999999641
 20
-0.1355979999999874
 30
0.0
 11
-0.54713959999998
 21
-0.1322879999999884
 31
0.0
  0
LINE
  5
2688
  8
0
 10
-0.5242979999999876
 20
0.1455050000000142
 30
0.0
 11
-0.519508999999971
 21
0.1471180000000061
 31
0.0
  0
LINE
  5
2689
  8
0
 10
-0.6118078000000085
 20
0.0707095000000209
 30
0.0
 11
-0.609600999999998
 21
0.0641333000000089
 31
0.0
  0
LINE
  5
268A
  8
0
 10
-0.6029967999999712
 20
-0.0364470000000097
 30
0.0
 11
-0.6043060000000085
 21
-0.0435426999999891
 31
0.0
  0
LINE
  5
268B
  8
0
 10
-0.6043060000000085
 20
-0.0435426999999891
 30
0.0
 11
-0.6058455999999524
 21
-0.0505335000000002
 31
0.0
  0
LINE
  5
268C
  8
0
 10
-0.6058455999999524
 20
-0.0505335000000002
 30
0.0
 11
-0.6076119999999606
 21
-0.0574024999999949
 31
0.0
  0
LINE
  5
268D
  8
0
 10
-0.6076119999999606
 20
-0.0574024999999949
 30
0.0
 11
-0.609600999999998
 21
-0.0641332999999804
 31
0.0
  0
LINE
  5
268E
  8
0
 10
-0.6019213999999807
 20
-0.0292634999999848
 30
0.0
 11
-0.6029967999999712
 21
-0.0364470000000097
 31
0.0
  0
LINE
  5
268F
  8
0
 10
-0.609600999999998
 20
0.0641333000000089
 30
0.0
 11
-0.6076119999999606
 21
0.0574024999999949
 31
0.0
  0
LINE
  5
2690
  8
0
 10
-0.6076119999999606
 20
0.0574024999999949
 30
0.0
 11
-0.6058455999999524
 21
0.0505335000000003
 31
0.0
  0
LINE
  5
2691
  8
0
 10
-0.6058455999999524
 20
0.0505335000000003
 30
0.0
 11
-0.6043060000000085
 21
0.0435427000000175
 31
0.0
  0
LINE
  5
2692
  8
0
 10
-0.6043060000000085
 20
0.0435427000000175
 30
0.0
 11
-0.6029967999999712
 21
0.0364470000000097
 31
0.0
  0
LINE
  5
2693
  8
0
 10
-0.6029967999999712
 20
0.0364470000000097
 30
0.0
 11
-0.6019213999999807
 21
0.0292635000000132
 31
0.0
  0
LINE
  5
2694
  8
0
 10
-0.6259048000000007
 20
0.100734000000017
 30
0.0
 11
-0.6226990000000116
 21
0.0951589999999953
 31
0.0
  0
LINE
  5
2695
  8
0
 10
-0.6226990000000116
 20
0.0951589999999953
 30
0.0
 11
-0.6196792000000074
 21
0.0893549000000178
 31
0.0
  0
LINE
  5
2696
  8
0
 10
-0.6196792000000074
 20
0.0893549000000178
 30
0.0
 11
-0.6168529999999919
 21
0.083335500000004
 31
0.0
  0
LINE
  5
2697
  8
0
 10
-0.6168529999999919
 20
0.083335500000004
 30
0.0
 11
-0.6142271999999595
 21
0.0771153999999968
 31
0.0
  0
LINE
  5
2698
  8
0
 10
-0.6142271999999595
 20
0.0771153999999968
 30
0.0
 11
-0.6118078000000085
 21
0.0707095000000209
 31
0.0
  0
LINE
  5
2699
  8
0
 10
-0.6292894000000046
 20
0.1060659999999984
 30
0.0
 11
-0.6259048000000007
 21
0.100734000000017
 31
0.0
  0
LINE
  5
269A
  8
0
 10
-0.6999999999999889
 20
0.1500000000000057
 30
0.0
 11
-0.6950931999999738
 21
0.1498190000000079
 31
0.0
  0
LINE
  5
269B
  8
0
 10
-0.6950931999999738
 20
0.1498190000000079
 30
0.0
 11
-0.6901981999999977
 21
0.1492780000000096
 31
0.0
  0
LINE
  5
269C
  8
0
 10
-0.6901981999999977
 20
0.1492780000000096
 30
0.0
 11
-0.6853269999999725
 21
0.1483760000000132
 31
0.0
  0
LINE
  5
269D
  8
0
 10
-0.6853269999999725
 20
0.1483760000000132
 30
0.0
 11
-0.6804909999999608
 21
0.1471180000000061
 31
0.0
  0
LINE
  5
269E
  8
0
 10
-0.6804909999999608
 20
0.1471180000000061
 30
0.0
 11
-0.6757020000000013
 21
0.1455050000000142
 31
0.0
  0
LINE
  5
269F
  8
0
 10
-0.6757020000000013
 20
0.1455050000000142
 30
0.0
 11
-0.6709715999999732
 21
0.143540999999999
 31
0.0
  0
LINE
  5
26A0
  8
0
 10
-0.6709715999999732
 20
0.143540999999999
 30
0.0
 11
-0.6663110000000077
 21
0.1412320000000022
 31
0.0
  0
LINE
  5
26A1
  8
0
 10
-0.6663110000000077
 20
0.1412320000000022
 30
0.0
 11
-0.6617315999999959
 21
0.1385820000000138
 31
0.0
  0
LINE
  5
26A2
  8
0
 10
-0.6617315999999959
 20
0.1385820000000138
 30
0.0
 11
-0.6572443999999678
 21
0.1355980000000159
 31
0.0
  0
LINE
  5
26A3
  8
0
 10
-0.6572443999999678
 20
0.1355980000000159
 30
0.0
 11
-0.6528603999999521
 21
0.1322880000000168
 31
0.0
  0
LINE
  5
26A4
  8
0
 10
-0.6528603999999521
 20
0.1322880000000168
 30
0.0
 11
-0.6485897999999679
 21
0.128658999999999
 31
0.0
  0
LINE
  5
26A5
  8
0
 10
-0.6485897999999679
 20
0.128658999999999
 30
0.0
 11
-0.6444429999999671
 21
0.1247199999999964
 31
0.0
  0
LINE
  5
26A6
  8
0
 10
-0.6444429999999671
 20
0.1247199999999964
 30
0.0
 11
-0.6404299999999809
 21
0.1204810000000123
 31
0.0
  0
LINE
  5
26A7
  8
0
 10
-0.6404299999999809
 20
0.1204810000000123
 30
0.0
 11
-0.6365605999999957
 21
0.1159520000000214
 31
0.0
  0
LINE
  5
26A8
  8
0
 10
-0.6365605999999957
 20
0.1159520000000214
 30
0.0
 11
-0.6328441999999656
 21
0.1111429999999984
 31
0.0
  0
LINE
  5
26A9
  8
0
 10
-0.6328441999999656
 20
0.1111429999999984
 30
0.0
 11
-0.6292894000000046
 21
0.1060659999999984
 31
0.0
  0
LINE
  5
26AA
  8
0
 10
-0.7098017999999798
 20
0.1492780000000096
 30
0.0
 11
-0.7049068000000034
 21
0.1498190000000079
 31
0.0
  0
LINE
  5
26AB
  8
0
 10
-0.7049068000000034
 20
0.1498190000000079
 30
0.0
 11
-0.6999999999999889
 21
0.1500000000000057
 31
0.0
  0
LINE
  5
26AC
  8
0
 10
-0.6001203999999804
 20
0.0073601999999937
 30
0.0
 11
-0.5999999999999661
 21
0.0
 31
0.0
  0
LINE
  5
26AD
  8
0
 10
-0.5999999999999661
 20
0.0
 30
0.0
 11
-0.5998796000000085
 21
0.0073601999999937
 31
0.0
  0
LINE
  5
26AE
  8
0
 10
-0.5956939999999805
 20
-0.0435426999999891
 30
0.0
 11
-0.5970031999999607
 21
-0.0364470000000097
 31
0.0
  0
LINE
  5
26AF
  8
0
 10
-0.5903989999999908
 20
-0.0641332999999804
 30
0.0
 11
-0.5923879999999713
 21
-0.0574024999999949
 31
0.0
  0
LINE
  5
26B0
  8
0
 10
-0.5923879999999713
 20
-0.0574024999999949
 30
0.0
 11
-0.5941543999999797
 21
-0.0505335000000002
 31
0.0
  0
LINE
  5
26B1
  8
0
 10
-0.5941543999999797
 20
-0.0505335000000002
 30
0.0
 11
-0.5956939999999805
 21
-0.0435426999999891
 31
0.0
  0
LINE
  5
26B2
  8
0
 10
-0.5999999999999661
 20
0.0
 30
0.0
 11
-0.6001203999999804
 21
-0.0073601999999937
 31
0.0
  0
LINE
  5
26B3
  8
0
 10
-0.6001203999999804
 20
-0.0073601999999937
 30
0.0
 11
-0.6004815999999665
 21
-0.0147025999999926
 31
0.0
  0
LINE
  5
26B4
  8
0
 10
-0.6004815999999665
 20
-0.0147025999999926
 30
0.0
 11
-0.6010823999999957
 21
-0.0220095999999899
 31
0.0
  0
LINE
  5
26B5
  8
0
 10
-0.5970031999999607
 20
-0.0364470000000097
 30
0.0
 11
-0.5980786000000081
 21
-0.0292634999999848
 31
0.0
  0
LINE
  5
26B6
  8
0
 10
-0.5980786000000081
 20
-0.0292634999999848
 30
0.0
 11
-0.5989175999999929
 21
-0.0220095999999899
 31
0.0
  0
LINE
  5
26B7
  8
0
 10
-0.5989175999999929
 20
-0.0220095999999899
 30
0.0
 11
-0.5995183999999654
 21
-0.0147025999999926
 31
0.0
  0
LINE
  5
26B8
  8
0
 10
0.0
 20
-0.1500000000000057
 30
0.0
 11
0.0
 21
0.1500000000000057
 31
0.0
  0
LINE
  5
26B9
  8
0
 10
-0.0001199999999812
 20
0.0073601999999937
 30
0.0
 11
0.0
 21
0.0
 31
0.0
  0
LINE
  5
26BA
  8
0
 10
-0.002995999999996
 20
-0.0364470000000097
 30
0.0
 11
-0.0043059999999855
 21
-0.0435426999999891
 31
0.0
  0
LINE
  5
26BB
  8
0
 10
-0.0043059999999855
 20
-0.0435426999999891
 30
0.0
 11
-0.0058459999999627
 21
-0.0505335000000002
 31
0.0
  0
LINE
  5
26BC
  8
0
 10
0.0
 20
0.0
 30
0.0
 11
-0.0001199999999812
 21
-0.0073601999999937
 31
0.0
  0
LINE
  5
26BD
  8
0
 10
-0.0001199999999812
 20
-0.0073601999999937
 30
0.0
 11
-0.0004819999999768
 21
-0.0147025999999926
 31
0.0
  0
LINE
  5
26BE
  8
0
 10
-0.0004819999999768
 20
-0.0147025999999926
 30
0.0
 11
-0.0010819999999967
 21
-0.0220095999999899
 31
0.0
  0
LINE
  5
26BF
  8
0
 10
-0.0010819999999967
 20
-0.0220095999999899
 30
0.0
 11
-0.0019219999999791
 21
-0.0292634999999848
 31
0.0
  0
LINE
  5
26C0
  8
0
 10
-0.0019219999999791
 20
-0.0292634999999848
 30
0.0
 11
-0.002995999999996
 21
-0.0364470000000097
 31
0.0
  0
LINE
  5
26C1
  8
0
 10
-0.0058459999999627
 20
0.0505335000000003
 30
0.0
 11
-0.0043059999999855
 21
0.0435427000000175
 31
0.0
  0
LINE
  5
26C2
  8
0
 10
-0.0043059999999855
 20
0.0435427000000175
 30
0.0
 11
-0.002995999999996
 21
0.0364470000000097
 31
0.0
  0
LINE
  5
26C3
  8
0
 10
-0.002995999999996
 20
0.0364470000000097
 30
0.0
 11
-0.0019219999999791
 21
0.0292635000000132
 31
0.0
  0
LINE
  5
26C4
  8
0
 10
-0.0019219999999791
 20
0.0292635000000132
 30
0.0
 11
-0.0010819999999967
 21
0.0220096000000183
 31
0.0
  0
LINE
  5
26C5
  8
0
 10
-0.0010819999999967
 20
0.0220096000000183
 30
0.0
 11
-0.0004819999999768
 21
0.014702600000021
 31
0.0
  0
LINE
  5
26C6
  8
0
 10
-0.0004819999999768
 20
0.014702600000021
 30
0.0
 11
-0.0001199999999812
 21
0.0073601999999937
 31
0.0
  0
LINE
  5
26C7
  8
0
 10
-0.0058459999999627
 20
-0.0505335000000002
 30
0.0
 11
-0.0076119999999946
 21
-0.0574024999999949
 31
0.0
  0
LINE
  5
26C8
  8
0
 10
-0.0076119999999946
 20
0.0574024999999949
 30
0.0
 11
-0.0058459999999627
 21
0.0505335000000003
 31
0.0
  0
LINE
  5
26C9
  8
0
 10
-0.5995183999999654
 20
-0.0147025999999926
 30
0.0
 11
-0.5998796000000085
 21
-0.0073601999999937
 31
0.0
  0
LINE
  5
26CA
  8
0
 10
-0.5998796000000085
 20
-0.0073601999999937
 30
0.0
 11
-0.5999999999999661
 21
0.0
 31
0.0
  0
LINE
  5
26CB
  8
0
 10
-0.5773009999999773
 20
0.0951589999999953
 30
0.0
 11
-0.5740951999999882
 21
0.100734000000017
 31
0.0
  0
LINE
  5
26CC
  8
0
 10
-0.6010823999999957
 20
0.0220096000000183
 30
0.0
 11
-0.6004815999999665
 21
0.014702600000021
 31
0.0
  0
LINE
  5
26CD
  8
0
 10
-0.6004815999999665
 20
0.014702600000021
 30
0.0
 11
-0.6001203999999804
 21
0.0073601999999937
 31
0.0
  0
LINE
  5
26CE
  8
0
 10
-0.5998796000000085
 20
0.0073601999999937
 30
0.0
 11
-0.5995183999999654
 21
0.014702600000021
 31
0.0
  0
LINE
  5
26CF
  8
0
 10
-0.5995183999999654
 20
0.014702600000021
 30
0.0
 11
-0.5989175999999929
 21
0.0220096000000183
 31
0.0
  0
LINE
  5
26D0
  8
0
 10
-0.5989175999999929
 20
0.0220096000000183
 30
0.0
 11
-0.5980786000000081
 21
0.0292635000000132
 31
0.0
  0
LINE
  5
26D1
  8
0
 10
-0.5980786000000081
 20
0.0292635000000132
 30
0.0
 11
-0.5970031999999607
 21
0.0364470000000097
 31
0.0
  0
LINE
  5
26D2
  8
0
 10
-0.5970031999999607
 20
0.0364470000000097
 30
0.0
 11
-0.5956939999999805
 21
0.0435427000000175
 31
0.0
  0
LINE
  5
26D3
  8
0
 10
-0.5956939999999805
 20
0.0435427000000175
 30
0.0
 11
-0.5941543999999797
 21
0.0505335000000003
 31
0.0
  0
LINE
  5
26D4
  8
0
 10
-0.5941543999999797
 20
0.0505335000000003
 30
0.0
 11
-0.5923879999999713
 21
0.0574024999999949
 31
0.0
  0
LINE
  5
26D5
  8
0
 10
-0.5923879999999713
 20
0.0574024999999949
 30
0.0
 11
-0.5903989999999908
 21
0.0641333000000089
 31
0.0
  0
LINE
  5
26D6
  8
0
 10
-0.5903989999999908
 20
0.0641333000000089
 30
0.0
 11
-0.5881921999999805
 21
0.0707095000000209
 31
0.0
  0
LINE
  5
26D7
  8
0
 10
-0.5881921999999805
 20
0.0707095000000209
 30
0.0
 11
-0.5857727999999725
 21
0.0771153999999968
 31
0.0
  0
LINE
  5
26D8
  8
0
 10
-0.5831469999999968
 20
0.083335500000004
 30
0.0
 11
-0.5803207999999814
 21
0.0893549000000178
 31
0.0
  0
LINE
  5
26D9
  8
0
 10
-0.5803207999999814
 20
0.0893549000000178
 30
0.0
 11
-0.5773009999999773
 21
0.0951589999999953
 31
0.0
  0
LINE
  5
26DA
  8
0
 10
-0.5857727999999725
 20
0.0771153999999968
 30
0.0
 11
-0.5831469999999968
 21
0.083335500000004
 31
0.0
  0
LINE
  5
26DB
  8
0
 10
-0.570710599999984
 20
0.1060659999999984
 30
0.0
 11
-0.5671557999999664
 21
0.1111429999999984
 31
0.0
  0
LINE
  5
26DC
  8
0
 10
-0.5671557999999664
 20
0.1111429999999984
 30
0.0
 11
-0.563439399999993
 21
0.1159520000000214
 31
0.0
  0
LINE
  5
26DD
  8
0
 10
-0.563439399999993
 20
0.1159520000000214
 30
0.0
 11
-0.5595700000000079
 21
0.1204810000000123
 31
0.0
  0
LINE
  5
26DE
  8
0
 10
-0.5595700000000079
 20
0.1204810000000123
 30
0.0
 11
-0.5555569999999648
 21
0.1247199999999964
 31
0.0
  0
LINE
  5
26DF
  8
0
 10
-0.5555569999999648
 20
0.1247199999999964
 30
0.0
 11
-0.5514101999999639
 21
0.128658999999999
 31
0.0
  0
LINE
  5
26E0
  8
0
 10
-0.5514101999999639
 20
0.128658999999999
 30
0.0
 11
-0.54713959999998
 21
0.1322880000000168
 31
0.0
  0
LINE
  5
26E1
  8
0
 10
-0.54713959999998
 20
0.1322880000000168
 30
0.0
 11
-0.5427555999999641
 21
0.1355980000000159
 31
0.0
  0
LINE
  5
26E2
  8
0
 10
-0.5427555999999641
 20
0.1355980000000159
 30
0.0
 11
-0.5382683999999927
 21
0.1385820000000138
 31
0.0
  0
LINE
  5
26E3
  8
0
 10
-0.5382683999999927
 20
0.1385820000000138
 30
0.0
 11
-0.5336889999999813
 21
0.1412320000000022
 31
0.0
  0
LINE
  5
26E4
  8
0
 10
-0.5336889999999813
 20
0.1412320000000022
 30
0.0
 11
-0.5290283999999588
 21
0.143540999999999
 31
0.0
  0
LINE
  5
26E5
  8
0
 10
-0.5290283999999588
 20
0.143540999999999
 30
0.0
 11
-0.5242979999999876
 21
0.1455050000000142
 31
0.0
  0
LINE
  5
26E6
  8
0
 10
-0.5740951999999882
 20
0.100734000000017
 30
0.0
 11
-0.570710599999984
 21
0.1060659999999984
 31
0.0
  0
LINE
  5
26E7
  8
0
 10
-0.6010823999999957
 20
-0.0220095999999899
 30
0.0
 11
-0.6019213999999807
 21
-0.0292634999999848
 31
0.0
  0
LINE
  5
26E8
  8
0
 10
-0.6019213999999807
 20
0.0292635000000132
 30
0.0
 11
-0.6010823999999957
 21
0.0220096000000183
 31
0.0
  0
LINE
  5
26E9
  8
0
 10
-0.4096009999999525
 20
-0.0641332999999804
 30
0.0
 11
-0.411807799999963
 21
-0.0707094999999924
 31
0.0
  0
LINE
  5
26EA
  8
0
 10
-0.3881920000000036
 20
-0.0707094999999924
 30
0.0
 11
-0.3903980000000047
 21
-0.0641332999999804
 31
0.0
  0
LINE
  5
26EB
  8
0
 10
-0.3242979999999989
 20
-0.1455049999999858
 30
0.0
 11
-0.3290279999999939
 21
-0.143540999999999
 31
0.0
  0
LINE
  5
26EC
  8
0
 10
-0.4365606000000072
 20
-0.1159519999999929
 30
0.0
 11
-0.4404299999999922
 21
-0.1204809999999838
 31
0.0
  0
LINE
  5
26ED
  8
0
 10
-0.4404299999999922
 20
-0.1204809999999838
 30
0.0
 11
-0.4444429999999784
 21
-0.1247199999999964
 31
0.0
  0
LINE
  5
26EE
  8
0
 10
-0.4444429999999784
 20
-0.1247199999999964
 30
0.0
 11
-0.4485897999999793
 21
-0.128658999999999
 31
0.0
  0
LINE
  5
26EF
  8
0
 10
-0.4485897999999793
 20
-0.128658999999999
 30
0.0
 11
-0.4528603999999632
 21
-0.1322879999999884
 31
0.0
  0
LINE
  5
26F0
  8
0
 10
-0.4142271999999708
 20
-0.0771153999999967
 30
0.0
 11
-0.4168530000000035
 21
-0.083335500000004
 31
0.0
  0
LINE
  5
26F1
  8
0
 10
-0.4168530000000035
 20
-0.083335500000004
 30
0.0
 11
-0.4196791999999621
 21
-0.0893548999999894
 31
0.0
  0
LINE
  5
26F2
  8
0
 10
-0.4196791999999621
 20
-0.0893548999999894
 30
0.0
 11
-0.4226989999999661
 21
-0.0951589999999953
 31
0.0
  0
LINE
  5
26F3
  8
0
 10
-0.4226989999999661
 20
-0.0951589999999953
 30
0.0
 11
-0.4259048000000121
 21
-0.1007339999999886
 31
0.0
  0
LINE
  5
26F4
  8
0
 10
-0.4259048000000121
 20
-0.1007339999999886
 30
0.0
 11
-0.4292893999999592
 21
-0.1060659999999984
 31
0.0
  0
LINE
  5
26F5
  8
0
 10
-0.4292893999999592
 20
-0.1060659999999984
 30
0.0
 11
-0.4328441999999769
 21
-0.1111429999999984
 31
0.0
  0
LINE
  5
26F6
  8
0
 10
-0.411807799999963
 20
-0.0707094999999924
 30
0.0
 11
-0.4142271999999708
 21
-0.0771153999999967
 31
0.0
  0
LINE
  5
26F7
  8
0
 10
-0.4328441999999769
 20
-0.1111429999999984
 30
0.0
 11
-0.4365606000000072
 21
-0.1159519999999929
 31
0.0
  0
LINE
  5
26F8
  8
0
 10
-0.504906799999958
 20
-0.1498189999999795
 30
0.0
 11
-0.5098017999999911
 21
-0.1492779999999811
 31
0.0
  0
LINE
  5
26F9
  8
0
 10
-0.4572443999999793
 20
-0.1355979999999874
 30
0.0
 11
-0.4617316000000076
 21
-0.1385819999999853
 31
0.0
  0
LINE
  5
26FA
  8
0
 10
-0.4617316000000076
 20
-0.1385819999999853
 30
0.0
 11
-0.4663109999999622
 21
-0.1412320000000022
 31
0.0
  0
LINE
  5
26FB
  8
0
 10
-0.4663109999999622
 20
-0.1412320000000022
 30
0.0
 11
-0.4709715999999844
 21
-0.143540999999999
 31
0.0
  0
LINE
  5
26FC
  8
0
 10
-0.4709715999999844
 20
-0.143540999999999
 30
0.0
 11
-0.4757019999999559
 21
-0.1455049999999858
 31
0.0
  0
LINE
  5
26FD
  8
0
 10
-0.4757019999999559
 20
-0.1455049999999858
 30
0.0
 11
-0.4804909999999725
 21
-0.1471180000000061
 31
0.0
  0
LINE
  5
26FE
  8
0
 10
-0.4804909999999725
 20
-0.1471180000000061
 30
0.0
 11
-0.485326999999984
 21
-0.1483759999999847
 31
0.0
  0
LINE
  5
26FF
  8
0
 10
-0.485326999999984
 20
-0.1483759999999847
 30
0.0
 11
-0.490198200000009
 21
-0.1492779999999811
 31
0.0
  0
LINE
  5
2700
  8
0
 10
-0.490198200000009
 20
-0.1492779999999811
 30
0.0
 11
-0.4950931999999855
 21
-0.1498189999999795
 31
0.0
  0
LINE
  5
2701
  8
0
 10
-0.4950931999999855
 20
-0.1498189999999795
 30
0.0
 11
-0.5000000000000001
 21
-0.1500000000000057
 31
0.0
  0
LINE
  5
2702
  8
0
 10
-0.5000000000000001
 20
-0.1500000000000057
 30
0.0
 11
-0.504906799999958
 21
-0.1498189999999795
 31
0.0
  0
LINE
  5
2703
  8
0
 10
-0.5098017999999911
 20
-0.1492779999999811
 30
0.0
 11
-0.5146729999999594
 21
-0.1483759999999847
 31
0.0
  0
LINE
  5
2704
  8
0
 10
-0.4528603999999632
 20
-0.1322879999999884
 30
0.0
 11
-0.4572443999999793
 21
-0.1355979999999874
 31
0.0
  0
LINE
  5
2705
  8
0
 10
-0.3831460000000106
 20
-0.083335500000004
 30
0.0
 11
-0.3857719999999744
 21
-0.0771153999999967
 31
0.0
  0
LINE
  5
2706
  8
0
 10
-0.3471399999999676
 20
-0.1322879999999884
 30
0.0
 11
-0.3514099999999872
 21
-0.128658999999999
 31
0.0
  0
LINE
  5
2707
  8
0
 10
-0.3514099999999872
 20
-0.128658999999999
 30
0.0
 11
-0.3555579999999737
 21
-0.1247199999999964
 31
0.0
  0
LINE
  5
2708
  8
0
 10
-0.3555579999999737
 20
-0.1247199999999964
 30
0.0
 11
-0.3595699999999625
 21
-0.1204809999999838
 31
0.0
  0
LINE
  5
2709
  8
0
 10
-0.3595699999999625
 20
-0.1204809999999838
 30
0.0
 11
-0.3634399999999687
 21
-0.1159519999999929
 31
0.0
  0
LINE
  5
270A
  8
0
 10
-0.3634399999999687
 20
-0.1159519999999929
 30
0.0
 11
-0.3671559999999658
 21
-0.1111429999999984
 31
0.0
  0
LINE
  5
270B
  8
0
 10
-0.3671559999999658
 20
-0.1111429999999984
 30
0.0
 11
-0.3707099999999742
 21
-0.1060659999999984
 31
0.0
  0
LINE
  5
270C
  8
0
 10
-0.3707099999999742
 20
-0.1060659999999984
 30
0.0
 11
-0.3740960000000086
 21
-0.1007339999999886
 31
0.0
  0
LINE
  5
270D
  8
0
 10
-0.3740960000000086
 20
-0.1007339999999886
 30
0.0
 11
-0.377301999999986
 21
-0.0951589999999953
 31
0.0
  0
LINE
  5
270E
  8
0
 10
-0.377301999999986
 20
-0.0951589999999953
 30
0.0
 11
-0.3803199999999833
 21
-0.0893548999999894
 31
0.0
  0
LINE
  5
270F
  8
0
 10
-0.3803199999999833
 20
-0.0893548999999894
 30
0.0
 11
-0.3831460000000106
 21
-0.083335500000004
 31
0.0
  0
LINE
  5
2710
  8
0
 10
-0.3857719999999744
 20
-0.0771153999999967
 30
0.0
 11
-0.3881920000000036
 21
-0.0707094999999924
 31
0.0
  0
LINE
  5
2711
  8
0
 10
-0.3290279999999939
 20
-0.143540999999999
 30
0.0
 11
-0.3336879999999952
 21
-0.1412320000000022
 31
0.0
  0
LINE
  5
2712
  8
0
 10
-0.3336879999999952
 20
-0.1412320000000022
 30
0.0
 11
-0.338267999999971
 21
-0.1385819999999853
 31
0.0
  0
LINE
  5
2713
  8
0
 10
-0.338267999999971
 20
-0.1385819999999853
 30
0.0
 11
-0.3427560000000086
 21
-0.1355979999999874
 31
0.0
  0
LINE
  5
2714
  8
0
 10
-0.3427560000000086
 20
-0.1355979999999874
 30
0.0
 11
-0.3471399999999676
 21
-0.1322879999999884
 31
0.0
  0
LINE
  5
2715
  8
0
 10
-0.3290279999999939
 20
0.143540999999999
 30
0.0
 11
-0.3242979999999989
 21
0.1455050000000142
 31
0.0
  0
LINE
  5
2716
  8
0
 10
-0.4058455999999639
 20
-0.0505335000000002
 30
0.0
 11
-0.4076119999999719
 21
-0.0574024999999949
 31
0.0
  0
LINE
  5
2717
  8
0
 10
-0.4076119999999719
 20
0.0574024999999949
 30
0.0
 11
-0.4058455999999639
 21
0.0505335000000003
 31
0.0
  0
LINE
  5
2718
  8
0
 10
-0.4076119999999719
 20
-0.0574024999999949
 30
0.0
 11
-0.4096009999999525
 21
-0.0641332999999804
 31
0.0
  0
LINE
  5
2719
  8
0
 10
-0.5098017999999911
 20
0.1492780000000096
 30
0.0
 11
-0.504906799999958
 21
0.1498190000000079
 31
0.0
  0
LINE
  5
271A
  8
0
 10
-0.5000000000000001
 20
0.1500000000000057
 30
0.0
 11
-0.4950931999999855
 21
0.1498190000000079
 31
0.0
  0
LINE
  5
271B
  8
0
 10
-0.4950931999999855
 20
0.1498190000000079
 30
0.0
 11
-0.490198200000009
 21
0.1492780000000096
 31
0.0
  0
LINE
  5
271C
  8
0
 10
-0.490198200000009
 20
0.1492780000000096
 30
0.0
 11
-0.485326999999984
 21
0.1483760000000132
 31
0.0
  0
LINE
  5
271D
  8
0
 10
-0.485326999999984
 20
0.1483760000000132
 30
0.0
 11
-0.4804909999999725
 21
0.1471180000000061
 31
0.0
  0
LINE
  5
271E
  8
0
 10
-0.4804909999999725
 20
0.1471180000000061
 30
0.0
 11
-0.4757019999999559
 21
0.1455050000000142
 31
0.0
  0
LINE
  5
271F
  8
0
 10
-0.4757019999999559
 20
0.1455050000000142
 30
0.0
 11
-0.4709715999999844
 21
0.143540999999999
 31
0.0
  0
LINE
  5
2720
  8
0
 10
-0.4709715999999844
 20
0.143540999999999
 30
0.0
 11
-0.4663109999999622
 21
0.1412320000000022
 31
0.0
  0
LINE
  5
2721
  8
0
 10
-0.4663109999999622
 20
0.1412320000000022
 30
0.0
 11
-0.4617316000000076
 21
0.1385820000000138
 31
0.0
  0
LINE
  5
2722
  8
0
 10
-0.4617316000000076
 20
0.1385820000000138
 30
0.0
 11
-0.4572443999999793
 21
0.1355980000000159
 31
0.0
  0
LINE
  5
2723
  8
0
 10
-0.4572443999999793
 20
0.1355980000000159
 30
0.0
 11
-0.4528603999999632
 21
0.1322880000000168
 31
0.0
  0
LINE
  5
2724
  8
0
 10
-0.4528603999999632
 20
0.1322880000000168
 30
0.0
 11
-0.4485897999999793
 21
0.128658999999999
 31
0.0
  0
LINE
  5
2725
  8
0
 10
-0.4485897999999793
 20
0.128658999999999
 30
0.0
 11
-0.4444429999999784
 21
0.1247199999999964
 31
0.0
  0
LINE
  5
2726
  8
0
 10
-0.4444429999999784
 20
0.1247199999999964
 30
0.0
 11
-0.4404299999999922
 21
0.1204810000000123
 31
0.0
  0
LINE
  5
2727
  8
0
 10
-0.4404299999999922
 20
0.1204810000000123
 30
0.0
 11
-0.4365606000000072
 21
0.1159520000000214
 31
0.0
  0
LINE
  5
2728
  8
0
 10
-0.504906799999958
 20
0.1498190000000079
 30
0.0
 11
-0.5000000000000001
 21
0.1500000000000057
 31
0.0
  0
LINE
  5
2729
  8
0
 10
-0.5146729999999594
 20
0.1483760000000132
 30
0.0
 11
-0.5098017999999911
 21
0.1492780000000096
 31
0.0
  0
LINE
  5
272A
  8
0
 10
-0.4259048000000121
 20
0.100734000000017
 30
0.0
 11
-0.4226989999999661
 21
0.0951589999999953
 31
0.0
  0
LINE
  5
272B
  8
0
 10
-0.4226989999999661
 20
0.0951589999999953
 30
0.0
 11
-0.4196791999999621
 21
0.0893549000000178
 31
0.0
  0
LINE
  5
272C
  8
0
 10
-0.4196791999999621
 20
0.0893549000000178
 30
0.0
 11
-0.4168530000000035
 21
0.083335500000004
 31
0.0
  0
LINE
  5
272D
  8
0
 10
-0.4168530000000035
 20
0.083335500000004
 30
0.0
 11
-0.4142271999999708
 21
0.0771153999999968
 31
0.0
  0
LINE
  5
272E
  8
0
 10
-0.4142271999999708
 20
0.0771153999999968
 30
0.0
 11
-0.411807799999963
 21
0.0707095000000209
 31
0.0
  0
LINE
  5
272F
  8
0
 10
-0.411807799999963
 20
0.0707095000000209
 30
0.0
 11
-0.4096009999999525
 21
0.0641333000000089
 31
0.0
  0
LINE
  5
2730
  8
0
 10
-0.4096009999999525
 20
0.0641333000000089
 30
0.0
 11
-0.4076119999999719
 21
0.0574024999999949
 31
0.0
  0
LINE
  5
2731
  8
0
 10
-0.4328441999999769
 20
0.1111429999999984
 30
0.0
 11
-0.4292893999999592
 21
0.1060659999999984
 31
0.0
  0
LINE
  5
2732
  8
0
 10
-0.4292893999999592
 20
0.1060659999999984
 30
0.0
 11
-0.4259048000000121
 21
0.100734000000017
 31
0.0
  0
LINE
  5
2733
  8
0
 10
-0.4365606000000072
 20
0.1159520000000214
 30
0.0
 11
-0.4328441999999769
 21
0.1111429999999984
 31
0.0
  0
LINE
  5
2734
  8
0
 10
-0.4001203999999917
 20
0.0073601999999937
 30
0.0
 11
-0.3999999999999772
 21
0.0
 31
0.0
  0
LINE
  5
2735
  8
0
 10
-0.3999999999999772
 20
0.0
 30
0.0
 11
-0.3998799999999961
 21
0.0073601999999937
 31
0.0
  0
LINE
  5
2736
  8
0
 10
-0.3923879999999826
 20
-0.0574024999999949
 30
0.0
 11
-0.3941539999999578
 21
-0.0505335000000002
 31
0.0
  0
LINE
  5
2737
  8
0
 10
-0.3903980000000047
 20
-0.0641332999999804
 30
0.0
 11
-0.3923879999999826
 21
-0.0574024999999949
 31
0.0
  0
LINE
  5
2738
  8
0
 10
-0.4029967999999827
 20
-0.0364470000000097
 30
0.0
 11
-0.404305999999963
 21
-0.0435426999999891
 31
0.0
  0
LINE
  5
2739
  8
0
 10
-0.3956939999999918
 20
-0.0435426999999891
 30
0.0
 11
-0.3970039999999812
 21
-0.0364470000000097
 31
0.0
  0
LINE
  5
273A
  8
0
 10
-0.404305999999963
 20
-0.0435426999999891
 30
0.0
 11
-0.4058455999999639
 21
-0.0505335000000002
 31
0.0
  0
LINE
  5
273B
  8
0
 10
-0.3941539999999578
 20
-0.0505335000000002
 30
0.0
 11
-0.3956939999999918
 21
-0.0435426999999891
 31
0.0
  0
LINE
  5
273C
  8
0
 10
-0.3999999999999772
 20
0.0
 30
0.0
 11
-0.4001203999999917
 21
-0.0073601999999937
 31
0.0
  0
LINE
  5
273D
  8
0
 10
-0.4001203999999917
 20
-0.0073601999999937
 30
0.0
 11
-0.4004815999999778
 21
-0.0147025999999926
 31
0.0
  0
LINE
  5
273E
  8
0
 10
-0.4004815999999778
 20
-0.0147025999999926
 30
0.0
 11
-0.4010824000000073
 21
-0.0220095999999899
 31
0.0
  0
LINE
  5
273F
  8
0
 10
-0.4010824000000073
 20
-0.0220095999999899
 30
0.0
 11
-0.4019213999999921
 21
-0.0292634999999848
 31
0.0
  0
LINE
  5
2740
  8
0
 10
-0.4019213999999921
 20
-0.0292634999999848
 30
0.0
 11
-0.4029967999999827
 21
-0.0364470000000097
 31
0.0
  0
LINE
  5
2741
  8
0
 10
-0.3970039999999812
 20
-0.0364470000000097
 30
0.0
 11
-0.3980779999999981
 21
-0.0292634999999848
 31
0.0
  0
LINE
  5
2742
  8
0
 10
-0.3980779999999981
 20
-0.0292634999999848
 30
0.0
 11
-0.3989179999999806
 21
-0.0220095999999899
 31
0.0
  0
LINE
  5
2743
  8
0
 10
-0.3989179999999806
 20
-0.0220095999999899
 30
0.0
 11
-0.3995180000000005
 21
-0.0147025999999926
 31
0.0
  0
LINE
  5
2744
  8
0
 10
-0.3995180000000005
 20
-0.0147025999999926
 30
0.0
 11
-0.3998799999999961
 21
-0.0073601999999937
 31
0.0
  0
LINE
  5
2745
  8
0
 10
-0.3998799999999961
 20
-0.0073601999999937
 30
0.0
 11
-0.3999999999999772
 21
0.0
 31
0.0
  0
LINE
  5
2746
  8
0
 10
-0.3941539999999578
 20
0.0505335000000003
 30
0.0
 11
-0.3923879999999826
 21
0.0574024999999949
 31
0.0
  0
LINE
  5
2747
  8
0
 10
-0.377301999999986
 20
0.0951589999999953
 30
0.0
 11
-0.3740960000000086
 21
0.100734000000017
 31
0.0
  0
LINE
  5
2748
  8
0
 10
-0.3923879999999826
 20
0.0574024999999949
 30
0.0
 11
-0.3903980000000047
 21
0.0641333000000089
 31
0.0
  0
LINE
  5
2749
  8
0
 10
-0.3903980000000047
 20
0.0641333000000089
 30
0.0
 11
-0.3881920000000036
 21
0.0707095000000209
 31
0.0
  0
LINE
  5
274A
  8
0
 10
-0.3881920000000036
 20
0.0707095000000209
 30
0.0
 11
-0.3857719999999744
 21
0.0771153999999968
 31
0.0
  0
LINE
  5
274B
  8
0
 10
-0.3857719999999744
 20
0.0771153999999968
 30
0.0
 11
-0.3831460000000106
 21
0.083335500000004
 31
0.0
  0
LINE
  5
274C
  8
0
 10
-0.3831460000000106
 20
0.083335500000004
 30
0.0
 11
-0.3803199999999833
 21
0.0893549000000178
 31
0.0
  0
LINE
  5
274D
  8
0
 10
-0.3803199999999833
 20
0.0893549000000178
 30
0.0
 11
-0.377301999999986
 21
0.0951589999999953
 31
0.0
  0
LINE
  5
274E
  8
0
 10
-0.3740960000000086
 20
0.100734000000017
 30
0.0
 11
-0.3707099999999742
 21
0.1060659999999984
 31
0.0
  0
LINE
  5
274F
  8
0
 10
-0.3707099999999742
 20
0.1060659999999984
 30
0.0
 11
-0.3671559999999658
 21
0.1111429999999984
 31
0.0
  0
LINE
  5
2750
  8
0
 10
-0.3671559999999658
 20
0.1111429999999984
 30
0.0
 11
-0.3634399999999687
 21
0.1159520000000214
 31
0.0
  0
LINE
  5
2751
  8
0
 10
-0.3634399999999687
 20
0.1159520000000214
 30
0.0
 11
-0.3595699999999625
 21
0.1204810000000123
 31
0.0
  0
LINE
  5
2752
  8
0
 10
-0.3595699999999625
 20
0.1204810000000123
 30
0.0
 11
-0.3555579999999737
 21
0.1247199999999964
 31
0.0
  0
LINE
  5
2753
  8
0
 10
-0.3555579999999737
 20
0.1247199999999964
 30
0.0
 11
-0.3514099999999872
 21
0.128658999999999
 31
0.0
  0
LINE
  5
2754
  8
0
 10
-0.3514099999999872
 20
0.128658999999999
 30
0.0
 11
-0.3471399999999676
 21
0.1322880000000168
 31
0.0
  0
LINE
  5
2755
  8
0
 10
-0.3471399999999676
 20
0.1322880000000168
 30
0.0
 11
-0.3427560000000086
 21
0.1355980000000159
 31
0.0
  0
LINE
  5
2756
  8
0
 10
-0.3427560000000086
 20
0.1355980000000159
 30
0.0
 11
-0.338267999999971
 21
0.1385820000000138
 31
0.0
  0
LINE
  5
2757
  8
0
 10
-0.338267999999971
 20
0.1385820000000138
 30
0.0
 11
-0.3336879999999952
 21
0.1412320000000022
 31
0.0
  0
LINE
  5
2758
  8
0
 10
-0.3336879999999952
 20
0.1412320000000022
 30
0.0
 11
-0.3290279999999939
 21
0.143540999999999
 31
0.0
  0
LINE
  5
2759
  8
0
 10
-0.4058455999999639
 20
0.0505335000000003
 30
0.0
 11
-0.404305999999963
 21
0.0435427000000175
 31
0.0
  0
LINE
  5
275A
  8
0
 10
-0.404305999999963
 20
0.0435427000000175
 30
0.0
 11
-0.4029967999999827
 21
0.0364470000000097
 31
0.0
  0
LINE
  5
275B
  8
0
 10
-0.4029967999999827
 20
0.0364470000000097
 30
0.0
 11
-0.4019213999999921
 21
0.0292635000000132
 31
0.0
  0
LINE
  5
275C
  8
0
 10
-0.4019213999999921
 20
0.0292635000000132
 30
0.0
 11
-0.4010824000000073
 21
0.0220096000000183
 31
0.0
  0
LINE
  5
275D
  8
0
 10
-0.4010824000000073
 20
0.0220096000000183
 30
0.0
 11
-0.4004815999999778
 21
0.014702600000021
 31
0.0
  0
LINE
  5
275E
  8
0
 10
-0.4004815999999778
 20
0.014702600000021
 30
0.0
 11
-0.4001203999999917
 21
0.0073601999999937
 31
0.0
  0
LINE
  5
275F
  8
0
 10
-0.3998799999999961
 20
0.0073601999999937
 30
0.0
 11
-0.3995180000000005
 21
0.014702600000021
 31
0.0
  0
LINE
  5
2760
  8
0
 10
-0.3995180000000005
 20
0.014702600000021
 30
0.0
 11
-0.3989179999999806
 21
0.0220096000000183
 31
0.0
  0
LINE
  5
2761
  8
0
 10
-0.3989179999999806
 20
0.0220096000000183
 30
0.0
 11
-0.3980779999999981
 21
0.0292635000000132
 31
0.0
  0
LINE
  5
2762
  8
0
 10
-0.3980779999999981
 20
0.0292635000000132
 30
0.0
 11
-0.3970039999999812
 21
0.0364470000000097
 31
0.0
  0
LINE
  5
2763
  8
0
 10
-0.3970039999999812
 20
0.0364470000000097
 30
0.0
 11
-0.3956939999999918
 21
0.0435427000000175
 31
0.0
  0
LINE
  5
2764
  8
0
 10
-0.3956939999999918
 20
0.0435427000000175
 30
0.0
 11
-0.3941539999999578
 21
0.0505335000000003
 31
0.0
  0
LINE
  5
2765
  8
0
 10
-0.5146729999999594
 20
-0.1483759999999847
 30
0.0
 11
-0.519508999999971
 21
-0.1471180000000061
 31
0.0
  0
LINE
  5
2766
  8
0
 10
-0.519508999999971
 20
0.1471180000000061
 30
0.0
 11
-0.5146729999999594
 21
0.1483760000000132
 31
0.0
  0
LINE
  5
2767
  8
0
 10
-0.2096019999999612
 20
-0.0641332999999804
 30
0.0
 11
-0.2118079999999623
 21
-0.0707094999999924
 31
0.0
  0
LINE
  5
2768
  8
0
 10
-0.1881919999999582
 20
-0.0707094999999924
 30
0.0
 11
-0.1903979999999592
 21
-0.0641332999999804
 31
0.0
  0
LINE
  5
2769
  8
0
 10
-0.1290280000000053
 20
-0.143540999999999
 30
0.0
 11
-0.1336880000000065
 21
-0.1412320000000022
 31
0.0
  0
LINE
  5
276A
  8
0
 10
-0.3146739999999681
 20
-0.1483759999999847
 30
0.0
 11
-0.3195099999999797
 21
-0.1471180000000061
 31
0.0
  0
LINE
  5
276B
  8
0
 10
-0.2142279999999914
 20
-0.0771153999999967
 30
0.0
 11
-0.2168540000000121
 21
-0.083335500000004
 31
0.0
  0
LINE
  5
276C
  8
0
 10
-0.2168540000000121
 20
-0.083335500000004
 30
0.0
 11
-0.2196799999999826
 21
-0.0893548999999894
 31
0.0
  0
LINE
  5
276D
  8
0
 10
-0.2196799999999826
 20
-0.0893548999999894
 30
0.0
 11
-0.2226979999999799
 21
-0.0951589999999953
 31
0.0
  0
LINE
  5
276E
  8
0
 10
-0.2226979999999799
 20
-0.0951589999999953
 30
0.0
 11
-0.2259039999999573
 21
-0.1007339999999886
 31
0.0
  0
LINE
  5
276F
  8
0
 10
-0.2259039999999573
 20
-0.1007339999999886
 30
0.0
 11
-0.2292899999999918
 21
-0.1060659999999984
 31
0.0
  0
LINE
  5
2770
  8
0
 10
-0.2292899999999918
 20
-0.1060659999999984
 30
0.0
 11
-0.2328440000000001
 21
-0.1111429999999984
 31
0.0
  0
LINE
  5
2771
  8
0
 10
-0.2328440000000001
 20
-0.1111429999999984
 30
0.0
 11
-0.2365599999999973
 21
-0.1159519999999929
 31
0.0
  0
LINE
  5
2772
  8
0
 10
-0.2365599999999973
 20
-0.1159519999999929
 30
0.0
 11
-0.2404300000000034
 21
-0.1204809999999838
 31
0.0
  0
LINE
  5
2773
  8
0
 10
-0.2404300000000034
 20
-0.1204809999999838
 30
0.0
 11
-0.2444419999999923
 21
-0.1247199999999964
 31
0.0
  0
LINE
  5
2774
  8
0
 10
-0.2444419999999923
 20
-0.1247199999999964
 30
0.0
 11
-0.2485899999999788
 21
-0.128658999999999
 31
0.0
  0
LINE
  5
2775
  8
0
 10
-0.2485899999999788
 20
-0.128658999999999
 30
0.0
 11
-0.2528599999999983
 21
-0.1322879999999884
 31
0.0
  0
LINE
  5
2776
  8
0
 10
-0.2118079999999623
 20
-0.0707094999999924
 30
0.0
 11
-0.2142279999999914
 21
-0.0771153999999967
 31
0.0
  0
LINE
  5
2777
  8
0
 10
-0.270971999999972
 20
-0.143540999999999
 30
0.0
 11
-0.275701999999967
 21
-0.1455049999999858
 31
0.0
  0
LINE
  5
2778
  8
0
 10
-0.2663119999999709
 20
-0.1412320000000022
 30
0.0
 11
-0.270971999999972
 21
-0.143540999999999
 31
0.0
  0
LINE
  5
2779
  8
0
 10
-0.2572439999999574
 20
-0.1355979999999874
 30
0.0
 11
-0.261731999999995
 21
-0.1385819999999853
 31
0.0
  0
LINE
  5
277A
  8
0
 10
-0.261731999999995
 20
-0.1385819999999853
 30
0.0
 11
-0.2663119999999709
 21
-0.1412320000000022
 31
0.0
  0
LINE
  5
277B
  8
0
 10
-0.275701999999967
 20
-0.1455049999999858
 30
0.0
 11
-0.2804899999999861
 21
-0.1471180000000061
 31
0.0
  0
LINE
  5
277C
  8
0
 10
-0.2804899999999861
 20
-0.1471180000000061
 30
0.0
 11
-0.2853259999999977
 21
-0.1483759999999847
 31
0.0
  0
LINE
  5
277D
  8
0
 10
-0.2853259999999977
 20
-0.1483759999999847
 30
0.0
 11
-0.2901979999999753
 21
-0.1492779999999811
 31
0.0
  0
LINE
  5
277E
  8
0
 10
-0.2901979999999753
 20
-0.1492779999999811
 30
0.0
 11
-0.2950940000000059
 21
-0.1498189999999795
 31
0.0
  0
LINE
  5
277F
  8
0
 10
-0.2950940000000059
 20
-0.1498189999999795
 30
0.0
 11
-0.3000000000000114
 21
-0.1500000000000057
 31
0.0
  0
LINE
  5
2780
  8
0
 10
-0.3000000000000114
 20
-0.1500000000000057
 30
0.0
 11
-0.3049059999999599
 21
-0.1498189999999795
 31
0.0
  0
LINE
  5
2781
  8
0
 10
-0.3049059999999599
 20
-0.1498189999999795
 30
0.0
 11
-0.3098019999999906
 21
-0.1492779999999811
 31
0.0
  0
LINE
  5
2782
  8
0
 10
-0.3098019999999906
 20
-0.1492779999999811
 30
0.0
 11
-0.3146739999999681
 21
-0.1483759999999847
 31
0.0
  0
LINE
  5
2783
  8
0
 10
-0.2528599999999983
 20
-0.1322879999999884
 30
0.0
 11
-0.2572439999999574
 21
-0.1355979999999874
 31
0.0
  0
LINE
  5
2784
  8
0
 10
-0.155557999999985
 20
-0.1247199999999964
 30
0.0
 11
-0.1595699999999738
 21
-0.1204809999999838
 31
0.0
  0
LINE
  5
2785
  8
0
 10
-0.147139999999979
 20
-0.1322879999999884
 30
0.0
 11
-0.1514099999999985
 21
-0.128658999999999
 31
0.0
  0
LINE
  5
2786
  8
0
 10
-0.1514099999999985
 20
-0.128658999999999
 30
0.0
 11
-0.155557999999985
 21
-0.1247199999999964
 31
0.0
  0
LINE
  5
2787
  8
0
 10
-0.1831459999999652
 20
-0.083335500000004
 30
0.0
 11
-0.1857719999999858
 21
-0.0771153999999967
 31
0.0
  0
LINE
  5
2788
  8
0
 10
-0.1740959999999632
 20
-0.1007339999999886
 30
0.0
 11
-0.1740959999999632
 21
-0.1007339999999886
 31
0.0
  0
LINE
  5
2789
  8
0
 10
-0.1595699999999738
 20
-0.1204809999999838
 30
0.0
 11
-0.1634399999999801
 21
-0.1159519999999929
 31
0.0
  0
LINE
  5
278A
  8
0
 10
-0.1634399999999801
 20
-0.1159519999999929
 30
0.0
 11
-0.1671559999999772
 21
-0.1111429999999984
 31
0.0
  0
LINE
  5
278B
  8
0
 10
-0.1671559999999772
 20
-0.1111429999999984
 30
0.0
 11
-0.1707099999999855
 21
-0.1060659999999984
 31
0.0
  0
LINE
  5
278C
  8
0
 10
-0.1707099999999855
 20
-0.1060659999999984
 30
0.0
 11
-0.1740959999999632
 21
-0.1007339999999886
 31
0.0
  0
LINE
  5
278D
  8
0
 10
-0.1773019999999974
 20
-0.0951589999999953
 30
0.0
 11
-0.1803199999999947
 21
-0.0893548999999894
 31
0.0
  0
LINE
  5
278E
  8
0
 10
-0.1803199999999947
 20
-0.0893548999999894
 30
0.0
 11
-0.1831459999999652
 21
-0.083335500000004
 31
0.0
  0
LINE
  5
278F
  8
0
 10
-0.1857719999999858
 20
-0.0771153999999967
 30
0.0
 11
-0.1881919999999582
 21
-0.0707094999999924
 31
0.0
  0
LINE
  5
2790
  8
0
 10
-0.142755999999963
 20
-0.1355979999999874
 30
0.0
 11
-0.147139999999979
 21
-0.1322879999999884
 31
0.0
  0
LINE
  5
2791
  8
0
 10
-0.1336880000000065
 20
-0.1412320000000022
 30
0.0
 11
-0.1382679999999823
 21
-0.1385819999999853
 31
0.0
  0
LINE
  5
2792
  8
0
 10
-0.1382679999999823
 20
-0.1385819999999853
 30
0.0
 11
-0.142755999999963
 21
-0.1355979999999874
 31
0.0
  0
LINE
  5
2793
  8
0
 10
-0.1336880000000065
 20
0.1412320000000022
 30
0.0
 11
-0.1290280000000053
 21
0.143540999999999
 31
0.0
  0
LINE
  5
2794
  8
0
 10
-0.1595699999999738
 20
0.1204810000000123
 30
0.0
 11
-0.155557999999985
 21
0.1247199999999964
 31
0.0
  0
LINE
  5
2795
  8
0
 10
-0.155557999999985
 20
0.1247199999999964
 30
0.0
 11
-0.1514099999999985
 21
0.128658999999999
 31
0.0
  0
LINE
  5
2796
  8
0
 10
-0.1514099999999985
 20
0.128658999999999
 30
0.0
 11
-0.147139999999979
 21
0.1322880000000168
 31
0.0
  0
LINE
  5
2797
  8
0
 10
-0.147139999999979
 20
0.1322880000000168
 30
0.0
 11
-0.142755999999963
 21
0.1355980000000159
 31
0.0
  0
LINE
  5
2798
  8
0
 10
-0.1740959999999632
 20
0.100734000000017
 30
0.0
 11
-0.1707099999999855
 21
0.1060659999999984
 31
0.0
  0
LINE
  5
2799
  8
0
 10
-0.1707099999999855
 20
0.1060659999999984
 30
0.0
 11
-0.1671559999999772
 21
0.1111429999999984
 31
0.0
  0
LINE
  5
279A
  8
0
 10
-0.1671559999999772
 20
0.1111429999999984
 30
0.0
 11
-0.1634399999999801
 21
0.1159520000000214
 31
0.0
  0
LINE
  5
279B
  8
0
 10
-0.1634399999999801
 20
0.1159520000000214
 30
0.0
 11
-0.1595699999999738
 21
0.1204810000000123
 31
0.0
  0
LINE
  5
279C
  8
0
 10
-0.1382679999999823
 20
0.1385820000000138
 30
0.0
 11
-0.1336880000000065
 21
0.1412320000000022
 31
0.0
  0
LINE
  5
279D
  8
0
 10
-0.142755999999963
 20
0.1355980000000159
 30
0.0
 11
-0.1382679999999823
 21
0.1385820000000138
 31
0.0
  0
LINE
  5
279E
  8
0
 10
-0.2118079999999623
 20
0.0707095000000209
 30
0.0
 11
-0.2096019999999612
 21
0.0641333000000089
 31
0.0
  0
LINE
  5
279F
  8
0
 10
-0.3195099999999797
 20
0.1471180000000061
 30
0.0
 11
-0.3146739999999681
 21
0.1483760000000132
 31
0.0
  0
LINE
  5
27A0
  8
0
 10
-0.2259039999999573
 20
0.100734000000017
 30
0.0
 11
-0.2226979999999799
 21
0.0951589999999953
 31
0.0
  0
LINE
  5
27A1
  8
0
 10
-0.2226979999999799
 20
0.0951589999999953
 30
0.0
 11
-0.2196799999999826
 21
0.0893549000000178
 31
0.0
  0
LINE
  5
27A2
  8
0
 10
-0.2196799999999826
 20
0.0893549000000178
 30
0.0
 11
-0.2168540000000121
 21
0.083335500000004
 31
0.0
  0
LINE
  5
27A3
  8
0
 10
-0.2168540000000121
 20
0.083335500000004
 30
0.0
 11
-0.2142279999999914
 21
0.0771153999999968
 31
0.0
  0
LINE
  5
27A4
  8
0
 10
-0.2142279999999914
 20
0.0771153999999968
 30
0.0
 11
-0.2118079999999623
 21
0.0707095000000209
 31
0.0
  0
LINE
  5
27A5
  8
0
 10
-0.275701999999967
 20
0.1455050000000142
 30
0.0
 11
-0.270971999999972
 21
0.143540999999999
 31
0.0
  0
LINE
  5
27A6
  8
0
 10
-0.270971999999972
 20
0.143540999999999
 30
0.0
 11
-0.2663119999999709
 21
0.1412320000000022
 31
0.0
  0
LINE
  5
27A7
  8
0
 10
-0.2663119999999709
 20
0.1412320000000022
 30
0.0
 11
-0.261731999999995
 21
0.1385820000000138
 31
0.0
  0
LINE
  5
27A8
  8
0
 10
-0.261731999999995
 20
0.1385820000000138
 30
0.0
 11
-0.2572439999999574
 21
0.1355980000000159
 31
0.0
  0
LINE
  5
27A9
  8
0
 10
-0.2572439999999574
 20
0.1355980000000159
 30
0.0
 11
-0.2528599999999983
 21
0.1322880000000168
 31
0.0
  0
LINE
  5
27AA
  8
0
 10
-0.2528599999999983
 20
0.1322880000000168
 30
0.0
 11
-0.2485899999999788
 21
0.128658999999999
 31
0.0
  0
LINE
  5
27AB
  8
0
 10
-0.2485899999999788
 20
0.128658999999999
 30
0.0
 11
-0.2444419999999923
 21
0.1247199999999964
 31
0.0
  0
LINE
  5
27AC
  8
0
 10
-0.2444419999999923
 20
0.1247199999999964
 30
0.0
 11
-0.2404300000000034
 21
0.1204810000000123
 31
0.0
  0
LINE
  5
27AD
  8
0
 10
-0.2404300000000034
 20
0.1204810000000123
 30
0.0
 11
-0.2365599999999973
 21
0.1159520000000214
 31
0.0
  0
LINE
  5
27AE
  8
0
 10
-0.2365599999999973
 20
0.1159520000000214
 30
0.0
 11
-0.2328440000000001
 21
0.1111429999999984
 31
0.0
  0
LINE
  5
27AF
  8
0
 10
-0.2328440000000001
 20
0.1111429999999984
 30
0.0
 11
-0.2292899999999918
 21
0.1060659999999984
 31
0.0
  0
LINE
  5
27B0
  8
0
 10
-0.2292899999999918
 20
0.1060659999999984
 30
0.0
 11
-0.2259039999999573
 21
0.100734000000017
 31
0.0
  0
LINE
  5
27B1
  8
0
 10
-0.3000000000000114
 20
0.1500000000000057
 30
0.0
 11
-0.2950940000000059
 21
0.1498190000000079
 31
0.0
  0
LINE
  5
27B2
  8
0
 10
-0.2950940000000059
 20
0.1498190000000079
 30
0.0
 11
-0.2901979999999753
 21
0.1492780000000096
 31
0.0
  0
LINE
  5
27B3
  8
0
 10
-0.2901979999999753
 20
0.1492780000000096
 30
0.0
 11
-0.2853259999999977
 21
0.1483760000000132
 31
0.0
  0
LINE
  5
27B4
  8
0
 10
-0.2853259999999977
 20
0.1483760000000132
 30
0.0
 11
-0.2804899999999861
 21
0.1471180000000061
 31
0.0
  0
LINE
  5
27B5
  8
0
 10
-0.2804899999999861
 20
0.1471180000000061
 30
0.0
 11
-0.275701999999967
 21
0.1455050000000142
 31
0.0
  0
LINE
  5
27B6
  8
0
 10
-0.3146739999999681
 20
0.1483760000000132
 30
0.0
 11
-0.3098019999999906
 21
0.1492780000000096
 31
0.0
  0
LINE
  5
27B7
  8
0
 10
-0.3098019999999906
 20
0.1492780000000096
 30
0.0
 11
-0.3049059999999599
 21
0.1498190000000079
 31
0.0
  0
LINE
  5
27B8
  8
0
 10
-0.3049059999999599
 20
0.1498190000000079
 30
0.0
 11
-0.3000000000000114
 21
0.1500000000000057
 31
0.0
  0
LINE
  5
27B9
  8
0
 10
-0.1999999999999886
 20
0.0
 30
0.0
 11
-0.1998800000000074
 21
0.0073601999999937
 31
0.0
  0
LINE
  5
27BA
  8
0
 10
-0.2001199999999699
 20
0.0073601999999937
 30
0.0
 11
-0.1999999999999886
 21
0.0
 31
0.0
  0
LINE
  5
27BB
  8
0
 10
-0.1956940000000032
 20
-0.0435426999999891
 30
0.0
 11
-0.1970039999999926
 21
-0.0364470000000097
 31
0.0
  0
LINE
  5
27BC
  8
0
 10
-0.2029959999999846
 20
-0.0364470000000097
 30
0.0
 11
-0.2043059999999741
 21
-0.0435426999999891
 31
0.0
  0
LINE
  5
27BD
  8
0
 10
-0.1903979999999592
 20
-0.0641332999999804
 30
0.0
 11
-0.192387999999994
 21
-0.0574024999999949
 31
0.0
  0
LINE
  5
27BE
  8
0
 10
-0.192387999999994
 20
-0.0574024999999949
 30
0.0
 11
-0.1941539999999691
 21
-0.0505335000000002
 31
0.0
  0
LINE
  5
27BF
  8
0
 10
-0.1941539999999691
 20
-0.0505335000000002
 30
0.0
 11
-0.1956940000000032
 21
-0.0435426999999891
 31
0.0
  0
LINE
  5
27C0
  8
0
 10
-0.2043059999999741
 20
-0.0435426999999891
 30
0.0
 11
-0.2058459999999513
 21
-0.0505335000000002
 31
0.0
  0
LINE
  5
27C1
  8
0
 10
-0.2058459999999513
 20
-0.0505335000000002
 30
0.0
 11
-0.2076119999999832
 21
-0.0574024999999949
 31
0.0
  0
LINE
  5
27C2
  8
0
 10
-0.2076119999999832
 20
-0.0574024999999949
 30
0.0
 11
-0.2096019999999612
 21
-0.0641332999999804
 31
0.0
  0
LINE
  5
27C3
  8
0
 10
-0.1970039999999926
 20
-0.0364470000000097
 30
0.0
 11
-0.1980780000000095
 21
-0.0292634999999848
 31
0.0
  0
LINE
  5
27C4
  8
0
 10
-0.1980780000000095
 20
-0.0292634999999848
 30
0.0
 11
-0.1989179999999919
 21
-0.0220095999999899
 31
0.0
  0
LINE
  5
27C5
  8
0
 10
-0.1989179999999919
 20
-0.0220095999999899
 30
0.0
 11
-0.199517999999955
 21
-0.0147025999999926
 31
0.0
  0
LINE
  5
27C6
  8
0
 10
-0.199517999999955
 20
-0.0147025999999926
 30
0.0
 11
-0.1998800000000074
 21
-0.0073601999999937
 31
0.0
  0
LINE
  5
27C7
  8
0
 10
-0.1998800000000074
 20
-0.0073601999999937
 30
0.0
 11
-0.1999999999999886
 21
0.0
 31
0.0
  0
LINE
  5
27C8
  8
0
 10
-0.1999999999999886
 20
0.0
 30
0.0
 11
-0.2001199999999699
 21
-0.0073601999999937
 31
0.0
  0
LINE
  5
27C9
  8
0
 10
-0.2001199999999699
 20
-0.0073601999999937
 30
0.0
 11
-0.2004819999999654
 21
-0.0147025999999926
 31
0.0
  0
LINE
  5
27CA
  8
0
 10
-0.2004819999999654
 20
-0.0147025999999926
 30
0.0
 11
-0.2010819999999853
 21
-0.0220095999999899
 31
0.0
  0
LINE
  5
27CB
  8
0
 10
-0.2010819999999853
 20
-0.0220095999999899
 30
0.0
 11
-0.2019219999999677
 21
-0.0292634999999848
 31
0.0
  0
LINE
  5
27CC
  8
0
 10
-0.2019219999999677
 20
-0.0292634999999848
 30
0.0
 11
-0.2029959999999846
 21
-0.0364470000000097
 31
0.0
  0
LINE
  5
27CD
  8
0
 10
-0.1773019999999974
 20
0.0951589999999953
 30
0.0
 11
-0.1740959999999632
 21
0.100734000000017
 31
0.0
  0
LINE
  5
27CE
  8
0
 10
-0.1998800000000074
 20
0.0073601999999937
 30
0.0
 11
-0.199517999999955
 21
0.014702600000021
 31
0.0
  0
LINE
  5
27CF
  8
0
 10
-0.199517999999955
 20
0.014702600000021
 30
0.0
 11
-0.1989179999999919
 21
0.0220096000000183
 31
0.0
  0
LINE
  5
27D0
  8
0
 10
-0.1989179999999919
 20
0.0220096000000183
 30
0.0
 11
-0.1980780000000095
 21
0.0292635000000132
 31
0.0
  0
LINE
  5
27D1
  8
0
 10
-0.1980780000000095
 20
0.0292635000000132
 30
0.0
 11
-0.1970039999999926
 21
0.0364470000000097
 31
0.0
  0
LINE
  5
27D2
  8
0
 10
-0.1970039999999926
 20
0.0364470000000097
 30
0.0
 11
-0.1956940000000032
 21
0.0435427000000175
 31
0.0
  0
LINE
  5
27D3
  8
0
 10
-0.1956940000000032
 20
0.0435427000000175
 30
0.0
 11
-0.1941539999999691
 21
0.0505335000000003
 31
0.0
  0
LINE
  5
27D4
  8
0
 10
-0.1941539999999691
 20
0.0505335000000003
 30
0.0
 11
-0.192387999999994
 21
0.0574024999999949
 31
0.0
  0
LINE
  5
27D5
  8
0
 10
-0.192387999999994
 20
0.0574024999999949
 30
0.0
 11
-0.1903979999999592
 21
0.0641333000000089
 31
0.0
  0
LINE
  5
27D6
  8
0
 10
-0.1903979999999592
 20
0.0641333000000089
 30
0.0
 11
-0.1881919999999582
 21
0.0707095000000209
 31
0.0
  0
LINE
  5
27D7
  8
0
 10
-0.1881919999999582
 20
0.0707095000000209
 30
0.0
 11
-0.1857719999999858
 21
0.0771153999999968
 31
0.0
  0
LINE
  5
27D8
  8
0
 10
-0.1857719999999858
 20
0.0771153999999968
 30
0.0
 11
-0.1831459999999652
 21
0.083335500000004
 31
0.0
  0
LINE
  5
27D9
  8
0
 10
-0.1831459999999652
 20
0.083335500000004
 30
0.0
 11
-0.1803199999999947
 21
0.0893549000000178
 31
0.0
  0
LINE
  5
27DA
  8
0
 10
-0.1803199999999947
 20
0.0893549000000178
 30
0.0
 11
-0.1773019999999974
 21
0.0951589999999953
 31
0.0
  0
LINE
  5
27DB
  8
0
 10
-0.2096019999999612
 20
0.0641333000000089
 30
0.0
 11
-0.2076119999999832
 21
0.0574024999999949
 31
0.0
  0
LINE
  5
27DC
  8
0
 10
-0.2076119999999832
 20
0.0574024999999949
 30
0.0
 11
-0.2058459999999513
 21
0.0505335000000003
 31
0.0
  0
LINE
  5
27DD
  8
0
 10
-0.2058459999999513
 20
0.0505335000000003
 30
0.0
 11
-0.2043059999999741
 21
0.0435427000000175
 31
0.0
  0
LINE
  5
27DE
  8
0
 10
-0.2043059999999741
 20
0.0435427000000175
 30
0.0
 11
-0.2029959999999846
 21
0.0364470000000097
 31
0.0
  0
LINE
  5
27DF
  8
0
 10
-0.2029959999999846
 20
0.0364470000000097
 30
0.0
 11
-0.2019219999999677
 21
0.0292635000000132
 31
0.0
  0
LINE
  5
27E0
  8
0
 10
-0.2019219999999677
 20
0.0292635000000132
 30
0.0
 11
-0.2010819999999853
 21
0.0220096000000183
 31
0.0
  0
LINE
  5
27E1
  8
0
 10
-0.2010819999999853
 20
0.0220096000000183
 30
0.0
 11
-0.2004819999999654
 21
0.014702600000021
 31
0.0
  0
LINE
  5
27E2
  8
0
 10
-0.2004819999999654
 20
0.014702600000021
 30
0.0
 11
-0.2001199999999699
 21
0.0073601999999937
 31
0.0
  0
LINE
  5
27E3
  8
0
 10
-0.0096019999999726
 20
-0.0641332999999804
 30
0.0
 11
-0.0118079999999736
 21
-0.0707094999999924
 31
0.0
  0
LINE
  5
27E4
  8
0
 10
-0.0118079999999736
 20
-0.0707094999999924
 30
0.0
 11
-0.0142280000000028
 21
-0.0771153999999967
 31
0.0
  0
LINE
  5
27E5
  8
0
 10
-0.0142280000000028
 20
-0.0771153999999967
 30
0.0
 11
-0.0168539999999666
 21
-0.083335500000004
 31
0.0
  0
LINE
  5
27E6
  8
0
 10
-0.0226979999999912
 20
-0.0951589999999953
 30
0.0
 11
-0.0259039999999686
 21
-0.1007339999999886
 31
0.0
  0
LINE
  5
27E7
  8
0
 10
-0.0168539999999666
 20
-0.083335500000004
 30
0.0
 11
-0.0196799999999939
 21
-0.0893548999999894
 31
0.0
  0
LINE
  5
27E8
  8
0
 10
-0.0196799999999939
 20
-0.0893548999999894
 30
0.0
 11
-0.0226979999999912
 21
-0.0951589999999953
 31
0.0
  0
LINE
  5
27E9
  8
0
 10
-0.040429999999958
 20
-0.1204809999999838
 30
0.0
 11
-0.0444420000000037
 21
-0.1247199999999964
 31
0.0
  0
LINE
  5
27EA
  8
0
 10
-0.0259039999999686
 20
-0.1007339999999886
 30
0.0
 11
-0.0292900000000032
 21
-0.1060659999999984
 31
0.0
  0
LINE
  5
27EB
  8
0
 10
-0.0292900000000032
 20
-0.1060659999999984
 30
0.0
 11
-0.0328439999999546
 21
-0.1111429999999984
 31
0.0
  0
LINE
  5
27EC
  8
0
 10
-0.0328439999999546
 20
-0.1111429999999984
 30
0.0
 11
-0.0365600000000086
 21
-0.1159519999999929
 31
0.0
  0
LINE
  5
27ED
  8
0
 10
-0.0365600000000086
 20
-0.1159519999999929
 30
0.0
 11
-0.040429999999958
 21
-0.1204809999999838
 31
0.0
  0
LINE
  5
27EE
  8
0
 10
-0.0444420000000037
 20
-0.1247199999999964
 30
0.0
 11
-0.0485899999999902
 21
-0.128658999999999
 31
0.0
  0
LINE
  5
27EF
  8
0
 10
-0.0485899999999902
 20
-0.128658999999999
 30
0.0
 11
-0.0528600000000097
 21
-0.1322879999999884
 31
0.0
  0
LINE
  5
27F0
  8
0
 10
-0.0804899999999975
 20
-0.1471180000000061
 30
0.0
 11
-0.0853260000000091
 21
-0.1483759999999847
 31
0.0
  0
LINE
  5
27F1
  8
0
 10
-0.0853260000000091
 20
-0.1483759999999847
 30
0.0
 11
-0.0901979999999867
 21
-0.1492779999999811
 31
0.0
  0
LINE
  5
27F2
  8
0
 10
-0.0901979999999867
 20
-0.1492779999999811
 30
0.0
 11
-0.0950939999999605
 21
-0.1498189999999795
 31
0.0
  0
LINE
  5
27F3
  8
0
 10
-0.0950939999999605
 20
-0.1498189999999795
 30
0.0
 11
-0.0999999999999659
 21
-0.1500000000000057
 31
0.0
  0
LINE
  5
27F4
  8
0
 10
-0.0999999999999659
 20
-0.1500000000000057
 30
0.0
 11
-0.1049059999999713
 21
-0.1498189999999795
 31
0.0
  0
LINE
  5
27F5
  8
0
 10
-0.1049059999999713
 20
-0.1498189999999795
 30
0.0
 11
-0.109802000000002
 21
-0.1492779999999811
 31
0.0
  0
LINE
  5
27F6
  8
0
 10
-0.109802000000002
 20
-0.1492779999999811
 30
0.0
 11
-0.1146739999999795
 21
-0.1483759999999847
 31
0.0
  0
LINE
  5
27F7
  8
0
 10
-0.1146739999999795
 20
-0.1483759999999847
 30
0.0
 11
-0.1195099999999911
 21
-0.1471180000000061
 31
0.0
  0
LINE
  5
27F8
  8
0
 10
-0.1195099999999911
 20
-0.1471180000000061
 30
0.0
 11
-0.1242979999999534
 21
-0.1455049999999858
 31
0.0
  0
LINE
  5
27F9
  8
0
 10
-0.0572439999999688
 20
-0.1355979999999874
 30
0.0
 11
-0.0617320000000063
 21
-0.1385819999999853
 31
0.0
  0
LINE
  5
27FA
  8
0
 10
-0.0617320000000063
 20
-0.1385819999999853
 30
0.0
 11
-0.0663119999999822
 21
-0.1412320000000022
 31
0.0
  0
LINE
  5
27FB
  8
0
 10
-0.0663119999999822
 20
-0.1412320000000022
 30
0.0
 11
-0.0709719999999834
 21
-0.143540999999999
 31
0.0
  0
LINE
  5
27FC
  8
0
 10
-0.0709719999999834
 20
-0.143540999999999
 30
0.0
 11
-0.0757019999999784
 21
-0.1455049999999858
 31
0.0
  0
LINE
  5
27FD
  8
0
 10
-0.0757019999999784
 20
-0.1455049999999858
 30
0.0
 11
-0.0804899999999975
 21
-0.1471180000000061
 31
0.0
  0
LINE
  5
27FE
  8
0
 10
-0.0528600000000097
 20
-0.1322879999999884
 30
0.0
 11
-0.0572439999999688
 21
-0.1355979999999874
 31
0.0
  0
LINE
  5
27FF
  8
0
 10
-0.0444420000000037
 20
0.1247199999999964
 30
0.0
 11
-0.040429999999958
 21
0.1204810000000123
 31
0.0
  0
LINE
  5
2800
  8
0
 10
-0.040429999999958
 20
0.1204810000000123
 30
0.0
 11
-0.0365600000000086
 21
0.1159520000000214
 31
0.0
  0
LINE
  5
2801
  8
0
 10
-0.0365600000000086
 20
0.1159520000000214
 30
0.0
 11
-0.0328439999999546
 21
0.1111429999999984
 31
0.0
  0
LINE
  5
2802
  8
0
 10
-0.0328439999999546
 20
0.1111429999999984
 30
0.0
 11
-0.0292900000000032
 21
0.1060659999999984
 31
0.0
  0
LINE
  5
2803
  8
0
 10
-0.0292900000000032
 20
0.1060659999999984
 30
0.0
 11
-0.0259039999999686
 21
0.100734000000017
 31
0.0
  0
LINE
  5
2804
  8
0
 10
-0.0999999999999659
 20
0.1500000000000057
 30
0.0
 11
-0.0950939999999605
 21
0.1498190000000079
 31
0.0
  0
LINE
  5
2805
  8
0
 10
-0.0950939999999605
 20
0.1498190000000079
 30
0.0
 11
-0.0901979999999867
 21
0.1492780000000096
 31
0.0
  0
LINE
  5
2806
  8
0
 10
-0.0901979999999867
 20
0.1492780000000096
 30
0.0
 11
-0.0853260000000091
 21
0.1483760000000132
 31
0.0
  0
LINE
  5
2807
  8
0
 10
-0.0853260000000091
 20
0.1483760000000132
 30
0.0
 11
-0.0804899999999975
 21
0.1471180000000061
 31
0.0
  0
LINE
  5
2808
  8
0
 10
-0.1242979999999534
 20
0.1455050000000142
 30
0.0
 11
-0.1195099999999911
 21
0.1471180000000061
 31
0.0
  0
LINE
  5
2809
  8
0
 10
-0.1195099999999911
 20
0.1471180000000061
 30
0.0
 11
-0.1146739999999795
 21
0.1483760000000132
 31
0.0
  0
LINE
  5
280A
  8
0
 10
-0.1146739999999795
 20
0.1483760000000132
 30
0.0
 11
-0.109802000000002
 21
0.1492780000000096
 31
0.0
  0
LINE
  5
280B
  8
0
 10
-0.109802000000002
 20
0.1492780000000096
 30
0.0
 11
-0.1049059999999713
 21
0.1498190000000079
 31
0.0
  0
LINE
  5
280C
  8
0
 10
-0.1049059999999713
 20
0.1498190000000079
 30
0.0
 11
-0.0999999999999659
 21
0.1500000000000057
 31
0.0
  0
LINE
  5
280D
  8
0
 10
-0.0757019999999784
 20
0.1455050000000142
 30
0.0
 11
-0.0709719999999834
 21
0.143540999999999
 31
0.0
  0
LINE
  5
280E
  8
0
 10
-0.0709719999999834
 20
0.143540999999999
 30
0.0
 11
-0.0663119999999822
 21
0.1412320000000022
 31
0.0
  0
LINE
  5
280F
  8
0
 10
-0.0663119999999822
 20
0.1412320000000022
 30
0.0
 11
-0.0617320000000063
 21
0.1385820000000138
 31
0.0
  0
LINE
  5
2810
  8
0
 10
-0.0617320000000063
 20
0.1385820000000138
 30
0.0
 11
-0.0572439999999688
 21
0.1355980000000159
 31
0.0
  0
LINE
  5
2811
  8
0
 10
-0.0572439999999688
 20
0.1355980000000159
 30
0.0
 11
-0.0528600000000097
 21
0.1322880000000168
 31
0.0
  0
LINE
  5
2812
  8
0
 10
-0.0528600000000097
 20
0.1322880000000168
 30
0.0
 11
-0.0485899999999902
 21
0.128658999999999
 31
0.0
  0
LINE
  5
2813
  8
0
 10
-0.0485899999999902
 20
0.128658999999999
 30
0.0
 11
-0.0444420000000037
 21
0.1247199999999964
 31
0.0
  0
LINE
  5
2814
  8
0
 10
-0.0804899999999975
 20
0.1471180000000061
 30
0.0
 11
-0.0757019999999784
 21
0.1455050000000142
 31
0.0
  0
LINE
  5
2815
  8
0
 10
-0.0076119999999946
 20
-0.0574024999999949
 30
0.0
 11
-0.0096019999999726
 21
-0.0641332999999804
 31
0.0
  0
LINE
  5
2816
  8
0
 10
-0.0142280000000028
 20
0.0771153999999968
 30
0.0
 11
-0.0118079999999736
 21
0.0707095000000209
 31
0.0
  0
LINE
  5
2817
  8
0
 10
-0.0118079999999736
 20
0.0707095000000209
 30
0.0
 11
-0.0096019999999726
 21
0.0641333000000089
 31
0.0
  0
LINE
  5
2818
  8
0
 10
-0.0096019999999726
 20
0.0641333000000089
 30
0.0
 11
-0.0076119999999946
 21
0.0574024999999949
 31
0.0
  0
LINE
  5
2819
  8
0
 10
-0.0168539999999666
 20
0.083335500000004
 30
0.0
 11
-0.0142280000000028
 21
0.0771153999999968
 31
0.0
  0
LINE
  5
281A
  8
0
 10
-0.0259039999999686
 20
0.100734000000017
 30
0.0
 11
-0.0226979999999912
 21
0.0951589999999953
 31
0.0
  0
LINE
  5
281B
  8
0
 10
-0.0226979999999912
 20
0.0951589999999953
 30
0.0
 11
-0.0196799999999939
 21
0.0893549000000178
 31
0.0
  0
LINE
  5
281C
  8
0
 10
-0.0196799999999939
 20
0.0893549000000178
 30
0.0
 11
-0.0168539999999666
 21
0.083335500000004
 31
0.0
  0
LINE
  5
281D
  8
0
 10
-0.1242979999999534
 20
-0.1455049999999858
 30
0.0
 11
-0.1290280000000053
 21
-0.143540999999999
 31
0.0
  0
LINE
  5
281E
  8
0
 10
-0.1290280000000053
 20
0.143540999999999
 30
0.0
 11
-0.1242979999999534
 21
0.1455050000000142
 31
0.0
  0
LINE
  5
281F
  8
0
 10
-0.3195099999999797
 20
-0.1471180000000061
 30
0.0
 11
-0.3242979999999989
 21
-0.1455049999999858
 31
0.0
  0
LINE
  5
2820
  8
0
 10
-0.3242979999999989
 20
0.1455050000000142
 30
0.0
 11
-0.3195099999999797
 21
0.1471180000000061
 31
0.0
  0
LINE
  5
2821
  8
0
 10
-0.7098017999999798
 20
-0.1492779999999811
 30
0.0
 11
-0.7146730000000047
 21
-0.1483759999999847
 31
0.0
  0
LINE
  5
2822
  8
0
 10
-0.7146730000000047
 20
0.1483760000000132
 30
0.0
 11
-0.7098017999999798
 21
0.1492780000000096
 31
0.0
  0
LINE
  5
2823
  8
0
 10
-0.7146730000000047
 20
-0.1483759999999847
 30
0.0
 11
-0.7195089999999597
 21
-0.1471180000000061
 31
0.0
  0
LINE
  5
2824
  8
0
 10
-0.7471395999999687
 20
-0.1322879999999884
 30
0.0
 11
-0.7514102000000094
 21
-0.128658999999999
 31
0.0
  0
LINE
  5
2825
  8
0
 10
-0.7514102000000094
 20
-0.128658999999999
 30
0.0
 11
-0.7555570000000103
 21
-0.1247199999999964
 31
0.0
  0
LINE
  5
2826
  8
0
 10
-0.7290284000000044
 20
-0.143540999999999
 30
0.0
 11
-0.73368899999997
 21
-0.1412320000000022
 31
0.0
  0
LINE
  5
2827
  8
0
 10
-0.73368899999997
 20
-0.1412320000000022
 30
0.0
 11
-0.7382683999999813
 21
-0.1385819999999853
 31
0.0
  0
LINE
  5
2828
  8
0
 10
-0.7382683999999813
 20
-0.1385819999999853
 30
0.0
 11
-0.7427556000000095
 21
-0.1355979999999874
 31
0.0
  0
LINE
  5
2829
  8
0
 10
-0.7427556000000095
 20
-0.1355979999999874
 30
0.0
 11
-0.7471395999999687
 21
-0.1322879999999884
 31
0.0
  0
LINE
  5
282A
  8
0
 10
-0.7195089999999597
 20
-0.1471180000000061
 30
0.0
 11
-0.7242979999999764
 21
-0.1455049999999858
 31
0.0
  0
LINE
  5
282B
  8
0
 10
-0.7242979999999764
 20
-0.1455049999999858
 30
0.0
 11
-0.7290284000000044
 21
-0.143540999999999
 31
0.0
  0
LINE
  5
282C
  8
0
 10
-0.7195089999999597
 20
0.1471180000000061
 30
0.0
 11
-0.7146730000000047
 21
0.1483760000000132
 31
0.0
  0
LINE
  5
282D
  8
0
 10
-0.7471395999999687
 20
0.1322880000000168
 30
0.0
 11
-0.7427556000000095
 21
0.1355980000000159
 31
0.0
  0
LINE
  5
282E
  8
0
 10
-0.7427556000000095
 20
0.1355980000000159
 30
0.0
 11
-0.7382683999999813
 21
0.1385820000000138
 31
0.0
  0
LINE
  5
282F
  8
0
 10
-0.7382683999999813
 20
0.1385820000000138
 30
0.0
 11
-0.73368899999997
 21
0.1412320000000022
 31
0.0
  0
LINE
  5
2830
  8
0
 10
-0.73368899999997
 20
0.1412320000000022
 30
0.0
 11
-0.7290284000000044
 21
0.143540999999999
 31
0.0
  0
LINE
  5
2831
  8
0
 10
-0.7555570000000103
 20
0.1247199999999964
 30
0.0
 11
-0.7514102000000094
 21
0.128658999999999
 31
0.0
  0
LINE
  5
2832
  8
0
 10
-0.7514102000000094
 20
0.128658999999999
 30
0.0
 11
-0.7471395999999687
 21
0.1322880000000168
 31
0.0
  0
LINE
  5
2833
  8
0
 10
-0.7242979999999764
 20
0.1455050000000142
 30
0.0
 11
-0.7195089999999597
 21
0.1471180000000061
 31
0.0
  0
LINE
  5
2834
  8
0
 10
-0.7290284000000044
 20
0.143540999999999
 30
0.0
 11
-0.7242979999999764
 21
0.1455050000000142
 31
0.0
  0
LINE
  5
2835
  8
0
 10
-0.609600999999998
 20
-0.0641332999999804
 30
0.0
 11
-0.6118078000000085
 21
-0.0707094999999924
 31
0.0
  0
LINE
  5
2836
  8
0
 10
-0.5881921999999805
 20
-0.0707094999999924
 30
0.0
 11
-0.5903989999999908
 21
-0.0641332999999804
 31
0.0
  0
LINE
  5
2837
  8
0
 10
-0.519508999999971
 20
-0.1471180000000061
 30
0.0
 11
-0.5242979999999876
 21
-0.1455049999999858
 31
0.0
  0
LINE
  5
2838
  8
0
 10
-0.6259048000000007
 20
-0.1007339999999886
 30
0.0
 11
-0.6292894000000046
 21
-0.1060659999999984
 31
0.0
  0
LINE
  5
2839
  8
0
 10
-0.6142271999999595
 20
-0.0771153999999967
 30
0.0
 11
-0.6168529999999919
 21
-0.083335500000004
 31
0.0
  0
LINE
  5
283A
  8
0
 10
-0.6168529999999919
 20
-0.083335500000004
 30
0.0
 11
-0.6196792000000074
 21
-0.0893548999999894
 31
0.0
  0
LINE
  5
283B
  8
0
 10
-0.6196792000000074
 20
-0.0893548999999894
 30
0.0
 11
-0.6226990000000116
 21
-0.0951589999999953
 31
0.0
  0
LINE
  5
283C
  8
0
 10
-0.6226990000000116
 20
-0.0951589999999953
 30
0.0
 11
-0.6259048000000007
 21
-0.1007339999999886
 31
0.0
  0
LINE
  5
283D
  8
0
 10
-0.6118078000000085
 20
-0.0707094999999924
 30
0.0
 11
-0.6142271999999595
 21
-0.0771153999999967
 31
0.0
  0
LINE
  5
283E
  8
0
 10
-0.6292894000000046
 20
-0.1060659999999984
 30
0.0
 11
-0.6328441999999656
 21
-0.1111429999999984
 31
0.0
  0
LINE
  5
283F
  8
0
 10
-0.6328441999999656
 20
-0.1111429999999984
 30
0.0
 11
-0.6365605999999957
 21
-0.1159519999999929
 31
0.0
  0
LINE
  5
2840
  8
0
 10
-0.6365605999999957
 20
-0.1159519999999929
 30
0.0
 11
-0.6404299999999809
 21
-0.1204809999999838
 31
0.0
  0
LINE
  5
2841
  8
0
 10
-0.6404299999999809
 20
-0.1204809999999838
 30
0.0
 11
-0.6444429999999671
 21
-0.1247199999999964
 31
0.0
  0
LINE
  5
2842
  8
0
 10
-0.6444429999999671
 20
-0.1247199999999964
 30
0.0
 11
-0.6485897999999679
 21
-0.128658999999999
 31
0.0
  0
ENDBLK
  5
2843
  8
0
  0
ENDSEC
  0
SECTION
  2
ENTITIES
  0
ATTDEF
  5
2844
  8
0
  6
CONTINUOUS
 62
     7
 10
-1.431955612745317
 20
-0.451596868923275
 30
0.0
 40
0.2
  1
*POTENZA*
 72
     2
 11
-0.098622279411984
 21
-0.451596868923275
 31
0.0
  3
Potenza [w]
  2
POTENZA
 70
     9
  0
ATTDEF
  5
2845
  8
0
  6
CONTINUOUS
 62
     7
 10
-1.3907097118031551
 20
-1.0025390813744921
 30
0.0
 40
0.2
  1
*PERD*
 72
     2
 11
-0.1240430451364887
 21
-1.0025390813744921
 31
0.0
  3
Perdita (Pa)
  2
PERDITA
 70
     9
  0
ATTDEF
  5
2846
  8
0
  6
CONTINUOUS
 62
     7
 10
-1.510894460235348
 20
0.7807867428018369
 30
0.0
 40
0.2
  1

 72
     1
 11
-0.7775611269020147
 21
0.7807867428018369
 31
0.0
  3
N° elementi
  2
ELEMENTI
 70
     9
  0
ATTDEF
  5
2847
  8
0
  6
CONTINUOUS
 62
     7
 10
-1.4442277935686809
 20
1.05990511777756
 30
0.0
 40
0.2
  1

 72
     1
 11
-0.7775611269020147
 21
1.05990511777756
 31
0.0
  3
Modello
  2
MODELLO
 70
     9
  0
ATTDEF
  5
2848
  8
0
  6
CONTINUOUS
 62
     7
 10
-1.078338348073729
 20
1.6462786655557691
 30
0.0
 40
0.2
  1
??
 72
     1
 11
-0.8116716814070628
 21
1.6462786655557691
 31
0.0
  3
Identificatore
  2
COD
 70
     9
  0
ATTDEF
  5
2849
  8
0
  6
CONTINUOUS
 62
     7
 10
-1.1387018574270009
 20
0.2257984409205562
 30
0.0
 40
0.2
  1
*LMAX*
 72
     1
 11
-0.7720351907603346
 21
0.2257984409205562
 31
0.0
  3
Larghezza massima [m]
  2
LMAX
 70
     9
  0
ATTDEF
  5
284A
  8
0
  6
CONTINUOUS
 62
     7
 10
-1.100756115928978
 20
0.5022863207759089
 30
0.0
 40
0.2
  1
*INCR*
 72
     1
 11
-0.767422782595645
 21
0.5022863207759089
 31
0.0
  3
Incremento [ %]
  2
INCR
 70
     9
  0
ATTDEF
  5
284B
  8
0
  6
CONTINUOUS
 62
     7
 10
-1.187054319504049
 20
-0.6992862872683077
 30
0.0
 40
0.2
  1
*PORT*
 72
     1
 11
-0.8203876528373824
 21
-0.6992862872683077
 31
0.0
  3
Portata [l/s]
  2
PORT
 70
     9
  0
ATTDEF
  5
284C
  8
0
  6
CONTINUOUS
 62
     7
 10
-1.2108944602353471
 20
1.314395393054951
 30
0.0
 40
0.2
  1

 72
     1
 11
-0.7775611269020147
 21
1.314395393054951
 31
0.0
  3
Serie
  2
SERIE
 70
     9
  0
LINE
  5
284D
  8
0
 10
-0.1812791410079057
 20
0.0
 30
0.0
 11
0.0
 21
0.0
 31
0.0
  0
ATTDEF
  5
2E58
  8
0
  6
CONTINUOUS
 62
     7
 10
-1.815022739026203
 20
-1.298193047673688
 30
0.0
 40
0.2
  1
*MONTAGGIO*
 72
     2
 11
-0.1483560723595367
 21
-1.298193047673688
 31
0.0
  3
Schema di montaggio
  2
MONTAGGIO
 70
     9
  0
LINE
  5
2E5A
  8
0
 10
-0.9012791410078984
 20
0.0450000000000017
 30
0.0
 11
-0.9012791410078984
 21
-0.1084267356678783
 31
0.0
  0
LINE
  5
2E5B
  8
0
 10
-0.9012791410078984
 20
-0.1084267356678783
 30
0.0
 11
-0.1812791410079057
 21
-0.1084267356678783
 31
0.0
  0
LINE
  5
2E5C
  8
0
 10
-0.1812791410079057
 20
0.0450000000000017
 30
0.0
 11
-0.1812791410079057
 21
-0.1084267356678783
 31
0.0
  0
LINE
  5
2E5E
  8
0
 10
-0.9012791410078984
 20
0.0450000000000017
 30
0.0
 11
-0.1812791410079057
 21
0.0450000000000017
 31
0.0
  0
LINE
  5
2E5F
  8
0
 10
-0.8146961932856306
 20
0.0013460085893016
 30
0.0
 11
-0.2654431274022109
 21
0.0013460085893016
 31
0.0
  0
LINE
  5
2E60
  8
0
 10
-0.2654431274022109
 20
0.0013460085893016
 30
0.0
 11
-0.2654431274022109
 21
-0.0617149265551742
 31
0.0
  0
LINE
  5
2E61
  8
0
 10
-0.2654431274022109
 20
-0.0617149265551742
 30
0.0
 11
-0.8146961932856305
 21
-0.0617149265551742
 31
0.0
  0
LINE
  5
2E62
  8
0
 10
-0.8146961932856306
 20
0.0013460085893016
 30
0.0
 11
-0.8146961932856305
 21
-0.0617149265551742
 31
0.0
  0
LINE
  5
2E63
  8
0
 10
-0.8146961932856305
 20
-0.0313522536994917
 30
0.0
 11
-0.2654431274022109
 21
-0.0313522536994917
 31
0.0
  0
ENDSEC
  0
EOF
