  0
SECTION
  2
HEADER
  9
$ACADVER
  1
AC1009
  9
$INSBASE
 10
0.0
 20
0.0
 30
0.0
  9
$EXTMIN
 10
-1.8035505013291571
 20
-1.3102809866506291
 30
0.0
  9
$EXTMAX
 10
0.5524760551099134
 20
1.514395393054965
 30
0.0
  9
$LIMMIN
 10
0.0
 20
0.0
  9
$LIMMAX
 10
20.0
 20
20.0
  9
$ORTHOMODE
 70
     1
  9
$REGENMODE
 70
     1
  9
$FILLMODE
 70
     1
  9
$QTEXTMODE
 70
     0
  9
$MIRRTEXT
 70
     1
  9
$DRAGMODE
 70
     2
  9
$LTSCALE
 40
0.05
  9
$OSMODE
 70
   677
  9
$ATTMODE
 70
     1
  9
$TEXTSIZE
 40
0.2
  9
$TRACEWID
 40
0.05
  9
$TEXTSTYLE
  7
STANDARD
  9
$CLAYER
  8
P1_TUBI
  9
$CELTYPE
  6
CONTINUOUS
  9
$CECOLOR
 62
     1
  9
$DIMSCALE
 40
1.0
  9
$DIMASZ
 40
0.18
  9
$DIMEXO
 40
0.0625
  9
$DIMDLI
 40
0.38
  9
$DIMRND
 40
0.0
  9
$DIMDLE
 40
0.0
  9
$DIMEXE
 40
0.18
  9
$DIMTP
 40
0.0
  9
$DIMTM
 40
0.0
  9
$DIMTXT
 40
0.18
  9
$DIMCEN
 40
0.09
  9
$DIMTSZ
 40
0.0
  9
$DIMTOL
 70
     0
  9
$DIMLIM
 70
     0
  9
$DIMTIH
 70
     1
  9
$DIMTOH
 70
     1
  9
$DIMSE1
 70
     0
  9
$DIMSE2
 70
     0
  9
$DIMTAD
 70
     0
  9
$DIMZIN
 70
     0
  9
$DIMBLK
  1

  9
$DIMASO
 70
     1
  9
$DIMSHO
 70
     1
  9
$DIMPOST
  1

  9
$DIMAPOST
  1

  9
$DIMALT
 70
     0
  9
$DIMALTD
 70
     2
  9
$DIMALTF
 40
25.399999999999999
  9
$DIMLFAC
 40
1.0
  9
$DIMTOFL
 70
     0
  9
$DIMTVP
 40
0.0
  9
$DIMTIX
 70
     0
  9
$DIMSOXD
 70
     0
  9
$DIMSAH
 70
     0
  9
$DIMBLK1
  1

  9
$DIMBLK2
  1

  9
$DIMSTYLE
  2
STANDARD
  9
$DIMCLRD
 70
     0
  9
$DIMCLRE
 70
     0
  9
$DIMCLRT
 70
     0
  9
$DIMTFAC
 40
1.0
  9
$DIMGAP
 40
0.09
  9
$LUNITS
 70
     2
  9
$LUPREC
 70
     4
  9
$SKETCHINC
 40
0.1
  9
$FILLETRAD
 40
0.0
  9
$AUNITS
 70
     0
  9
$AUPREC
 70
     0
  9
$MENU
  1
acad
  9
$ELEVATION
 40
0.0
  9
$PELEVATION
 40
0.0
  9
$THICKNESS
 40
3.0
  9
$LIMCHECK
 70
     0
  9
$BLIPMODE
 70
     0
  9
$CHAMFERA
 40
0.5
  9
$CHAMFERB
 40
0.5
  9
$SKPOLY
 70
     0
  9
$TDCREATE
 40
2451387.6378766671
  9
$TDUPDATE
 40
2453362.5276513649
  9
$TDINDWG
 40
2.7359066204000002
  9
$TDUSRTIMER
 40
2.7358139005000002
  9
$USRTIMER
 70
     1
  9
$ANGBASE
 50
0.0
  9
$ANGDIR
 70
     0
  9
$PDMODE
 70
     0
  9
$PDSIZE
 40
0.0
  9
$PLINEWID
 40
0.0
  9
$COORDS
 70
     2
  9
$SPLFRAME
 70
     0
  9
$SPLINETYPE
 70
     6
  9
$SPLINESEGS
 70
     8
  9
$ATTDIA
 70
     0
  9
$ATTREQ
 70
     1
  9
$HANDLING
 70
 22529
  9
$HANDSEED
  5
9D4
  9
$SURFTAB1
 70
     6
  9
$SURFTAB2
 70
     6
  9
$SURFTYPE
 70
     6
  9
$SURFU
 70
     6
  9
$SURFV
 70
     6
  9
$UCSNAME
  2

  9
$UCSORG
 10
0.0
 20
0.0
 30
0.0
  9
$UCSXDIR
 10
1.0
 20
0.0
 30
0.0
  9
$UCSYDIR
 10
0.0
 20
1.0
 30
0.0
  9
$PUCSNAME
  2

  9
$PUCSORG
 10
0.0
 20
0.0
 30
0.0
  9
$PUCSXDIR
 10
1.0
 20
0.0
 30
0.0
  9
$PUCSYDIR
 10
0.0
 20
1.0
 30
0.0
  9
$USERI1
 70
     0
  9
$USERI2
 70
     0
  9
$USERI3
 70
     0
  9
$USERI4
 70
     0
  9
$USERI5
 70
     0
  9
$USERR1
 40
0.0
  9
$USERR2
 40
0.0
  9
$USERR3
 40
0.0
  9
$USERR4
 40
0.0
  9
$USERR5
 40
0.0
  9
$WORLDVIEW
 70
     1
  9
$SHADEDGE
 70
     3
  9
$SHADEDIF
 70
    70
  9
$TILEMODE
 70
     1
  9
$MAXACTVP
 70
    48
  9
$PLIMCHECK
 70
     0
  9
$PEXTMIN
 10
1.0000000000000000E+020
 20
1.0000000000000000E+020
 30
1.0000000000000000E+020
  9
$PEXTMAX
 10
-1.0000000000000000E+020
 20
-1.0000000000000000E+020
 30
-1.0000000000000000E+020
  9
$PLIMMIN
 10
0.0
 20
0.0
  9
$PLIMMAX
 10
12.0
 20
9.0
  9
$UNITMODE
 70
     0
  9
$VISRETAIN
 70
     1
  9
$PLINEGEN
 70
     0
  9
$PSLTSCALE
 70
     1
  0
ENDSEC
  0
SECTION
  2
TABLES
  0
TABLE
  2
VPORT
 70
     4
  0
VPORT
  2
*ACTIVE
 70
     0
 10
0.0
 20
0.0
 11
1.0
 21
1.0
 12
-5.3876587283292467
 22
-4.8776877047882268
 13
0.0
 23
0.0
 14
0.5
 24
0.5
 15
0.5
 25
0.5
 16
0.0
 26
0.0
 36
1.0
 17
6.3836110000000001
 27
4.9517730000000002
 37
-0.464255
 40
9.1937818772495952
 41
1.9682539682539679
 42
50.0
 43
0.0
 44
0.0
 50
0.0
 51
0.0
 71
     0
 72
   100
 73
     1
 74
     0
 75
     0
 76
     0
 77
     0
 78
     1
  0
ENDTAB
  0
TABLE
  2
LTYPE
 70
     1
  0
LTYPE
  2
CONTINUOUS
 70
     0
  3
Solid line
 72
    65
 73
     0
 40
0.0
  0
ENDTAB
  0
TABLE
  2
LAYER
 70
     2
  0
LAYER
  2
0
 70
     0
 62
     7
  6
CONTINUOUS
  0
LAYER
  2
P1_TUBI
 70
     0
 62
     7
  6
CONTINUOUS
  0
ENDTAB
  0
TABLE
  2
STYLE
 70
     1
  0
STYLE
  2
STANDARD
 70
     0
 40
0.0
 41
1.0
 50
0.0
 71
     0
 42
0.2
  3
txt
  4

  0
ENDTAB
  0
TABLE
  2
VIEW
 70
     0
  0
ENDTAB
  0
TABLE
  2
UCS
 70
     0
  0
ENDTAB
  0
TABLE
  2
APPID
 70
     1
  0
APPID
  2
ACAD
 70
     0
  0
ENDTAB
  0
TABLE
  2
DIMSTYLE
 70
     1
  0
DIMSTYLE
  2
STANDARD
 70
     0
  3

  4

  5

  6

  7

 40
1.0
 41
0.18
 42
0.0625
 43
0.38
 44
0.18
 45
0.0
 46
0.0
 47
0.0
 48
0.0
140
0.18
141
0.09
142
0.0
143
25.399999999999999
144
1.0
145
0.0
146
1.0
147
0.09
 71
     0
 72
     0
 73
     1
 74
     1
 75
     0
 76
     0
 77
     0
 78
     0
170
     0
171
     2
172
     0
173
     0
174
     0
175
     0
176
     0
177
     0
178
     0
  0
ENDTAB
  0
ENDSEC
  0
SECTION
  2
BLOCKS
  0
BLOCK
  8
0
  2
$MODEL_SPACE
 70
     0
 10
0.0
 20
0.0
 30
0.0
  3
$MODEL_SPACE
  1

  0
ENDBLK
  5
6A7
  8
0
  0
BLOCK
 67
     1
  8
0
  2
$PAPER_SPACE
 70
     0
 10
0.0
 20
0.0
 30
0.0
  3
$PAPER_SPACE
  1

  0
ENDBLK
  5
6A3
 67
     1
  8
0
  0
ENDSEC
  0
SECTION
  2
ENTITIES
  0
ATTDEF
  5
6B3
  8
0
  6
CONTINUOUS
 62
     7
 10
-1.21089446023534
 20
1.314395393054965
 30
0.0
 40
0.2
  1

 72
     1
 11
-0.7775611269020076
 21
1.314395393054965
 31
0.0
  3
Serie
  2
SERIE
 70
     9
  0
LINE
  5
6B4
  8
0
 10
-1.3687240939533201
 20
0.0
 30
0.0
 11
-1.5500032349612241
 21
0.0
 31
0.0
  0
ATTDEF
  5
6B5
  8
0
  6
CONTINUOUS
 62
     7
 10
-1.444227793568674
 20
1.059905117777574
 30
0.0
 40
0.2
  1

 72
     1
 11
-0.7775611269020076
 21
1.059905117777574
 31
0.0
  3
Modello
  2
MODELLO
 70
     9
  0
ATTDEF
  5
6B6
  8
0
  6
CONTINUOUS
 62
     7
 10
-1.51089446023534
 20
0.7807867428018298
 30
0.0
 40
0.2
  1

 72
     1
 11
-0.7775611269020076
 21
0.7807867428018298
 31
0.0
  3
N° elementi
  2
ELEMENTI
 70
     9
  0
ATTDEF
  5
6B7
  8
0
  6
CONTINUOUS
 62
     7
 10
-1.187054319504049
 20
-0.6992862872683077
 30
0.0
 40
0.2
  1
*PORT*
 72
     1
 11
-0.8203876528373824
 21
-0.6992862872683077
 31
0.0
  3
Portata [l/s]
  2
PORT
 70
     9
  0
ATTDEF
  5
6B8
  8
0
  6
CONTINUOUS
 62
     7
 10
-1.390709711803169
 20
-1.0025390813744921
 30
0.0
 40
0.2
  1
*PERD*
 72
     2
 11
-0.1240430451365029
 21
-1.0025390813744921
 31
0.0
  3
Perdita (Pa)
  2
PERDITA
 70
     9
  0
ATTDEF
  5
6B9
  8
0
  6
CONTINUOUS
 62
     7
 10
-1.4319556127453379
 20
-0.451596868923275
 30
0.0
 40
0.2
  1
*POTENZA*
 72
     2
 11
-0.0986222794120053
 21
-0.451596868923275
 31
0.0
  3
Potenza [w]
  2
POTENZA
 70
     9
  0
LINE
  5
6BA
  8
0
 10
-0.6541710939533179
 20
0.1557361999999998
 30
0.0
 11
-0.6590422939533216
 21
0.1566381999999962
 31
0.0
  0
LINE
  5
6BB
  8
0
 10
-1.3688440939533191
 20
0.1573601999999994
 30
0.0
 11
-0.2688440939533216
 21
0.1573601999999994
 31
0.0
  0
ATTDEF
  5
6BC
  8
0
  6
CONTINUOUS
 62
     7
 10
-1.1007561159289849
 20
0.5022863207759019
 30
0.0
 40
0.2
  1
*INCR*
 72
     1
 11
-0.7674227825956521
 21
0.5022863207759019
 31
0.0
  3
Incremento [ %]
  2
INCR
 70
     9
  0
ATTDEF
  5
6BD
  8
0
  6
CONTINUOUS
 62
     7
 10
-1.138701857427026
 20
0.2257984409205704
 30
0.0
 40
0.2
  1
*LMAX*
 72
     1
 11
-0.7720351907603594
 21
0.2257984409205704
 31
0.0
  3
Larghezza massima [m]
  2
LMAX
 70
     9
  0
LINE
  5
6BE
  8
0
 10
-0.6590422939533216
 20
-0.1419178000000016
 30
0.0
 11
-0.6541710939533179
 21
-0.1410157999999981
 31
0.0
  0
LINE
  5
6BF
  8
0
 10
-0.2688440939533216
 20
-0.1426397999999978
 30
0.0
 11
-1.3688440939533191
 21
-0.1426397999999978
 31
0.0
  0
LINE
  5
6C0
  8
0
 10
-1.0445460939533191
 20
0.1528652000000008
 30
0.0
 11
-1.04933409395332
 21
0.1544781999999998
 31
0.0
  0
LINE
  5
6C1
  8
0
 10
-1.04933409395332
 20
-0.1397577999999982
 30
0.0
 11
-1.0445460939533191
 21
-0.1381447999999992
 31
0.0
  0
LINE
  5
6C2
  8
0
 10
-1.239816093953316
 20
0.1509011999999998
 30
0.0
 11
-1.2445460939533191
 21
0.1528652000000008
 31
0.0
  0
LINE
  5
6C3
  8
0
 10
-1.2445460939533191
 20
-0.1381447999999992
 30
0.0
 11
-1.239816093953316
 21
-0.1361807999999982
 31
0.0
  0
LINE
  5
6C4
  8
0
 10
-1.34916409395332
 20
0.0967150999999973
 30
0.0
 11
-1.35199009395332
 21
0.0906956999999977
 31
0.0
  0
LINE
  5
6C5
  8
0
 10
-1.346146093953317
 20
0.1025191999999961
 30
0.0
 11
-1.34916409395332
 21
0.0967150999999973
 31
0.0
  0
LINE
  5
6C6
  8
0
 10
-1.342940093953318
 20
0.1080941999999965
 30
0.0
 11
-1.346146093953317
 21
0.1025191999999961
 31
0.0
  0
LINE
  5
6C7
  8
0
 10
-1.35199009395332
 20
0.0906956999999977
 30
0.0
 11
-1.3546160939533181
 21
0.0844755999999976
 31
0.0
  0
LINE
  5
6C8
  8
0
 10
-1.368362093953317
 20
0.0220628000000005
 30
0.0
 11
-1.3687240939533201
 21
0.0147204000000016
 31
0.0
  0
LINE
  5
6C9
  8
0
 10
-1.367762093953317
 20
0.0293697999999978
 30
0.0
 11
-1.368362093953317
 21
0.0220628000000005
 31
0.0
  0
LINE
  5
6CA
  8
0
 10
-1.3669220939533171
 20
0.0366236999999998
 30
0.0
 11
-1.367762093953317
 21
0.0293697999999978
 31
0.0
  0
LINE
  5
6CB
  8
0
 10
-1.3658480939533191
 20
0.0438071999999963
 30
0.0
 11
-1.3669220939533171
 21
0.0366236999999998
 31
0.0
  0
LINE
  5
6CC
  8
0
 10
-1.364538093953318
 20
0.050902899999997
 30
0.0
 11
-1.3658480939533191
 21
0.0438071999999963
 31
0.0
  0
LINE
  5
6CD
  8
0
 10
-1.3629980939533171
 20
0.0578937000000011
 30
0.0
 11
-1.364538093953318
 21
0.050902899999997
 31
0.0
  0
LINE
  5
6CE
  8
0
 10
-1.36123209395332
 20
0.0647627000000028
 30
0.0
 11
-1.3629980939533171
 21
0.0578937000000011
 31
0.0
  0
LINE
  5
6CF
  8
0
 10
-1.3592420939533201
 20
0.0714935000000026
 30
0.0
 11
-1.36123209395332
 21
0.0647627000000028
 31
0.0
  0
LINE
  5
6D0
  8
0
 10
-1.357036093953319
 20
0.0780697000000004
 30
0.0
 11
-1.3592420939533201
 21
0.0714935000000026
 31
0.0
  0
LINE
  5
6D1
  8
0
 10
-1.3546160939533181
 20
0.0844755999999976
 30
0.0
 11
-1.357036093953319
 21
0.0780697000000004
 31
0.0
  0
LINE
  5
6D2
  8
0
 10
-1.3669220939533171
 20
-0.0219032999999982
 30
0.0
 11
-1.3658480939533191
 21
-0.0290868000000018
 31
0.0
  0
LINE
  5
6D3
  8
0
 10
-1.367762093953317
 20
-0.0146494000000033
 30
0.0
 11
-1.3669220939533171
 21
-0.0219032999999982
 31
0.0
  0
LINE
  5
6D4
  8
0
 10
-1.368362093953317
 20
-0.0073423999999989
 30
0.0
 11
-1.367762093953317
 21
-0.0146494000000033
 31
0.0
  0
LINE
  5
6D5
  8
0
 10
-1.3687240939533201
 20
0.0
 30
0.0
 11
-1.368362093953317
 21
-0.0073423999999989
 31
0.0
  0
LINE
  5
6D6
  8
0
 10
-1.3688440939533191
 20
0.0073602000000008
 30
0.0
 11
-1.3687240939533201
 21
0.0
 31
0.0
  0
LINE
  5
6D7
  8
0
 10
-1.36123209395332
 20
-0.0500423000000012
 30
0.0
 11
-1.3592420939533201
 21
-0.0567731000000009
 31
0.0
  0
LINE
  5
6D8
  8
0
 10
-1.3629980939533171
 20
-0.0431732999999994
 30
0.0
 11
-1.36123209395332
 21
-0.0500423000000012
 31
0.0
  0
LINE
  5
6D9
  8
0
 10
-1.364538093953318
 20
-0.0361825000000025
 30
0.0
 11
-1.3629980939533171
 21
-0.0431732999999994
 31
0.0
  0
LINE
  5
6DA
  8
0
 10
-1.3658480939533191
 20
-0.0290868000000018
 30
0.0
 11
-1.364538093953318
 21
-0.0361825000000025
 31
0.0
  0
LINE
  5
6DB
  8
0
 10
-1.3687240939533201
 20
0.0147204000000016
 30
0.0
 11
-1.3688440939533191
 21
0.0073602000000008
 31
0.0
  0
LINE
  5
6DC
  8
0
 10
-1.2883540939533169
 20
0.1544781999999998
 30
0.0
 11
-1.293142093953318
 21
0.1528652000000008
 31
0.0
  0
LINE
  5
6DD
  8
0
 10
-1.3202540939533181
 20
0.1360191999999998
 30
0.0
 11
-1.3244020939533181
 21
0.1320801999999972
 31
0.0
  0
LINE
  5
6DE
  8
0
 10
-1.3159840939533201
 20
0.1396482000000034
 30
0.0
 11
-1.3202540939533181
 21
0.1360191999999998
 31
0.0
  0
LINE
  5
6DF
  8
0
 10
-1.311600093953317
 20
0.1429581999999954
 30
0.0
 11
-1.3159840939533201
 21
0.1396482000000034
 31
0.0
  0
LINE
  5
6E0
  8
0
 10
-1.3071120939533181
 20
0.1459422000000003
 30
0.0
 11
-1.311600093953317
 21
0.1429581999999954
 31
0.0
  0
LINE
  5
6E1
  8
0
 10
-1.302532093953318
 20
0.1485922000000031
 30
0.0
 11
-1.3071120939533181
 21
0.1459422000000003
 31
0.0
  0
LINE
  5
6E2
  8
0
 10
-1.297872093953317
 20
0.1509011999999998
 30
0.0
 11
-1.302532093953318
 21
0.1485922000000031
 31
0.0
  0
LINE
  5
6E3
  8
0
 10
-1.293142093953318
 20
0.1528652000000008
 30
0.0
 11
-1.297872093953317
 21
0.1509011999999998
 31
0.0
  0
LINE
  5
6E4
  8
0
 10
-1.263938093953318
 20
0.1571792000000016
 30
0.0
 11
-1.2688440939533201
 21
0.1573601999999994
 31
0.0
  0
LINE
  5
6E5
  8
0
 10
-1.25904209395332
 20
0.1566381999999962
 30
0.0
 11
-1.263938093953318
 21
0.1571792000000016
 31
0.0
  0
LINE
  5
6E6
  8
0
 10
-1.25417009395332
 20
0.1557361999999998
 30
0.0
 11
-1.25904209395332
 21
0.1566381999999962
 31
0.0
  0
LINE
  5
6E7
  8
0
 10
-1.2493340939533171
 20
0.1544781999999998
 30
0.0
 11
-1.25417009395332
 21
0.1557361999999998
 31
0.0
  0
LINE
  5
6E8
  8
0
 10
-1.2445460939533191
 20
0.1528652000000008
 30
0.0
 11
-1.2493340939533171
 21
0.1544781999999998
 31
0.0
  0
LINE
  5
6E9
  8
0
 10
-1.2835180939533191
 20
0.1557361999999998
 30
0.0
 11
-1.2883540939533169
 21
0.1544781999999998
 31
0.0
  0
LINE
  5
6EA
  8
0
 10
-1.2786460939533211
 20
0.1566381999999962
 30
0.0
 11
-1.2835180939533191
 21
0.1557361999999998
 31
0.0
  0
LINE
  5
6EB
  8
0
 10
-1.2737500939533191
 20
0.1571792000000016
 30
0.0
 11
-1.2786460939533211
 21
0.1566381999999962
 31
0.0
  0
LINE
  5
6EC
  8
0
 10
-1.2688440939533201
 20
0.1573601999999994
 30
0.0
 11
-1.2737500939533191
 21
0.1571792000000016
 31
0.0
  0
LINE
  5
6ED
  8
0
 10
-1.339554093953319
 20
0.1134261999999992
 30
0.0
 11
-1.342940093953318
 21
0.1080941999999965
 31
0.0
  0
LINE
  5
6EE
  8
0
 10
-1.3360000939533181
 20
0.1185031999999992
 30
0.0
 11
-1.339554093953319
 21
0.1134261999999992
 31
0.0
  0
LINE
  5
6EF
  8
0
 10
-1.33228409395332
 20
0.1233122000000009
 30
0.0
 11
-1.3360000939533181
 21
0.1185031999999992
 31
0.0
  0
LINE
  5
6F0
  8
0
 10
-1.3284140939533211
 20
0.1278411999999989
 30
0.0
 11
-1.33228409395332
 21
0.1233122000000009
 31
0.0
  0
LINE
  5
6F1
  8
0
 10
-1.3244020939533181
 20
0.1320801999999972
 30
0.0
 11
-1.3284140939533211
 21
0.1278411999999989
 31
0.0
  0
LINE
  5
6F2
  8
0
 10
-1.3159840939533201
 20
-0.1249278000000018
 30
0.0
 11
-1.311600093953317
 21
-0.1282378000000008
 31
0.0
  0
LINE
  5
6F3
  8
0
 10
-1.293142093953318
 20
-0.1381447999999992
 30
0.0
 11
-1.2883540939533169
 21
-0.1397577999999982
 31
0.0
  0
LINE
  5
6F4
  8
0
 10
-1.297872093953317
 20
-0.1361807999999982
 30
0.0
 11
-1.293142093953318
 21
-0.1381447999999992
 31
0.0
  0
LINE
  5
6F5
  8
0
 10
-1.302532093953318
 20
-0.1338718000000014
 30
0.0
 11
-1.297872093953317
 21
-0.1361807999999982
 31
0.0
  0
LINE
  5
6F6
  8
0
 10
-1.3071120939533181
 20
-0.1312217999999987
 30
0.0
 11
-1.302532093953318
 21
-0.1338718000000014
 31
0.0
  0
LINE
  5
6F7
  8
0
 10
-1.311600093953317
 20
-0.1282378000000008
 30
0.0
 11
-1.3071120939533181
 21
-0.1312217999999987
 31
0.0
  0
LINE
  5
6F8
  8
0
 10
-1.2493340939533171
 20
-0.1397577999999982
 30
0.0
 11
-1.2445460939533191
 21
-0.1381447999999992
 31
0.0
  0
LINE
  5
6F9
  8
0
 10
-1.25417009395332
 20
-0.1410157999999981
 30
0.0
 11
-1.2493340939533171
 21
-0.1397577999999982
 31
0.0
  0
LINE
  5
6FA
  8
0
 10
-1.25904209395332
 20
-0.1419178000000016
 30
0.0
 11
-1.25417009395332
 21
-0.1410157999999981
 31
0.0
  0
LINE
  5
6FB
  8
0
 10
-1.263938093953318
 20
-0.1424588
 30
0.0
 11
-1.25904209395332
 21
-0.1419178000000016
 31
0.0
  0
LINE
  5
6FC
  8
0
 10
-1.2688440939533201
 20
-0.1426397999999978
 30
0.0
 11
-1.263938093953318
 21
-0.1424588
 31
0.0
  0
LINE
  5
6FD
  8
0
 10
-1.2737500939533191
 20
-0.1424588
 30
0.0
 11
-1.2688440939533201
 21
-0.1426397999999978
 31
0.0
  0
LINE
  5
6FE
  8
0
 10
-1.2786460939533211
 20
-0.1419178000000016
 30
0.0
 11
-1.2737500939533191
 21
-0.1424588
 31
0.0
  0
LINE
  5
6FF
  8
0
 10
-1.2835180939533191
 20
-0.1410157999999981
 30
0.0
 11
-1.2786460939533211
 21
-0.1419178000000016
 31
0.0
  0
LINE
  5
700
  8
0
 10
-1.2883540939533169
 20
-0.1397577999999982
 30
0.0
 11
-1.2835180939533191
 21
-0.1410157999999981
 31
0.0
  0
LINE
  5
701
  8
0
 10
-1.3202540939533181
 20
-0.1212987999999981
 30
0.0
 11
-1.3159840939533201
 21
-0.1249278000000018
 31
0.0
  0
LINE
  5
702
  8
0
 10
-1.3244020939533181
 20
-0.1173598000000027
 30
0.0
 11
-1.3202540939533181
 21
-0.1212987999999981
 31
0.0
  0
LINE
  5
703
  8
0
 10
-1.33228409395332
 20
-0.1085917999999992
 30
0.0
 11
-1.3284140939533211
 21
-0.1131207999999972
 31
0.0
  0
LINE
  5
704
  8
0
 10
-1.3360000939533181
 20
-0.1037828000000047
 30
0.0
 11
-1.33228409395332
 21
-0.1085917999999992
 31
0.0
  0
LINE
  5
705
  8
0
 10
-1.339554093953319
 20
-0.0987058000000047
 30
0.0
 11
-1.3360000939533181
 21
-0.1037828000000047
 31
0.0
  0
LINE
  5
706
  8
0
 10
-1.342940093953318
 20
-0.093373800000002
 30
0.0
 11
-1.339554093953319
 21
-0.0987058000000047
 31
0.0
  0
LINE
  5
707
  8
0
 10
-1.3284140939533211
 20
-0.1131207999999972
 30
0.0
 11
-1.3244020939533181
 21
-0.1173598000000027
 31
0.0
  0
LINE
  5
708
  8
0
 10
-1.34916409395332
 20
-0.0819947000000028
 30
0.0
 11
-1.346146093953317
 21
-0.0877988000000016
 31
0.0
  0
LINE
  5
709
  8
0
 10
-1.35199009395332
 20
-0.0759753000000032
 30
0.0
 11
-1.34916409395332
 21
-0.0819947000000028
 31
0.0
  0
LINE
  5
70A
  8
0
 10
-1.346146093953317
 20
-0.0877988000000016
 30
0.0
 11
-1.342940093953318
 21
-0.093373800000002
 31
0.0
  0
LINE
  5
70B
  8
0
 10
-1.3546160939533181
 20
-0.069755200000003
 30
0.0
 11
-1.35199009395332
 21
-0.0759753000000032
 31
0.0
  0
LINE
  5
70C
  8
0
 10
-1.357036093953319
 20
-0.0633492999999987
 30
0.0
 11
-1.3546160939533181
 21
-0.069755200000003
 31
0.0
  0
LINE
  5
70D
  8
0
 10
-1.3592420939533201
 20
-0.0567731000000009
 30
0.0
 11
-1.357036093953319
 21
-0.0633492999999987
 31
0.0
  0
LINE
  5
70E
  8
0
 10
-1.3688440939533191
 20
-0.1426397999999978
 30
0.0
 11
-1.3688440939533191
 21
0.1573601999999994
 31
0.0
  0
LINE
  5
70F
  8
0
 10
-1.168362093953321
 20
0.0220628000000005
 30
0.0
 11
-1.168724093953317
 21
0.0147204000000016
 31
0.0
  0
LINE
  5
710
  8
0
 10
-1.1677620939533191
 20
0.0293697999999978
 30
0.0
 11
-1.168362093953321
 21
0.0220628000000005
 31
0.0
  0
LINE
  5
711
  8
0
 10
-1.166922093953318
 20
0.0366236999999998
 30
0.0
 11
-1.1677620939533191
 21
0.0293697999999978
 31
0.0
  0
LINE
  5
712
  8
0
 10
-1.16584809395332
 20
0.0438071999999963
 30
0.0
 11
-1.166922093953318
 21
0.0366236999999998
 31
0.0
  0
LINE
  5
713
  8
0
 10
-1.1645380939533201
 20
0.050902899999997
 30
0.0
 11
-1.16584809395332
 21
0.0438071999999963
 31
0.0
  0
LINE
  5
714
  8
0
 10
-1.1629980939533211
 20
0.0578937000000011
 30
0.0
 11
-1.1645380939533201
 21
0.050902899999997
 31
0.0
  0
LINE
  5
715
  8
0
 10
-1.1612320939533181
 20
0.0647627000000028
 30
0.0
 11
-1.1629980939533211
 21
0.0578937000000011
 31
0.0
  0
LINE
  5
716
  8
0
 10
-1.159242093953317
 20
0.0714935000000026
 30
0.0
 11
-1.1612320939533181
 21
0.0647627000000028
 31
0.0
  0
LINE
  5
717
  8
0
 10
-1.188524093953319
 20
0.0967150999999973
 30
0.0
 11
-1.191542093953317
 21
0.1025191999999961
 31
0.0
  0
LINE
  5
718
  8
0
 10
-1.185698093953321
 20
0.0906956999999977
 30
0.0
 11
-1.188524093953319
 21
0.0967150999999973
 31
0.0
  0
LINE
  5
719
  8
0
 10
-1.183072093953319
 20
0.0844755999999976
 30
0.0
 11
-1.185698093953321
 21
0.0906956999999977
 31
0.0
  0
LINE
  5
71A
  8
0
 10
-1.18065209395332
 20
0.0780697000000004
 30
0.0
 11
-1.183072093953319
 21
0.0844755999999976
 31
0.0
  0
LINE
  5
71B
  8
0
 10
-1.178446093953319
 20
0.0714935000000026
 30
0.0
 11
-1.18065209395332
 21
0.0780697000000004
 31
0.0
  0
LINE
  5
71C
  8
0
 10
-1.1764560939533211
 20
0.0647627000000028
 30
0.0
 11
-1.178446093953319
 21
0.0714935000000026
 31
0.0
  0
LINE
  5
71D
  8
0
 10
-1.1746900939533169
 20
0.0578937000000011
 30
0.0
 11
-1.1764560939533211
 21
0.0647627000000028
 31
0.0
  0
LINE
  5
71E
  8
0
 10
-1.173150093953319
 20
0.050902899999997
 30
0.0
 11
-1.1746900939533169
 21
0.0578937000000011
 31
0.0
  0
LINE
  5
71F
  8
0
 10
-1.171840093953318
 20
0.0438071999999963
 30
0.0
 11
-1.173150093953319
 21
0.050902899999997
 31
0.0
  0
LINE
  5
720
  8
0
 10
-1.1707660939533191
 20
0.0366236999999998
 30
0.0
 11
-1.171840093953318
 21
0.0438071999999963
 31
0.0
  0
LINE
  5
721
  8
0
 10
-1.16992609395332
 20
0.0293697999999978
 30
0.0
 11
-1.1707660939533191
 21
0.0366236999999998
 31
0.0
  0
LINE
  5
722
  8
0
 10
-1.169326093953317
 20
0.0220628000000005
 30
0.0
 11
-1.16992609395332
 21
0.0293697999999978
 31
0.0
  0
LINE
  5
723
  8
0
 10
-1.168964093953317
 20
0.0147204000000016
 30
0.0
 11
-1.169326093953317
 21
0.0220628000000005
 31
0.0
  0
LINE
  5
724
  8
0
 10
-1.191542093953317
 20
0.1025191999999961
 30
0.0
 11
-1.194748093953315
 21
0.1080941999999965
 31
0.0
  0
LINE
  5
725
  8
0
 10
-1.166922093953318
 20
-0.0219032999999982
 30
0.0
 11
-1.16584809395332
 21
-0.0290868000000018
 31
0.0
  0
LINE
  5
726
  8
0
 10
-1.1677620939533191
 20
-0.0146494000000033
 30
0.0
 11
-1.166922093953318
 21
-0.0219032999999982
 31
0.0
  0
LINE
  5
727
  8
0
 10
-1.168362093953321
 20
-0.0073423999999989
 30
0.0
 11
-1.1677620939533191
 21
-0.0146494000000033
 31
0.0
  0
LINE
  5
728
  8
0
 10
-1.168724093953317
 20
0.0
 30
0.0
 11
-1.168362093953321
 21
-0.0073423999999989
 31
0.0
  0
LINE
  5
729
  8
0
 10
-1.168844093953318
 20
0.0073602000000008
 30
0.0
 11
-1.168724093953317
 21
0.0
 31
0.0
  0
LINE
  5
72A
  8
0
 10
-1.168964093953317
 20
0.0
 30
0.0
 11
-1.168844093953318
 21
0.0073602000000008
 31
0.0
  0
LINE
  5
72B
  8
0
 10
-1.169326093953317
 20
-0.0073423999999989
 30
0.0
 11
-1.168964093953317
 21
0.0
 31
0.0
  0
LINE
  5
72C
  8
0
 10
-1.16992609395332
 20
-0.0146494000000033
 30
0.0
 11
-1.169326093953317
 21
-0.0073423999999989
 31
0.0
  0
LINE
  5
72D
  8
0
 10
-1.1707660939533191
 20
-0.0219032999999982
 30
0.0
 11
-1.16992609395332
 21
-0.0146494000000033
 31
0.0
  0
LINE
  5
72E
  8
0
 10
-1.171840093953318
 20
-0.0290868000000018
 30
0.0
 11
-1.1707660939533191
 21
-0.0219032999999982
 31
0.0
  0
LINE
  5
72F
  8
0
 10
-1.1612320939533181
 20
-0.0500423000000012
 30
0.0
 11
-1.159242093953317
 21
-0.0567731000000009
 31
0.0
  0
LINE
  5
730
  8
0
 10
-1.1629980939533211
 20
-0.0431732999999994
 30
0.0
 11
-1.1612320939533181
 21
-0.0500423000000012
 31
0.0
  0
LINE
  5
731
  8
0
 10
-1.1645380939533201
 20
-0.0361825000000025
 30
0.0
 11
-1.1629980939533211
 21
-0.0431732999999994
 31
0.0
  0
LINE
  5
732
  8
0
 10
-1.1746900939533169
 20
-0.0431732999999994
 30
0.0
 11
-1.173150093953319
 21
-0.0361825000000025
 31
0.0
  0
LINE
  5
733
  8
0
 10
-1.1764560939533211
 20
-0.0500423000000012
 30
0.0
 11
-1.1746900939533169
 21
-0.0431732999999994
 31
0.0
  0
LINE
  5
734
  8
0
 10
-1.178446093953319
 20
-0.0567731000000009
 30
0.0
 11
-1.1764560939533211
 21
-0.0500423000000012
 31
0.0
  0
LINE
  5
735
  8
0
 10
-1.16584809395332
 20
-0.0290868000000018
 30
0.0
 11
-1.1645380939533201
 21
-0.0361825000000025
 31
0.0
  0
LINE
  5
736
  8
0
 10
-1.173150093953319
 20
-0.0361825000000025
 30
0.0
 11
-1.171840093953318
 21
-0.0290868000000018
 31
0.0
  0
LINE
  5
737
  8
0
 10
-1.168724093953317
 20
0.0147204000000016
 30
0.0
 11
-1.168844093953318
 21
0.0073602000000008
 31
0.0
  0
LINE
  5
738
  8
0
 10
-1.168844093953318
 20
0.0073602000000008
 30
0.0
 11
-1.168964093953317
 21
0.0147204000000016
 31
0.0
  0
LINE
  5
739
  8
0
 10
-1.0639380939533201
 20
0.1571792000000016
 30
0.0
 11
-1.068844093953317
 21
0.1573601999999994
 31
0.0
  0
LINE
  5
73A
  8
0
 10
-1.0590420939533161
 20
0.1566381999999962
 30
0.0
 11
-1.0639380939533201
 21
0.1571792000000016
 31
0.0
  0
LINE
  5
73B
  8
0
 10
-1.0541700939533181
 20
0.1557361999999998
 30
0.0
 11
-1.0590420939533161
 21
0.1566381999999962
 31
0.0
  0
LINE
  5
73C
  8
0
 10
-1.0883540939533181
 20
0.1544781999999998
 30
0.0
 11
-1.0931420939533201
 21
0.1528652000000008
 31
0.0
  0
LINE
  5
73D
  8
0
 10
-1.0835180939533171
 20
0.1557361999999998
 30
0.0
 11
-1.0883540939533181
 21
0.1544781999999998
 31
0.0
  0
LINE
  5
73E
  8
0
 10
-1.078646093953318
 20
0.1566381999999962
 30
0.0
 11
-1.0835180939533171
 21
0.1557361999999998
 31
0.0
  0
LINE
  5
73F
  8
0
 10
-1.0737500939533191
 20
0.1571792000000016
 30
0.0
 11
-1.078646093953318
 21
0.1566381999999962
 31
0.0
  0
LINE
  5
740
  8
0
 10
-1.068844093953317
 20
0.1573601999999994
 30
0.0
 11
-1.0737500939533191
 21
0.1571792000000016
 31
0.0
  0
LINE
  5
741
  8
0
 10
-1.13955409395332
 20
0.1134261999999992
 30
0.0
 11
-1.1429400939533181
 21
0.1080941999999965
 31
0.0
  0
LINE
  5
742
  8
0
 10
-1.136000093953319
 20
0.1185031999999992
 30
0.0
 11
-1.13955409395332
 21
0.1134261999999992
 31
0.0
  0
LINE
  5
743
  8
0
 10
-1.1322840939533181
 20
0.1233122000000009
 30
0.0
 11
-1.136000093953319
 21
0.1185031999999992
 31
0.0
  0
LINE
  5
744
  8
0
 10
-1.128414093953318
 20
0.1278411999999989
 30
0.0
 11
-1.1322840939533181
 21
0.1233122000000009
 31
0.0
  0
LINE
  5
745
  8
0
 10
-1.124402093953319
 20
0.1320801999999972
 30
0.0
 11
-1.128414093953318
 21
0.1278411999999989
 31
0.0
  0
LINE
  5
746
  8
0
 10
-1.1202540939533181
 20
0.1360191999999998
 30
0.0
 11
-1.124402093953319
 21
0.1320801999999972
 31
0.0
  0
LINE
  5
747
  8
0
 10
-1.115984093953317
 20
0.1396482000000034
 30
0.0
 11
-1.1202540939533181
 21
0.1360191999999998
 31
0.0
  0
LINE
  5
748
  8
0
 10
-1.111600093953319
 20
0.1429581999999954
 30
0.0
 11
-1.115984093953317
 21
0.1396482000000034
 31
0.0
  0
LINE
  5
749
  8
0
 10
-1.1071120939533201
 20
0.1459422000000003
 30
0.0
 11
-1.111600093953319
 21
0.1429581999999954
 31
0.0
  0
LINE
  5
74A
  8
0
 10
-1.1025320939533181
 20
0.1485922000000031
 30
0.0
 11
-1.1071120939533201
 21
0.1459422000000003
 31
0.0
  0
LINE
  5
74B
  8
0
 10
-1.0978720939533171
 20
0.1509011999999998
 30
0.0
 11
-1.1025320939533181
 21
0.1485922000000031
 31
0.0
  0
LINE
  5
74C
  8
0
 10
-1.0931420939533201
 20
0.1528652000000008
 30
0.0
 11
-1.0978720939533171
 21
0.1509011999999998
 31
0.0
  0
LINE
  5
74D
  8
0
 10
-1.1546160939533161
 20
0.0844755999999976
 30
0.0
 11
-1.1570360939533171
 21
0.0780697000000004
 31
0.0
  0
LINE
  5
74E
  8
0
 10
-1.151990093953317
 20
0.0906956999999977
 30
0.0
 11
-1.1546160939533161
 21
0.0844755999999976
 31
0.0
  0
LINE
  5
74F
  8
0
 10
-1.1491640939533181
 20
0.0967150999999973
 30
0.0
 11
-1.151990093953317
 21
0.0906956999999977
 31
0.0
  0
LINE
  5
750
  8
0
 10
-1.146146093953321
 20
0.1025191999999961
 30
0.0
 11
-1.1491640939533181
 21
0.0967150999999973
 31
0.0
  0
LINE
  5
751
  8
0
 10
-1.1429400939533181
 20
0.1080941999999965
 30
0.0
 11
-1.146146093953321
 21
0.1025191999999961
 31
0.0
  0
LINE
  5
752
  8
0
 10
-1.04933409395332
 20
0.1544781999999998
 30
0.0
 11
-1.0541700939533181
 21
0.1557361999999998
 31
0.0
  0
LINE
  5
753
  8
0
 10
-1.1570360939533171
 20
0.0780697000000004
 30
0.0
 11
-1.159242093953317
 21
0.0714935000000026
 31
0.0
  0
LINE
  5
754
  8
0
 10
-1.2260880939533161
 20
0.1429581999999954
 30
0.0
 11
-1.230576093953319
 21
0.1459422000000003
 31
0.0
  0
LINE
  5
755
  8
0
 10
-1.230576093953319
 20
0.1459422000000003
 30
0.0
 11
-1.235156093953319
 21
0.1485922000000031
 31
0.0
  0
LINE
  5
756
  8
0
 10
-1.205404093953321
 20
0.1233122000000009
 30
0.0
 11
-1.20927409395332
 21
0.1278411999999989
 31
0.0
  0
LINE
  5
757
  8
0
 10
-1.2016880939533161
 20
0.1185031999999992
 30
0.0
 11
-1.205404093953321
 21
0.1233122000000009
 31
0.0
  0
LINE
  5
758
  8
0
 10
-1.198134093953318
 20
0.1134261999999992
 30
0.0
 11
-1.2016880939533161
 21
0.1185031999999992
 31
0.0
  0
LINE
  5
759
  8
0
 10
-1.194748093953315
 20
0.1080941999999965
 30
0.0
 11
-1.198134093953318
 21
0.1134261999999992
 31
0.0
  0
LINE
  5
75A
  8
0
 10
-1.221704093953317
 20
0.1396482000000034
 30
0.0
 11
-1.2260880939533161
 21
0.1429581999999954
 31
0.0
  0
LINE
  5
75B
  8
0
 10
-1.217434093953317
 20
0.1360191999999998
 30
0.0
 11
-1.221704093953317
 21
0.1396482000000034
 31
0.0
  0
LINE
  5
75C
  8
0
 10
-1.2132860939533181
 20
0.1320801999999972
 30
0.0
 11
-1.217434093953317
 21
0.1360191999999998
 31
0.0
  0
LINE
  5
75D
  8
0
 10
-1.20927409395332
 20
0.1278411999999989
 30
0.0
 11
-1.2132860939533181
 21
0.1320801999999972
 31
0.0
  0
LINE
  5
75E
  8
0
 10
-1.235156093953319
 20
0.1485922000000031
 30
0.0
 11
-1.239816093953316
 21
0.1509011999999998
 31
0.0
  0
LINE
  5
75F
  8
0
 10
-1.230576093953319
 20
-0.1312217999999987
 30
0.0
 11
-1.2260880939533161
 21
-0.1282378000000008
 31
0.0
  0
LINE
  5
760
  8
0
 10
-1.235156093953319
 20
-0.1338718000000014
 30
0.0
 11
-1.230576093953319
 21
-0.1312217999999987
 31
0.0
  0
LINE
  5
761
  8
0
 10
-1.2260880939533161
 20
-0.1282378000000008
 30
0.0
 11
-1.221704093953317
 21
-0.1249278000000018
 31
0.0
  0
LINE
  5
762
  8
0
 10
-1.183072093953319
 20
-0.069755200000003
 30
0.0
 11
-1.18065209395332
 21
-0.0633492999999987
 31
0.0
  0
LINE
  5
763
  8
0
 10
-1.188524093953319
 20
-0.0819947000000028
 30
0.0
 11
-1.185698093953321
 21
-0.0759753000000032
 31
0.0
  0
LINE
  5
764
  8
0
 10
-1.191542093953317
 20
-0.0877988000000016
 30
0.0
 11
-1.188524093953319
 21
-0.0819947000000028
 31
0.0
  0
LINE
  5
765
  8
0
 10
-1.198134093953318
 20
-0.0987058000000047
 30
0.0
 11
-1.194748093953315
 21
-0.093373800000002
 31
0.0
  0
LINE
  5
766
  8
0
 10
-1.2016880939533161
 20
-0.1037828000000047
 30
0.0
 11
-1.198134093953318
 21
-0.0987058000000047
 31
0.0
  0
LINE
  5
767
  8
0
 10
-1.205404093953321
 20
-0.1085917999999992
 30
0.0
 11
-1.2016880939533161
 21
-0.1037828000000047
 31
0.0
  0
LINE
  5
768
  8
0
 10
-1.20927409395332
 20
-0.1131207999999972
 30
0.0
 11
-1.205404093953321
 21
-0.1085917999999992
 31
0.0
  0
LINE
  5
769
  8
0
 10
-1.194748093953315
 20
-0.093373800000002
 30
0.0
 11
-1.194748093953315
 21
-0.093373800000002
 31
0.0
  0
LINE
  5
76A
  8
0
 10
-1.185698093953321
 20
-0.0759753000000032
 30
0.0
 11
-1.183072093953319
 21
-0.069755200000003
 31
0.0
  0
LINE
  5
76B
  8
0
 10
-1.217434093953317
 20
-0.1212987999999981
 30
0.0
 11
-1.2132860939533181
 21
-0.1173598000000027
 31
0.0
  0
LINE
  5
76C
  8
0
 10
-1.221704093953317
 20
-0.1249278000000018
 30
0.0
 11
-1.217434093953317
 21
-0.1212987999999981
 31
0.0
  0
LINE
  5
76D
  8
0
 10
-1.2132860939533181
 20
-0.1173598000000027
 30
0.0
 11
-1.20927409395332
 21
-0.1131207999999972
 31
0.0
  0
LINE
  5
76E
  8
0
 10
-1.115984093953317
 20
-0.1249278000000018
 30
0.0
 11
-1.111600093953319
 21
-0.1282378000000008
 31
0.0
  0
LINE
  5
76F
  8
0
 10
-1.0590420939533161
 20
-0.1419178000000016
 30
0.0
 11
-1.0541700939533181
 21
-0.1410157999999981
 31
0.0
  0
LINE
  5
770
  8
0
 10
-1.0639380939533201
 20
-0.1424588
 30
0.0
 11
-1.0590420939533161
 21
-0.1419178000000016
 31
0.0
  0
LINE
  5
771
  8
0
 10
-1.068844093953317
 20
-0.1426397999999978
 30
0.0
 11
-1.0639380939533201
 21
-0.1424588
 31
0.0
  0
LINE
  5
772
  8
0
 10
-1.0737500939533191
 20
-0.1424588
 30
0.0
 11
-1.068844093953317
 21
-0.1426397999999978
 31
0.0
  0
LINE
  5
773
  8
0
 10
-1.078646093953318
 20
-0.1419178000000016
 30
0.0
 11
-1.0737500939533191
 21
-0.1424588
 31
0.0
  0
LINE
  5
774
  8
0
 10
-1.0835180939533171
 20
-0.1410157999999981
 30
0.0
 11
-1.078646093953318
 21
-0.1419178000000016
 31
0.0
  0
LINE
  5
775
  8
0
 10
-1.0883540939533181
 20
-0.1397577999999982
 30
0.0
 11
-1.0835180939533171
 21
-0.1410157999999981
 31
0.0
  0
LINE
  5
776
  8
0
 10
-1.0931420939533201
 20
-0.1381447999999992
 30
0.0
 11
-1.0883540939533181
 21
-0.1397577999999982
 31
0.0
  0
LINE
  5
777
  8
0
 10
-1.1071120939533201
 20
-0.1312217999999987
 30
0.0
 11
-1.1025320939533181
 21
-0.1338718000000014
 31
0.0
  0
LINE
  5
778
  8
0
 10
-1.111600093953319
 20
-0.1282378000000008
 30
0.0
 11
-1.1071120939533201
 21
-0.1312217999999987
 31
0.0
  0
LINE
  5
779
  8
0
 10
-1.1025320939533181
 20
-0.1338718000000014
 30
0.0
 11
-1.0978720939533171
 21
-0.1361807999999982
 31
0.0
  0
LINE
  5
77A
  8
0
 10
-1.0978720939533171
 20
-0.1361807999999982
 30
0.0
 11
-1.0931420939533201
 21
-0.1381447999999992
 31
0.0
  0
LINE
  5
77B
  8
0
 10
-1.1570360939533171
 20
-0.0633492999999987
 30
0.0
 11
-1.1546160939533161
 21
-0.069755200000003
 31
0.0
  0
LINE
  5
77C
  8
0
 10
-1.1202540939533181
 20
-0.1212987999999981
 30
0.0
 11
-1.115984093953317
 21
-0.1249278000000018
 31
0.0
  0
LINE
  5
77D
  8
0
 10
-1.124402093953319
 20
-0.1173598000000027
 30
0.0
 11
-1.1202540939533181
 21
-0.1212987999999981
 31
0.0
  0
LINE
  5
77E
  8
0
 10
-1.128414093953318
 20
-0.1131207999999972
 30
0.0
 11
-1.124402093953319
 21
-0.1173598000000027
 31
0.0
  0
LINE
  5
77F
  8
0
 10
-1.1322840939533181
 20
-0.1085917999999992
 30
0.0
 11
-1.128414093953318
 21
-0.1131207999999972
 31
0.0
  0
LINE
  5
780
  8
0
 10
-1.136000093953319
 20
-0.1037828000000047
 30
0.0
 11
-1.1322840939533181
 21
-0.1085917999999992
 31
0.0
  0
LINE
  5
781
  8
0
 10
-1.13955409395332
 20
-0.0987058000000047
 30
0.0
 11
-1.136000093953319
 21
-0.1037828000000047
 31
0.0
  0
LINE
  5
782
  8
0
 10
-1.1429400939533181
 20
-0.093373800000002
 30
0.0
 11
-1.13955409395332
 21
-0.0987058000000047
 31
0.0
  0
LINE
  5
783
  8
0
 10
-1.146146093953321
 20
-0.0877988000000016
 30
0.0
 11
-1.1429400939533181
 21
-0.093373800000002
 31
0.0
  0
LINE
  5
784
  8
0
 10
-1.1491640939533181
 20
-0.0819947000000028
 30
0.0
 11
-1.146146093953321
 21
-0.0877988000000016
 31
0.0
  0
LINE
  5
785
  8
0
 10
-1.151990093953317
 20
-0.0759753000000032
 30
0.0
 11
-1.1491640939533181
 21
-0.0819947000000028
 31
0.0
  0
LINE
  5
786
  8
0
 10
-1.1546160939533161
 20
-0.069755200000003
 30
0.0
 11
-1.151990093953317
 21
-0.0759753000000032
 31
0.0
  0
LINE
  5
787
  8
0
 10
-1.0541700939533181
 20
-0.1410157999999981
 30
0.0
 11
-1.04933409395332
 21
-0.1397577999999982
 31
0.0
  0
LINE
  5
788
  8
0
 10
-1.239816093953316
 20
-0.1361807999999982
 30
0.0
 11
-1.235156093953319
 21
-0.1338718000000014
 31
0.0
  0
LINE
  5
789
  8
0
 10
-1.18065209395332
 20
-0.0633492999999987
 30
0.0
 11
-1.178446093953319
 21
-0.0567731000000009
 31
0.0
  0
LINE
  5
78A
  8
0
 10
-1.159242093953317
 20
-0.0567731000000009
 30
0.0
 11
-1.1570360939533171
 21
-0.0633492999999987
 31
0.0
  0
LINE
  5
78B
  8
0
 10
-0.8493350939533197
 20
0.1544781999999998
 30
0.0
 11
-0.8541710939533205
 21
0.1557361999999998
 31
0.0
  0
LINE
  5
78C
  8
0
 10
-0.8541710939533205
 20
-0.1410157999999981
 30
0.0
 11
-0.8493350939533197
 21
-0.1397577999999982
 31
0.0
  0
LINE
  5
78D
  8
0
 10
-0.97315009395332
 20
0.050902899999997
 30
0.0
 11
-0.9746900939533189
 21
0.0578937000000011
 31
0.0
  0
LINE
  5
78E
  8
0
 10
-0.9718400939533201
 20
0.0438071999999963
 30
0.0
 11
-0.97315009395332
 21
0.050902899999997
 31
0.0
  0
LINE
  5
78F
  8
0
 10
-0.9707660939533171
 20
0.0366236999999998
 30
0.0
 11
-0.9718400939533201
 21
0.0438071999999963
 31
0.0
  0
LINE
  5
790
  8
0
 10
-0.9699260939533207
 20
0.0293697999999978
 30
0.0
 11
-0.9707660939533171
 21
0.0366236999999998
 31
0.0
  0
LINE
  5
791
  8
0
 10
-0.9693260939533184
 20
0.0220628000000005
 30
0.0
 11
-0.9699260939533207
 21
0.0293697999999978
 31
0.0
  0
LINE
  5
792
  8
0
 10
-0.9689640939533196
 20
0.0147204000000016
 30
0.0
 11
-0.9693260939533184
 21
0.0220628000000005
 31
0.0
  0
LINE
  5
793
  8
0
 10
-0.9683624939533199
 20
0.0220628000000005
 30
0.0
 11
-0.9687236939533168
 21
0.0147204000000016
 31
0.0
  0
LINE
  5
794
  8
0
 10
-0.9677616939533194
 20
0.0293697999999978
 30
0.0
 11
-0.9683624939533199
 21
0.0220628000000005
 31
0.0
  0
LINE
  5
795
  8
0
 10
-0.9669226939533199
 20
0.0366236999999998
 30
0.0
 11
-0.9677616939533194
 21
0.0293697999999978
 31
0.0
  0
LINE
  5
796
  8
0
 10
-0.9658472939533185
 20
0.0438071999999963
 30
0.0
 11
-0.9669226939533199
 21
0.0366236999999998
 31
0.0
  0
LINE
  5
797
  8
0
 10
-0.9645380939533172
 20
0.050902899999997
 30
0.0
 11
-0.9658472939533185
 21
0.0438071999999963
 31
0.0
  0
LINE
  5
798
  8
0
 10
-0.9629984939533198
 20
0.0578937000000011
 30
0.0
 11
-0.9645380939533172
 21
0.050902899999997
 31
0.0
  0
LINE
  5
799
  8
0
 10
-1.0351560939533191
 20
0.1485922000000031
 30
0.0
 11
-1.0398160939533201
 21
0.1509011999999998
 31
0.0
  0
LINE
  5
79A
  8
0
 10
-1.0305760939533191
 20
0.1459422000000003
 30
0.0
 11
-1.0351560939533191
 21
0.1485922000000031
 31
0.0
  0
LINE
  5
79B
  8
0
 10
-1.026088093953321
 20
0.1429581999999954
 30
0.0
 11
-1.0305760939533191
 21
0.1459422000000003
 31
0.0
  0
LINE
  5
79C
  8
0
 10
-1.0217040939533191
 20
0.1396482000000034
 30
0.0
 11
-1.026088093953321
 21
0.1429581999999954
 31
0.0
  0
LINE
  5
79D
  8
0
 10
-1.0174340939533211
 20
0.1360191999999998
 30
0.0
 11
-1.0217040939533191
 21
0.1396482000000034
 31
0.0
  0
LINE
  5
79E
  8
0
 10
-1.013286093953319
 20
0.1320801999999972
 30
0.0
 11
-1.0174340939533211
 21
0.1360191999999998
 31
0.0
  0
LINE
  5
79F
  8
0
 10
-1.009274093953316
 20
0.1278411999999989
 30
0.0
 11
-1.013286093953319
 21
0.1320801999999972
 31
0.0
  0
LINE
  5
7A0
  8
0
 10
-1.0054040939533171
 20
0.1233122000000009
 30
0.0
 11
-1.009274093953316
 21
0.1278411999999989
 31
0.0
  0
LINE
  5
7A1
  8
0
 10
-1.001688093953321
 20
0.1185031999999992
 30
0.0
 11
-1.0054040939533171
 21
0.1233122000000009
 31
0.0
  0
LINE
  5
7A2
  8
0
 10
-0.9981340939533199
 20
0.1134261999999992
 30
0.0
 11
-1.001688093953321
 21
0.1185031999999992
 31
0.0
  0
LINE
  5
7A3
  8
0
 10
-0.9947480939533209
 20
0.1080941999999965
 30
0.0
 11
-0.9981340939533199
 21
0.1134261999999992
 31
0.0
  0
LINE
  5
7A4
  8
0
 10
-0.9885240939533179
 20
0.0967150999999973
 30
0.0
 11
-0.9915420939533188
 21
0.1025191999999961
 31
0.0
  0
LINE
  5
7A5
  8
0
 10
-0.985698093953319
 20
0.0906956999999977
 30
0.0
 11
-0.9885240939533179
 21
0.0967150999999973
 31
0.0
  0
LINE
  5
7A6
  8
0
 10
-0.9830720939533195
 20
0.0844755999999976
 30
0.0
 11
-0.985698093953319
 21
0.0906956999999977
 31
0.0
  0
LINE
  5
7A7
  8
0
 10
-0.9806520939533188
 20
0.0780697000000004
 30
0.0
 11
-0.9830720939533195
 21
0.0844755999999976
 31
0.0
  0
LINE
  5
7A8
  8
0
 10
-0.9784460939533181
 20
0.0714935000000026
 30
0.0
 11
-0.9806520939533188
 21
0.0780697000000004
 31
0.0
  0
LINE
  5
7A9
  8
0
 10
-0.9764560939533185
 20
0.0647627000000028
 30
0.0
 11
-0.9784460939533181
 21
0.0714935000000026
 31
0.0
  0
LINE
  5
7AA
  8
0
 10
-0.9915420939533188
 20
0.1025191999999961
 30
0.0
 11
-0.9947480939533209
 21
0.1080941999999965
 31
0.0
  0
LINE
  5
7AB
  8
0
 10
-0.9746900939533189
 20
0.0578937000000011
 30
0.0
 11
-0.9764560939533185
 21
0.0647627000000028
 31
0.0
  0
LINE
  5
7AC
  8
0
 10
-0.9689640939533196
 20
0.0
 30
0.0
 11
-0.9688440939533167
 21
0.0073602000000008
 31
0.0
  0
LINE
  5
7AD
  8
0
 10
-0.9693260939533184
 20
-0.0073423999999989
 30
0.0
 11
-0.9689640939533196
 21
0.0
 31
0.0
  0
LINE
  5
7AE
  8
0
 10
-0.9699260939533207
 20
-0.0146494000000033
 30
0.0
 11
-0.9693260939533184
 21
-0.0073423999999989
 31
0.0
  0
LINE
  5
7AF
  8
0
 10
-0.9707660939533171
 20
-0.0219032999999982
 30
0.0
 11
-0.9699260939533207
 21
-0.0146494000000033
 31
0.0
  0
LINE
  5
7B0
  8
0
 10
-0.9718400939533201
 20
-0.0290868000000018
 30
0.0
 11
-0.9707660939533171
 21
-0.0219032999999982
 31
0.0
  0
LINE
  5
7B1
  8
0
 10
-0.9669226939533199
 20
-0.0219032999999982
 30
0.0
 11
-0.9658472939533185
 21
-0.0290868000000018
 31
0.0
  0
LINE
  5
7B2
  8
0
 10
-0.9677616939533194
 20
-0.0146494000000033
 30
0.0
 11
-0.9669226939533199
 21
-0.0219032999999982
 31
0.0
  0
LINE
  5
7B3
  8
0
 10
-0.9683624939533199
 20
-0.0073423999999989
 30
0.0
 11
-0.9677616939533194
 21
-0.0146494000000033
 31
0.0
  0
LINE
  5
7B4
  8
0
 10
-0.9687236939533168
 20
0.0
 30
0.0
 11
-0.9683624939533199
 21
-0.0073423999999989
 31
0.0
  0
LINE
  5
7B5
  8
0
 10
-0.9688440939533167
 20
0.0073602000000008
 30
0.0
 11
-0.9687236939533168
 21
0.0
 31
0.0
  0
LINE
  5
7B6
  8
0
 10
-0.9746900939533189
 20
-0.0431732999999994
 30
0.0
 11
-0.97315009395332
 21
-0.0361825000000025
 31
0.0
  0
LINE
  5
7B7
  8
0
 10
-0.9645380939533172
 20
-0.0361825000000025
 30
0.0
 11
-0.9629984939533198
 21
-0.0431732999999994
 31
0.0
  0
LINE
  5
7B8
  8
0
 10
-0.97315009395332
 20
-0.0361825000000025
 30
0.0
 11
-0.9718400939533201
 21
-0.0290868000000018
 31
0.0
  0
LINE
  5
7B9
  8
0
 10
-0.9658472939533185
 20
-0.0290868000000018
 30
0.0
 11
-0.9645380939533172
 21
-0.0361825000000025
 31
0.0
  0
LINE
  5
7BA
  8
0
 10
-0.9784460939533181
 20
-0.0567731000000009
 30
0.0
 11
-0.9764560939533185
 21
-0.0500423000000012
 31
0.0
  0
LINE
  5
7BB
  8
0
 10
-0.9764560939533185
 20
-0.0500423000000012
 30
0.0
 11
-0.9746900939533189
 21
-0.0431732999999994
 31
0.0
  0
LINE
  5
7BC
  8
0
 10
-0.9688440939533167
 20
0.0073602000000008
 30
0.0
 11
-0.9689640939533196
 21
0.0147204000000016
 31
0.0
  0
LINE
  5
7BD
  8
0
 10
-0.9687236939533168
 20
0.0147204000000016
 30
0.0
 11
-0.9688440939533167
 21
0.0073602000000008
 31
0.0
  0
LINE
  5
7BE
  8
0
 10
-0.9322834939533192
 20
0.1233122000000009
 30
0.0
 11
-0.9359998939533172
 21
0.1185031999999992
 31
0.0
  0
LINE
  5
7BF
  8
0
 10
-0.9395546939533208
 20
0.1134261999999992
 30
0.0
 11
-0.9429392939533174
 21
0.1080941999999965
 31
0.0
  0
LINE
  5
7C0
  8
0
 10
-0.9359998939533172
 20
0.1185031999999992
 30
0.0
 11
-0.9395546939533208
 21
0.1134261999999992
 31
0.0
  0
LINE
  5
7C1
  8
0
 10
-0.9592430939533203
 20
0.0714935000000026
 30
0.0
 11
-0.9612320939533187
 21
0.0647627000000028
 31
0.0
  0
LINE
  5
7C2
  8
0
 10
-0.9570362939533172
 20
0.0780697000000004
 30
0.0
 11
-0.9592430939533203
 21
0.0714935000000026
 31
0.0
  0
LINE
  5
7C3
  8
0
 10
-0.9546168939533199
 20
0.0844755999999976
 30
0.0
 11
-0.9570362939533172
 21
0.0780697000000004
 31
0.0
  0
LINE
  5
7C4
  8
0
 10
-0.9519910939533192
 20
0.0906956999999977
 30
0.0
 11
-0.9546168939533199
 21
0.0844755999999976
 31
0.0
  0
LINE
  5
7C5
  8
0
 10
-0.9491648939533179
 20
0.0967150999999973
 30
0.0
 11
-0.9519910939533192
 21
0.0906956999999977
 31
0.0
  0
LINE
  5
7C6
  8
0
 10
-0.9461450939533213
 20
0.1025191999999961
 30
0.0
 11
-0.9491648939533179
 21
0.0967150999999973
 31
0.0
  0
LINE
  5
7C7
  8
0
 10
-0.9429392939533174
 20
0.1080941999999965
 30
0.0
 11
-0.9461450939533213
 21
0.1025191999999961
 31
0.0
  0
LINE
  5
7C8
  8
0
 10
-0.8541710939533205
 20
0.1557361999999998
 30
0.0
 11
-0.8590422939533173
 21
0.1566381999999962
 31
0.0
  0
LINE
  5
7C9
  8
0
 10
-0.8639372939533219
 20
0.1571792000000016
 30
0.0
 11
-0.868844093953319
 21
0.1573601999999994
 31
0.0
  0
LINE
  5
7CA
  8
0
 10
-0.9284140939533196
 20
0.1278411999999989
 30
0.0
 11
-0.9322834939533192
 21
0.1233122000000009
 31
0.0
  0
LINE
  5
7CB
  8
0
 10
-0.9244010939533192
 20
0.1320801999999972
 30
0.0
 11
-0.9284140939533196
 21
0.1278411999999989
 31
0.0
  0
LINE
  5
7CC
  8
0
 10
-0.920254293953322
 20
0.1360191999999998
 30
0.0
 11
-0.9244010939533192
 21
0.1320801999999972
 31
0.0
  0
LINE
  5
7CD
  8
0
 10
-0.9159836939533168
 20
0.1396482000000034
 30
0.0
 11
-0.920254293953322
 21
0.1360191999999998
 31
0.0
  0
LINE
  5
7CE
  8
0
 10
-0.9115996939533186
 20
0.1429581999999954
 30
0.0
 11
-0.9159836939533168
 21
0.1396482000000034
 31
0.0
  0
LINE
  5
7CF
  8
0
 10
-0.9071124939533188
 20
0.1459422000000003
 30
0.0
 11
-0.9115996939533186
 21
0.1429581999999954
 31
0.0
  0
LINE
  5
7D0
  8
0
 10
-0.902533093953318
 20
0.1485922000000031
 30
0.0
 11
-0.9071124939533188
 21
0.1459422000000003
 31
0.0
  0
LINE
  5
7D1
  8
0
 10
-0.8978724939533169
 20
0.1509011999999998
 30
0.0
 11
-0.902533093953318
 21
0.1485922000000031
 31
0.0
  0
LINE
  5
7D2
  8
0
 10
-0.8931420939533172
 20
0.1528652000000008
 30
0.0
 11
-0.8978724939533169
 21
0.1509011999999998
 31
0.0
  0
LINE
  5
7D3
  8
0
 10
-0.8883530939533217
 20
0.1544781999999998
 30
0.0
 11
-0.8931420939533172
 21
0.1528652000000008
 31
0.0
  0
LINE
  5
7D4
  8
0
 10
-0.8835170939533172
 20
0.1557361999999998
 30
0.0
 11
-0.8883530939533217
 21
0.1544781999999998
 31
0.0
  0
LINE
  5
7D5
  8
0
 10
-0.8786458939533208
 20
0.1566381999999962
 30
0.0
 11
-0.8835170939533172
 21
0.1557361999999998
 31
0.0
  0
LINE
  5
7D6
  8
0
 10
-0.8737508939533196
 20
0.1571792000000016
 30
0.0
 11
-0.8786458939533208
 21
0.1566381999999962
 31
0.0
  0
LINE
  5
7D7
  8
0
 10
-0.868844093953319
 20
0.1573601999999994
 30
0.0
 11
-0.8737508939533196
 21
0.1571792000000016
 31
0.0
  0
LINE
  5
7D8
  8
0
 10
-0.8590422939533173
 20
0.1566381999999962
 30
0.0
 11
-0.8639372939533219
 21
0.1571792000000016
 31
0.0
  0
LINE
  5
7D9
  8
0
 10
-0.9612320939533187
 20
-0.0500423000000012
 30
0.0
 11
-0.9592430939533203
 21
-0.0567731000000009
 31
0.0
  0
LINE
  5
7DA
  8
0
 10
-0.9612320939533187
 20
0.0647627000000028
 30
0.0
 11
-0.9629984939533198
 21
0.0578937000000011
 31
0.0
  0
LINE
  5
7DB
  8
0
 10
-0.9629984939533198
 20
-0.0431732999999994
 30
0.0
 11
-0.9612320939533187
 21
-0.0500423000000012
 31
0.0
  0
LINE
  5
7DC
  8
0
 10
-1.0398160939533201
 20
0.1509011999999998
 30
0.0
 11
-1.0445460939533191
 21
0.1528652000000008
 31
0.0
  0
LINE
  5
7DD
  8
0
 10
-1.026088093953321
 20
-0.1282378000000008
 30
0.0
 11
-1.0217040939533191
 21
-0.1249278000000018
 31
0.0
  0
LINE
  5
7DE
  8
0
 10
-1.0305760939533191
 20
-0.1312217999999987
 30
0.0
 11
-1.026088093953321
 21
-0.1282378000000008
 31
0.0
  0
LINE
  5
7DF
  8
0
 10
-1.0351560939533191
 20
-0.1338718000000014
 30
0.0
 11
-1.0305760939533191
 21
-0.1312217999999987
 31
0.0
  0
LINE
  5
7E0
  8
0
 10
-1.0398160939533201
 20
-0.1361807999999982
 30
0.0
 11
-1.0351560939533191
 21
-0.1338718000000014
 31
0.0
  0
LINE
  5
7E1
  8
0
 10
-0.9830720939533195
 20
-0.069755200000003
 30
0.0
 11
-0.9806520939533188
 21
-0.0633492999999987
 31
0.0
  0
LINE
  5
7E2
  8
0
 10
-0.9885240939533179
 20
-0.0819947000000028
 30
0.0
 11
-0.985698093953319
 21
-0.0759753000000032
 31
0.0
  0
LINE
  5
7E3
  8
0
 10
-0.9915420939533188
 20
-0.0877988000000016
 30
0.0
 11
-0.9885240939533179
 21
-0.0819947000000028
 31
0.0
  0
LINE
  5
7E4
  8
0
 10
-0.9947480939533209
 20
-0.093373800000002
 30
0.0
 11
-0.9915420939533188
 21
-0.0877988000000016
 31
0.0
  0
LINE
  5
7E5
  8
0
 10
-0.9981340939533199
 20
-0.0987058000000047
 30
0.0
 11
-0.9947480939533209
 21
-0.093373800000002
 31
0.0
  0
LINE
  5
7E6
  8
0
 10
-1.001688093953321
 20
-0.1037828000000047
 30
0.0
 11
-0.9981340939533199
 21
-0.0987058000000047
 31
0.0
  0
LINE
  5
7E7
  8
0
 10
-1.0054040939533171
 20
-0.1085917999999992
 30
0.0
 11
-1.001688093953321
 21
-0.1037828000000047
 31
0.0
  0
LINE
  5
7E8
  8
0
 10
-1.009274093953316
 20
-0.1131207999999972
 30
0.0
 11
-1.0054040939533171
 21
-0.1085917999999992
 31
0.0
  0
LINE
  5
7E9
  8
0
 10
-1.013286093953319
 20
-0.1173598000000027
 30
0.0
 11
-1.009274093953316
 21
-0.1131207999999972
 31
0.0
  0
LINE
  5
7EA
  8
0
 10
-1.0174340939533211
 20
-0.1212987999999981
 30
0.0
 11
-1.013286093953319
 21
-0.1173598000000027
 31
0.0
  0
LINE
  5
7EB
  8
0
 10
-1.0217040939533191
 20
-0.1249278000000018
 30
0.0
 11
-1.0174340939533211
 21
-0.1212987999999981
 31
0.0
  0
LINE
  5
7EC
  8
0
 10
-0.985698093953319
 20
-0.0759753000000032
 30
0.0
 11
-0.9830720939533195
 21
-0.069755200000003
 31
0.0
  0
LINE
  5
7ED
  8
0
 10
-0.9159836939533168
 20
-0.1249278000000018
 30
0.0
 11
-0.9115996939533186
 21
-0.1282378000000008
 31
0.0
  0
LINE
  5
7EE
  8
0
 10
-0.8590422939533173
 20
-0.1419178000000016
 30
0.0
 11
-0.8541710939533205
 21
-0.1410157999999981
 31
0.0
  0
LINE
  5
7EF
  8
0
 10
-0.868844093953319
 20
-0.1426397999999978
 30
0.0
 11
-0.8639372939533219
 21
-0.1424588
 31
0.0
  0
LINE
  5
7F0
  8
0
 10
-0.8737508939533196
 20
-0.1424588
 30
0.0
 11
-0.868844093953319
 21
-0.1426397999999978
 31
0.0
  0
LINE
  5
7F1
  8
0
 10
-0.8786458939533208
 20
-0.1419178000000016
 30
0.0
 11
-0.8737508939533196
 21
-0.1424588
 31
0.0
  0
LINE
  5
7F2
  8
0
 10
-0.8835170939533172
 20
-0.1410157999999981
 30
0.0
 11
-0.8786458939533208
 21
-0.1419178000000016
 31
0.0
  0
LINE
  5
7F3
  8
0
 10
-0.8883530939533217
 20
-0.1397577999999982
 30
0.0
 11
-0.8835170939533172
 21
-0.1410157999999981
 31
0.0
  0
LINE
  5
7F4
  8
0
 10
-0.8931420939533172
 20
-0.1381447999999992
 30
0.0
 11
-0.8883530939533217
 21
-0.1397577999999982
 31
0.0
  0
LINE
  5
7F5
  8
0
 10
-0.8978724939533169
 20
-0.1361807999999982
 30
0.0
 11
-0.8931420939533172
 21
-0.1381447999999992
 31
0.0
  0
LINE
  5
7F6
  8
0
 10
-0.902533093953318
 20
-0.1338718000000014
 30
0.0
 11
-0.8978724939533169
 21
-0.1361807999999982
 31
0.0
  0
LINE
  5
7F7
  8
0
 10
-0.9071124939533188
 20
-0.1312217999999987
 30
0.0
 11
-0.902533093953318
 21
-0.1338718000000014
 31
0.0
  0
LINE
  5
7F8
  8
0
 10
-0.9115996939533186
 20
-0.1282378000000008
 30
0.0
 11
-0.9071124939533188
 21
-0.1312217999999987
 31
0.0
  0
LINE
  5
7F9
  8
0
 10
-0.8639372939533219
 20
-0.1424588
 30
0.0
 11
-0.8590422939533173
 21
-0.1419178000000016
 31
0.0
  0
LINE
  5
7FA
  8
0
 10
-0.9359998939533172
 20
-0.1037828000000047
 30
0.0
 11
-0.9322834939533192
 21
-0.1085917999999992
 31
0.0
  0
LINE
  5
7FB
  8
0
 10
-0.9570362939533172
 20
-0.0633492999999987
 30
0.0
 11
-0.9546168939533199
 21
-0.069755200000003
 31
0.0
  0
LINE
  5
7FC
  8
0
 10
-0.9395546939533208
 20
-0.0987058000000047
 30
0.0
 11
-0.9359998939533172
 21
-0.1037828000000047
 31
0.0
  0
LINE
  5
7FD
  8
0
 10
-0.9429392939533174
 20
-0.093373800000002
 30
0.0
 11
-0.9395546939533208
 21
-0.0987058000000047
 31
0.0
  0
LINE
  5
7FE
  8
0
 10
-0.9461450939533213
 20
-0.0877988000000016
 30
0.0
 11
-0.9429392939533174
 21
-0.093373800000002
 31
0.0
  0
LINE
  5
7FF
  8
0
 10
-0.9491648939533179
 20
-0.0819947000000028
 30
0.0
 11
-0.9461450939533213
 21
-0.0877988000000016
 31
0.0
  0
LINE
  5
800
  8
0
 10
-0.9519910939533192
 20
-0.0759753000000032
 30
0.0
 11
-0.9491648939533179
 21
-0.0819947000000028
 31
0.0
  0
LINE
  5
801
  8
0
 10
-0.9546168939533199
 20
-0.069755200000003
 30
0.0
 11
-0.9519910939533192
 21
-0.0759753000000032
 31
0.0
  0
LINE
  5
802
  8
0
 10
-0.920254293953322
 20
-0.1212987999999981
 30
0.0
 11
-0.9159836939533168
 21
-0.1249278000000018
 31
0.0
  0
LINE
  5
803
  8
0
 10
-0.9244010939533192
 20
-0.1173598000000027
 30
0.0
 11
-0.920254293953322
 21
-0.1212987999999981
 31
0.0
  0
LINE
  5
804
  8
0
 10
-0.9284140939533196
 20
-0.1131207999999972
 30
0.0
 11
-0.9244010939533192
 21
-0.1173598000000027
 31
0.0
  0
LINE
  5
805
  8
0
 10
-0.9322834939533192
 20
-0.1085917999999992
 30
0.0
 11
-0.9284140939533196
 21
-0.1131207999999972
 31
0.0
  0
LINE
  5
806
  8
0
 10
-1.0445460939533191
 20
-0.1381447999999992
 30
0.0
 11
-1.0398160939533201
 21
-0.1361807999999982
 31
0.0
  0
LINE
  5
807
  8
0
 10
-0.9806520939533188
 20
-0.0633492999999987
 30
0.0
 11
-0.9784460939533181
 21
-0.0567731000000009
 31
0.0
  0
LINE
  5
808
  8
0
 10
-0.9592430939533203
 20
-0.0567731000000009
 30
0.0
 11
-0.9570362939533172
 21
-0.0633492999999987
 31
0.0
  0
LINE
  5
809
  8
0
 10
-0.7669226939533207
 20
0.0366236999999998
 30
0.0
 11
-0.76776169395332
 21
0.0293697999999978
 31
0.0
  0
LINE
  5
80A
  8
0
 10
-0.76776169395332
 20
-0.0146494000000033
 30
0.0
 11
-0.7669226939533207
 21
-0.0219032999999982
 31
0.0
  0
LINE
  5
80B
  8
0
 10
-0.7947488939533205
 20
0.1080941999999965
 30
0.0
 11
-0.7981334939533175
 21
0.1134261999999992
 31
0.0
  0
LINE
  5
80C
  8
0
 10
-0.8398156939533212
 20
0.1509011999999998
 30
0.0
 11
-0.8445460939533209
 21
0.1528652000000008
 31
0.0
  0
LINE
  5
80D
  8
0
 10
-0.8351550939533201
 20
0.1485922000000031
 30
0.0
 11
-0.8398156939533212
 21
0.1509011999999998
 31
0.0
  0
LINE
  5
80E
  8
0
 10
-0.8305756939533193
 20
0.1459422000000003
 30
0.0
 11
-0.8351550939533201
 21
0.1485922000000031
 31
0.0
  0
LINE
  5
80F
  8
0
 10
-0.8260884939533195
 20
0.1429581999999954
 30
0.0
 11
-0.8305756939533193
 21
0.1459422000000003
 31
0.0
  0
LINE
  5
810
  8
0
 10
-0.8217044939533214
 20
0.1396482000000034
 30
0.0
 11
-0.8260884939533195
 21
0.1429581999999954
 31
0.0
  0
LINE
  5
811
  8
0
 10
-0.8174338939533195
 20
0.1360191999999998
 30
0.0
 11
-0.8217044939533214
 21
0.1396482000000034
 31
0.0
  0
LINE
  5
812
  8
0
 10
-0.8132870939533186
 20
0.1320801999999972
 30
0.0
 11
-0.8174338939533195
 21
0.1360191999999998
 31
0.0
  0
LINE
  5
813
  8
0
 10
-0.8092740939533218
 20
0.1278411999999989
 30
0.0
 11
-0.8132870939533186
 21
0.1320801999999972
 31
0.0
  0
LINE
  5
814
  8
0
 10
-0.805404693953319
 20
0.1233122000000009
 30
0.0
 11
-0.8092740939533218
 21
0.1278411999999989
 31
0.0
  0
LINE
  5
815
  8
0
 10
-0.8016882939533208
 20
0.1185031999999992
 30
0.0
 11
-0.805404693953319
 21
0.1233122000000009
 31
0.0
  0
LINE
  5
816
  8
0
 10
-0.7981334939533175
 20
0.1134261999999992
 30
0.0
 11
-0.8016882939533208
 21
0.1185031999999992
 31
0.0
  0
LINE
  5
817
  8
0
 10
-0.7830712939533218
 20
0.0844755999999976
 30
0.0
 11
-0.7856970939533188
 21
0.0906956999999977
 31
0.0
  0
LINE
  5
818
  8
0
 10
-0.7885232939533199
 20
0.0967150999999973
 30
0.0
 11
-0.7915430939533171
 21
0.1025191999999961
 31
0.0
  0
LINE
  5
819
  8
0
 10
-0.7856970939533188
 20
0.0906956999999977
 30
0.0
 11
-0.7885232939533199
 21
0.0967150999999973
 31
0.0
  0
LINE
  5
81A
  8
0
 10
-0.7806518939533209
 20
0.0780697000000004
 30
0.0
 11
-0.7830712939533218
 21
0.0844755999999976
 31
0.0
  0
LINE
  5
81B
  8
0
 10
-0.7784450939533179
 20
0.0714935000000026
 30
0.0
 11
-0.7806518939533209
 21
0.0780697000000004
 31
0.0
  0
LINE
  5
81C
  8
0
 10
-0.7764560939533194
 20
0.0647627000000028
 30
0.0
 11
-0.7784450939533179
 21
0.0714935000000026
 31
0.0
  0
LINE
  5
81D
  8
0
 10
-0.7746896939533219
 20
0.0578937000000011
 30
0.0
 11
-0.7764560939533194
 21
0.0647627000000028
 31
0.0
  0
LINE
  5
81E
  8
0
 10
-0.7731500939533209
 20
0.050902899999997
 30
0.0
 11
-0.7746896939533219
 21
0.0578937000000011
 31
0.0
  0
LINE
  5
81F
  8
0
 10
-0.7718408939533195
 20
0.0438071999999963
 30
0.0
 11
-0.7731500939533209
 21
0.050902899999997
 31
0.0
  0
LINE
  5
820
  8
0
 10
-0.770765493953322
 20
0.0366236999999998
 30
0.0
 11
-0.7718408939533195
 21
0.0438071999999963
 31
0.0
  0
LINE
  5
821
  8
0
 10
-0.7699264939533193
 20
0.0293697999999978
 30
0.0
 11
-0.770765493953322
 21
0.0366236999999998
 31
0.0
  0
LINE
  5
822
  8
0
 10
-0.769325693953322
 20
0.0220628000000005
 30
0.0
 11
-0.7699264939533193
 21
0.0293697999999978
 31
0.0
  0
LINE
  5
823
  8
0
 10
-0.7689644939533215
 20
0.0147204000000016
 30
0.0
 11
-0.769325693953322
 21
0.0220628000000005
 31
0.0
  0
LINE
  5
824
  8
0
 10
-0.7683624939533207
 20
0.0220628000000005
 30
0.0
 11
-0.7687236939533211
 21
0.0147204000000016
 31
0.0
  0
LINE
  5
825
  8
0
 10
-0.76776169395332
 20
0.0293697999999978
 30
0.0
 11
-0.7683624939533207
 21
0.0220628000000005
 31
0.0
  0
LINE
  5
826
  8
0
 10
-0.7915430939533171
 20
0.1025191999999961
 30
0.0
 11
-0.7947488939533205
 21
0.1080941999999965
 31
0.0
  0
LINE
  5
827
  8
0
 10
-0.7689644939533215
 20
0.0
 30
0.0
 11
-0.7688440939533212
 21
0.0073602000000008
 31
0.0
  0
LINE
  5
828
  8
0
 10
-0.769325693953322
 20
-0.0073423999999989
 30
0.0
 11
-0.7689644939533215
 21
0.0
 31
0.0
  0
LINE
  5
829
  8
0
 10
-0.7699264939533193
 20
-0.0146494000000033
 30
0.0
 11
-0.769325693953322
 21
-0.0073423999999989
 31
0.0
  0
LINE
  5
82A
  8
0
 10
-0.770765493953322
 20
-0.0219032999999982
 30
0.0
 11
-0.7699264939533193
 21
-0.0146494000000033
 31
0.0
  0
LINE
  5
82B
  8
0
 10
-0.7718408939533195
 20
-0.0290868000000018
 30
0.0
 11
-0.770765493953322
 21
-0.0219032999999982
 31
0.0
  0
LINE
  5
82C
  8
0
 10
-0.7683624939533207
 20
-0.0073423999999989
 30
0.0
 11
-0.76776169395332
 21
-0.0146494000000033
 31
0.0
  0
LINE
  5
82D
  8
0
 10
-0.7687236939533211
 20
0.0
 30
0.0
 11
-0.7683624939533207
 21
-0.0073423999999989
 31
0.0
  0
LINE
  5
82E
  8
0
 10
-0.7688440939533212
 20
0.0073602000000008
 30
0.0
 11
-0.7687236939533211
 21
0.0
 31
0.0
  0
LINE
  5
82F
  8
0
 10
-0.7746896939533219
 20
-0.0431732999999994
 30
0.0
 11
-0.7731500939533209
 21
-0.0361825000000025
 31
0.0
  0
LINE
  5
830
  8
0
 10
-0.7764560939533194
 20
-0.0500423000000012
 30
0.0
 11
-0.7746896939533219
 21
-0.0431732999999994
 31
0.0
  0
LINE
  5
831
  8
0
 10
-0.7784450939533179
 20
-0.0567731000000009
 30
0.0
 11
-0.7764560939533194
 21
-0.0500423000000012
 31
0.0
  0
LINE
  5
832
  8
0
 10
-0.7731500939533209
 20
-0.0361825000000025
 30
0.0
 11
-0.7718408939533195
 21
-0.0290868000000018
 31
0.0
  0
LINE
  5
833
  8
0
 10
-0.7688440939533212
 20
0.0073602000000008
 30
0.0
 11
-0.7689644939533215
 21
0.0147204000000016
 31
0.0
  0
LINE
  5
834
  8
0
 10
-0.7687236939533211
 20
0.0147204000000016
 30
0.0
 11
-0.7688440939533212
 21
0.0073602000000008
 31
0.0
  0
LINE
  5
835
  8
0
 10
-0.6639372939533194
 20
0.1571792000000016
 30
0.0
 11
-0.6688440939533198
 21
0.1573601999999994
 31
0.0
  0
LINE
  5
836
  8
0
 10
-0.6590422939533216
 20
0.1566381999999962
 30
0.0
 11
-0.6639372939533194
 21
0.1571792000000016
 31
0.0
  0
LINE
  5
837
  8
0
 10
-0.7359998939533217
 20
0.1185031999999992
 30
0.0
 11
-0.739554693953318
 21
0.1134261999999992
 31
0.0
  0
LINE
  5
838
  8
0
 10
-0.7322834939533199
 20
0.1233122000000009
 30
0.0
 11
-0.7359998939533217
 21
0.1185031999999992
 31
0.0
  0
LINE
  5
839
  8
0
 10
-0.7284140939533206
 20
0.1278411999999989
 30
0.0
 11
-0.7322834939533199
 21
0.1233122000000009
 31
0.0
  0
LINE
  5
83A
  8
0
 10
-0.7244010939533201
 20
0.1320801999999972
 30
0.0
 11
-0.7284140939533206
 21
0.1278411999999989
 31
0.0
  0
LINE
  5
83B
  8
0
 10
-0.7202542939533192
 20
0.1360191999999998
 30
0.0
 11
-0.7244010939533201
 21
0.1320801999999972
 31
0.0
  0
LINE
  5
83C
  8
0
 10
-0.7159836939533211
 20
0.1396482000000034
 30
0.0
 11
-0.7202542939533192
 21
0.1360191999999998
 31
0.0
  0
LINE
  5
83D
  8
0
 10
-0.7115996939533194
 20
0.1429581999999954
 30
0.0
 11
-0.7159836939533211
 21
0.1396482000000034
 31
0.0
  0
LINE
  5
83E
  8
0
 10
-0.7071124939533197
 20
0.1459422000000003
 30
0.0
 11
-0.7115996939533194
 21
0.1429581999999954
 31
0.0
  0
LINE
  5
83F
  8
0
 10
-0.7025330939533188
 20
0.1485922000000031
 30
0.0
 11
-0.7071124939533197
 21
0.1459422000000003
 31
0.0
  0
LINE
  5
840
  8
0
 10
-0.6978724939533212
 20
0.1509011999999998
 30
0.0
 11
-0.7025330939533188
 21
0.1485922000000031
 31
0.0
  0
LINE
  5
841
  8
0
 10
-0.6931420939533215
 20
0.1528652000000008
 30
0.0
 11
-0.6978724939533212
 21
0.1509011999999998
 31
0.0
  0
LINE
  5
842
  8
0
 10
-0.6883530939533192
 20
0.1544781999999998
 30
0.0
 11
-0.6931420939533215
 21
0.1528652000000008
 31
0.0
  0
LINE
  5
843
  8
0
 10
-0.6835170939533218
 20
0.1557361999999998
 30
0.0
 11
-0.6883530939533192
 21
0.1544781999999998
 31
0.0
  0
LINE
  5
844
  8
0
 10
-0.678645893953318
 20
0.1566381999999962
 30
0.0
 11
-0.6835170939533218
 21
0.1557361999999998
 31
0.0
  0
LINE
  5
845
  8
0
 10
-0.6737508939533206
 20
0.1571792000000016
 30
0.0
 11
-0.678645893953318
 21
0.1566381999999962
 31
0.0
  0
LINE
  5
846
  8
0
 10
-0.6688440939533198
 20
0.1573601999999994
 30
0.0
 11
-0.6737508939533206
 21
0.1571792000000016
 31
0.0
  0
LINE
  5
847
  8
0
 10
-0.739554693953318
 20
0.1134261999999992
 30
0.0
 11
-0.742939293953322
 21
0.1080941999999965
 31
0.0
  0
LINE
  5
848
  8
0
 10
-0.7546168939533207
 20
0.0844755999999976
 30
0.0
 11
-0.7570362939533215
 21
0.0780697000000004
 31
0.0
  0
LINE
  5
849
  8
0
 10
-0.7519910939533201
 20
0.0906956999999977
 30
0.0
 11
-0.7546168939533207
 21
0.0844755999999976
 31
0.0
  0
LINE
  5
84A
  8
0
 10
-0.7491648939533189
 20
0.0967150999999973
 30
0.0
 11
-0.7519910939533201
 21
0.0906956999999977
 31
0.0
  0
LINE
  5
84B
  8
0
 10
-0.7461450939533183
 20
0.1025191999999961
 30
0.0
 11
-0.7491648939533189
 21
0.0967150999999973
 31
0.0
  0
LINE
  5
84C
  8
0
 10
-0.742939293953322
 20
0.1080941999999965
 30
0.0
 11
-0.7461450939533183
 21
0.1025191999999961
 31
0.0
  0
LINE
  5
84D
  8
0
 10
-0.7658472939533194
 20
0.0438071999999963
 30
0.0
 11
-0.7669226939533207
 21
0.0366236999999998
 31
0.0
  0
LINE
  5
84E
  8
0
 10
-0.7645380939533215
 20
0.050902899999997
 30
0.0
 11
-0.7658472939533194
 21
0.0438071999999963
 31
0.0
  0
LINE
  5
84F
  8
0
 10
-0.7629984939533206
 20
0.0578937000000011
 30
0.0
 11
-0.7645380939533215
 21
0.050902899999997
 31
0.0
  0
LINE
  5
850
  8
0
 10
-0.7612320939533195
 20
0.0647627000000028
 30
0.0
 11
-0.7629984939533206
 21
0.0578937000000011
 31
0.0
  0
LINE
  5
851
  8
0
 10
-0.7592430939533177
 20
0.0714935000000026
 30
0.0
 11
-0.7612320939533195
 21
0.0647627000000028
 31
0.0
  0
LINE
  5
852
  8
0
 10
-0.7669226939533207
 20
-0.0219032999999982
 30
0.0
 11
-0.7658472939533194
 21
-0.0290868000000018
 31
0.0
  0
LINE
  5
853
  8
0
 10
-0.7612320939533195
 20
-0.0500423000000012
 30
0.0
 11
-0.7592430939533177
 21
-0.0567731000000009
 31
0.0
  0
LINE
  5
854
  8
0
 10
-0.7629984939533206
 20
-0.0431732999999994
 30
0.0
 11
-0.7612320939533195
 21
-0.0500423000000012
 31
0.0
  0
LINE
  5
855
  8
0
 10
-0.7645380939533215
 20
-0.0361825000000025
 30
0.0
 11
-0.7629984939533206
 21
-0.0431732999999994
 31
0.0
  0
LINE
  5
856
  8
0
 10
-0.7658472939533194
 20
-0.0290868000000018
 30
0.0
 11
-0.7645380939533215
 21
-0.0361825000000025
 31
0.0
  0
LINE
  5
857
  8
0
 10
-0.7570362939533215
 20
0.0780697000000004
 30
0.0
 11
-0.7592430939533177
 21
0.0714935000000026
 31
0.0
  0
LINE
  5
858
  8
0
 10
-0.8445460939533209
 20
0.1528652000000008
 30
0.0
 11
-0.8493350939533197
 21
0.1544781999999998
 31
0.0
  0
LINE
  5
859
  8
0
 10
-0.8260884939533195
 20
-0.1282378000000008
 30
0.0
 11
-0.8217044939533214
 21
-0.1249278000000018
 31
0.0
  0
LINE
  5
85A
  8
0
 10
-0.8305756939533193
 20
-0.1312217999999987
 30
0.0
 11
-0.8260884939533195
 21
-0.1282378000000008
 31
0.0
  0
LINE
  5
85B
  8
0
 10
-0.8351550939533201
 20
-0.1338718000000014
 30
0.0
 11
-0.8305756939533193
 21
-0.1312217999999987
 31
0.0
  0
LINE
  5
85C
  8
0
 10
-0.8398156939533212
 20
-0.1361807999999982
 30
0.0
 11
-0.8351550939533201
 21
-0.1338718000000014
 31
0.0
  0
LINE
  5
85D
  8
0
 10
-0.8445460939533209
 20
-0.1381447999999992
 30
0.0
 11
-0.8398156939533212
 21
-0.1361807999999982
 31
0.0
  0
LINE
  5
85E
  8
0
 10
-0.7830712939533218
 20
-0.069755200000003
 30
0.0
 11
-0.7806518939533209
 21
-0.0633492999999987
 31
0.0
  0
LINE
  5
85F
  8
0
 10
-0.7885232939533199
 20
-0.0819947000000028
 30
0.0
 11
-0.7856970939533188
 21
-0.0759753000000032
 31
0.0
  0
LINE
  5
860
  8
0
 10
-0.7915430939533171
 20
-0.0877988000000016
 30
0.0
 11
-0.7885232939533199
 21
-0.0819947000000028
 31
0.0
  0
LINE
  5
861
  8
0
 10
-0.7947488939533205
 20
-0.093373800000002
 30
0.0
 11
-0.7915430939533171
 21
-0.0877988000000016
 31
0.0
  0
LINE
  5
862
  8
0
 10
-0.7981334939533175
 20
-0.0987058000000047
 30
0.0
 11
-0.7947488939533205
 21
-0.093373800000002
 31
0.0
  0
LINE
  5
863
  8
0
 10
-0.805404693953319
 20
-0.1085917999999992
 30
0.0
 11
-0.8016882939533208
 21
-0.1037828000000047
 31
0.0
  0
LINE
  5
864
  8
0
 10
-0.8092740939533218
 20
-0.1131207999999972
 30
0.0
 11
-0.805404693953319
 21
-0.1085917999999992
 31
0.0
  0
LINE
  5
865
  8
0
 10
-0.8132870939533186
 20
-0.1173598000000027
 30
0.0
 11
-0.8092740939533218
 21
-0.1131207999999972
 31
0.0
  0
LINE
  5
866
  8
0
 10
-0.8174338939533195
 20
-0.1212987999999981
 30
0.0
 11
-0.8132870939533186
 21
-0.1173598000000027
 31
0.0
  0
LINE
  5
867
  8
0
 10
-0.8217044939533214
 20
-0.1249278000000018
 30
0.0
 11
-0.8174338939533195
 21
-0.1212987999999981
 31
0.0
  0
LINE
  5
868
  8
0
 10
-0.8016882939533208
 20
-0.1037828000000047
 30
0.0
 11
-0.7981334939533175
 21
-0.0987058000000047
 31
0.0
  0
LINE
  5
869
  8
0
 10
-0.7856970939533188
 20
-0.0759753000000032
 30
0.0
 11
-0.7830712939533218
 21
-0.069755200000003
 31
0.0
  0
LINE
  5
86A
  8
0
 10
-0.7159836939533211
 20
-0.1249278000000018
 30
0.0
 11
-0.7115996939533194
 21
-0.1282378000000008
 31
0.0
  0
LINE
  5
86B
  8
0
 10
-0.6639372939533194
 20
-0.1424588
 30
0.0
 11
-0.6590422939533216
 21
-0.1419178000000016
 31
0.0
  0
LINE
  5
86C
  8
0
 10
-0.6688440939533198
 20
-0.1426397999999978
 30
0.0
 11
-0.6639372939533194
 21
-0.1424588
 31
0.0
  0
LINE
  5
86D
  8
0
 10
-0.6737508939533206
 20
-0.1424588
 30
0.0
 11
-0.6688440939533198
 21
-0.1426397999999978
 31
0.0
  0
LINE
  5
86E
  8
0
 10
-0.678645893953318
 20
-0.1419178000000016
 30
0.0
 11
-0.6737508939533206
 21
-0.1424588
 31
0.0
  0
LINE
  5
86F
  8
0
 10
-0.6835170939533218
 20
-0.1410157999999981
 30
0.0
 11
-0.678645893953318
 21
-0.1419178000000016
 31
0.0
  0
LINE
  5
870
  8
0
 10
-0.6883530939533192
 20
-0.1397577999999982
 30
0.0
 11
-0.6835170939533218
 21
-0.1410157999999981
 31
0.0
  0
LINE
  5
871
  8
0
 10
-0.6931420939533215
 20
-0.1381447999999992
 30
0.0
 11
-0.6883530939533192
 21
-0.1397577999999982
 31
0.0
  0
LINE
  5
872
  8
0
 10
-0.6978724939533212
 20
-0.1361807999999982
 30
0.0
 11
-0.6931420939533215
 21
-0.1381447999999992
 31
0.0
  0
LINE
  5
873
  8
0
 10
-0.7025330939533188
 20
-0.1338718000000014
 30
0.0
 11
-0.6978724939533212
 21
-0.1361807999999982
 31
0.0
  0
LINE
  5
874
  8
0
 10
-0.7071124939533197
 20
-0.1312217999999987
 30
0.0
 11
-0.7025330939533188
 21
-0.1338718000000014
 31
0.0
  0
LINE
  5
875
  8
0
 10
-0.7115996939533194
 20
-0.1282378000000008
 30
0.0
 11
-0.7071124939533197
 21
-0.1312217999999987
 31
0.0
  0
LINE
  5
876
  8
0
 10
-0.7202542939533192
 20
-0.1212987999999981
 30
0.0
 11
-0.7159836939533211
 21
-0.1249278000000018
 31
0.0
  0
LINE
  5
877
  8
0
 10
-0.7244010939533201
 20
-0.1173598000000027
 30
0.0
 11
-0.7202542939533192
 21
-0.1212987999999981
 31
0.0
  0
LINE
  5
878
  8
0
 10
-0.7284140939533206
 20
-0.1131207999999972
 30
0.0
 11
-0.7244010939533201
 21
-0.1173598000000027
 31
0.0
  0
LINE
  5
879
  8
0
 10
-0.7322834939533199
 20
-0.1085917999999992
 30
0.0
 11
-0.7284140939533206
 21
-0.1131207999999972
 31
0.0
  0
LINE
  5
87A
  8
0
 10
-0.7359998939533217
 20
-0.1037828000000047
 30
0.0
 11
-0.7322834939533199
 21
-0.1085917999999992
 31
0.0
  0
LINE
  5
87B
  8
0
 10
-0.739554693953318
 20
-0.0987058000000047
 30
0.0
 11
-0.7359998939533217
 21
-0.1037828000000047
 31
0.0
  0
LINE
  5
87C
  8
0
 10
-0.7570362939533215
 20
-0.0633492999999987
 30
0.0
 11
-0.7546168939533207
 21
-0.069755200000003
 31
0.0
  0
LINE
  5
87D
  8
0
 10
-0.7461450939533183
 20
-0.0877988000000016
 30
0.0
 11
-0.742939293953322
 21
-0.093373800000002
 31
0.0
  0
LINE
  5
87E
  8
0
 10
-0.7491648939533189
 20
-0.0819947000000028
 30
0.0
 11
-0.7461450939533183
 21
-0.0877988000000016
 31
0.0
  0
LINE
  5
87F
  8
0
 10
-0.7519910939533201
 20
-0.0759753000000032
 30
0.0
 11
-0.7491648939533189
 21
-0.0819947000000028
 31
0.0
  0
LINE
  5
880
  8
0
 10
-0.7546168939533207
 20
-0.069755200000003
 30
0.0
 11
-0.7519910939533201
 21
-0.0759753000000032
 31
0.0
  0
LINE
  5
881
  8
0
 10
-0.742939293953322
 20
-0.093373800000002
 30
0.0
 11
-0.739554693953318
 21
-0.0987058000000047
 31
0.0
  0
LINE
  5
882
  8
0
 10
-0.8493350939533197
 20
-0.1397577999999982
 30
0.0
 11
-0.8445460939533209
 21
-0.1381447999999992
 31
0.0
  0
LINE
  5
883
  8
0
 10
-0.7806518939533209
 20
-0.0633492999999987
 30
0.0
 11
-0.7784450939533179
 21
-0.0567731000000009
 31
0.0
  0
LINE
  5
884
  8
0
 10
-0.7592430939533177
 20
-0.0567731000000009
 30
0.0
 11
-0.7570362939533215
 21
-0.0633492999999987
 31
0.0
  0
LINE
  5
885
  8
0
 10
-0.2639380939533198
 20
0.1571792000000016
 30
0.0
 11
-0.2688440939533216
 21
0.1573601999999994
 31
0.0
  0
LINE
  5
886
  8
0
 10
-0.2688440939533216
 20
-0.1426397999999978
 30
0.0
 11
-0.2639380939533198
 21
-0.1424588
 31
0.0
  0
LINE
  5
887
  8
0
 10
-0.1688440939533238
 20
-0.1426397999999978
 30
0.0
 11
-0.2688440939533216
 21
-0.1426397999999978
 31
0.0
  0
LINE
  5
888
  8
0
 10
-0.2688440939533216
 20
0.1573601999999994
 30
0.0
 11
-0.1688440939533238
 21
0.1573601999999994
 31
0.0
  0
LINE
  5
889
  8
0
 10
-0.4590420939533236
 20
0.1566381999999962
 30
0.0
 11
-0.4639380939533188
 21
0.1571792000000016
 31
0.0
  0
LINE
  5
88A
  8
0
 10
-0.4639380939533188
 20
-0.1424588
 30
0.0
 11
-0.4590420939533236
 21
-0.1419178000000016
 31
0.0
  0
LINE
  5
88B
  8
0
 10
-0.6398156939533184
 20
0.1509011999999998
 30
0.0
 11
-0.6445460939533181
 21
0.1528652000000008
 31
0.0
  0
LINE
  5
88C
  8
0
 10
-0.6445460939533181
 20
0.1528652000000008
 30
0.0
 11
-0.6493350939533205
 21
0.1544781999999998
 31
0.0
  0
LINE
  5
88D
  8
0
 10
-0.6174338939533204
 20
0.1360191999999998
 30
0.0
 11
-0.6217044939533185
 21
0.1396482000000034
 31
0.0
  0
LINE
  5
88E
  8
0
 10
-0.6132870939533195
 20
0.1320801999999972
 30
0.0
 11
-0.6174338939533204
 21
0.1360191999999998
 31
0.0
  0
LINE
  5
88F
  8
0
 10
-0.609274093953319
 20
0.1278411999999989
 30
0.0
 11
-0.6132870939533195
 21
0.1320801999999972
 31
0.0
  0
LINE
  5
890
  8
0
 10
-0.6054046939533198
 20
0.1233122000000009
 30
0.0
 11
-0.609274093953319
 21
0.1278411999999989
 31
0.0
  0
LINE
  5
891
  8
0
 10
-0.6016882939533179
 20
0.1185031999999992
 30
0.0
 11
-0.6054046939533198
 21
0.1233122000000009
 31
0.0
  0
LINE
  5
892
  8
0
 10
-0.5981334939533216
 20
0.1134261999999992
 30
0.0
 11
-0.6016882939533179
 21
0.1185031999999992
 31
0.0
  0
LINE
  5
893
  8
0
 10
-0.5947488939533177
 20
0.1080941999999965
 30
0.0
 11
-0.5981334939533216
 21
0.1134261999999992
 31
0.0
  0
LINE
  5
894
  8
0
 10
-0.6351550939533173
 20
0.1485922000000031
 30
0.0
 11
-0.6398156939533184
 21
0.1509011999999998
 31
0.0
  0
LINE
  5
895
  8
0
 10
-0.6305756939533203
 20
0.1459422000000003
 30
0.0
 11
-0.6351550939533173
 21
0.1485922000000031
 31
0.0
  0
LINE
  5
896
  8
0
 10
-0.6260884939533205
 20
0.1429581999999954
 30
0.0
 11
-0.6305756939533203
 21
0.1459422000000003
 31
0.0
  0
LINE
  5
897
  8
0
 10
-0.6217044939533185
 20
0.1396482000000034
 30
0.0
 11
-0.6260884939533205
 21
0.1429581999999954
 31
0.0
  0
LINE
  5
898
  8
0
 10
-0.5885232939533172
 20
0.0967150999999973
 30
0.0
 11
-0.5915430939533213
 21
0.1025191999999961
 31
0.0
  0
LINE
  5
899
  8
0
 10
-0.5856970939533195
 20
0.0906956999999977
 30
0.0
 11
-0.5885232939533172
 21
0.0967150999999973
 31
0.0
  0
LINE
  5
89A
  8
0
 10
-0.583071293953319
 20
0.0844755999999976
 30
0.0
 11
-0.5856970939533195
 21
0.0906956999999977
 31
0.0
  0
LINE
  5
89B
  8
0
 10
-0.5806518939533181
 20
0.0780697000000004
 30
0.0
 11
-0.583071293953319
 21
0.0844755999999976
 31
0.0
  0
LINE
  5
89C
  8
0
 10
-0.5784450939533219
 20
0.0714935000000026
 30
0.0
 11
-0.5806518939533181
 21
0.0780697000000004
 31
0.0
  0
LINE
  5
89D
  8
0
 10
-0.5764560939533201
 20
0.0647627000000028
 30
0.0
 11
-0.5784450939533219
 21
0.0714935000000026
 31
0.0
  0
LINE
  5
89E
  8
0
 10
-0.5746896939533192
 20
0.0578937000000011
 30
0.0
 11
-0.5764560939533201
 21
0.0647627000000028
 31
0.0
  0
LINE
  5
89F
  8
0
 10
-0.5731500939533181
 20
0.050902899999997
 30
0.0
 11
-0.5746896939533192
 21
0.0578937000000011
 31
0.0
  0
LINE
  5
8A0
  8
0
 10
-0.5915430939533213
 20
0.1025191999999961
 30
0.0
 11
-0.5947488939533177
 21
0.1080941999999965
 31
0.0
  0
LINE
  5
8A1
  8
0
 10
-0.5746896939533192
 20
-0.0431732999999994
 30
0.0
 11
-0.5731500939533181
 21
-0.0361825000000025
 31
0.0
  0
LINE
  5
8A2
  8
0
 10
-0.5764560939533201
 20
-0.0500423000000012
 30
0.0
 11
-0.5746896939533192
 21
-0.0431732999999994
 31
0.0
  0
LINE
  5
8A3
  8
0
 10
-0.5784450939533219
 20
-0.0567731000000009
 30
0.0
 11
-0.5764560939533201
 21
-0.0500423000000012
 31
0.0
  0
LINE
  5
8A4
  8
0
 10
-0.4931420939533188
 20
0.1528652000000008
 30
0.0
 11
-0.4978720939533209
 21
0.1509011999999998
 31
0.0
  0
LINE
  5
8A5
  8
0
 10
-0.4883540939533219
 20
0.1544781999999998
 30
0.0
 11
-0.4931420939533188
 21
0.1528652000000008
 31
0.0
  0
LINE
  5
8A6
  8
0
 10
-0.4835180939533208
 20
0.1557361999999998
 30
0.0
 11
-0.4883540939533219
 21
0.1544781999999998
 31
0.0
  0
LINE
  5
8A7
  8
0
 10
-0.4786460939533252
 20
0.1566381999999962
 30
0.0
 11
-0.4835180939533208
 21
0.1557361999999998
 31
0.0
  0
LINE
  5
8A8
  8
0
 10
-0.4737500939533188
 20
0.1571792000000016
 30
0.0
 11
-0.4786460939533252
 21
0.1566381999999962
 31
0.0
  0
LINE
  5
8A9
  8
0
 10
-0.468844093953318
 20
0.1573601999999994
 30
0.0
 11
-0.4737500939533188
 21
0.1571792000000016
 31
0.0
  0
LINE
  5
8AA
  8
0
 10
-0.5025320939533229
 20
0.1485922000000031
 30
0.0
 11
-0.5071120939533234
 21
0.1459422000000003
 31
0.0
  0
LINE
  5
8AB
  8
0
 10
-0.4978720939533209
 20
0.1509011999999998
 30
0.0
 11
-0.5025320939533229
 21
0.1485922000000031
 31
0.0
  0
LINE
  5
8AC
  8
0
 10
-0.5395540939533188
 20
0.1134261999999992
 30
0.0
 11
-0.5429400939533218
 21
0.1080941999999965
 31
0.0
  0
LINE
  5
8AD
  8
0
 10
-0.5360000939533247
 20
0.1185031999999992
 30
0.0
 11
-0.5395540939533188
 21
0.1134261999999992
 31
0.0
  0
LINE
  5
8AE
  8
0
 10
-0.5322840939533178
 20
0.1233122000000009
 30
0.0
 11
-0.5360000939533247
 21
0.1185031999999992
 31
0.0
  0
LINE
  5
8AF
  8
0
 10
-0.528414093953318
 20
0.1278411999999989
 30
0.0
 11
-0.5322840939533178
 21
0.1233122000000009
 31
0.0
  0
LINE
  5
8B0
  8
0
 10
-0.5244020939533221
 20
0.1320801999999972
 30
0.0
 11
-0.528414093953318
 21
0.1278411999999989
 31
0.0
  0
LINE
  5
8B1
  8
0
 10
-0.5202540939533252
 20
0.1360191999999998
 30
0.0
 11
-0.5244020939533221
 21
0.1320801999999972
 31
0.0
  0
LINE
  5
8B2
  8
0
 10
-0.5159840939533238
 20
0.1396482000000034
 30
0.0
 11
-0.5202540939533252
 21
0.1360191999999998
 31
0.0
  0
LINE
  5
8B3
  8
0
 10
-0.5116000939533217
 20
0.1429581999999954
 30
0.0
 11
-0.5159840939533238
 21
0.1396482000000034
 31
0.0
  0
LINE
  5
8B4
  8
0
 10
-0.5683620939533203
 20
0.0220628000000005
 30
0.0
 11
-0.5687240939533194
 21
0.0147204000000016
 31
0.0
  0
LINE
  5
8B5
  8
0
 10
-0.5677620939533217
 20
0.0293697999999978
 30
0.0
 11
-0.5683620939533203
 21
0.0220628000000005
 31
0.0
  0
LINE
  5
8B6
  8
0
 10
-0.5669220939533181
 20
0.0366236999999998
 30
0.0
 11
-0.5677620939533217
 21
0.0293697999999978
 31
0.0
  0
LINE
  5
8B7
  8
0
 10
-0.5658480939533188
 20
0.0438071999999963
 30
0.0
 11
-0.5669220939533181
 21
0.0366236999999998
 31
0.0
  0
LINE
  5
8B8
  8
0
 10
-0.5645380939533187
 20
0.050902899999997
 30
0.0
 11
-0.5658480939533188
 21
0.0438071999999963
 31
0.0
  0
LINE
  5
8B9
  8
0
 10
-0.5629980939533202
 20
0.0578937000000011
 30
0.0
 11
-0.5645380939533187
 21
0.050902899999997
 31
0.0
  0
LINE
  5
8BA
  8
0
 10
-0.5612320939533202
 20
0.0647627000000028
 30
0.0
 11
-0.5629980939533202
 21
0.0578937000000011
 31
0.0
  0
LINE
  5
8BB
  8
0
 10
-0.5592420939533174
 20
0.0714935000000026
 30
0.0
 11
-0.5612320939533202
 21
0.0647627000000028
 31
0.0
  0
LINE
  5
8BC
  8
0
 10
-0.5570360939533199
 20
0.0780697000000004
 30
0.0
 11
-0.5592420939533174
 21
0.0714935000000026
 31
0.0
  0
LINE
  5
8BD
  8
0
 10
-0.5546160939533193
 20
0.0844755999999976
 30
0.0
 11
-0.5570360939533199
 21
0.0780697000000004
 31
0.0
  0
LINE
  5
8BE
  8
0
 10
-0.5519900939533198
 20
0.0906956999999977
 30
0.0
 11
-0.5546160939533193
 21
0.0844755999999976
 31
0.0
  0
LINE
  5
8BF
  8
0
 10
-0.5491640939533178
 20
0.0967150999999973
 30
0.0
 11
-0.5519900939533198
 21
0.0906956999999977
 31
0.0
  0
LINE
  5
8C0
  8
0
 10
-0.546146093953321
 20
0.1025191999999961
 30
0.0
 11
-0.5491640939533178
 21
0.0967150999999973
 31
0.0
  0
LINE
  5
8C1
  8
0
 10
-0.5707654939533189
 20
0.0366236999999998
 30
0.0
 11
-0.5718408939533202
 21
0.0438071999999963
 31
0.0
  0
LINE
  5
8C2
  8
0
 10
-0.5699264939533199
 20
0.0293697999999978
 30
0.0
 11
-0.5707654939533189
 21
0.0366236999999998
 31
0.0
  0
LINE
  5
8C3
  8
0
 10
-0.5693256939533189
 20
0.0220628000000005
 30
0.0
 11
-0.5699264939533199
 21
0.0293697999999978
 31
0.0
  0
LINE
  5
8C4
  8
0
 10
-0.5689644939533185
 20
0.0147204000000016
 30
0.0
 11
-0.5693256939533189
 21
0.0220628000000005
 31
0.0
  0
LINE
  5
8C5
  8
0
 10
-0.5429400939533218
 20
0.1080941999999965
 30
0.0
 11
-0.546146093953321
 21
0.1025191999999961
 31
0.0
  0
LINE
  5
8C6
  8
0
 10
-0.5071120939533234
 20
0.1459422000000003
 30
0.0
 11
-0.5116000939533217
 21
0.1429581999999954
 31
0.0
  0
LINE
  5
8C7
  8
0
 10
-0.4639380939533188
 20
0.1571792000000016
 30
0.0
 11
-0.468844093953318
 21
0.1573601999999994
 31
0.0
  0
LINE
  5
8C8
  8
0
 10
-0.5669220939533181
 20
-0.0219032999999982
 30
0.0
 11
-0.5658480939533188
 21
-0.0290868000000018
 31
0.0
  0
LINE
  5
8C9
  8
0
 10
-0.5677620939533217
 20
-0.0146494000000033
 30
0.0
 11
-0.5669220939533181
 21
-0.0219032999999982
 31
0.0
  0
LINE
  5
8CA
  8
0
 10
-0.5683620939533203
 20
-0.0073423999999989
 30
0.0
 11
-0.5677620939533217
 21
-0.0146494000000033
 31
0.0
  0
LINE
  5
8CB
  8
0
 10
-0.5687240939533194
 20
0.0
 30
0.0
 11
-0.5683620939533203
 21
-0.0073423999999989
 31
0.0
  0
LINE
  5
8CC
  8
0
 10
-0.5688440939533184
 20
0.0073602000000008
 30
0.0
 11
-0.5687240939533194
 21
0.0
 31
0.0
  0
LINE
  5
8CD
  8
0
 10
-0.5689644939533185
 20
0.0
 30
0.0
 11
-0.5688440939533184
 21
0.0073602000000008
 31
0.0
  0
LINE
  5
8CE
  8
0
 10
-0.5693256939533189
 20
-0.0073423999999989
 30
0.0
 11
-0.5689644939533185
 21
0.0
 31
0.0
  0
LINE
  5
8CF
  8
0
 10
-0.5699264939533199
 20
-0.0146494000000033
 30
0.0
 11
-0.5693256939533189
 21
-0.0073423999999989
 31
0.0
  0
LINE
  5
8D0
  8
0
 10
-0.5707654939533189
 20
-0.0219032999999982
 30
0.0
 11
-0.5699264939533199
 21
-0.0146494000000033
 31
0.0
  0
LINE
  5
8D1
  8
0
 10
-0.5718408939533202
 20
-0.0290868000000018
 30
0.0
 11
-0.5707654939533189
 21
-0.0219032999999982
 31
0.0
  0
LINE
  5
8D2
  8
0
 10
-0.5612320939533202
 20
-0.0500423000000012
 30
0.0
 11
-0.5592420939533174
 21
-0.0567731000000009
 31
0.0
  0
LINE
  5
8D3
  8
0
 10
-0.5629980939533202
 20
-0.0431732999999994
 30
0.0
 11
-0.5612320939533202
 21
-0.0500423000000012
 31
0.0
  0
LINE
  5
8D4
  8
0
 10
-0.5645380939533187
 20
-0.0361825000000025
 30
0.0
 11
-0.5629980939533202
 21
-0.0431732999999994
 31
0.0
  0
LINE
  5
8D5
  8
0
 10
-0.5658480939533188
 20
-0.0290868000000018
 30
0.0
 11
-0.5645380939533187
 21
-0.0361825000000025
 31
0.0
  0
LINE
  5
8D6
  8
0
 10
-0.5687240939533194
 20
0.0147204000000016
 30
0.0
 11
-0.5688440939533184
 21
0.0073602000000008
 31
0.0
  0
LINE
  5
8D7
  8
0
 10
-0.5688440939533184
 20
0.0073602000000008
 30
0.0
 11
-0.5689644939533185
 21
0.0147204000000016
 31
0.0
  0
LINE
  5
8D8
  8
0
 10
-0.5718408939533202
 20
0.0438071999999963
 30
0.0
 11
-0.5731500939533181
 21
0.050902899999997
 31
0.0
  0
LINE
  5
8D9
  8
0
 10
-0.5731500939533181
 20
-0.0361825000000025
 30
0.0
 11
-0.5718408939533202
 21
-0.0290868000000018
 31
0.0
  0
LINE
  5
8DA
  8
0
 10
-0.6493350939533205
 20
0.1544781999999998
 30
0.0
 11
-0.6541710939533179
 21
0.1557361999999998
 31
0.0
  0
LINE
  5
8DB
  8
0
 10
-0.6445460939533181
 20
-0.1381447999999992
 30
0.0
 11
-0.6398156939533184
 21
-0.1361807999999982
 31
0.0
  0
LINE
  5
8DC
  8
0
 10
-0.6493350939533205
 20
-0.1397577999999982
 30
0.0
 11
-0.6445460939533181
 21
-0.1381447999999992
 31
0.0
  0
LINE
  5
8DD
  8
0
 10
-0.6260884939533205
 20
-0.1282378000000008
 30
0.0
 11
-0.6217044939533185
 21
-0.1249278000000018
 31
0.0
  0
LINE
  5
8DE
  8
0
 10
-0.6305756939533203
 20
-0.1312217999999987
 30
0.0
 11
-0.6260884939533205
 21
-0.1282378000000008
 31
0.0
  0
LINE
  5
8DF
  8
0
 10
-0.6351550939533173
 20
-0.1338718000000014
 30
0.0
 11
-0.6305756939533203
 21
-0.1312217999999987
 31
0.0
  0
LINE
  5
8E0
  8
0
 10
-0.6398156939533184
 20
-0.1361807999999982
 30
0.0
 11
-0.6351550939533173
 21
-0.1338718000000014
 31
0.0
  0
LINE
  5
8E1
  8
0
 10
-0.583071293953319
 20
-0.069755200000003
 30
0.0
 11
-0.5806518939533181
 21
-0.0633492999999987
 31
0.0
  0
LINE
  5
8E2
  8
0
 10
-0.5885232939533172
 20
-0.0819947000000028
 30
0.0
 11
-0.5856970939533195
 21
-0.0759753000000032
 31
0.0
  0
LINE
  5
8E3
  8
0
 10
-0.5915430939533213
 20
-0.0877988000000016
 30
0.0
 11
-0.5885232939533172
 21
-0.0819947000000028
 31
0.0
  0
LINE
  5
8E4
  8
0
 10
-0.5947488939533177
 20
-0.093373800000002
 30
0.0
 11
-0.5915430939533213
 21
-0.0877988000000016
 31
0.0
  0
LINE
  5
8E5
  8
0
 10
-0.5981334939533216
 20
-0.0987058000000047
 30
0.0
 11
-0.5947488939533177
 21
-0.093373800000002
 31
0.0
  0
LINE
  5
8E6
  8
0
 10
-0.6016882939533179
 20
-0.1037828000000047
 30
0.0
 11
-0.5981334939533216
 21
-0.0987058000000047
 31
0.0
  0
LINE
  5
8E7
  8
0
 10
-0.6054046939533198
 20
-0.1085917999999992
 30
0.0
 11
-0.6016882939533179
 21
-0.1037828000000047
 31
0.0
  0
LINE
  5
8E8
  8
0
 10
-0.609274093953319
 20
-0.1131207999999972
 30
0.0
 11
-0.6054046939533198
 21
-0.1085917999999992
 31
0.0
  0
LINE
  5
8E9
  8
0
 10
-0.6132870939533195
 20
-0.1173598000000027
 30
0.0
 11
-0.609274093953319
 21
-0.1131207999999972
 31
0.0
  0
LINE
  5
8EA
  8
0
 10
-0.6174338939533204
 20
-0.1212987999999981
 30
0.0
 11
-0.6132870939533195
 21
-0.1173598000000027
 31
0.0
  0
LINE
  5
8EB
  8
0
 10
-0.6217044939533185
 20
-0.1249278000000018
 30
0.0
 11
-0.6174338939533204
 21
-0.1212987999999981
 31
0.0
  0
LINE
  5
8EC
  8
0
 10
-0.5856970939533195
 20
-0.0759753000000032
 30
0.0
 11
-0.583071293953319
 21
-0.069755200000003
 31
0.0
  0
LINE
  5
8ED
  8
0
 10
-0.5159840939533238
 20
-0.1249278000000018
 30
0.0
 11
-0.5116000939533217
 21
-0.1282378000000008
 31
0.0
  0
LINE
  5
8EE
  8
0
 10
-0.4737500939533188
 20
-0.1424588
 30
0.0
 11
-0.468844093953318
 21
-0.1426397999999978
 31
0.0
  0
LINE
  5
8EF
  8
0
 10
-0.4786460939533252
 20
-0.1419178000000016
 30
0.0
 11
-0.4737500939533188
 21
-0.1424588
 31
0.0
  0
LINE
  5
8F0
  8
0
 10
-0.4835180939533208
 20
-0.1410157999999981
 30
0.0
 11
-0.4786460939533252
 21
-0.1419178000000016
 31
0.0
  0
LINE
  5
8F1
  8
0
 10
-0.4883540939533219
 20
-0.1397577999999982
 30
0.0
 11
-0.4835180939533208
 21
-0.1410157999999981
 31
0.0
  0
LINE
  5
8F2
  8
0
 10
-0.4931420939533188
 20
-0.1381447999999992
 30
0.0
 11
-0.4883540939533219
 21
-0.1397577999999982
 31
0.0
  0
LINE
  5
8F3
  8
0
 10
-0.4978720939533209
 20
-0.1361807999999982
 30
0.0
 11
-0.4931420939533188
 21
-0.1381447999999992
 31
0.0
  0
LINE
  5
8F4
  8
0
 10
-0.5071120939533234
 20
-0.1312217999999987
 30
0.0
 11
-0.5025320939533229
 21
-0.1338718000000014
 31
0.0
  0
LINE
  5
8F5
  8
0
 10
-0.5025320939533229
 20
-0.1338718000000014
 30
0.0
 11
-0.4978720939533209
 21
-0.1361807999999982
 31
0.0
  0
LINE
  5
8F6
  8
0
 10
-0.5116000939533217
 20
-0.1282378000000008
 30
0.0
 11
-0.5071120939533234
 21
-0.1312217999999987
 31
0.0
  0
LINE
  5
8F7
  8
0
 10
-0.5570360939533199
 20
-0.0633492999999987
 30
0.0
 11
-0.5546160939533193
 21
-0.069755200000003
 31
0.0
  0
LINE
  5
8F8
  8
0
 10
-0.5202540939533252
 20
-0.1212987999999981
 30
0.0
 11
-0.5159840939533238
 21
-0.1249278000000018
 31
0.0
  0
LINE
  5
8F9
  8
0
 10
-0.5244020939533221
 20
-0.1173598000000027
 30
0.0
 11
-0.5202540939533252
 21
-0.1212987999999981
 31
0.0
  0
LINE
  5
8FA
  8
0
 10
-0.528414093953318
 20
-0.1131207999999972
 30
0.0
 11
-0.5244020939533221
 21
-0.1173598000000027
 31
0.0
  0
LINE
  5
8FB
  8
0
 10
-0.5322840939533178
 20
-0.1085917999999992
 30
0.0
 11
-0.528414093953318
 21
-0.1131207999999972
 31
0.0
  0
LINE
  5
8FC
  8
0
 10
-0.5360000939533247
 20
-0.1037828000000047
 30
0.0
 11
-0.5322840939533178
 21
-0.1085917999999992
 31
0.0
  0
LINE
  5
8FD
  8
0
 10
-0.5395540939533188
 20
-0.0987058000000047
 30
0.0
 11
-0.5360000939533247
 21
-0.1037828000000047
 31
0.0
  0
LINE
  5
8FE
  8
0
 10
-0.5429400939533218
 20
-0.093373800000002
 30
0.0
 11
-0.5395540939533188
 21
-0.0987058000000047
 31
0.0
  0
LINE
  5
8FF
  8
0
 10
-0.546146093953321
 20
-0.0877988000000016
 30
0.0
 11
-0.5429400939533218
 21
-0.093373800000002
 31
0.0
  0
LINE
  5
900
  8
0
 10
-0.5491640939533178
 20
-0.0819947000000028
 30
0.0
 11
-0.546146093953321
 21
-0.0877988000000016
 31
0.0
  0
LINE
  5
901
  8
0
 10
-0.5519900939533198
 20
-0.0759753000000032
 30
0.0
 11
-0.5491640939533178
 21
-0.0819947000000028
 31
0.0
  0
LINE
  5
902
  8
0
 10
-0.5546160939533193
 20
-0.069755200000003
 30
0.0
 11
-0.5519900939533198
 21
-0.0759753000000032
 31
0.0
  0
LINE
  5
903
  8
0
 10
-0.468844093953318
 20
-0.1426397999999978
 30
0.0
 11
-0.4639380939533188
 21
-0.1424588
 31
0.0
  0
LINE
  5
904
  8
0
 10
-0.6541710939533179
 20
-0.1410157999999981
 30
0.0
 11
-0.6493350939533205
 21
-0.1397577999999982
 31
0.0
  0
LINE
  5
905
  8
0
 10
-0.5806518939533181
 20
-0.0633492999999987
 30
0.0
 11
-0.5784450939533219
 21
-0.0567731000000009
 31
0.0
  0
LINE
  5
906
  8
0
 10
-0.5592420939533174
 20
-0.0567731000000009
 30
0.0
 11
-0.5570360939533199
 21
-0.0633492999999987
 31
0.0
  0
LINE
  5
907
  8
0
 10
-0.3784460939533236
 20
-0.0567731000000009
 30
0.0
 11
-0.3764560939533208
 21
-0.0500423000000012
 31
0.0
  0
LINE
  5
908
  8
0
 10
-0.3764560939533208
 20
0.0647627000000028
 30
0.0
 11
-0.3784460939533236
 21
0.0714935000000026
 31
0.0
  0
LINE
  5
909
  8
0
 10
-0.4493340939533237
 20
0.1544781999999998
 30
0.0
 11
-0.4541700939533177
 21
0.1557361999999998
 31
0.0
  0
LINE
  5
90A
  8
0
 10
-0.4445460939533188
 20
0.1528652000000008
 30
0.0
 11
-0.4493340939533237
 21
0.1544781999999998
 31
0.0
  0
LINE
  5
90B
  8
0
 10
-0.4398160939533238
 20
0.1509011999999998
 30
0.0
 11
-0.4445460939533188
 21
0.1528652000000008
 31
0.0
  0
LINE
  5
90C
  8
0
 10
-0.4351560939533199
 20
0.1485922000000031
 30
0.0
 11
-0.4398160939533238
 21
0.1509011999999998
 31
0.0
  0
LINE
  5
90D
  8
0
 10
-0.4305760939533229
 20
0.1459422000000003
 30
0.0
 11
-0.4351560939533199
 21
0.1485922000000031
 31
0.0
  0
LINE
  5
90E
  8
0
 10
-0.4260880939533199
 20
0.1429581999999954
 30
0.0
 11
-0.4305760939533229
 21
0.1459422000000003
 31
0.0
  0
LINE
  5
90F
  8
0
 10
-0.4217040939533187
 20
0.1396482000000034
 30
0.0
 11
-0.4260880939533199
 21
0.1429581999999954
 31
0.0
  0
LINE
  5
910
  8
0
 10
-0.4174340939533209
 20
0.1360191999999998
 30
0.0
 11
-0.4217040939533187
 21
0.1396482000000034
 31
0.0
  0
LINE
  5
911
  8
0
 10
-0.4132860939533228
 20
0.1320801999999972
 30
0.0
 11
-0.4174340939533209
 21
0.1360191999999998
 31
0.0
  0
LINE
  5
912
  8
0
 10
-0.4092740939533197
 20
0.1278411999999989
 30
0.0
 11
-0.4132860939533228
 21
0.1320801999999972
 31
0.0
  0
LINE
  5
913
  8
0
 10
-0.4054040939533179
 20
0.1233122000000009
 30
0.0
 11
-0.4092740939533197
 21
0.1278411999999989
 31
0.0
  0
LINE
  5
914
  8
0
 10
-0.4016880939533209
 20
0.1185031999999992
 30
0.0
 11
-0.4054040939533179
 21
0.1233122000000009
 31
0.0
  0
LINE
  5
915
  8
0
 10
-0.3981340939533191
 20
0.1134261999999992
 30
0.0
 11
-0.4016880939533209
 21
0.1185031999999992
 31
0.0
  0
LINE
  5
916
  8
0
 10
-0.3947480939533197
 20
0.1080941999999965
 30
0.0
 11
-0.3981340939533191
 21
0.1134261999999992
 31
0.0
  0
LINE
  5
917
  8
0
 10
-0.3856980939533177
 20
0.0906956999999977
 30
0.0
 11
-0.3885240939533206
 21
0.0967150999999973
 31
0.0
  0
LINE
  5
918
  8
0
 10
-0.3830720939533183
 20
0.0844755999999976
 30
0.0
 11
-0.3856980939533177
 21
0.0906956999999977
 31
0.0
  0
LINE
  5
919
  8
0
 10
-0.3806520939533175
 20
0.0780697000000004
 30
0.0
 11
-0.3830720939533183
 21
0.0844755999999976
 31
0.0
  0
LINE
  5
91A
  8
0
 10
-0.3784460939533236
 20
0.0714935000000026
 30
0.0
 11
-0.3806520939533175
 21
0.0780697000000004
 31
0.0
  0
LINE
  5
91B
  8
0
 10
-0.3885240939533206
 20
0.0967150999999973
 30
0.0
 11
-0.3915420939533218
 21
0.1025191999999961
 31
0.0
  0
LINE
  5
91C
  8
0
 10
-0.3915420939533218
 20
0.1025191999999961
 30
0.0
 11
-0.3947480939533197
 21
0.1080941999999965
 31
0.0
  0
LINE
  5
91D
  8
0
 10
-0.2978720939533188
 20
0.1509011999999998
 30
0.0
 11
-0.3025320939533227
 21
0.1485922000000031
 31
0.0
  0
LINE
  5
91E
  8
0
 10
-0.2931420939533198
 20
0.1528652000000008
 30
0.0
 11
-0.2978720939533188
 21
0.1509011999999998
 31
0.0
  0
LINE
  5
91F
  8
0
 10
-0.2883540939533189
 20
0.1544781999999998
 30
0.0
 11
-0.2931420939533198
 21
0.1528652000000008
 31
0.0
  0
LINE
  5
920
  8
0
 10
-0.2835180939533206
 20
0.1557361999999998
 30
0.0
 11
-0.2883540939533189
 21
0.1544781999999998
 31
0.0
  0
LINE
  5
921
  8
0
 10
-0.2786460939533217
 20
0.1566381999999962
 30
0.0
 11
-0.2835180939533206
 21
0.1557361999999998
 31
0.0
  0
LINE
  5
922
  8
0
 10
-0.2688440939533216
 20
0.1573601999999994
 30
0.0
 11
-0.2737500939533195
 21
0.1571792000000016
 31
0.0
  0
LINE
  5
923
  8
0
 10
-0.3461460939533207
 20
0.1025191999999961
 30
0.0
 11
-0.3491640939533216
 21
0.0967150999999973
 31
0.0
  0
LINE
  5
924
  8
0
 10
-0.3429400939533256
 20
0.1080941999999965
 30
0.0
 11
-0.3461460939533207
 21
0.1025191999999961
 31
0.0
  0
LINE
  5
925
  8
0
 10
-0.3689640939533185
 20
0.0
 30
0.0
 11
-0.3688440939533226
 21
0.0073602000000008
 31
0.0
  0
LINE
  5
926
  8
0
 10
-0.3693260939533207
 20
-0.0073423999999989
 30
0.0
 11
-0.3689640939533185
 21
0.0
 31
0.0
  0
LINE
  5
927
  8
0
 10
-0.3699260939533198
 20
-0.0146494000000033
 30
0.0
 11
-0.3693260939533207
 21
-0.0073423999999989
 31
0.0
  0
LINE
  5
928
  8
0
 10
-0.3707660939533195
 20
-0.0219032999999982
 30
0.0
 11
-0.3699260939533198
 21
-0.0146494000000033
 31
0.0
  0
LINE
  5
929
  8
0
 10
-0.3718400939533186
 20
-0.0290868000000018
 30
0.0
 11
-0.3707660939533195
 21
-0.0219032999999982
 31
0.0
  0
LINE
  5
92A
  8
0
 10
-0.3669220939533186
 20
-0.0219032999999982
 30
0.0
 11
-0.3658480939533195
 21
-0.0290868000000018
 31
0.0
  0
LINE
  5
92B
  8
0
 10
-0.3677620939533188
 20
-0.0146494000000033
 30
0.0
 11
-0.3669220939533186
 21
-0.0219032999999982
 31
0.0
  0
LINE
  5
92C
  8
0
 10
-0.3683620939533179
 20
-0.0073423999999989
 30
0.0
 11
-0.3677620939533188
 21
-0.0146494000000033
 31
0.0
  0
LINE
  5
92D
  8
0
 10
-0.3687240939533236
 20
0.0
 30
0.0
 11
-0.3683620939533179
 21
-0.0073423999999989
 31
0.0
  0
LINE
  5
92E
  8
0
 10
-0.3688440939533226
 20
0.0073602000000008
 30
0.0
 11
-0.3687240939533236
 21
0.0
 31
0.0
  0
LINE
  5
92F
  8
0
 10
-0.3746900939533218
 20
-0.0431732999999994
 30
0.0
 11
-0.3731500939533188
 21
-0.0361825000000025
 31
0.0
  0
LINE
  5
930
  8
0
 10
-0.3764560939533208
 20
-0.0500423000000012
 30
0.0
 11
-0.3746900939533218
 21
-0.0431732999999994
 31
0.0
  0
LINE
  5
931
  8
0
 10
-0.3612320939533218
 20
-0.0500423000000012
 30
0.0
 11
-0.3592420939533216
 21
-0.0567731000000009
 31
0.0
  0
LINE
  5
932
  8
0
 10
-0.3629980939533177
 20
-0.0431732999999994
 30
0.0
 11
-0.3612320939533218
 21
-0.0500423000000012
 31
0.0
  0
LINE
  5
933
  8
0
 10
-0.3645380939533198
 20
-0.0361825000000025
 30
0.0
 11
-0.3629980939533177
 21
-0.0431732999999994
 31
0.0
  0
LINE
  5
934
  8
0
 10
-0.3731500939533188
 20
-0.0361825000000025
 30
0.0
 11
-0.3718400939533186
 21
-0.0290868000000018
 31
0.0
  0
LINE
  5
935
  8
0
 10
-0.3658480939533195
 20
-0.0290868000000018
 30
0.0
 11
-0.3645380939533198
 21
-0.0361825000000025
 31
0.0
  0
LINE
  5
936
  8
0
 10
-0.3688440939533226
 20
0.0073602000000008
 30
0.0
 11
-0.3689640939533185
 21
0.0147204000000016
 31
0.0
  0
LINE
  5
937
  8
0
 10
-0.3687240939533236
 20
0.0147204000000016
 30
0.0
 11
-0.3688440939533226
 21
0.0073602000000008
 31
0.0
  0
LINE
  5
938
  8
0
 10
-0.3491640939533216
 20
0.0967150999999973
 30
0.0
 11
-0.3519900939533276
 21
0.0906956999999977
 31
0.0
  0
LINE
  5
939
  8
0
 10
-0.3746900939533218
 20
0.0578937000000011
 30
0.0
 11
-0.3764560939533208
 21
0.0647627000000028
 31
0.0
  0
LINE
  5
93A
  8
0
 10
-0.3731500939533188
 20
0.050902899999997
 30
0.0
 11
-0.3746900939533218
 21
0.0578937000000011
 31
0.0
  0
LINE
  5
93B
  8
0
 10
-0.3718400939533186
 20
0.0438071999999963
 30
0.0
 11
-0.3731500939533188
 21
0.050902899999997
 31
0.0
  0
LINE
  5
93C
  8
0
 10
-0.3707660939533195
 20
0.0366236999999998
 30
0.0
 11
-0.3718400939533186
 21
0.0438071999999963
 31
0.0
  0
LINE
  5
93D
  8
0
 10
-0.3699260939533198
 20
0.0293697999999978
 30
0.0
 11
-0.3707660939533195
 21
0.0366236999999998
 31
0.0
  0
LINE
  5
93E
  8
0
 10
-0.3693260939533207
 20
0.0220628000000005
 30
0.0
 11
-0.3699260939533198
 21
0.0293697999999978
 31
0.0
  0
LINE
  5
93F
  8
0
 10
-0.3689640939533185
 20
0.0147204000000016
 30
0.0
 11
-0.3693260939533207
 21
0.0220628000000005
 31
0.0
  0
LINE
  5
940
  8
0
 10
-0.3683620939533179
 20
0.0220628000000005
 30
0.0
 11
-0.3687240939533236
 21
0.0147204000000016
 31
0.0
  0
LINE
  5
941
  8
0
 10
-0.3677620939533188
 20
0.0293697999999978
 30
0.0
 11
-0.3683620939533179
 21
0.0220628000000005
 31
0.0
  0
LINE
  5
942
  8
0
 10
-0.3669220939533186
 20
0.0366236999999998
 30
0.0
 11
-0.3677620939533188
 21
0.0293697999999978
 31
0.0
  0
LINE
  5
943
  8
0
 10
-0.3658480939533195
 20
0.0438071999999963
 30
0.0
 11
-0.3669220939533186
 21
0.0366236999999998
 31
0.0
  0
LINE
  5
944
  8
0
 10
-0.3645380939533198
 20
0.050902899999997
 30
0.0
 11
-0.3658480939533195
 21
0.0438071999999963
 31
0.0
  0
LINE
  5
945
  8
0
 10
-0.3629980939533177
 20
0.0578937000000011
 30
0.0
 11
-0.3645380939533198
 21
0.050902899999997
 31
0.0
  0
LINE
  5
946
  8
0
 10
-0.3612320939533218
 20
0.0647627000000028
 30
0.0
 11
-0.3629980939533177
 21
0.0578937000000011
 31
0.0
  0
LINE
  5
947
  8
0
 10
-0.3592420939533216
 20
0.0714935000000026
 30
0.0
 11
-0.3612320939533218
 21
0.0647627000000028
 31
0.0
  0
LINE
  5
948
  8
0
 10
-0.3570360939533206
 20
0.0780697000000004
 30
0.0
 11
-0.3592420939533216
 21
0.0714935000000026
 31
0.0
  0
LINE
  5
949
  8
0
 10
-0.3546160939533207
 20
0.0844755999999976
 30
0.0
 11
-0.3570360939533206
 21
0.0780697000000004
 31
0.0
  0
LINE
  5
94A
  8
0
 10
-0.3519900939533276
 20
0.0906956999999977
 30
0.0
 11
-0.3546160939533207
 21
0.0844755999999976
 31
0.0
  0
LINE
  5
94B
  8
0
 10
-0.2737500939533195
 20
0.1571792000000016
 30
0.0
 11
-0.2786460939533217
 21
0.1566381999999962
 31
0.0
  0
LINE
  5
94C
  8
0
 10
-0.3395540939533266
 20
0.1134261999999992
 30
0.0
 11
-0.3429400939533256
 21
0.1080941999999965
 31
0.0
  0
LINE
  5
94D
  8
0
 10
-0.3360000939533183
 20
0.1185031999999992
 30
0.0
 11
-0.3395540939533266
 21
0.1134261999999992
 31
0.0
  0
LINE
  5
94E
  8
0
 10
-0.3322840939533247
 20
0.1233122000000009
 30
0.0
 11
-0.3360000939533183
 21
0.1185031999999992
 31
0.0
  0
LINE
  5
94F
  8
0
 10
-0.3284140939533229
 20
0.1278411999999989
 30
0.0
 11
-0.3322840939533247
 21
0.1233122000000009
 31
0.0
  0
LINE
  5
950
  8
0
 10
-0.3244020939533199
 20
0.1320801999999972
 30
0.0
 11
-0.3284140939533229
 21
0.1278411999999989
 31
0.0
  0
LINE
  5
951
  8
0
 10
-0.3202540939533187
 20
0.1360191999999998
 30
0.0
 11
-0.3244020939533199
 21
0.1320801999999972
 31
0.0
  0
LINE
  5
952
  8
0
 10
-0.3159840939533236
 20
0.1396482000000034
 30
0.0
 11
-0.3202540939533187
 21
0.1360191999999998
 31
0.0
  0
LINE
  5
953
  8
0
 10
-0.3116000939533188
 20
0.1429581999999954
 30
0.0
 11
-0.3159840939533236
 21
0.1396482000000034
 31
0.0
  0
LINE
  5
954
  8
0
 10
-0.3071120939533207
 20
0.1459422000000003
 30
0.0
 11
-0.3116000939533188
 21
0.1429581999999954
 31
0.0
  0
LINE
  5
955
  8
0
 10
-0.3025320939533227
 20
0.1485922000000031
 30
0.0
 11
-0.3071120939533207
 21
0.1459422000000003
 31
0.0
  0
LINE
  5
956
  8
0
 10
-0.4541700939533177
 20
0.1557361999999998
 30
0.0
 11
-0.4590420939533236
 21
0.1566381999999962
 31
0.0
  0
LINE
  5
957
  8
0
 10
-0.4260880939533199
 20
-0.1282378000000008
 30
0.0
 11
-0.4217040939533187
 21
-0.1249278000000018
 31
0.0
  0
LINE
  5
958
  8
0
 10
-0.4305760939533229
 20
-0.1312217999999987
 30
0.0
 11
-0.4260880939533199
 21
-0.1282378000000008
 31
0.0
  0
LINE
  5
959
  8
0
 10
-0.4351560939533199
 20
-0.1338718000000014
 30
0.0
 11
-0.4305760939533229
 21
-0.1312217999999987
 31
0.0
  0
LINE
  5
95A
  8
0
 10
-0.4398160939533238
 20
-0.1361807999999982
 30
0.0
 11
-0.4351560939533199
 21
-0.1338718000000014
 31
0.0
  0
LINE
  5
95B
  8
0
 10
-0.4445460939533188
 20
-0.1381447999999992
 30
0.0
 11
-0.4398160939533238
 21
-0.1361807999999982
 31
0.0
  0
LINE
  5
95C
  8
0
 10
-0.4493340939533237
 20
-0.1397577999999982
 30
0.0
 11
-0.4445460939533188
 21
-0.1381447999999992
 31
0.0
  0
LINE
  5
95D
  8
0
 10
-0.4541700939533177
 20
-0.1410157999999981
 30
0.0
 11
-0.4493340939533237
 21
-0.1397577999999982
 31
0.0
  0
LINE
  5
95E
  8
0
 10
-0.3830720939533183
 20
-0.069755200000003
 30
0.0
 11
-0.3806520939533175
 21
-0.0633492999999987
 31
0.0
  0
LINE
  5
95F
  8
0
 10
-0.3885240939533206
 20
-0.0819947000000028
 30
0.0
 11
-0.3856980939533177
 21
-0.0759753000000032
 31
0.0
  0
LINE
  5
960
  8
0
 10
-0.3947480939533197
 20
-0.093373800000002
 30
0.0
 11
-0.3915420939533218
 21
-0.0877988000000016
 31
0.0
  0
LINE
  5
961
  8
0
 10
-0.3981340939533191
 20
-0.0987058000000047
 30
0.0
 11
-0.3947480939533197
 21
-0.093373800000002
 31
0.0
  0
LINE
  5
962
  8
0
 10
-0.4016880939533209
 20
-0.1037828000000047
 30
0.0
 11
-0.3981340939533191
 21
-0.0987058000000047
 31
0.0
  0
LINE
  5
963
  8
0
 10
-0.4054040939533179
 20
-0.1085917999999992
 30
0.0
 11
-0.4016880939533209
 21
-0.1037828000000047
 31
0.0
  0
LINE
  5
964
  8
0
 10
-0.4092740939533197
 20
-0.1131207999999972
 30
0.0
 11
-0.4054040939533179
 21
-0.1085917999999992
 31
0.0
  0
LINE
  5
965
  8
0
 10
-0.4132860939533228
 20
-0.1173598000000027
 30
0.0
 11
-0.4092740939533197
 21
-0.1131207999999972
 31
0.0
  0
LINE
  5
966
  8
0
 10
-0.4174340939533209
 20
-0.1212987999999981
 30
0.0
 11
-0.4132860939533228
 21
-0.1173598000000027
 31
0.0
  0
LINE
  5
967
  8
0
 10
-0.4217040939533187
 20
-0.1249278000000018
 30
0.0
 11
-0.4174340939533209
 21
-0.1212987999999981
 31
0.0
  0
LINE
  5
968
  8
0
 10
-0.3915420939533218
 20
-0.0877988000000016
 30
0.0
 11
-0.3885240939533206
 21
-0.0819947000000028
 31
0.0
  0
LINE
  5
969
  8
0
 10
-0.3856980939533177
 20
-0.0759753000000032
 30
0.0
 11
-0.3830720939533183
 21
-0.069755200000003
 31
0.0
  0
LINE
  5
96A
  8
0
 10
-0.3159840939533236
 20
-0.1249278000000018
 30
0.0
 11
-0.3116000939533188
 21
-0.1282378000000008
 31
0.0
  0
LINE
  5
96B
  8
0
 10
-0.2786460939533217
 20
-0.1419178000000016
 30
0.0
 11
-0.2737500939533195
 21
-0.1424588
 31
0.0
  0
LINE
  5
96C
  8
0
 10
-0.2835180939533206
 20
-0.1410157999999981
 30
0.0
 11
-0.2786460939533217
 21
-0.1419178000000016
 31
0.0
  0
LINE
  5
96D
  8
0
 10
-0.2883540939533189
 20
-0.1397577999999982
 30
0.0
 11
-0.2835180939533206
 21
-0.1410157999999981
 31
0.0
  0
LINE
  5
96E
  8
0
 10
-0.2931420939533198
 20
-0.1381447999999992
 30
0.0
 11
-0.2883540939533189
 21
-0.1397577999999982
 31
0.0
  0
LINE
  5
96F
  8
0
 10
-0.2978720939533188
 20
-0.1361807999999982
 30
0.0
 11
-0.2931420939533198
 21
-0.1381447999999992
 31
0.0
  0
LINE
  5
970
  8
0
 10
-0.3025320939533227
 20
-0.1338718000000014
 30
0.0
 11
-0.2978720939533188
 21
-0.1361807999999982
 31
0.0
  0
LINE
  5
971
  8
0
 10
-0.3071120939533207
 20
-0.1312217999999987
 30
0.0
 11
-0.3025320939533227
 21
-0.1338718000000014
 31
0.0
  0
LINE
  5
972
  8
0
 10
-0.3116000939533188
 20
-0.1282378000000008
 30
0.0
 11
-0.3071120939533207
 21
-0.1312217999999987
 31
0.0
  0
LINE
  5
973
  8
0
 10
-0.2737500939533195
 20
-0.1424588
 30
0.0
 11
-0.2688440939533216
 21
-0.1426397999999978
 31
0.0
  0
LINE
  5
974
  8
0
 10
-0.3519900939533276
 20
-0.0759753000000032
 30
0.0
 11
-0.3491640939533216
 21
-0.0819947000000028
 31
0.0
  0
LINE
  5
975
  8
0
 10
-0.3570360939533206
 20
-0.0633492999999987
 30
0.0
 11
-0.3546160939533207
 21
-0.069755200000003
 31
0.0
  0
LINE
  5
976
  8
0
 10
-0.3546160939533207
 20
-0.069755200000003
 30
0.0
 11
-0.3519900939533276
 21
-0.0759753000000032
 31
0.0
  0
LINE
  5
977
  8
0
 10
-0.3202540939533187
 20
-0.1212987999999981
 30
0.0
 11
-0.3159840939533236
 21
-0.1249278000000018
 31
0.0
  0
LINE
  5
978
  8
0
 10
-0.3244020939533199
 20
-0.1173598000000027
 30
0.0
 11
-0.3202540939533187
 21
-0.1212987999999981
 31
0.0
  0
LINE
  5
979
  8
0
 10
-0.3284140939533229
 20
-0.1131207999999972
 30
0.0
 11
-0.3244020939533199
 21
-0.1173598000000027
 31
0.0
  0
LINE
  5
97A
  8
0
 10
-0.3322840939533247
 20
-0.1085917999999992
 30
0.0
 11
-0.3284140939533229
 21
-0.1131207999999972
 31
0.0
  0
LINE
  5
97B
  8
0
 10
-0.3360000939533183
 20
-0.1037828000000047
 30
0.0
 11
-0.3322840939533247
 21
-0.1085917999999992
 31
0.0
  0
LINE
  5
97C
  8
0
 10
-0.3395540939533266
 20
-0.0987058000000047
 30
0.0
 11
-0.3360000939533183
 21
-0.1037828000000047
 31
0.0
  0
LINE
  5
97D
  8
0
 10
-0.3429400939533256
 20
-0.093373800000002
 30
0.0
 11
-0.3395540939533266
 21
-0.0987058000000047
 31
0.0
  0
LINE
  5
97E
  8
0
 10
-0.3461460939533207
 20
-0.0877988000000016
 30
0.0
 11
-0.3429400939533256
 21
-0.093373800000002
 31
0.0
  0
LINE
  5
97F
  8
0
 10
-0.3491640939533216
 20
-0.0819947000000028
 30
0.0
 11
-0.3461460939533207
 21
-0.0877988000000016
 31
0.0
  0
LINE
  5
980
  8
0
 10
-0.4590420939533236
 20
-0.1419178000000016
 30
0.0
 11
-0.4541700939533177
 21
-0.1410157999999981
 31
0.0
  0
LINE
  5
981
  8
0
 10
-0.3806520939533175
 20
-0.0633492999999987
 30
0.0
 11
-0.3784460939533236
 21
-0.0567731000000009
 31
0.0
  0
LINE
  5
982
  8
0
 10
-0.3592420939533216
 20
-0.0567731000000009
 30
0.0
 11
-0.3570360939533206
 21
-0.0633492999999987
 31
0.0
  0
LINE
  5
983
  8
0
 10
-0.1806520939533218
 20
0.0780697000000004
 30
0.0
 11
-0.1830720939533226
 21
0.0844755999999976
 31
0.0
  0
LINE
  5
984
  8
0
 10
-0.1885240939533208
 20
0.0967150999999973
 30
0.0
 11
-0.1915420939533217
 21
0.1025191999999961
 31
0.0
  0
LINE
  5
985
  8
0
 10
-0.1856980939533228
 20
0.0906956999999977
 30
0.0
 11
-0.1885240939533208
 21
0.0967150999999973
 31
0.0
  0
LINE
  5
986
  8
0
 10
-0.1830720939533226
 20
0.0844755999999976
 30
0.0
 11
-0.1856980939533228
 21
0.0906956999999977
 31
0.0
  0
LINE
  5
987
  8
0
 10
-0.1915420939533217
 20
0.1025191999999961
 30
0.0
 11
-0.1947480939533168
 21
0.1080941999999965
 31
0.0
  0
LINE
  5
988
  8
0
 10
-0.1947480939533168
 20
0.1080941999999965
 30
0.0
 11
-0.1981340939533198
 21
0.1134261999999992
 31
0.0
  0
LINE
  5
989
  8
0
 10
-0.2541700939533218
 20
0.1557361999999998
 30
0.0
 11
-0.2590420939533211
 21
0.1566381999999962
 31
0.0
  0
LINE
  5
98A
  8
0
 10
-0.2493340939533177
 20
0.1544781999999998
 30
0.0
 11
-0.2541700939533218
 21
0.1557361999999998
 31
0.0
  0
LINE
  5
98B
  8
0
 10
-0.2445460939533195
 20
0.1528652000000008
 30
0.0
 11
-0.2493340939533177
 21
0.1544781999999998
 31
0.0
  0
LINE
  5
98C
  8
0
 10
-0.2398160939533178
 20
0.1509011999999998
 30
0.0
 11
-0.2445460939533195
 21
0.1528652000000008
 31
0.0
  0
LINE
  5
98D
  8
0
 10
-0.2351560939533197
 20
0.1485922000000031
 30
0.0
 11
-0.2398160939533178
 21
0.1509011999999998
 31
0.0
  0
LINE
  5
98E
  8
0
 10
-0.2305760939533199
 20
0.1459422000000003
 30
0.0
 11
-0.2351560939533197
 21
0.1485922000000031
 31
0.0
  0
LINE
  5
98F
  8
0
 10
-0.2260880939533179
 20
0.1429581999999954
 30
0.0
 11
-0.2305760939533199
 21
0.1459422000000003
 31
0.0
  0
LINE
  5
990
  8
0
 10
-0.2217040939533188
 20
0.1396482000000034
 30
0.0
 11
-0.2260880939533179
 21
0.1429581999999954
 31
0.0
  0
LINE
  5
991
  8
0
 10
-0.2174340939533179
 20
0.1360191999999998
 30
0.0
 11
-0.2217040939533188
 21
0.1396482000000034
 31
0.0
  0
LINE
  5
992
  8
0
 10
-0.2132860939533208
 20
0.1320801999999972
 30
0.0
 11
-0.2174340939533179
 21
0.1360191999999998
 31
0.0
  0
LINE
  5
993
  8
0
 10
-0.2092740939533275
 20
0.1278411999999989
 30
0.0
 11
-0.2132860939533208
 21
0.1320801999999972
 31
0.0
  0
LINE
  5
994
  8
0
 10
-0.2054040939533248
 20
0.1233122000000009
 30
0.0
 11
-0.2092740939533275
 21
0.1278411999999989
 31
0.0
  0
LINE
  5
995
  8
0
 10
-0.2016880939533179
 20
0.1185031999999992
 30
0.0
 11
-0.2054040939533248
 21
0.1233122000000009
 31
0.0
  0
LINE
  5
996
  8
0
 10
-0.1981340939533198
 20
0.1134261999999992
 30
0.0
 11
-0.2016880939533179
 21
0.1185031999999992
 31
0.0
  0
LINE
  5
997
  8
0
 10
-0.1784460939533208
 20
0.0714935000000026
 30
0.0
 11
-0.1806520939533218
 21
0.0780697000000004
 31
0.0
  0
LINE
  5
998
  8
0
 10
-0.1764560939533215
 20
0.0647627000000028
 30
0.0
 11
-0.1784460939533208
 21
0.0714935000000026
 31
0.0
  0
LINE
  5
999
  8
0
 10
-0.1746900939533216
 20
0.0578937000000011
 30
0.0
 11
-0.1764560939533215
 21
0.0647627000000028
 31
0.0
  0
LINE
  5
99A
  8
0
 10
-0.1731500939533239
 20
0.050902899999997
 30
0.0
 11
-0.1746900939533216
 21
0.0578937000000011
 31
0.0
  0
LINE
  5
99B
  8
0
 10
-0.1718400939533238
 20
0.0438071999999963
 30
0.0
 11
-0.1731500939533239
 21
0.050902899999997
 31
0.0
  0
LINE
  5
99C
  8
0
 10
-0.1746900939533216
 20
-0.0431732999999994
 30
0.0
 11
-0.1731500939533239
 21
-0.0361825000000025
 31
0.0
  0
LINE
  5
99D
  8
0
 10
-0.1764560939533215
 20
-0.0500423000000012
 30
0.0
 11
-0.1746900939533216
 21
-0.0431732999999994
 31
0.0
  0
LINE
  5
99E
  8
0
 10
-0.1784460939533208
 20
-0.0567731000000009
 30
0.0
 11
-0.1764560939533215
 21
-0.0500423000000012
 31
0.0
  0
LINE
  5
99F
  8
0
 10
-0.1731500939533239
 20
-0.0361825000000025
 30
0.0
 11
-0.1718400939533238
 21
-0.0290868000000018
 31
0.0
  0
LINE
  5
9A0
  8
0
 10
-0.1707660939533238
 20
0.0366236999999998
 30
0.0
 11
-0.1718400939533238
 21
0.0438071999999963
 31
0.0
  0
LINE
  5
9A1
  8
0
 10
-0.1718400939533238
 20
-0.0290868000000018
 30
0.0
 11
-0.1707660939533238
 21
-0.0219032999999982
 31
0.0
  0
LINE
  5
9A2
  8
0
 10
-0.1699260939533236
 20
0.0293697999999978
 30
0.0
 11
-0.1707660939533238
 21
0.0366236999999998
 31
0.0
  0
LINE
  5
9A3
  8
0
 10
-0.1693260939533188
 20
0.0220628000000005
 30
0.0
 11
-0.1699260939533236
 21
0.0293697999999978
 31
0.0
  0
LINE
  5
9A4
  8
0
 10
-0.1689640939533188
 20
0.0147204000000016
 30
0.0
 11
-0.1693260939533188
 21
0.0220628000000005
 31
0.0
  0
LINE
  5
9A5
  8
0
 10
-0.1689640939533188
 20
0.0
 30
0.0
 11
-0.1688440939533238
 21
0.0073602000000008
 31
0.0
  0
LINE
  5
9A6
  8
0
 10
-0.1693260939533188
 20
-0.0073423999999989
 30
0.0
 11
-0.1689640939533188
 21
0.0
 31
0.0
  0
LINE
  5
9A7
  8
0
 10
-0.1699260939533236
 20
-0.0146494000000033
 30
0.0
 11
-0.1693260939533188
 21
-0.0073423999999989
 31
0.0
  0
LINE
  5
9A8
  8
0
 10
-0.1707660939533238
 20
-0.0219032999999982
 30
0.0
 11
-0.1699260939533236
 21
-0.0146494000000033
 31
0.0
  0
LINE
  5
9A9
  8
0
 10
-0.1688440939533238
 20
0.0073602000000008
 30
0.0
 11
-0.1689640939533188
 21
0.0147204000000016
 31
0.0
  0
LINE
  5
9AA
  8
0
 10
-0.1830720939533226
 20
-0.069755200000003
 30
0.0
 11
-0.1806520939533218
 21
-0.0633492999999987
 31
0.0
  0
LINE
  5
9AB
  8
0
 10
-0.2260880939533179
 20
-0.1282378000000008
 30
0.0
 11
-0.2217040939533188
 21
-0.1249278000000018
 31
0.0
  0
LINE
  5
9AC
  8
0
 10
-0.2305760939533199
 20
-0.1312217999999987
 30
0.0
 11
-0.2260880939533179
 21
-0.1282378000000008
 31
0.0
  0
LINE
  5
9AD
  8
0
 10
-0.2351560939533197
 20
-0.1338718000000014
 30
0.0
 11
-0.2305760939533199
 21
-0.1312217999999987
 31
0.0
  0
LINE
  5
9AE
  8
0
 10
-0.2398160939533178
 20
-0.1361807999999982
 30
0.0
 11
-0.2351560939533197
 21
-0.1338718000000014
 31
0.0
  0
LINE
  5
9AF
  8
0
 10
-0.2445460939533195
 20
-0.1381447999999992
 30
0.0
 11
-0.2398160939533178
 21
-0.1361807999999982
 31
0.0
  0
LINE
  5
9B0
  8
0
 10
-0.2493340939533177
 20
-0.1397577999999982
 30
0.0
 11
-0.2445460939533195
 21
-0.1381447999999992
 31
0.0
  0
LINE
  5
9B1
  8
0
 10
-0.2541700939533218
 20
-0.1410157999999981
 30
0.0
 11
-0.2493340939533177
 21
-0.1397577999999982
 31
0.0
  0
LINE
  5
9B2
  8
0
 10
-0.2590420939533211
 20
-0.1419178000000016
 30
0.0
 11
-0.2541700939533218
 21
-0.1410157999999981
 31
0.0
  0
LINE
  5
9B3
  8
0
 10
-0.1885240939533208
 20
-0.0819947000000028
 30
0.0
 11
-0.1856980939533228
 21
-0.0759753000000032
 31
0.0
  0
LINE
  5
9B4
  8
0
 10
-0.1915420939533217
 20
-0.0877988000000016
 30
0.0
 11
-0.1885240939533208
 21
-0.0819947000000028
 31
0.0
  0
LINE
  5
9B5
  8
0
 10
-0.1947480939533168
 20
-0.093373800000002
 30
0.0
 11
-0.1915420939533217
 21
-0.0877988000000016
 31
0.0
  0
LINE
  5
9B6
  8
0
 10
-0.1981340939533198
 20
-0.0987058000000047
 30
0.0
 11
-0.1947480939533168
 21
-0.093373800000002
 31
0.0
  0
LINE
  5
9B7
  8
0
 10
-0.2054040939533248
 20
-0.1085917999999992
 30
0.0
 11
-0.2016880939533179
 21
-0.1037828000000047
 31
0.0
  0
LINE
  5
9B8
  8
0
 10
-0.2092740939533275
 20
-0.1131207999999972
 30
0.0
 11
-0.2054040939533248
 21
-0.1085917999999992
 31
0.0
  0
LINE
  5
9B9
  8
0
 10
-0.2132860939533208
 20
-0.1173598000000027
 30
0.0
 11
-0.2092740939533275
 21
-0.1131207999999972
 31
0.0
  0
LINE
  5
9BA
  8
0
 10
-0.2174340939533179
 20
-0.1212987999999981
 30
0.0
 11
-0.2132860939533208
 21
-0.1173598000000027
 31
0.0
  0
LINE
  5
9BB
  8
0
 10
-0.2217040939533188
 20
-0.1249278000000018
 30
0.0
 11
-0.2174340939533179
 21
-0.1212987999999981
 31
0.0
  0
LINE
  5
9BC
  8
0
 10
-0.2016880939533179
 20
-0.1037828000000047
 30
0.0
 11
-0.1981340939533198
 21
-0.0987058000000047
 31
0.0
  0
LINE
  5
9BD
  8
0
 10
-0.1856980939533228
 20
-0.0759753000000032
 30
0.0
 11
-0.1830720939533226
 21
-0.069755200000003
 31
0.0
  0
LINE
  5
9BE
  8
0
 10
-0.1806520939533218
 20
-0.0633492999999987
 30
0.0
 11
-0.1784460939533208
 21
-0.0567731000000009
 31
0.0
  0
LINE
  5
9BF
  8
0
 10
-0.1688440939533238
 20
0.1573601999999994
 30
0.0
 11
-0.1688440939533238
 21
-0.1426397999999978
 31
0.0
  0
LINE
  5
9C0
  8
0
 10
-0.2639380939533198
 20
-0.1424588
 30
0.0
 11
-0.2590420939533211
 21
-0.1419178000000016
 31
0.0
  0
LINE
  5
9C1
  8
0
 10
-0.2590420939533211
 20
0.1566381999999962
 30
0.0
 11
-0.2639380939533198
 21
0.1571792000000016
 31
0.0
  0
ATTDEF
  5
9CB
  8
0
  6
CONTINUOUS
 62
     7
 10
-1.8035505013291571
 20
-1.310280986650628
 30
0.0
 40
0.2
  1
*MONTAGGIO*
 72
     2
 11
-0.1368838346624912
 21
-1.310280986650628
 31
0.0
  3
Schema di montaggio
  2
MONTAGGIO
 70
     9
  0
ENDSEC
  0
EOF
