  0
SECTION
  2
HEADER
  9
$ACADVER
  1
AC1014
  9
$ACADMAINTVER
 70
     9
  9
$DWGCODEPAGE
  3
ANSI_1252
  9
$INSBASE
 10
0.0
 20
0.0
 30
0.0
  9
$EXTMIN
 10
0.0
 20
0.0
 30
0.0
  9
$EXTMAX
 10
3.214544574996835
 20
0.3619313659640255
 30
0.0
  9
$LIMMIN
 10
0.0
 20
0.0
  9
$LIMMAX
 10
20.0
 20
20.0
  9
$ORTHOMODE
 70
     1
  9
$REGENMODE
 70
     1
  9
$FILLMODE
 70
     1
  9
$QTEXTMODE
 70
     0
  9
$MIRRTEXT
 70
     1
  9
$DRAGMODE
 70
     2
  9
$LTSCALE
 40
0.05
  9
$OSMODE
 70
    37
  9
$ATTMODE
 70
     1
  9
$TEXTSIZE
 40
0.2
  9
$TRACEWID
 40
0.05
  9
$TEXTSTYLE
  7
STANDARD
  9
$CLAYER
  8
P1_TUBI
  9
$CELTYPE
  6
CONTINUOUS
  9
$CECOLOR
 62
     1
  9
$CELTSCALE
 40
1.0
  9
$DELOBJ
 70
     1
  9
$DISPSILH
 70
     0
  9
$DIMSCALE
 40
1.0
  9
$DIMASZ
 40
0.18
  9
$DIMEXO
 40
0.0625
  9
$DIMDLI
 40
0.38
  9
$DIMRND
 40
0.0
  9
$DIMDLE
 40
0.0
  9
$DIMEXE
 40
0.18
  9
$DIMTP
 40
0.0
  9
$DIMTM
 40
0.0
  9
$DIMTXT
 40
0.18
  9
$DIMCEN
 40
0.09
  9
$DIMTSZ
 40
0.0
  9
$DIMTOL
 70
     0
  9
$DIMLIM
 70
     0
  9
$DIMTIH
 70
     1
  9
$DIMTOH
 70
     1
  9
$DIMSE1
 70
     0
  9
$DIMSE2
 70
     0
  9
$DIMTAD
 70
     0
  9
$DIMZIN
 70
     0
  9
$DIMBLK
  1

  9
$DIMASO
 70
     1
  9
$DIMSHO
 70
     1
  9
$DIMPOST
  1

  9
$DIMAPOST
  1

  9
$DIMALT
 70
     0
  9
$DIMALTD
 70
     2
  9
$DIMALTF
 40
25.4
  9
$DIMLFAC
 40
1.0
  9
$DIMTOFL
 70
     0
  9
$DIMTVP
 40
0.0
  9
$DIMTIX
 70
     0
  9
$DIMSOXD
 70
     0
  9
$DIMSAH
 70
     0
  9
$DIMBLK1
  1

  9
$DIMBLK2
  1

  9
$DIMSTYLE
  2
STANDARD
  9
$DIMCLRD
 70
     0
  9
$DIMCLRE
 70
     0
  9
$DIMCLRT
 70
     0
  9
$DIMTFAC
 40
1.0
  9
$DIMGAP
 40
0.09
  9
$DIMJUST
 70
     0
  9
$DIMSD1
 70
     0
  9
$DIMSD2
 70
     0
  9
$DIMTOLJ
 70
     1
  9
$DIMTZIN
 70
     0
  9
$DIMALTZ
 70
     0
  9
$DIMALTTZ
 70
     0
  9
$DIMFIT
 70
     3
  9
$DIMUPT
 70
     0
  9
$DIMUNIT
 70
     2
  9
$DIMDEC
 70
     4
  9
$DIMTDEC
 70
     4
  9
$DIMALTU
 70
     2
  9
$DIMALTTD
 70
     2
  9
$DIMTXSTY
  7
STANDARD
  9
$DIMAUNIT
 70
     0
  9
$LUNITS
 70
     2
  9
$LUPREC
 70
     4
  9
$SKETCHINC
 40
0.1
  9
$FILLETRAD
 40
0.0
  9
$AUNITS
 70
     0
  9
$AUPREC
 70
     0
  9
$MENU
  1
acad
  9
$ELEVATION
 40
0.0
  9
$PELEVATION
 40
0.0
  9
$THICKNESS
 40
3.0
  9
$LIMCHECK
 70
     0
  9
$BLIPMODE
 70
     0
  9
$CHAMFERA
 40
0.5
  9
$CHAMFERB
 40
0.5
  9
$CHAMFERC
 40
0.0
  9
$CHAMFERD
 40
0.0
  9
$SKPOLY
 70
     0
  9
$TDCREATE
 40
2451387.637876667
  9
$TDUPDATE
 40
2453213.737903819
  9
$TDINDWG
 40
2.1461921644
  9
$TDUSRTIMER
 40
2.1460994444
  9
$USRTIMER
 70
     1
  9
$ANGBASE
 50
0.0
  9
$ANGDIR
 70
     0
  9
$PDMODE
 70
     0
  9
$PDSIZE
 40
0.0
  9
$PLINEWID
 40
0.0
  9
$COORDS
 70
     1
  9
$SPLFRAME
 70
     0
  9
$SPLINETYPE
 70
     6
  9
$SPLINESEGS
 70
     8
  9
$ATTDIA
 70
     0
  9
$ATTREQ
 70
     1
  9
$HANDLING
 70
 22529
  9
$HANDSEED
  5
5A
  9
$SURFTAB1
 70
     6
  9
$SURFTAB2
 70
     6
  9
$SURFTYPE
 70
     6
  9
$SURFU
 70
     6
  9
$SURFV
 70
     6
  9
$UCSNAME
  2

  9
$UCSORG
 10
0.0
 20
0.0
 30
0.0
  9
$UCSXDIR
 10
1.0
 20
0.0
 30
0.0
  9
$UCSYDIR
 10
0.0
 20
1.0
 30
0.0
  9
$PUCSNAME
  2

  9
$PUCSORG
 10
0.0
 20
0.0
 30
0.0
  9
$PUCSXDIR
 10
1.0
 20
0.0
 30
0.0
  9
$PUCSYDIR
 10
0.0
 20
1.0
 30
0.0
  9
$USERI1
 70
     0
  9
$USERI2
 70
     0
  9
$USERI3
 70
     0
  9
$USERI4
 70
     0
  9
$USERI5
 70
     0
  9
$USERR1
 40
0.0
  9
$USERR2
 40
0.0
  9
$USERR3
 40
0.0
  9
$USERR4
 40
0.0
  9
$USERR5
 40
0.0
  9
$WORLDVIEW
 70
     1
  9
$SHADEDGE
 70
     3
  9
$SHADEDIF
 70
    70
  9
$TILEMODE
 70
     1
  9
$MAXACTVP
 70
    48
  9
$PINSBASE
 10
0.0
 20
0.0
 30
0.0
  9
$PLIMCHECK
 70
     0
  9
$PEXTMIN
 10
1.000000000000000E+20
 20
1.000000000000000E+20
 30
1.000000000000000E+20
  9
$PEXTMAX
 10
-1.000000000000000E+20
 20
-1.000000000000000E+20
 30
-1.000000000000000E+20
  9
$PLIMMIN
 10
0.0
 20
0.0
  9
$PLIMMAX
 10
12.0
 20
9.0
  9
$UNITMODE
 70
     0
  9
$VISRETAIN
 70
     1
  9
$PLINEGEN
 70
     0
  9
$PSLTSCALE
 70
     1
  9
$TREEDEPTH
 70
  3020
  9
$PICKSTYLE
 70
     1
  9
$CMLSTYLE
  2
STANDARD
  9
$CMLJUST
 70
     0
  9
$CMLSCALE
 40
1.0
  9
$PROXYGRAPHICS
 70
     1
  9
$MEASUREMENT
 70
     0
  0
ENDSEC
  0
SECTION
  2
CLASSES
  0
CLASS
  1
ACDBDICTIONARYWDFLT
  2
AcDbDictionaryWithDefault
  3
AutoCAD 2000
 90
        0
280
     0
281
     0
  0
CLASS
  1
ACDBPLACEHOLDER
  2
AcDbPlaceHolder
  3
AutoCAD 2000
 90
        0
280
     0
281
     0
  0
CLASS
  1
LAYOUT
  2
AcDbLayout
  3
AutoCAD 2000
 90
        0
280
     0
281
     0
  0
CLASS
  1
DICTIONARYVAR
  2
AcDbDictionaryVar
  3
AutoCAD 2000
 90
        0
280
     0
281
     0
  0
CLASS
  1
SORTENTSTABLE
  2
AcDbSortentsTable
  3
AutoCAD 2000
 90
        0
280
     0
281
     0
  0
CLASS
  1
LONG_TRANSACTION
  2
AcDbLongTransaction
  3
AutoCAD 2000
 90
        0
280
     0
281
     0
  0
CLASS
  1
LWPOLYLINE
  2
AcDbPolyline
  3
AutoCAD 2000
 90
        0
280
     0
281
     1
  0
CLASS
  1
HATCH
  2
AcDbHatch
  3
AutoCAD 2000
 90
        0
280
     0
281
     1
  0
CLASS
  1
XRECORD
  2
AcDbXrecord
  3
AutoCAD 2000
 90
        0
280
     0
281
     0
  0
ENDSEC
  0
SECTION
  2
TABLES
  0
TABLE
  2
VPORT
  5
1B
330
0
100
AcDbSymbolTable
 70
     2
  0
VPORT
  5
36
330
1B
100
AcDbSymbolTableRecord
100
AcDbViewportTableRecord
  2
*ACTIVE
 70
     0
 10
0.0
 20
0.0
 11
1.0
 21
1.0
 12
13.04080008307352
 22
50.58321540094901
 13
0.0
 23
0.0
 14
0.5
 24
0.5
 15
0.5
 25
0.5
 16
0.0
 26
0.0
 36
1.0
 17
6.383611
 27
4.951773
 37
-0.464255
 40
7.984587779871127
 41
2.268551236749116
 42
50.0
 43
0.0
 44
0.0
 50
0.0
 51
0.0
 71
     0
 72
   100
 73
     1
 74
     0
 75
     0
 76
     0
 77
     0
 78
     1
  0
ENDTAB
  0
TABLE
  2
LTYPE
  5
16
330
0
100
AcDbSymbolTable
 70
     1
  0
LTYPE
  5
17
330
16
100
AcDbSymbolTableRecord
100
AcDbLinetypeTableRecord
  2
BYBLOCK
 70
     0
  3

 72
    65
 73
     0
 40
0.0
  0
LTYPE
  5
18
330
16
100
AcDbSymbolTableRecord
100
AcDbLinetypeTableRecord
  2
BYLAYER
 70
     0
  3

 72
    65
 73
     0
 40
0.0
  0
LTYPE
  5
A
330
16
100
AcDbSymbolTableRecord
100
AcDbLinetypeTableRecord
  2
CONTINUOUS
 70
     0
  3
Solid line
 72
    65
 73
     0
 40
0.0
  0
ENDTAB
  0
TABLE
  2
LAYER
  5
12
330
0
100
AcDbSymbolTable
 70
     2
  0
LAYER
  5
6
330
12
100
AcDbSymbolTableRecord
100
AcDbLayerTableRecord
  2
0
 70
     0
 62
     7
  6
CONTINUOUS
  0
LAYER
  5
24
330
12
100
AcDbSymbolTableRecord
100
AcDbLayerTableRecord
  2
P1_TUBI
 70
     0
 62
     7
  6
CONTINUOUS
  0
ENDTAB
  0
TABLE
  2
STYLE
  5
13
330
0
100
AcDbSymbolTable
 70
     1
  0
STYLE
  5
14
330
13
100
AcDbSymbolTableRecord
100
AcDbTextStyleTableRecord
  2
STANDARD
 70
     0
 40
0.0
 41
1.0
 50
0.0
 71
     0
 42
0.2
  3
txt
  4

  0
ENDTAB
  0
TABLE
  2
VIEW
  5
19
330
0
100
AcDbSymbolTable
 70
     0
  0
ENDTAB
  0
TABLE
  2
UCS
  5
1A
330
0
100
AcDbSymbolTable
 70
     0
  0
ENDTAB
  0
TABLE
  2
APPID
  5
1D
330
0
100
AcDbSymbolTable
 70
     1
  0
APPID
  5
1E
330
1D
100
AcDbSymbolTableRecord
100
AcDbRegAppTableRecord
  2
ACAD
 70
     0
  0
ENDTAB
  0
TABLE
  2
DIMSTYLE
  5
1F
330
0
100
AcDbSymbolTable
 70
     1
  0
DIMSTYLE
105
26
330
1F
100
AcDbSymbolTableRecord
100
AcDbDimStyleTableRecord
  2
STANDARD
 70
     0
  3

  4

  5

  6

  7

 40
1.0
 41
0.18
 42
0.0625
 43
0.38
 44
0.18
 45
0.0
 46
0.0
 47
0.0
 48
0.0
140
0.18
141
0.09
142
0.0
143
25.4
144
1.0
145
0.0
146
1.0
147
0.09
 71
     0
 72
     0
 73
     1
 74
     1
 75
     0
 76
     0
 77
     0
 78
     0
170
     0
171
     2
172
     0
173
     0
174
     0
175
     0
176
     0
177
     0
178
     0
270
     2
271
     4
272
     4
273
     2
274
     2
340
14
275
     0
280
     0
281
     0
282
     0
283
     1
284
     0
285
     0
286
     0
287
     5
288
     0
  0
ENDTAB
  0
TABLE
  2
BLOCK_RECORD
  5
1
330
0
100
AcDbSymbolTable
 70
     0
  0
BLOCK_RECORD
  5
2
102
{ACAD_XDICTIONARY
360
3
102
}
330
1
100
AcDbSymbolTableRecord
100
AcDbBlockTableRecord
  2
*MODEL_SPACE
  0
BLOCK_RECORD
  5
E
102
{ACAD_XDICTIONARY
360
58
102
}
330
1
100
AcDbSymbolTableRecord
100
AcDbBlockTableRecord
  2
*PAPER_SPACE
  0
ENDTAB
  0
ENDSEC
  0
SECTION
  2
BLOCKS
  0
BLOCK
  5
5
330
2
100
AcDbEntity
  8
0
100
AcDbBlockBegin
  2
*MODEL_SPACE
 70
     2
 10
0.0
 20
0.0
 30
0.0
  3
*MODEL_SPACE
  1

  0
ENDBLK
  5
B
330
2
100
AcDbEntity
  8
0
100
AcDbBlockEnd
  0
BLOCK
  5
F
330
E
100
AcDbEntity
 67
     1
  8
0
100
AcDbBlockBegin
  2
*PAPER_SPACE
 70
     0
 10
0.0
 20
0.0
 30
0.0
  3
*PAPER_SPACE
  1

  0
ENDBLK
  5
10
330
E
100
AcDbEntity
 67
     1
  8
0
100
AcDbBlockEnd
  0
ENDSEC
  0
SECTION
  2
ENTITIES
  0
LINE
  5
27
330
2
100
AcDbEntity
  8
0
100
AcDbLine
 10
0.1960578252690936
 20
0.3619313659640255
 30
0.0
 11
3.214544574996835
 21
0.3619313659640255
 31
0.0
  0
LINE
  5
28
330
2
100
AcDbEntity
  8
0
100
AcDbLine
 10
3.214544574996835
 20
0.0
 30
0.0
 11
0.1960578252690936
 21
0.0
 31
0.0
  0
TEXT
  5
29
330
2
100
AcDbEntity
  8
0
100
AcDbText
 10
0.2660361127903386
 20
0.0971620398441999
 30
0.0
 40
0.2
  1
Mand-
100
AcDbText
  0
ATTDEF
  5
2A
330
2
100
AcDbEntity
  8
0
100
AcDbText
 10
1.250517329042274
 20
0.0837597751137196
 30
0.0
 40
0.2
  1
*CODICE*
100
AcDbAttributeDefinition
  3
Codice rete
  2
CODICE
 70
     8
  0
LINE
  5
2B
330
2
100
AcDbEntity
  8
0
100
AcDbLine
 10
0.1960578252690936
 20
0.0
 30
0.0
 11
0.1960578252690936
 21
0.3619313659640255
 31
0.0
  0
LINE
  5
2C
330
2
100
AcDbEntity
  8
0
100
AcDbLine
 10
0.1960578252690936
 20
0.0
 30
0.0
 11
0.0
 21
0.0
 31
0.0
  0
LINE
  5
2D
330
2
100
AcDbEntity
  8
0
  6
CONTINUOUS
 62
     7
100
AcDbLine
 10
3.214544574996835
 20
0.3619313659640255
 30
0.0
 11
3.000460784947836
 21
0.1726645859487661
 31
0.0
  0
LINE
  5
2E
330
2
100
AcDbEntity
  8
0
  6
CONTINUOUS
 62
     7
100
AcDbLine
 10
3.000460784947836
 20
0.1726645859487661
 30
0.0
 11
3.214544574996835
 21
0.0
 31
0.0
  0
ENDSEC
  0
SECTION
  2
OBJECTS
  0
DICTIONARY
  5
9
330
0
100
AcDbDictionary
  3
ACAD_GROUP
350
21
  3
ACAD_LAYOUT
350
D
  3
ACAD_MLINESTYLE
350
22
  3
ACAD_PLOTSETTINGS
350
23
  3
ACAD_PLOTSTYLENAME
350
8
  3
ACDBHEADERROUNDTRIPXREC
350
37
  3
ACDBVARIABLEDICTIONARY
350
30
  0
DICTIONARY
  5
3
330
2
100
AcDbDictionary
280
     1
  3
ACAD_LAYOUTSELFREF
360
57
  3
ACAD_SORTENTS
360
4
  0
DICTIONARY
  5
58
330
E
100
AcDbDictionary
280
     1
  3
ACAD_LAYOUTSELFREF
360
59
  0
DICTIONARY
  5
21
102
{ACAD_REACTORS
330
9
102
}
330
9
100
AcDbDictionary
  0
DICTIONARY
  5
D
102
{ACAD_REACTORS
330
9
102
}
330
9
100
AcDbDictionary
  0
DICTIONARY
  5
22
102
{ACAD_REACTORS
330
9
102
}
330
9
100
AcDbDictionary
  3
STANDARD
350
25
  0
DICTIONARY
  5
23
102
{ACAD_REACTORS
330
9
102
}
330
9
100
AcDbDictionary
  0
ACDBDICTIONARYWDFLT
  5
8
102
{ACAD_REACTORS
330
9
102
}
330
9
100
AcDbDictionary
281
     1
  3
Normal
350
7
100
AcDbDictionaryWithDefault
340
7
  0
DICTIONARY
  5
37
102
{ACAD_REACTORS
330
9
102
}
330
9
100
AcDbDictionary
  3
CEPSNTYPE
350
41
  3
FINGERPRINTGUID
350
42
  3
HYPERLINKBASE
350
3A
  3
INSUNITS
350
40
  3
LAYOUTDICT
350
3C
  3
LWETCUNION
350
3F
  3
PLOTSETDICT
350
3D
  3
PLOTSTYLNAMDICT
350
3E
  3
PSVPSCALE
350
44
  3
PUCSBASE
350
47
  3
PUCSORGBACK
350
4D
  3
PUCSORGBOTTOM
350
49
  3
PUCSORGFRONT
350
4C
  3
PUCSORGLEFT
350
4A
  3
PUCSORGRIGHT
350
4B
  3
PUCSORGTOP
350
48
  3
PUCSORTHOREF
350
45
  3
PUCSORTHOVIEW
350
46
  3
STYLESHEET
350
3B
  3
TSTACKALIGN
350
38
  3
TSTACKSIZE
350
39
  3
UCSBASE
350
50
  3
UCSORGBACK
350
56
  3
UCSORGBOTTOM
350
52
  3
UCSORGFRONT
350
55
  3
UCSORGLEFT
350
53
  3
UCSORGRIGHT
350
54
  3
UCSORGTOP
350
51
  3
UCSORTHOREF
350
4E
  3
UCSORTHOVIEW
350
4F
  3
VERSIONGUID
350
43
  0
DICTIONARY
  5
30
102
{ACAD_REACTORS
330
9
102
}
330
9
100
AcDbDictionary
  3
DIMASSOC
350
32
  3
HIDETEXT
350
31
  0
XRECORD
  5
57
102
{ACAD_REACTORS
330
3
102
}
330
3
100
AcDbXrecord
340
2
  0
SORTENTSTABLE
  5
4
102
{ACAD_REACTORS
330
3
102
}
330
3
100
AcDbSortentsTable
330
2
  0
XRECORD
  5
59
102
{ACAD_REACTORS
330
58
102
}
330
58
100
AcDbXrecord
340
E
  0
MLINESTYLE
  5
25
102
{ACAD_REACTORS
330
22
102
}
330
22
100
AcDbMlineStyle
  2
STANDARD
 70
     0
  3

 62
   256
 51
90.0
 52
90.0
 71
     2
 49
0.5
 62
   256
  6
BYLAYER
 49
-0.5
 62
   256
  6
BYLAYER
  0
ACDBPLACEHOLDER
  5
7
102
{ACAD_REACTORS
330
8
102
}
330
8
100
AcDbPlaceHolder
280
     0
  0
XRECORD
  5
41
102
{ACAD_REACTORS
330
37
102
}
330
37
100
AcDbXrecord
 90
        0
  0
XRECORD
  5
42
102
{ACAD_REACTORS
330
37
102
}
330
37
100
AcDbXrecord
  1
{ADBBAA98-6A3A-49D7-922E-FC452EF77C4C}
  0
XRECORD
  5
3A
102
{ACAD_REACTORS
330
37
102
}
330
37
100
AcDbXrecord
  1

  0
XRECORD
  5
40
102
{ACAD_REACTORS
330
37
102
}
330
37
100
AcDbXrecord
 90
        0
  0
XRECORD
  5
3C
102
{ACAD_REACTORS
330
37
102
}
330
37
100
AcDbXrecord
340
D
  0
XRECORD
  5
3F
102
{ACAD_REACTORS
330
37
102
}
330
37
100
AcDbXrecord
 90
    10781
  0
XRECORD
  5
3D
102
{ACAD_REACTORS
330
37
102
}
330
37
100
AcDbXrecord
340
23
  0
XRECORD
  5
3E
102
{ACAD_REACTORS
330
37
102
}
330
37
100
AcDbXrecord
340
8
  0
XRECORD
  5
44
102
{ACAD_REACTORS
330
37
102
}
330
37
100
AcDbXrecord
 40
0.0
  0
XRECORD
  5
47
102
{ACAD_REACTORS
330
37
102
}
330
37
100
AcDbXrecord
340
0
  0
XRECORD
  5
4D
102
{ACAD_REACTORS
330
37
102
}
330
37
100
AcDbXrecord
 10
0.0
 20
0.0
 30
0.0
  0
XRECORD
  5
49
102
{ACAD_REACTORS
330
37
102
}
330
37
100
AcDbXrecord
 10
0.0
 20
0.0
 30
0.0
  0
XRECORD
  5
4C
102
{ACAD_REACTORS
330
37
102
}
330
37
100
AcDbXrecord
 10
0.0
 20
0.0
 30
0.0
  0
XRECORD
  5
4A
102
{ACAD_REACTORS
330
37
102
}
330
37
100
AcDbXrecord
 10
0.0
 20
0.0
 30
0.0
  0
XRECORD
  5
4B
102
{ACAD_REACTORS
330
37
102
}
330
37
100
AcDbXrecord
 10
0.0
 20
0.0
 30
0.0
  0
XRECORD
  5
48
102
{ACAD_REACTORS
330
37
102
}
330
37
100
AcDbXrecord
 10
0.0
 20
0.0
 30
0.0
  0
XRECORD
  5
45
102
{ACAD_REACTORS
330
37
102
}
330
37
100
AcDbXrecord
340
0
  0
XRECORD
  5
46
102
{ACAD_REACTORS
330
37
102
}
330
37
100
AcDbXrecord
 70
     0
  0
XRECORD
  5
3B
102
{ACAD_REACTORS
330
37
102
}
330
37
100
AcDbXrecord
  1

  0
XRECORD
  5
38
102
{ACAD_REACTORS
330
37
102
}
330
37
100
AcDbXrecord
 90
        1
  0
XRECORD
  5
39
102
{ACAD_REACTORS
330
37
102
}
330
37
100
AcDbXrecord
 90
       70
  0
XRECORD
  5
50
102
{ACAD_REACTORS
330
37
102
}
330
37
100
AcDbXrecord
340
0
  0
XRECORD
  5
56
102
{ACAD_REACTORS
330
37
102
}
330
37
100
AcDbXrecord
 10
0.0
 20
0.0
 30
0.0
  0
XRECORD
  5
52
102
{ACAD_REACTORS
330
37
102
}
330
37
100
AcDbXrecord
 10
0.0
 20
0.0
 30
0.0
  0
XRECORD
  5
55
102
{ACAD_REACTORS
330
37
102
}
330
37
100
AcDbXrecord
 10
0.0
 20
0.0
 30
0.0
  0
XRECORD
  5
53
102
{ACAD_REACTORS
330
37
102
}
330
37
100
AcDbXrecord
 10
0.0
 20
0.0
 30
0.0
  0
XRECORD
  5
54
102
{ACAD_REACTORS
330
37
102
}
330
37
100
AcDbXrecord
 10
0.0
 20
0.0
 30
0.0
  0
XRECORD
  5
51
102
{ACAD_REACTORS
330
37
102
}
330
37
100
AcDbXrecord
 10
0.0
 20
0.0
 30
0.0
  0
XRECORD
  5
4E
102
{ACAD_REACTORS
330
37
102
}
330
37
100
AcDbXrecord
340
0
  0
XRECORD
  5
4F
102
{ACAD_REACTORS
330
37
102
}
330
37
100
AcDbXrecord
 70
     0
  0
XRECORD
  5
43
102
{ACAD_REACTORS
330
37
102
}
330
37
100
AcDbXrecord
  1
{E037E44A-047C-44B9-A73A-9969A861A864}
  0
DICTIONARYVAR
  5
32
102
{ACAD_REACTORS
330
30
102
}
330
30
100
DictionaryVariables
280
     0
  1
1
  0
DICTIONARYVAR
  5
31
102
{ACAD_REACTORS
330
30
102
}
330
30
100
DictionaryVariables
280
     0
  1
1
  0
ENDSEC
  0
EOF
