  0
SECTION
  2
HEADER
  9
$ACADVER
  1
AC1009
  9
$INSBASE
 10
0.0
 20
0.0
 30
0.0
  9
$EXTMIN
 10
-0.0128164049386896
 20
-0.2129967452643768
 30
-0.0015258207003583
  9
$EXTMAX
 10
1.204834474722019
 20
0.2175296428818001
 30
0.0000000349246037
  9
$LIMMIN
 10
0.0
 20
0.0
  9
$LIMMAX
 10
420.0
 20
297.0
  9
$ORTHOMODE
 70
     0
  9
$REGENMODE
 70
     1
  9
$FILLMODE
 70
     1
  9
$QTEXTMODE
 70
     0
  9
$MIRRTEXT
 70
     1
  9
$DRAGMODE
 70
     2
  9
$LTSCALE
 40
1.0
  9
$OSMODE
 70
    37
  9
$ATTMODE
 70
     1
  9
$TEXTSIZE
 40
2.5
  9
$TRACEWID
 40
1.0
  9
$TEXTSTYLE
  7
STANDARD
  9
$CLAYER
  8
0
  9
$CELTYPE
  6
BYLAYER
  9
$CECOLOR
 62
   256
  9
$DIMSCALE
 40
1.0
  9
$DIMASZ
 40
2.5
  9
$DIMEXO
 40
0.625
  9
$DIMDLI
 40
3.75
  9
$DIMRND
 40
0.0
  9
$DIMDLE
 40
0.0
  9
$DIMEXE
 40
1.25
  9
$DIMTP
 40
0.0
  9
$DIMTM
 40
0.0
  9
$DIMTXT
 40
2.5
  9
$DIMCEN
 40
2.5
  9
$DIMTSZ
 40
0.0
  9
$DIMTOL
 70
     0
  9
$DIMLIM
 70
     0
  9
$DIMTIH
 70
     0
  9
$DIMTOH
 70
     0
  9
$DIMSE1
 70
     0
  9
$DIMSE2
 70
     0
  9
$DIMTAD
 70
     1
  9
$DIMZIN
 70
     8
  9
$DIMBLK
  1

  9
$DIMASO
 70
     1
  9
$DIMSHO
 70
     1
  9
$DIMPOST
  1

  9
$DIMAPOST
  1

  9
$DIMALT
 70
     0
  9
$DIMALTD
 70
     3
  9
$DIMALTF
 40
0.03937007874016
  9
$DIMLFAC
 40
1.0
  9
$DIMTOFL
 70
     1
  9
$DIMTVP
 40
0.0
  9
$DIMTIX
 70
     0
  9
$DIMSOXD
 70
     0
  9
$DIMSAH
 70
     0
  9
$DIMBLK1
  1

  9
$DIMBLK2
  1

  9
$DIMSTYLE
  2
ISO-25
  9
$DIMCLRD
 70
     0
  9
$DIMCLRE
 70
     0
  9
$DIMCLRT
 70
     0
  9
$DIMTFAC
 40
1.0
  9
$DIMGAP
 40
0.625
  9
$LUNITS
 70
     2
  9
$LUPREC
 70
     4
  9
$SKETCHINC
 40
1.0
  9
$FILLETRAD
 40
10.0
  9
$AUNITS
 70
     0
  9
$AUPREC
 70
     0
  9
$MENU
  1
.
  9
$ELEVATION
 40
0.0
  9
$PELEVATION
 40
0.0
  9
$THICKNESS
 40
0.0
  9
$LIMCHECK
 70
     0
  9
$BLIPMODE
 70
     0
  9
$CHAMFERA
 40
10.0
  9
$CHAMFERB
 40
10.0
  9
$SKPOLY
 70
     0
  9
$TDCREATE
 40
2453615.7030541082
  9
$TDUPDATE
 40
2453615.7037912272
  9
$TDINDWG
 40
0.0007373032
  9
$TDUSRTIMER
 40
0.0007373032
  9
$USRTIMER
 70
     1
  9
$ANGBASE
 50
0.0
  9
$ANGDIR
 70
     0
  9
$PDMODE
 70
     0
  9
$PDSIZE
 40
0.0
  9
$PLINEWID
 40
0.0
  9
$COORDS
 70
     1
  9
$SPLFRAME
 70
     0
  9
$SPLINETYPE
 70
     6
  9
$SPLINESEGS
 70
     8
  9
$ATTDIA
 70
     0
  9
$ATTREQ
 70
     1
  9
$HANDLING
 70
 22529
  9
$HANDSEED
  5
49D
  9
$SURFTAB1
 70
     6
  9
$SURFTAB2
 70
     6
  9
$SURFTYPE
 70
     6
  9
$SURFU
 70
     6
  9
$SURFV
 70
     6
  9
$UCSNAME
  2

  9
$UCSORG
 10
0.0
 20
0.0
 30
0.0
  9
$UCSXDIR
 10
1.0
 20
0.0
 30
0.0
  9
$UCSYDIR
 10
0.0
 20
1.0
 30
0.0
  9
$PUCSNAME
  2

  9
$PUCSORG
 10
0.0
 20
0.0
 30
0.0
  9
$PUCSXDIR
 10
1.0
 20
0.0
 30
0.0
  9
$PUCSYDIR
 10
0.0
 20
1.0
 30
0.0
  9
$USERI1
 70
     0
  9
$USERI2
 70
     0
  9
$USERI3
 70
     0
  9
$USERI4
 70
     0
  9
$USERI5
 70
     0
  9
$USERR1
 40
0.0
  9
$USERR2
 40
0.0
  9
$USERR3
 40
0.0
  9
$USERR4
 40
0.0
  9
$USERR5
 40
0.0
  9
$WORLDVIEW
 70
     1
  9
$SHADEDGE
 70
     3
  9
$SHADEDIF
 70
    70
  9
$TILEMODE
 70
     1
  9
$MAXACTVP
 70
    64
  9
$PLIMCHECK
 70
     0
  9
$PEXTMIN
 10
0.0
 20
0.0
 30
0.0
  9
$PEXTMAX
 10
0.0
 20
0.0
 30
0.0
  9
$PLIMMIN
 10
0.0
 20
0.0
  9
$PLIMMAX
 10
12.0
 20
9.0
  9
$UNITMODE
 70
     0
  9
$VISRETAIN
 70
     1
  9
$PLINEGEN
 70
     0
  9
$PSLTSCALE
 70
     1
  0
ENDSEC
  0
SECTION
  2
TABLES
  0
TABLE
  2
VPORT
 70
     2
  0
VPORT
  2
*ACTIVE
 70
     0
 10
0.0
 20
0.0
 11
1.0
 21
1.0
 12
0.871247086420908
 22
-0.0824559604027919
 13
0.0
 23
0.0
 14
10.0
 24
10.0
 15
10.0
 25
10.0
 16
0.0
 26
0.0
 36
1.0
 17
0.0
 27
0.0
 37
0.0
 40
1.19063086826362
 41
2.0132743362831849
 42
50.0
 43
0.0
 44
0.0
 50
0.0
 51
0.0
 71
     0
 72
   100
 73
     1
 74
     3
 75
     0
 76
     0
 77
     0
 78
     0
  0
ENDTAB
  0
TABLE
  2
LTYPE
 70
     1
  0
LTYPE
  2
CONTINUOUS
 70
     0
  3
Solid line
 72
    65
 73
     0
 40
0.0
  0
ENDTAB
  0
TABLE
  2
LAYER
 70
     1
  0
LAYER
  2
0
 70
     0
 62
     7
  6
CONTINUOUS
  0
ENDTAB
  0
TABLE
  2
STYLE
 70
     1
  0
STYLE
  2
STANDARD
 70
     0
 40
0.0
 41
1.0
 50
0.0
 71
     0
 42
2.5
  3
txt
  4

  0
ENDTAB
  0
TABLE
  2
VIEW
 70
     0
  0
ENDTAB
  0
TABLE
  2
UCS
 70
     0
  0
ENDTAB
  0
TABLE
  2
APPID
 70
     1
  0
APPID
  2
ACAD
 70
     0
  0
ENDTAB
  0
TABLE
  2
DIMSTYLE
 70
     1
  0
DIMSTYLE
  2
ISO-25
 70
     0
  3

  4

  5

  6

  7

 40
1.0
 41
2.5
 42
0.625
 43
3.75
 44
1.25
 45
0.0
 46
0.0
 47
0.0
 48
0.0
140
2.5
141
2.5
142
0.0
143
0.03937007874016
144
1.0
145
0.0
146
1.0
147
0.625
 71
     0
 72
     0
 73
     0
 74
     0
 75
     0
 76
     0
 77
     1
 78
     8
170
     0
171
     3
172
     1
173
     0
174
     0
175
     0
176
     0
177
     0
178
     0
  0
ENDTAB
  0
ENDSEC
  0
SECTION
  2
BLOCKS
  0
BLOCK
  8
0
  2
$MODEL_SPACE
 70
     0
 10
0.0
 20
0.0
 30
0.0
  3
$MODEL_SPACE
  1

  0
ENDBLK
  5
21
  8
0
  0
BLOCK
 67
     1
  8
0
  2
$PAPER_SPACE
 70
     0
 10
0.0
 20
0.0
 30
0.0
  3
$PAPER_SPACE
  1

  0
ENDBLK
  5
53
 67
     1
  8
0
  0
BLOCK
  8
0
  2
TERMINALE_SX
 70
     0
 10
0.0
 20
0.0
 30
0.0
  3
TERMINALE_SX
  1

  0
CIRCLE
  5
6D
  8
0
 10
0.0
 20
0.0
 30
0.0
 40
0.0037711727630798
  0
LINE
  5
6E
  8
0
 10
-0.1999999399223773
 20
0.0
 30
0.0
 11
0.0
 21
0.0
 31
0.0
  0
POLYLINE
  5
6F
  8
0
 66
     1
 10
0.0
 20
0.0
 30
0.0
 70
     8
  0
VERTEX
  5
70
  8
0
 10
-1.13758
 20
0.200031
 30
0.0
 70
    32
  0
VERTEX
  5
71
  8
0
 10
-1.140639999999999
 20
0.19979
 30
0.0
 70
    32
  0
VERTEX
  5
72
  8
0
 10
-1.14371
 20
0.199067
 30
0.0
 70
    32
  0
VERTEX
  5
73
  8
0
 10
-1.146749999999999
 20
0.197865
 30
0.0
 70
    32
  0
VERTEX
  5
74
  8
0
 10
-1.14977
 20
0.196186
 30
0.0
 70
    32
  0
VERTEX
  5
75
  8
0
 10
-1.1527700000000001
 20
0.194034
 30
0.0
 70
    32
  0
VERTEX
  5
76
  8
0
 10
-1.155729999999999
 20
0.191414
 30
0.0
 70
    32
  0
VERTEX
  5
77
  8
0
 10
-1.158639999999999
 20
0.188333
 30
0.0
 70
    32
  0
VERTEX
  5
78
  8
0
 10
-1.1614999999999991
 20
0.184798
 30
0.0
 70
    32
  0
VERTEX
  5
79
  8
0
 10
-1.1643099999999991
 20
0.180818
 30
0.0
 70
    32
  0
VERTEX
  5
7A
  8
0
 10
-1.167049999999999
 20
0.176402
 30
0.0
 70
    32
  0
VERTEX
  5
7B
  8
0
 10
-1.1697200000000001
 20
0.171561
 30
0.0
 70
    32
  0
VERTEX
  5
7C
  8
0
 10
-1.1723099999999991
 20
0.166306
 30
0.0
 70
    32
  0
VERTEX
  5
7D
  8
0
 10
-1.1748199999999991
 20
0.16065
 30
0.0
 70
    32
  0
VERTEX
  5
7E
  8
0
 10
-1.1772400000000001
 20
0.154607
 30
0.0
 70
    32
  0
VERTEX
  5
7F
  8
0
 10
-1.17957
 20
0.148192
 30
0.0
 70
    32
  0
VERTEX
  5
80
  8
0
 10
-1.181789999999999
 20
0.141419
 30
0.0
 70
    32
  0
VERTEX
  5
81
  8
0
 10
-1.1838999999999991
 20
0.134306
 30
0.0
 70
    32
  0
VERTEX
  5
82
  8
0
 10
-1.18591
 20
0.126868
 30
0.0
 70
    32
  0
VERTEX
  5
83
  8
0
 10
-1.1877999999999991
 20
0.119125
 30
0.0
 70
    32
  0
VERTEX
  5
84
  8
0
 10
-1.1895599999999991
 20
0.111095
 30
0.0
 70
    32
  0
VERTEX
  5
85
  8
0
 10
-1.1912100000000001
 20
0.102797
 30
0.0
 70
    32
  0
VERTEX
  5
86
  8
0
 10
-1.19272
 20
0.0942508
 30
0.0
 70
    32
  0
VERTEX
  5
87
  8
0
 10
-1.1940999999999991
 20
0.0854775
 30
0.0
 70
    32
  0
VERTEX
  5
88
  8
0
 10
-1.1953400000000001
 20
0.0764981
 30
0.0
 70
    32
  0
VERTEX
  5
89
  8
0
 10
-1.19645
 20
0.0673343
 30
0.0
 70
    32
  0
VERTEX
  5
8A
  8
0
 10
-1.1974100000000001
 20
0.058008
 30
0.0
 70
    32
  0
VERTEX
  5
8B
  8
0
 10
-1.198229999999999
 20
0.0485418
 30
0.0
 70
    32
  0
VERTEX
  5
8C
  8
0
 10
-1.1989000000000001
 20
0.0389584
 30
0.0
 70
    32
  0
VERTEX
  5
8D
  8
0
 10
-1.1994199999999999
 20
0.029281
 30
0.0
 70
    32
  0
VERTEX
  5
8E
  8
0
 10
-1.1997999999999991
 20
0.0195329
 30
0.0
 70
    32
  0
VERTEX
  5
8F
  8
0
 10
-1.200029999999999
 20
0.0097375
 30
0.0
 70
    32
  0
VERTEX
  5
90
  8
0
 10
-1.2000999999999991
 20
-0.0000815498
 30
0.0
 70
    32
  0
VERTEX
  5
91
  8
0
 10
-1.200029999999999
 20
-0.0099006
 30
0.0
 70
    32
  0
VERTEX
  5
92
  8
0
 10
-1.1997999999999991
 20
-0.019696
 30
0.0
 70
    32
  0
VERTEX
  5
93
  8
0
 10
-1.1994199999999999
 20
-0.0294441
 30
0.0
 70
    32
  0
VERTEX
  5
94
  8
0
 10
-1.1989000000000001
 20
-0.0391215
 30
0.0
 70
    32
  0
VERTEX
  5
95
  8
0
 10
-1.198229999999999
 20
-0.0487049
 30
0.0
 70
    32
  0
VERTEX
  5
96
  8
0
 10
-1.1974100000000001
 20
-0.0581711
 30
0.0
 70
    32
  0
VERTEX
  5
97
  8
0
 10
-1.19645
 20
-0.0674974
 30
0.0
 70
    32
  0
VERTEX
  5
98
  8
0
 10
-1.1953400000000001
 20
-0.0766613
 30
0.0
 70
    32
  0
VERTEX
  5
99
  8
0
 10
-1.1940999999999991
 20
-0.0856406
 30
0.0
 70
    32
  0
VERTEX
  5
9A
  8
0
 10
-1.19272
 20
-0.0944139
 30
0.0
 70
    32
  0
VERTEX
  5
9B
  8
0
 10
-1.1912100000000001
 20
-0.10296
 30
0.0
 70
    32
  0
VERTEX
  5
9C
  8
0
 10
-1.1895599999999991
 20
-0.111258
 30
0.0
 70
    32
  0
VERTEX
  5
9D
  8
0
 10
-1.1877999999999991
 20
-0.119288
 30
0.0
 70
    32
  0
VERTEX
  5
9E
  8
0
 10
-1.18591
 20
-0.127032
 30
0.0
 70
    32
  0
VERTEX
  5
9F
  8
0
 10
-1.1838999999999991
 20
-0.134469
 30
0.0
 70
    32
  0
VERTEX
  5
A0
  8
0
 10
-1.181789999999999
 20
-0.141582
 30
0.0
 70
    32
  0
VERTEX
  5
A1
  8
0
 10
-1.17957
 20
-0.148355
 30
0.0
 70
    32
  0
VERTEX
  5
A2
  8
0
 10
-1.1772400000000001
 20
-0.154771
 30
0.0
 70
    32
  0
VERTEX
  5
A3
  8
0
 10
-1.1748199999999991
 20
-0.160813
 30
0.0
 70
    32
  0
VERTEX
  5
A4
  8
0
 10
-1.1723099999999991
 20
-0.166469
 30
0.0
 70
    32
  0
VERTEX
  5
A5
  8
0
 10
-1.1697200000000001
 20
-0.171724
 30
0.0
 70
    32
  0
VERTEX
  5
A6
  8
0
 10
-1.167049999999999
 20
-0.176565
 30
0.0
 70
    32
  0
VERTEX
  5
A7
  8
0
 10
-1.1643099999999991
 20
-0.180981
 30
0.0
 70
    32
  0
VERTEX
  5
A8
  8
0
 10
-1.1614999999999991
 20
-0.184961
 30
0.0
 70
    32
  0
VERTEX
  5
A9
  8
0
 10
-1.158639999999999
 20
-0.188496
 30
0.0
 70
    32
  0
VERTEX
  5
AA
  8
0
 10
-1.155729999999999
 20
-0.191577
 30
0.0
 70
    32
  0
VERTEX
  5
AB
  8
0
 10
-1.1527700000000001
 20
-0.194197
 30
0.0
 70
    32
  0
VERTEX
  5
AC
  8
0
 10
-1.14978
 20
-0.196349
 30
0.0
 70
    32
  0
VERTEX
  5
AD
  8
0
 10
-1.146749999999999
 20
-0.198028
 30
0.0
 70
    32
  0
VERTEX
  5
AE
  8
0
 10
-1.14371
 20
-0.19923
 30
0.0
 70
    32
  0
VERTEX
  5
AF
  8
0
 10
-1.140639999999999
 20
-0.199953
 30
0.0
 70
    32
  0
VERTEX
  5
B0
  8
0
 10
-1.13758
 20
-0.200194
 30
0.0
 70
    32
  0
VERTEX
  5
B1
  8
0
 10
-1.1345099999999999
 20
-0.199953
 30
0.0
 70
    32
  0
VERTEX
  5
B2
  8
0
 10
-1.1314500000000001
 20
-0.19923
 30
0.0
 70
    32
  0
VERTEX
  5
B3
  8
0
 10
-1.1284000000000001
 20
-0.198028
 30
0.0
 70
    32
  0
VERTEX
  5
B4
  8
0
 10
-1.1253799999999989
 20
-0.196349
 30
0.0
 70
    32
  0
VERTEX
  5
B5
  8
0
 10
-1.122379999999999
 20
-0.194197
 30
0.0
 70
    32
  0
VERTEX
  5
B6
  8
0
 10
-1.119429999999999
 20
-0.191577
 30
0.0
 70
    32
  0
VERTEX
  5
B7
  8
0
 10
-1.1165099999999999
 20
-0.188496
 30
0.0
 70
    32
  0
VERTEX
  5
B8
  8
0
 10
-1.11365
 20
-0.184961
 30
0.0
 70
    32
  0
VERTEX
  5
B9
  8
0
 10
-1.11084
 20
-0.180981
 30
0.0
 70
    32
  0
VERTEX
  5
BA
  8
0
 10
-1.1081000000000001
 20
-0.176565
 30
0.0
 70
    32
  0
VERTEX
  5
BB
  8
0
 10
-1.105429999999999
 20
-0.171724
 30
0.0
 70
    32
  0
VERTEX
  5
BC
  8
0
 10
-1.10284
 20
-0.166469
 30
0.0
 70
    32
  0
VERTEX
  5
BD
  8
0
 10
-1.10033
 20
-0.160813
 30
0.0
 70
    32
  0
VERTEX
  5
BE
  8
0
 10
-1.0979099999999991
 20
-0.154771
 30
0.0
 70
    32
  0
VERTEX
  5
BF
  8
0
 10
-1.0955900000000001
 20
-0.148355
 30
0.0
 70
    32
  0
VERTEX
  5
C0
  8
0
 10
-1.09337
 20
-0.141582
 30
0.0
 70
    32
  0
VERTEX
  5
C1
  8
0
 10
-1.0912500000000001
 20
-0.134469
 30
0.0
 70
    32
  0
VERTEX
  5
C2
  8
0
 10
-1.0892399999999991
 20
-0.127032
 30
0.0
 70
    32
  0
VERTEX
  5
C3
  8
0
 10
-1.0873600000000001
 20
-0.119288
 30
0.0
 70
    32
  0
VERTEX
  5
C4
  8
0
 10
-1.0855900000000001
 20
-0.111258
 30
0.0
 70
    32
  0
VERTEX
  5
C5
  8
0
 10
-1.0839499999999991
 20
-0.10296
 30
0.0
 70
    32
  0
VERTEX
  5
C6
  8
0
 10
-1.0824400000000001
 20
-0.0944139
 30
0.0
 70
    32
  0
VERTEX
  5
C7
  8
0
 10
-1.0810599999999999
 20
-0.0856407
 30
0.0
 70
    32
  0
VERTEX
  5
C8
  8
0
 10
-1.079809999999999
 20
-0.0766613
 30
0.0
 70
    32
  0
VERTEX
  5
C9
  8
0
 10
-1.0787100000000001
 20
-0.0674975
 30
0.0
 70
    32
  0
VERTEX
  5
CA
  8
0
 10
-1.077739999999999
 20
-0.0581712
 30
0.0
 70
    32
  0
VERTEX
  5
CB
  8
0
 10
-1.0769299999999991
 20
-0.048705
 30
0.0
 70
    32
  0
VERTEX
  5
CC
  8
0
 10
-1.076249999999999
 20
-0.0391216
 30
0.0
 70
    32
  0
VERTEX
  5
CD
  8
0
 10
-1.075729999999999
 20
-0.0294442
 30
0.0
 70
    32
  0
VERTEX
  5
CE
  8
0
 10
-1.07535
 20
-0.0196961
 30
0.0
 70
    32
  0
VERTEX
  5
CF
  8
0
 10
-1.075129999999999
 20
-0.00990067
 30
0.0
 70
    32
  0
VERTEX
  5
D0
  8
0
 10
-1.0750500000000001
 20
-0.0000816227
 30
0.0
 70
    32
  0
VERTEX
  5
D1
  8
0
 10
-1.075129999999999
 20
0.00973743
 30
0.0
 70
    32
  0
VERTEX
  5
D2
  8
0
 10
-1.07535
 20
0.0195328
 30
0.0
 70
    32
  0
VERTEX
  5
D3
  8
0
 10
-1.075729999999999
 20
0.029281
 30
0.0
 70
    32
  0
VERTEX
  5
D4
  8
0
 10
-1.076249999999999
 20
0.0389584
 30
0.0
 70
    32
  0
VERTEX
  5
D5
  8
0
 10
-1.0769299999999991
 20
0.0485417
 30
0.0
 70
    32
  0
VERTEX
  5
D6
  8
0
 10
-1.077739999999999
 20
0.0580079
 30
0.0
 70
    32
  0
VERTEX
  5
D7
  8
0
 10
-1.0787100000000001
 20
0.0673342
 30
0.0
 70
    32
  0
VERTEX
  5
D8
  8
0
 10
-1.079809999999999
 20
0.0764981
 30
0.0
 70
    32
  0
VERTEX
  5
D9
  8
0
 10
-1.0810599999999999
 20
0.0854775
 30
0.0
 70
    32
  0
VERTEX
  5
DA
  8
0
 10
-1.08243
 20
0.0942507
 30
0.0
 70
    32
  0
VERTEX
  5
DB
  8
0
 10
-1.0839499999999991
 20
0.102797
 30
0.0
 70
    32
  0
VERTEX
  5
DC
  8
0
 10
-1.0855900000000001
 20
0.111095
 30
0.0
 70
    32
  0
VERTEX
  5
DD
  8
0
 10
-1.0873600000000001
 20
0.119125
 30
0.0
 70
    32
  0
VERTEX
  5
DE
  8
0
 10
-1.0892399999999991
 20
0.126868
 30
0.0
 70
    32
  0
VERTEX
  5
DF
  8
0
 10
-1.0912500000000001
 20
0.134306
 30
0.0
 70
    32
  0
VERTEX
  5
E0
  8
0
 10
-1.09337
 20
0.141419
 30
0.0
 70
    32
  0
VERTEX
  5
E1
  8
0
 10
-1.0955900000000001
 20
0.148192
 30
0.0
 70
    32
  0
VERTEX
  5
E2
  8
0
 10
-1.0979099999999991
 20
0.154607
 30
0.0
 70
    32
  0
VERTEX
  5
E3
  8
0
 10
-1.10033
 20
0.16065
 30
0.0
 70
    32
  0
VERTEX
  5
E4
  8
0
 10
-1.10284
 20
0.166306
 30
0.0
 70
    32
  0
VERTEX
  5
E5
  8
0
 10
-1.105429999999999
 20
0.171561
 30
0.0
 70
    32
  0
VERTEX
  5
E6
  8
0
 10
-1.1081000000000001
 20
0.176402
 30
0.0
 70
    32
  0
VERTEX
  5
E7
  8
0
 10
-1.11084
 20
0.180818
 30
0.0
 70
    32
  0
VERTEX
  5
E8
  8
0
 10
-1.11365
 20
0.184798
 30
0.0
 70
    32
  0
VERTEX
  5
E9
  8
0
 10
-1.1165099999999999
 20
0.188333
 30
0.0
 70
    32
  0
VERTEX
  5
EA
  8
0
 10
-1.119429999999999
 20
0.191414
 30
0.0
 70
    32
  0
VERTEX
  5
EB
  8
0
 10
-1.122379999999999
 20
0.194034
 30
0.0
 70
    32
  0
VERTEX
  5
EC
  8
0
 10
-1.1253799999999989
 20
0.196186
 30
0.0
 70
    32
  0
VERTEX
  5
ED
  8
0
 10
-1.1284000000000001
 20
0.197865
 30
0.0
 70
    32
  0
VERTEX
  5
EE
  8
0
 10
-1.1314500000000001
 20
0.199067
 30
0.0
 70
    32
  0
VERTEX
  5
EF
  8
0
 10
-1.1345099999999999
 20
0.19979
 30
0.0
 70
    32
  0
VERTEX
  5
F0
  8
0
 10
-1.13758
 20
0.200031
 30
0.0
 70
    32
  0
SEQEND
  5
F1
  8
0
  0
LINE
  5
F2
  8
0
 10
-0.2000241576072392
 20
0.2000302621866141
 30
0.0
 11
-1.200072945176778
 21
0.2000308447689023
 31
0.0
  0
LINE
  5
F3
  8
0
 10
-0.2000242748953749
 20
-0.2000880570695926
 30
0.0
 11
-1.2000730624649141
 21
-0.2000874744873045
 31
0.0
  0
LINE
  5
F4
  8
0
 10
-1.200072945176778
 20
0.2000308447689023
 30
0.0
 11
-1.2000487127393711
 21
-0.0000891509307386
 31
0.0
  0
LINE
  5
F5
  8
0
 10
-1.2000487127393711
 20
-0.0000891509307386
 30
0.0
 11
-1.2000730624649141
 21
-0.2000874744873045
 31
0.0
  0
POLYLINE
  5
F6
  8
0
 66
     1
 10
0.0
 20
0.0
 30
0.0
 70
     8
  0
VERTEX
  5
F7
  8
0
 10
-0.637536
 20
0.200031
 30
0.0
 70
    32
  0
VERTEX
  5
F8
  8
0
 10
-0.640602
 20
0.19979
 30
0.0
 70
    32
  0
VERTEX
  5
F9
  8
0
 10
-0.643662
 20
0.199067
 30
0.0
 70
    32
  0
VERTEX
  5
FA
  8
0
 10
-0.646706
 20
0.197865
 30
0.0
 70
    32
  0
VERTEX
  5
FB
  8
0
 10
-0.649729
 20
0.196187
 30
0.0
 70
    32
  0
VERTEX
  5
FC
  8
0
 10
-0.652722
 20
0.194035
 30
0.0
 70
    32
  0
VERTEX
  5
FD
  8
0
 10
-0.655678
 20
0.191416
 30
0.0
 70
    32
  0
VERTEX
  5
FE
  8
0
 10
-0.6585910000000002
 20
0.188336
 30
0.0
 70
    32
  0
VERTEX
  5
FF
  8
0
 10
-0.661453
 20
0.184803
 30
0.0
 70
    32
  0
VERTEX
  5
100
  8
0
 10
-0.664257
 20
0.180823
 30
0.0
 70
    32
  0
VERTEX
  5
101
  8
0
 10
-0.6669970000000001
 20
0.176409
 30
0.0
 70
    32
  0
VERTEX
  5
102
  8
0
 10
-0.669666
 20
0.171569
 30
0.0
 70
    32
  0
VERTEX
  5
103
  8
0
 10
-0.6722580000000001
 20
0.166316
 30
0.0
 70
    32
  0
VERTEX
  5
104
  8
0
 10
-0.674766
 20
0.160662
 30
0.0
 70
    32
  0
VERTEX
  5
105
  8
0
 10
-0.677184
 20
0.154621
 30
0.0
 70
    32
  0
VERTEX
  5
106
  8
0
 10
-0.679507
 20
0.148207
 30
0.0
 70
    32
  0
VERTEX
  5
107
  8
0
 10
-0.681729
 20
0.141437
 30
0.0
 70
    32
  0
VERTEX
  5
108
  8
0
 10
-0.6838440000000001
 20
0.134325
 30
0.0
 70
    32
  0
VERTEX
  5
109
  8
0
 10
-0.685847
 20
0.12689
 30
0.0
 70
    32
  0
VERTEX
  5
10A
  8
0
 10
-0.687735
 20
0.11915
 30
0.0
 70
    32
  0
VERTEX
  5
10B
  8
0
 10
-0.689501
 20
0.111122
 30
0.0
 70
    32
  0
VERTEX
  5
10C
  8
0
 10
-0.6911420000000002
 20
0.102826
 30
0.0
 70
    32
  0
VERTEX
  5
10D
  8
0
 10
-0.6926540000000001
 20
0.0942826
 30
0.0
 70
    32
  0
VERTEX
  5
10E
  8
0
 10
-0.6940330000000001
 20
0.0855121
 30
0.0
 70
    32
  0
VERTEX
  5
10F
  8
0
 10
-0.6952770000000001
 20
0.0765354
 30
0.0
 70
    32
  0
VERTEX
  5
110
  8
0
 10
-0.6963810000000001
 20
0.0673743
 30
0.0
 70
    32
  0
VERTEX
  5
111
  8
0
 10
-0.6973430000000001
 20
0.0580509
 30
0.0
 70
    32
  0
VERTEX
  5
112
  8
0
 10
-0.6981609999999999
 20
0.0485876
 30
0.0
 70
    32
  0
VERTEX
  5
113
  8
0
 10
-0.6988330000000002
 20
0.0390071
 30
0.0
 70
    32
  0
VERTEX
  5
114
  8
0
 10
-0.6993580000000002
 20
0.0293327
 30
0.0
 70
    32
  0
VERTEX
  5
115
  8
0
 10
-0.6997330000000001
 20
0.0195875
 30
0.0
 70
    32
  0
VERTEX
  5
116
  8
0
 10
-0.699959
 20
0.00979506
 30
0.0
 70
    32
  0
VERTEX
  5
117
  8
0
 10
-0.7000340000000001
 20
-0.0000210001
 30
0.0
 70
    32
  0
VERTEX
  5
118
  8
0
 10
-0.699959
 20
-0.00983706
 30
0.0
 70
    32
  0
VERTEX
  5
119
  8
0
 10
-0.6997330000000001
 20
-0.0196295
 30
0.0
 70
    32
  0
VERTEX
  5
11A
  8
0
 10
-0.6993580000000002
 20
-0.0293747
 30
0.0
 70
    32
  0
VERTEX
  5
11B
  8
0
 10
-0.6988330000000002
 20
-0.0390491
 30
0.0
 70
    32
  0
VERTEX
  5
11C
  8
0
 10
-0.6981609999999999
 20
-0.0486296
 30
0.0
 70
    32
  0
VERTEX
  5
11D
  8
0
 10
-0.6973430000000001
 20
-0.0580929
 30
0.0
 70
    32
  0
VERTEX
  5
11E
  8
0
 10
-0.6963810000000001
 20
-0.0674163
 30
0.0
 70
    32
  0
VERTEX
  5
11F
  8
0
 10
-0.6952770000000001
 20
-0.0765774
 30
0.0
 70
    32
  0
VERTEX
  5
120
  8
0
 10
-0.6940340000000002
 20
-0.0855541
 30
0.0
 70
    32
  0
VERTEX
  5
121
  8
0
 10
-0.6926540000000001
 20
-0.0943247
 30
0.0
 70
    32
  0
VERTEX
  5
122
  8
0
 10
-0.6911420000000002
 20
-0.102868
 30
0.0
 70
    32
  0
VERTEX
  5
123
  8
0
 10
-0.689501
 20
-0.111164
 30
0.0
 70
    32
  0
VERTEX
  5
124
  8
0
 10
-0.687735
 20
-0.119192
 30
0.0
 70
    32
  0
VERTEX
  5
125
  8
0
 10
-0.685848
 20
-0.126932
 30
0.0
 70
    32
  0
VERTEX
  5
126
  8
0
 10
-0.6838440000000001
 20
-0.134367
 30
0.0
 70
    32
  0
VERTEX
  5
127
  8
0
 10
-0.681729
 20
-0.141479
 30
0.0
 70
    32
  0
VERTEX
  5
128
  8
0
 10
-0.679507
 20
-0.148249
 30
0.0
 70
    32
  0
VERTEX
  5
129
  8
0
 10
-0.677184
 20
-0.154663
 30
0.0
 70
    32
  0
VERTEX
  5
12A
  8
0
 10
-0.674766
 20
-0.160704
 30
0.0
 70
    32
  0
VERTEX
  5
12B
  8
0
 10
-0.6722580000000001
 20
-0.166358
 30
0.0
 70
    32
  0
VERTEX
  5
12C
  8
0
 10
-0.669666
 20
-0.171611
 30
0.0
 70
    32
  0
VERTEX
  5
12D
  8
0
 10
-0.6669970000000001
 20
-0.176451
 30
0.0
 70
    32
  0
VERTEX
  5
12E
  8
0
 10
-0.664257
 20
-0.180865
 30
0.0
 70
    32
  0
VERTEX
  5
12F
  8
0
 10
-0.661453
 20
-0.184845
 30
0.0
 70
    32
  0
VERTEX
  5
130
  8
0
 10
-0.6585910000000002
 20
-0.188378
 30
0.0
 70
    32
  0
VERTEX
  5
131
  8
0
 10
-0.655678
 20
-0.191458
 30
0.0
 70
    32
  0
VERTEX
  5
132
  8
0
 10
-0.652722
 20
-0.194077
 30
0.0
 70
    32
  0
VERTEX
  5
133
  8
0
 10
-0.649729
 20
-0.196229
 30
0.0
 70
    32
  0
VERTEX
  5
134
  8
0
 10
-0.646706
 20
-0.197907
 30
0.0
 70
    32
  0
VERTEX
  5
135
  8
0
 10
-0.643662
 20
-0.199109
 30
0.0
 70
    32
  0
VERTEX
  5
136
  8
0
 10
-0.640603
 20
-0.199832
 30
0.0
 70
    32
  0
VERTEX
  5
137
  8
0
 10
-0.637536
 20
-0.200073
 30
0.0
 70
    32
  0
VERTEX
  5
138
  8
0
 10
-0.634469
 20
-0.199832
 30
0.0
 70
    32
  0
VERTEX
  5
139
  8
0
 10
-0.63141
 20
-0.199109
 30
0.0
 70
    32
  0
VERTEX
  5
13A
  8
0
 10
-0.628366
 20
-0.197907
 30
0.0
 70
    32
  0
VERTEX
  5
13B
  8
0
 10
-0.625343
 20
-0.196229
 30
0.0
 70
    32
  0
VERTEX
  5
13C
  8
0
 10
-0.62235
 20
-0.194077
 30
0.0
 70
    32
  0
VERTEX
  5
13D
  8
0
 10
-0.619394
 20
-0.191458
 30
0.0
 70
    32
  0
VERTEX
  5
13E
  8
0
 10
-0.6164810000000001
 20
-0.188378
 30
0.0
 70
    32
  0
VERTEX
  5
13F
  8
0
 10
-0.613619
 20
-0.184845
 30
0.0
 70
    32
  0
VERTEX
  5
140
  8
0
 10
-0.6108150000000001
 20
-0.180866
 30
0.0
 70
    32
  0
VERTEX
  5
141
  8
0
 10
-0.608075
 20
-0.176451
 30
0.0
 70
    32
  0
VERTEX
  5
142
  8
0
 10
-0.6054050000000001
 20
-0.171611
 30
0.0
 70
    32
  0
VERTEX
  5
143
  8
0
 10
-0.6028140000000001
 20
-0.166358
 30
0.0
 70
    32
  0
VERTEX
  5
144
  8
0
 10
-0.600306
 20
-0.160704
 30
0.0
 70
    32
  0
VERTEX
  5
145
  8
0
 10
-0.5978880000000001
 20
-0.154663
 30
0.0
 70
    32
  0
VERTEX
  5
146
  8
0
 10
-0.5955650000000001
 20
-0.148249
 30
0.0
 70
    32
  0
VERTEX
  5
147
  8
0
 10
-0.5933430000000001
 20
-0.141479
 30
0.0
 70
    32
  0
VERTEX
  5
148
  8
0
 10
-0.591228
 20
-0.134367
 30
0.0
 70
    32
  0
VERTEX
  5
149
  8
0
 10
-0.589224
 20
-0.126932
 30
0.0
 70
    32
  0
VERTEX
  5
14A
  8
0
 10
-0.587337
 20
-0.119192
 30
0.0
 70
    32
  0
VERTEX
  5
14B
  8
0
 10
-0.585571
 20
-0.111164
 30
0.0
 70
    32
  0
VERTEX
  5
14C
  8
0
 10
-0.583929
 20
-0.102868
 30
0.0
 70
    32
  0
VERTEX
  5
14D
  8
0
 10
-0.582417
 20
-0.0943247
 30
0.0
 70
    32
  0
VERTEX
  5
14E
  8
0
 10
-0.5810380000000001
 20
-0.0855541
 30
0.0
 70
    32
  0
VERTEX
  5
14F
  8
0
 10
-0.579795
 20
-0.0765775
 30
0.0
 70
    32
  0
VERTEX
  5
150
  8
0
 10
-0.578691
 20
-0.0674164
 30
0.0
 70
    32
  0
VERTEX
  5
151
  8
0
 10
-0.5777290000000001
 20
-0.058093
 30
0.0
 70
    32
  0
VERTEX
  5
152
  8
0
 10
-0.576911
 20
-0.0486296
 30
0.0
 70
    32
  0
VERTEX
  5
153
  8
0
 10
-0.5762390000000001
 20
-0.0390492
 30
0.0
 70
    32
  0
VERTEX
  5
154
  8
0
 10
-0.5757140000000001
 20
-0.0293747
 30
0.0
 70
    32
  0
VERTEX
  5
155
  8
0
 10
-0.575339
 20
-0.0196296
 30
0.0
 70
    32
  0
VERTEX
  5
156
  8
0
 10
-0.575113
 20
-0.00983714
 30
0.0
 70
    32
  0
VERTEX
  5
157
  8
0
 10
-0.5750380000000001
 20
-0.0000210729
 30
0.0
 70
    32
  0
VERTEX
  5
158
  8
0
 10
-0.575113
 20
0.00979499
 30
0.0
 70
    32
  0
VERTEX
  5
159
  8
0
 10
-0.575339
 20
0.0195874
 30
0.0
 70
    32
  0
VERTEX
  5
15A
  8
0
 10
-0.5757140000000001
 20
0.0293326
 30
0.0
 70
    32
  0
VERTEX
  5
15B
  8
0
 10
-0.5762390000000001
 20
0.039007
 30
0.0
 70
    32
  0
VERTEX
  5
15C
  8
0
 10
-0.576911
 20
0.0485875
 30
0.0
 70
    32
  0
VERTEX
  5
15D
  8
0
 10
-0.5777290000000001
 20
0.0580508
 30
0.0
 70
    32
  0
VERTEX
  5
15E
  8
0
 10
-0.578691
 20
0.0673743
 30
0.0
 70
    32
  0
VERTEX
  5
15F
  8
0
 10
-0.579795
 20
0.0765353
 30
0.0
 70
    32
  0
VERTEX
  5
160
  8
0
 10
-0.5810380000000001
 20
0.085512
 30
0.0
 70
    32
  0
VERTEX
  5
161
  8
0
 10
-0.582417
 20
0.0942826
 30
0.0
 70
    32
  0
VERTEX
  5
162
  8
0
 10
-0.583929
 20
0.102826
 30
0.0
 70
    32
  0
VERTEX
  5
163
  8
0
 10
-0.5855700000000002
 20
0.111122
 30
0.0
 70
    32
  0
VERTEX
  5
164
  8
0
 10
-0.587337
 20
0.11915
 30
0.0
 70
    32
  0
VERTEX
  5
165
  8
0
 10
-0.589224
 20
0.12689
 30
0.0
 70
    32
  0
VERTEX
  5
166
  8
0
 10
-0.591228
 20
0.134325
 30
0.0
 70
    32
  0
VERTEX
  5
167
  8
0
 10
-0.5933430000000001
 20
0.141437
 30
0.0
 70
    32
  0
VERTEX
  5
168
  8
0
 10
-0.5955650000000001
 20
0.148207
 30
0.0
 70
    32
  0
VERTEX
  5
169
  8
0
 10
-0.597887
 20
0.154621
 30
0.0
 70
    32
  0
VERTEX
  5
16A
  8
0
 10
-0.600306
 20
0.160662
 30
0.0
 70
    32
  0
VERTEX
  5
16B
  8
0
 10
-0.6028140000000001
 20
0.166316
 30
0.0
 70
    32
  0
VERTEX
  5
16C
  8
0
 10
-0.6054050000000001
 20
0.171569
 30
0.0
 70
    32
  0
VERTEX
  5
16D
  8
0
 10
-0.6080740000000001
 20
0.176409
 30
0.0
 70
    32
  0
VERTEX
  5
16E
  8
0
 10
-0.6108140000000001
 20
0.180823
 30
0.0
 70
    32
  0
VERTEX
  5
16F
  8
0
 10
-0.613619
 20
0.184802
 30
0.0
 70
    32
  0
VERTEX
  5
170
  8
0
 10
-0.6164810000000001
 20
0.188336
 30
0.0
 70
    32
  0
VERTEX
  5
171
  8
0
 10
-0.6193930000000001
 20
0.191416
 30
0.0
 70
    32
  0
VERTEX
  5
172
  8
0
 10
-0.62235
 20
0.194035
 30
0.0
 70
    32
  0
VERTEX
  5
173
  8
0
 10
-0.625343
 20
0.196187
 30
0.0
 70
    32
  0
VERTEX
  5
174
  8
0
 10
-0.628365
 20
0.197865
 30
0.0
 70
    32
  0
VERTEX
  5
175
  8
0
 10
-0.63141
 20
0.199067
 30
0.0
 70
    32
  0
VERTEX
  5
176
  8
0
 10
-0.634469
 20
0.19979
 30
0.0
 70
    32
  0
VERTEX
  5
177
  8
0
 10
-0.637536
 20
0.200031
 30
0.0
 70
    32
  0
SEQEND
  5
178
  8
0
  0
POLYLINE
  5
179
  8
0
 66
     1
 10
0.0
 20
0.0
 30
0.0
 70
     8
  0
VERTEX
  5
17A
  8
0
 10
-0.88757
 20
0.200031
 30
0.0
 70
    32
  0
VERTEX
  5
17B
  8
0
 10
-0.8906379999999998
 20
0.19979
 30
0.0
 70
    32
  0
VERTEX
  5
17C
  8
0
 10
-0.893698
 20
0.199067
 30
0.0
 70
    32
  0
VERTEX
  5
17D
  8
0
 10
-0.8967440000000001
 20
0.197865
 30
0.0
 70
    32
  0
VERTEX
  5
17E
  8
0
 10
-0.8997669999999999
 20
0.196186
 30
0.0
 70
    32
  0
VERTEX
  5
17F
  8
0
 10
-0.9027610000000002
 20
0.194034
 30
0.0
 70
    32
  0
VERTEX
  5
180
  8
0
 10
-0.9057190000000001
 20
0.191415
 30
0.0
 70
    32
  0
VERTEX
  5
181
  8
0
 10
-0.908633
 20
0.188335
 30
0.0
 70
    32
  0
VERTEX
  5
182
  8
0
 10
-0.9114959999999998
 20
0.1848
 30
0.0
 70
    32
  0
VERTEX
  5
183
  8
0
 10
-0.914301
 20
0.180821
 30
0.0
 70
    32
  0
VERTEX
  5
184
  8
0
 10
-0.917042
 20
0.176405
 30
0.0
 70
    32
  0
VERTEX
  5
185
  8
0
 10
-0.9197120000000001
 20
0.171565
 30
0.0
 70
    32
  0
VERTEX
  5
186
  8
0
 10
-0.9223049999999998
 20
0.166311
 30
0.0
 70
    32
  0
VERTEX
  5
187
  8
0
 10
-0.9248139999999999
 20
0.160656
 30
0.0
 70
    32
  0
VERTEX
  5
188
  8
0
 10
-0.927233
 20
0.154614
 30
0.0
 70
    32
  0
VERTEX
  5
189
  8
0
 10
-0.9295560000000001
 20
0.1482
 30
0.0
 70
    32
  0
VERTEX
  5
18A
  8
0
 10
-0.9317790000000003
 20
0.141428
 30
0.0
 70
    32
  0
VERTEX
  5
18B
  8
0
 10
-0.933895
 20
0.134316
 30
0.0
 70
    32
  0
VERTEX
  5
18C
  8
0
 10
-0.9358989999999998
 20
0.126879
 30
0.0
 70
    32
  0
VERTEX
  5
18D
  8
0
 10
-0.9377869999999999
 20
0.119137
 30
0.0
 70
    32
  0
VERTEX
  5
18E
  8
0
 10
-0.939554
 20
0.111108
 30
0.0
 70
    32
  0
VERTEX
  5
18F
  8
0
 10
-0.9411959999999998
 20
0.102811
 30
0.0
 70
    32
  0
VERTEX
  5
190
  8
0
 10
-0.942708
 20
0.0942667
 30
0.0
 70
    32
  0
VERTEX
  5
191
  8
0
 10
-0.9440879999999999
 20
0.0854948
 30
0.0
 70
    32
  0
VERTEX
  5
192
  8
0
 10
-0.945332
 20
0.0765168
 30
0.0
 70
    32
  0
VERTEX
  5
193
  8
0
 10
-0.9464360000000001
 20
0.0673543
 30
0.0
 70
    32
  0
VERTEX
  5
194
  8
0
 10
-0.947399
 20
0.0580295
 30
0.0
 70
    32
  0
VERTEX
  5
195
  8
0
 10
-0.9482169999999999
 20
0.0485647
 30
0.0
 70
    32
  0
VERTEX
  5
196
  8
0
 10
-0.9488889999999999
 20
0.0389828
 30
0.0
 70
    32
  0
VERTEX
  5
197
  8
0
 10
-0.9494139999999999
 20
0.0293068
 30
0.0
 70
    32
  0
VERTEX
  5
198
  8
0
 10
-0.9497899999999999
 20
0.0195602
 30
0.0
 70
    32
  0
VERTEX
  5
199
  8
0
 10
-0.9500149999999999
 20
0.00976628
 30
0.0
 70
    32
  0
VERTEX
  5
19A
  8
0
 10
-0.9500910000000001
 20
-0.0000512766
 30
0.0
 70
    32
  0
VERTEX
  5
19B
  8
0
 10
-0.9500159999999999
 20
-0.00986883
 30
0.0
 70
    32
  0
VERTEX
  5
19C
  8
0
 10
-0.9497899999999999
 20
-0.0196627
 30
0.0
 70
    32
  0
VERTEX
  5
19D
  8
0
 10
-0.9494139999999999
 20
-0.0294094
 30
0.0
 70
    32
  0
VERTEX
  5
19E
  8
0
 10
-0.9488900000000001
 20
-0.0390853
 30
0.0
 70
    32
  0
VERTEX
  5
19F
  8
0
 10
-0.9482169999999999
 20
-0.0486672
 30
0.0
 70
    32
  0
VERTEX
  5
1A0
  8
0
 10
-0.947399
 20
-0.058132
 30
0.0
 70
    32
  0
VERTEX
  5
1A1
  8
0
 10
-0.9464360000000001
 20
-0.0674569
 30
0.0
 70
    32
  0
VERTEX
  5
1A2
  8
0
 10
-0.945332
 20
-0.0766193
 30
0.0
 70
    32
  0
VERTEX
  5
1A3
  8
0
 10
-0.9440879999999999
 20
-0.0855973
 30
0.0
 70
    32
  0
VERTEX
  5
1A4
  8
0
 10
-0.9427089999999999
 20
-0.0943693
 30
0.0
 70
    32
  0
VERTEX
  5
1A5
  8
0
 10
-0.9411959999999998
 20
-0.102914
 30
0.0
 70
    32
  0
VERTEX
  5
1A6
  8
0
 10
-0.939554
 20
-0.111211
 30
0.0
 70
    32
  0
VERTEX
  5
1A7
  8
0
 10
-0.9377869999999999
 20
-0.11924
 30
0.0
 70
    32
  0
VERTEX
  5
1A8
  8
0
 10
-0.9358989999999998
 20
-0.126982
 30
0.0
 70
    32
  0
VERTEX
  5
1A9
  8
0
 10
-0.933895
 20
-0.134418
 30
0.0
 70
    32
  0
VERTEX
  5
1AA
  8
0
 10
-0.9317790000000003
 20
-0.141531
 30
0.0
 70
    32
  0
VERTEX
  5
1AB
  8
0
 10
-0.9295569999999999
 20
-0.148302
 30
0.0
 70
    32
  0
VERTEX
  5
1AC
  8
0
 10
-0.927233
 20
-0.154717
 30
0.0
 70
    32
  0
VERTEX
  5
1AD
  8
0
 10
-0.9248139999999999
 20
-0.160759
 30
0.0
 70
    32
  0
VERTEX
  5
1AE
  8
0
 10
-0.9223049999999998
 20
-0.166413
 30
0.0
 70
    32
  0
VERTEX
  5
1AF
  8
0
 10
-0.9197120000000001
 20
-0.171667
 30
0.0
 70
    32
  0
VERTEX
  5
1B0
  8
0
 10
-0.917042
 20
-0.176508
 30
0.0
 70
    32
  0
VERTEX
  5
1B1
  8
0
 10
-0.914301
 20
-0.180923
 30
0.0
 70
    32
  0
VERTEX
  5
1B2
  8
0
 10
-0.9114959999999998
 20
-0.184903
 30
0.0
 70
    32
  0
VERTEX
  5
1B3
  8
0
 10
-0.908633
 20
-0.188437
 30
0.0
 70
    32
  0
VERTEX
  5
1B4
  8
0
 10
-0.9057190000000001
 20
-0.191518
 30
0.0
 70
    32
  0
VERTEX
  5
1B5
  8
0
 10
-0.902762
 20
-0.194137
 30
0.0
 70
    32
  0
VERTEX
  5
1B6
  8
0
 10
-0.899768
 20
-0.196289
 30
0.0
 70
    32
  0
VERTEX
  5
1B7
  8
0
 10
-0.8967440000000001
 20
-0.197968
 30
0.0
 70
    32
  0
VERTEX
  5
1B8
  8
0
 10
-0.893698
 20
-0.19917
 30
0.0
 70
    32
  0
VERTEX
  5
1B9
  8
0
 10
-0.8906379999999998
 20
-0.199892
 30
0.0
 70
    32
  0
VERTEX
  5
1BA
  8
0
 10
-0.88757
 20
-0.200133
 30
0.0
 70
    32
  0
VERTEX
  5
1BB
  8
0
 10
-0.8845030000000002
 20
-0.199892
 30
0.0
 70
    32
  0
VERTEX
  5
1BC
  8
0
 10
-0.881442
 20
-0.19917
 30
0.0
 70
    32
  0
VERTEX
  5
1BD
  8
0
 10
-0.878397
 20
-0.197968
 30
0.0
 70
    32
  0
VERTEX
  5
1BE
  8
0
 10
-0.8753729999999999
 20
-0.196289
 30
0.0
 70
    32
  0
VERTEX
  5
1BF
  8
0
 10
-0.8723790000000001
 20
-0.194137
 30
0.0
 70
    32
  0
VERTEX
  5
1C0
  8
0
 10
-0.8694219999999999
 20
-0.191518
 30
0.0
 70
    32
  0
VERTEX
  5
1C1
  8
0
 10
-0.8665079999999999
 20
-0.188437
 30
0.0
 70
    32
  0
VERTEX
  5
1C2
  8
0
 10
-0.8636450000000001
 20
-0.184903
 30
0.0
 70
    32
  0
VERTEX
  5
1C3
  8
0
 10
-0.8608389999999999
 20
-0.180923
 30
0.0
 70
    32
  0
VERTEX
  5
1C4
  8
0
 10
-0.8580979999999998
 20
-0.176508
 30
0.0
 70
    32
  0
VERTEX
  5
1C5
  8
0
 10
-0.855428
 20
-0.171667
 30
0.0
 70
    32
  0
VERTEX
  5
1C6
  8
0
 10
-0.8528360000000002
 20
-0.166413
 30
0.0
 70
    32
  0
VERTEX
  5
1C7
  8
0
 10
-0.8503270000000001
 20
-0.160759
 30
0.0
 70
    32
  0
VERTEX
  5
1C8
  8
0
 10
-0.8479079999999999
 20
-0.154717
 30
0.0
 70
    32
  0
VERTEX
  5
1C9
  8
0
 10
-0.845584
 20
-0.148302
 30
0.0
 70
    32
  0
VERTEX
  5
1CA
  8
0
 10
-0.8433620000000001
 20
-0.141531
 30
0.0
 70
    32
  0
VERTEX
  5
1CB
  8
0
 10
-0.8412459999999999
 20
-0.134418
 30
0.0
 70
    32
  0
VERTEX
  5
1CC
  8
0
 10
-0.8392409999999999
 20
-0.126982
 30
0.0
 70
    32
  0
VERTEX
  5
1CD
  8
0
 10
-0.837353
 20
-0.11924
 30
0.0
 70
    32
  0
VERTEX
  5
1CE
  8
0
 10
-0.8355859999999999
 20
-0.111211
 30
0.0
 70
    32
  0
VERTEX
  5
1CF
  8
0
 10
-0.8339450000000001
 20
-0.102914
 30
0.0
 70
    32
  0
VERTEX
  5
1D0
  8
0
 10
-0.832432
 20
-0.0943693
 30
0.0
 70
    32
  0
VERTEX
  5
1D1
  8
0
 10
-0.831052
 20
-0.0855974
 30
0.0
 70
    32
  0
VERTEX
  5
1D2
  8
0
 10
-0.829809
 20
-0.0766194
 30
0.0
 70
    32
  0
VERTEX
  5
1D3
  8
0
 10
-0.8287040000000001
 20
-0.0674569
 30
0.0
 70
    32
  0
VERTEX
  5
1D4
  8
0
 10
-0.8277419999999999
 20
-0.0581321
 30
0.0
 70
    32
  0
VERTEX
  5
1D5
  8
0
 10
-0.826923
 20
-0.0486673
 30
0.0
 70
    32
  0
VERTEX
  5
1D6
  8
0
 10
-0.826251
 20
-0.0390854
 30
0.0
 70
    32
  0
VERTEX
  5
1D7
  8
0
 10
-0.825726
 20
-0.0294095
 30
0.0
 70
    32
  0
VERTEX
  5
1D8
  8
0
 10
-0.825351
 20
-0.0196628
 30
0.0
 70
    32
  0
VERTEX
  5
1D9
  8
0
 10
-0.825125
 20
-0.00986891
 30
0.0
 70
    32
  0
VERTEX
  5
1DA
  8
0
 10
-0.8250499999999998
 20
-0.0000513495
 30
0.0
 70
    32
  0
VERTEX
  5
1DB
  8
0
 10
-0.825125
 20
0.00976621
 30
0.0
 70
    32
  0
VERTEX
  5
1DC
  8
0
 10
-0.825351
 20
0.0195601
 30
0.0
 70
    32
  0
VERTEX
  5
1DD
  8
0
 10
-0.825726
 20
0.0293068
 30
0.0
 70
    32
  0
VERTEX
  5
1DE
  8
0
 10
-0.826251
 20
0.0389827
 30
0.0
 70
    32
  0
VERTEX
  5
1DF
  8
0
 10
-0.826923
 20
0.0485646
 30
0.0
 70
    32
  0
VERTEX
  5
1E0
  8
0
 10
-0.8277419999999999
 20
0.0580294
 30
0.0
 70
    32
  0
VERTEX
  5
1E1
  8
0
 10
-0.8287040000000001
 20
0.0673542
 30
0.0
 70
    32
  0
VERTEX
  5
1E2
  8
0
 10
-0.829809
 20
0.0765167
 30
0.0
 70
    32
  0
VERTEX
  5
1E3
  8
0
 10
-0.831052
 20
0.0854947
 30
0.0
 70
    32
  0
VERTEX
  5
1E4
  8
0
 10
-0.832432
 20
0.0942666
 30
0.0
 70
    32
  0
VERTEX
  5
1E5
  8
0
 10
-0.8339439999999999
 20
0.102811
 30
0.0
 70
    32
  0
VERTEX
  5
1E6
  8
0
 10
-0.8355859999999999
 20
0.111108
 30
0.0
 70
    32
  0
VERTEX
  5
1E7
  8
0
 10
-0.837353
 20
0.119137
 30
0.0
 70
    32
  0
VERTEX
  5
1E8
  8
0
 10
-0.8392409999999999
 20
0.126879
 30
0.0
 70
    32
  0
VERTEX
  5
1E9
  8
0
 10
-0.8412449999999999
 20
0.134316
 30
0.0
 70
    32
  0
VERTEX
  5
1EA
  8
0
 10
-0.8433609999999999
 20
0.141428
 30
0.0
 70
    32
  0
VERTEX
  5
1EB
  8
0
 10
-0.845584
 20
0.1482
 30
0.0
 70
    32
  0
VERTEX
  5
1EC
  8
0
 10
-0.8479079999999999
 20
0.154614
 30
0.0
 70
    32
  0
VERTEX
  5
1ED
  8
0
 10
-0.8503270000000001
 20
0.160656
 30
0.0
 70
    32
  0
VERTEX
  5
1EE
  8
0
 10
-0.8528360000000002
 20
0.166311
 30
0.0
 70
    32
  0
VERTEX
  5
1EF
  8
0
 10
-0.855428
 20
0.171565
 30
0.0
 70
    32
  0
VERTEX
  5
1F0
  8
0
 10
-0.8580979999999998
 20
0.176405
 30
0.0
 70
    32
  0
VERTEX
  5
1F1
  8
0
 10
-0.8608389999999999
 20
0.180821
 30
0.0
 70
    32
  0
VERTEX
  5
1F2
  8
0
 10
-0.8636450000000001
 20
0.1848
 30
0.0
 70
    32
  0
VERTEX
  5
1F3
  8
0
 10
-0.8665079999999999
 20
0.188335
 30
0.0
 70
    32
  0
VERTEX
  5
1F4
  8
0
 10
-0.8694209999999998
 20
0.191415
 30
0.0
 70
    32
  0
VERTEX
  5
1F5
  8
0
 10
-0.8723790000000001
 20
0.194034
 30
0.0
 70
    32
  0
VERTEX
  5
1F6
  8
0
 10
-0.8753729999999999
 20
0.196186
 30
0.0
 70
    32
  0
VERTEX
  5
1F7
  8
0
 10
-0.878396
 20
0.197865
 30
0.0
 70
    32
  0
VERTEX
  5
1F8
  8
0
 10
-0.881442
 20
0.199067
 30
0.0
 70
    32
  0
VERTEX
  5
1F9
  8
0
 10
-0.8845019999999999
 20
0.19979
 30
0.0
 70
    32
  0
VERTEX
  5
1FA
  8
0
 10
-0.88757
 20
0.200031
 30
0.0
 70
    32
  0
SEQEND
  5
1FB
  8
0
  0
POLYLINE
  5
1FC
  8
0
 66
     1
 10
0.0
 20
0.0
 30
0.0
 70
     8
  0
VERTEX
  5
1FD
  8
0
 10
-1.012589999999999
 20
0.200031
 30
0.0
 70
    32
  0
VERTEX
  5
1FE
  8
0
 10
-1.01566
 20
0.19979
 30
0.0
 70
    32
  0
VERTEX
  5
1FF
  8
0
 10
-1.01871
 20
0.199067
 30
0.0
 70
    32
  0
VERTEX
  5
200
  8
0
 10
-1.02176
 20
0.197865
 30
0.0
 70
    32
  0
VERTEX
  5
201
  8
0
 10
-1.02478
 20
0.196186
 30
0.0
 70
    32
  0
VERTEX
  5
202
  8
0
 10
-1.0277700000000001
 20
0.194034
 30
0.0
 70
    32
  0
VERTEX
  5
203
  8
0
 10
-1.030729999999999
 20
0.191415
 30
0.0
 70
    32
  0
VERTEX
  5
204
  8
0
 10
-1.033639999999999
 20
0.188334
 30
0.0
 70
    32
  0
VERTEX
  5
205
  8
0
 10
-1.0364999999999991
 20
0.184799
 30
0.0
 70
    32
  0
VERTEX
  5
206
  8
0
 10
-1.0393099999999991
 20
0.180819
 30
0.0
 70
    32
  0
VERTEX
  5
207
  8
0
 10
-1.042049999999999
 20
0.176404
 30
0.0
 70
    32
  0
VERTEX
  5
208
  8
0
 10
-1.0447200000000001
 20
0.171563
 30
0.0
 70
    32
  0
VERTEX
  5
209
  8
0
 10
-1.0473099999999991
 20
0.166308
 30
0.0
 70
    32
  0
VERTEX
  5
20A
  8
0
 10
-1.0498099999999999
 20
0.160653
 30
0.0
 70
    32
  0
VERTEX
  5
20B
  8
0
 10
-1.0522299999999991
 20
0.154611
 30
0.0
 70
    32
  0
VERTEX
  5
20C
  8
0
 10
-1.0545500000000001
 20
0.148196
 30
0.0
 70
    32
  0
VERTEX
  5
20D
  8
0
 10
-1.0567799999999989
 20
0.141424
 30
0.0
 70
    32
  0
VERTEX
  5
20E
  8
0
 10
-1.058889999999999
 20
0.134311
 30
0.0
 70
    32
  0
VERTEX
  5
20F
  8
0
 10
-1.060889999999999
 20
0.126874
 30
0.0
 70
    32
  0
VERTEX
  5
210
  8
0
 10
-1.0627799999999989
 20
0.119131
 30
0.0
 70
    32
  0
VERTEX
  5
211
  8
0
 10
-1.0645500000000001
 20
0.111102
 30
0.0
 70
    32
  0
VERTEX
  5
212
  8
0
 10
-1.0661899999999991
 20
0.102804
 30
0.0
 70
    32
  0
VERTEX
  5
213
  8
0
 10
-1.0677000000000001
 20
0.0942587
 30
0.0
 70
    32
  0
VERTEX
  5
214
  8
0
 10
-1.06908
 20
0.0854862
 30
0.0
 70
    32
  0
VERTEX
  5
215
  8
0
 10
-1.0703199999999999
 20
0.0765075
 30
0.0
 70
    32
  0
VERTEX
  5
216
  8
0
 10
-1.071429999999999
 20
0.0673443
 30
0.0
 70
    32
  0
VERTEX
  5
217
  8
0
 10
-1.0723899999999991
 20
0.0580187
 30
0.0
 70
    32
  0
VERTEX
  5
218
  8
0
 10
-1.0732099999999991
 20
0.0485532
 30
0.0
 70
    32
  0
VERTEX
  5
219
  8
0
 10
-1.0738799999999991
 20
0.0389706
 30
0.0
 70
    32
  0
VERTEX
  5
21A
  8
0
 10
-1.0744
 20
0.0292939
 30
0.0
 70
    32
  0
VERTEX
  5
21B
  8
0
 10
-1.074779999999999
 20
0.0195465
 30
0.0
 70
    32
  0
VERTEX
  5
21C
  8
0
 10
-1.0749999999999991
 20
0.00975189
 30
0.0
 70
    32
  0
VERTEX
  5
21D
  8
0
 10
-1.07508
 20
-0.0000664151
 30
0.0
 70
    32
  0
VERTEX
  5
21E
  8
0
 10
-1.0749999999999991
 20
-0.00988472
 30
0.0
 70
    32
  0
VERTEX
  5
21F
  8
0
 10
-1.074779999999999
 20
-0.0196794
 30
0.0
 70
    32
  0
VERTEX
  5
220
  8
0
 10
-1.0744
 20
-0.0294268
 30
0.0
 70
    32
  0
VERTEX
  5
221
  8
0
 10
-1.0738799999999991
 20
-0.0391034
 30
0.0
 70
    32
  0
VERTEX
  5
222
  8
0
 10
-1.0732099999999991
 20
-0.0486861
 30
0.0
 70
    32
  0
VERTEX
  5
223
  8
0
 10
-1.0723899999999991
 20
-0.0581516
 30
0.0
 70
    32
  0
VERTEX
  5
224
  8
0
 10
-1.071429999999999
 20
-0.0674771
 30
0.0
 70
    32
  0
VERTEX
  5
225
  8
0
 10
-1.0703199999999999
 20
-0.0766403
 30
0.0
 70
    32
  0
VERTEX
  5
226
  8
0
 10
-1.06908
 20
-0.085619
 30
0.0
 70
    32
  0
VERTEX
  5
227
  8
0
 10
-1.0677000000000001
 20
-0.0943916
 30
0.0
 70
    32
  0
VERTEX
  5
228
  8
0
 10
-1.0661899999999991
 20
-0.102937
 30
0.0
 70
    32
  0
VERTEX
  5
229
  8
0
 10
-1.0645500000000001
 20
-0.111234
 30
0.0
 70
    32
  0
VERTEX
  5
22A
  8
0
 10
-1.0627799999999989
 20
-0.119264
 30
0.0
 70
    32
  0
VERTEX
  5
22B
  8
0
 10
-1.060889999999999
 20
-0.127007
 30
0.0
 70
    32
  0
VERTEX
  5
22C
  8
0
 10
-1.058889999999999
 20
-0.134443
 30
0.0
 70
    32
  0
VERTEX
  5
22D
  8
0
 10
-1.0567799999999989
 20
-0.141557
 30
0.0
 70
    32
  0
VERTEX
  5
22E
  8
0
 10
-1.0545500000000001
 20
-0.148329
 30
0.0
 70
    32
  0
VERTEX
  5
22F
  8
0
 10
-1.0522299999999991
 20
-0.154744
 30
0.0
 70
    32
  0
VERTEX
  5
230
  8
0
 10
-1.0498099999999999
 20
-0.160786
 30
0.0
 70
    32
  0
VERTEX
  5
231
  8
0
 10
-1.0473099999999991
 20
-0.166441
 30
0.0
 70
    32
  0
VERTEX
  5
232
  8
0
 10
-1.0447200000000001
 20
-0.171696
 30
0.0
 70
    32
  0
VERTEX
  5
233
  8
0
 10
-1.042049999999999
 20
-0.176536
 30
0.0
 70
    32
  0
VERTEX
  5
234
  8
0
 10
-1.0393099999999991
 20
-0.180952
 30
0.0
 70
    32
  0
VERTEX
  5
235
  8
0
 10
-1.0364999999999991
 20
-0.184932
 30
0.0
 70
    32
  0
VERTEX
  5
236
  8
0
 10
-1.033639999999999
 20
-0.188467
 30
0.0
 70
    32
  0
VERTEX
  5
237
  8
0
 10
-1.030729999999999
 20
-0.191548
 30
0.0
 70
    32
  0
VERTEX
  5
238
  8
0
 10
-1.0277700000000001
 20
-0.194167
 30
0.0
 70
    32
  0
VERTEX
  5
239
  8
0
 10
-1.02478
 20
-0.196319
 30
0.0
 70
    32
  0
VERTEX
  5
23A
  8
0
 10
-1.02176
 20
-0.197998
 30
0.0
 70
    32
  0
VERTEX
  5
23B
  8
0
 10
-1.01871
 20
-0.1992
 30
0.0
 70
    32
  0
VERTEX
  5
23C
  8
0
 10
-1.01566
 20
-0.199923
 30
0.0
 70
    32
  0
VERTEX
  5
23D
  8
0
 10
-1.012589999999999
 20
-0.200164
 30
0.0
 70
    32
  0
VERTEX
  5
23E
  8
0
 10
-1.0095199999999991
 20
-0.199923
 30
0.0
 70
    32
  0
VERTEX
  5
23F
  8
0
 10
-1.0064599999999999
 20
-0.1992
 30
0.0
 70
    32
  0
VERTEX
  5
240
  8
0
 10
-1.0034199999999991
 20
-0.197998
 30
0.0
 70
    32
  0
VERTEX
  5
241
  8
0
 10
-1.0003999999999991
 20
-0.196319
 30
0.0
 70
    32
  0
VERTEX
  5
242
  8
0
 10
-0.9974049999999998
 20
-0.194167
 30
0.0
 70
    32
  0
VERTEX
  5
243
  8
0
 10
-0.994449
 20
-0.191548
 30
0.0
 70
    32
  0
VERTEX
  5
244
  8
0
 10
-0.9915370000000001
 20
-0.188467
 30
0.0
 70
    32
  0
VERTEX
  5
245
  8
0
 10
-0.9886749999999999
 20
-0.184932
 30
0.0
 70
    32
  0
VERTEX
  5
246
  8
0
 10
-0.9858709999999998
 20
-0.180952
 30
0.0
 70
    32
  0
VERTEX
  5
247
  8
0
 10
-0.983131
 20
-0.176536
 30
0.0
 70
    32
  0
VERTEX
  5
248
  8
0
 10
-0.9804629999999999
 20
-0.171696
 30
0.0
 70
    32
  0
VERTEX
  5
249
  8
0
 10
-0.9778710000000001
 20
-0.166441
 30
0.0
 70
    32
  0
VERTEX
  5
24A
  8
0
 10
-0.9753639999999998
 20
-0.160786
 30
0.0
 70
    32
  0
VERTEX
  5
24B
  8
0
 10
-0.9729459999999999
 20
-0.154744
 30
0.0
 70
    32
  0
VERTEX
  5
24C
  8
0
 10
-0.9706229999999999
 20
-0.148329
 30
0.0
 70
    32
  0
VERTEX
  5
24D
  8
0
 10
-0.968402
 20
-0.141557
 30
0.0
 70
    32
  0
VERTEX
  5
24E
  8
0
 10
-0.9662870000000001
 20
-0.134444
 30
0.0
 70
    32
  0
VERTEX
  5
24F
  8
0
 10
-0.964283
 20
-0.127007
 30
0.0
 70
    32
  0
VERTEX
  5
250
  8
0
 10
-0.9623959999999998
 20
-0.119264
 30
0.0
 70
    32
  0
VERTEX
  5
251
  8
0
 10
-0.9606299999999999
 20
-0.111235
 30
0.0
 70
    32
  0
VERTEX
  5
252
  8
0
 10
-0.958989
 20
-0.102937
 30
0.0
 70
    32
  0
VERTEX
  5
253
  8
0
 10
-0.9574780000000001
 20
-0.0943916
 30
0.0
 70
    32
  0
VERTEX
  5
254
  8
0
 10
-0.956099
 20
-0.0856191
 30
0.0
 70
    32
  0
VERTEX
  5
255
  8
0
 10
-0.9548559999999998
 20
-0.0766404
 30
0.0
 70
    32
  0
VERTEX
  5
256
  8
0
 10
-0.953752
 20
-0.0674772
 30
0.0
 70
    32
  0
VERTEX
  5
257
  8
0
 10
-0.9527899999999998
 20
-0.0581516
 30
0.0
 70
    32
  0
VERTEX
  5
258
  8
0
 10
-0.9519719999999999
 20
-0.0486861
 30
0.0
 70
    32
  0
VERTEX
  5
259
  8
0
 10
-0.9512999999999999
 20
-0.0391035
 30
0.0
 70
    32
  0
VERTEX
  5
25A
  8
0
 10
-0.9507749999999999
 20
-0.0294268
 30
0.0
 70
    32
  0
VERTEX
  5
25B
  8
0
 10
-0.9503999999999999
 20
-0.0196794
 30
0.0
 70
    32
  0
VERTEX
  5
25C
  8
0
 10
-0.9501739999999999
 20
-0.00988479
 30
0.0
 70
    32
  0
VERTEX
  5
25D
  8
0
 10
-0.9500989999999999
 20
-0.0000664879
 30
0.0
 70
    32
  0
VERTEX
  5
25E
  8
0
 10
-0.9501739999999999
 20
0.00975182
 30
0.0
 70
    32
  0
VERTEX
  5
25F
  8
0
 10
-0.9503999999999999
 20
0.0195465
 30
0.0
 70
    32
  0
VERTEX
  5
260
  8
0
 10
-0.9507749999999999
 20
0.0292939
 30
0.0
 70
    32
  0
VERTEX
  5
261
  8
0
 10
-0.951299
 20
0.0389705
 30
0.0
 70
    32
  0
VERTEX
  5
262
  8
0
 10
-0.9519719999999999
 20
0.0485532
 30
0.0
 70
    32
  0
VERTEX
  5
263
  8
0
 10
-0.9527899999999998
 20
0.0580187
 30
0.0
 70
    32
  0
VERTEX
  5
264
  8
0
 10
-0.953752
 20
0.0673442
 30
0.0
 70
    32
  0
VERTEX
  5
265
  8
0
 10
-0.9548559999999998
 20
0.0765074
 30
0.0
 70
    32
  0
VERTEX
  5
266
  8
0
 10
-0.956098
 20
0.0854861
 30
0.0
 70
    32
  0
VERTEX
  5
267
  8
0
 10
-0.957477
 20
0.0942587
 30
0.0
 70
    32
  0
VERTEX
  5
268
  8
0
 10
-0.958989
 20
0.102804
 30
0.0
 70
    32
  0
VERTEX
  5
269
  8
0
 10
-0.9606299999999999
 20
0.111102
 30
0.0
 70
    32
  0
VERTEX
  5
26A
  8
0
 10
-0.9623959999999998
 20
0.119131
 30
0.0
 70
    32
  0
VERTEX
  5
26B
  8
0
 10
-0.964283
 20
0.126874
 30
0.0
 70
    32
  0
VERTEX
  5
26C
  8
0
 10
-0.9662870000000001
 20
0.134311
 30
0.0
 70
    32
  0
VERTEX
  5
26D
  8
0
 10
-0.968402
 20
0.141424
 30
0.0
 70
    32
  0
VERTEX
  5
26E
  8
0
 10
-0.9706229999999999
 20
0.148196
 30
0.0
 70
    32
  0
VERTEX
  5
26F
  8
0
 10
-0.9729459999999999
 20
0.154611
 30
0.0
 70
    32
  0
VERTEX
  5
270
  8
0
 10
-0.9753639999999998
 20
0.160653
 30
0.0
 70
    32
  0
VERTEX
  5
271
  8
0
 10
-0.9778710000000001
 20
0.166308
 30
0.0
 70
    32
  0
VERTEX
  5
272
  8
0
 10
-0.9804619999999999
 20
0.171563
 30
0.0
 70
    32
  0
VERTEX
  5
273
  8
0
 10
-0.983131
 20
0.176403
 30
0.0
 70
    32
  0
VERTEX
  5
274
  8
0
 10
-0.9858709999999998
 20
0.180819
 30
0.0
 70
    32
  0
VERTEX
  5
275
  8
0
 10
-0.9886749999999999
 20
0.184799
 30
0.0
 70
    32
  0
VERTEX
  5
276
  8
0
 10
-0.9915370000000001
 20
0.188334
 30
0.0
 70
    32
  0
VERTEX
  5
277
  8
0
 10
-0.994449
 20
0.191415
 30
0.0
 70
    32
  0
VERTEX
  5
278
  8
0
 10
-0.9974049999999998
 20
0.194034
 30
0.0
 70
    32
  0
VERTEX
  5
279
  8
0
 10
-1.0003999999999991
 20
0.196186
 30
0.0
 70
    32
  0
VERTEX
  5
27A
  8
0
 10
-1.0034199999999991
 20
0.197865
 30
0.0
 70
    32
  0
VERTEX
  5
27B
  8
0
 10
-1.0064599999999999
 20
0.199067
 30
0.0
 70
    32
  0
VERTEX
  5
27C
  8
0
 10
-1.0095199999999991
 20
0.19979
 30
0.0
 70
    32
  0
VERTEX
  5
27D
  8
0
 10
-1.012589999999999
 20
0.200031
 30
0.0
 70
    32
  0
SEQEND
  5
27E
  8
0
  0
POLYLINE
  5
27F
  8
0
 66
     1
 10
0.0
 20
0.0
 30
0.0
 70
     8
  0
VERTEX
  5
280
  8
0
 10
-0.7625460000000001
 20
0.200031
 30
0.0
 70
    32
  0
VERTEX
  5
281
  8
0
 10
-0.765613
 20
0.19979
 30
0.0
 70
    32
  0
VERTEX
  5
282
  8
0
 10
-0.7686720000000001
 20
0.199067
 30
0.0
 70
    32
  0
VERTEX
  5
283
  8
0
 10
-0.771717
 20
0.197865
 30
0.0
 70
    32
  0
VERTEX
  5
284
  8
0
 10
-0.7747390000000001
 20
0.196186
 30
0.0
 70
    32
  0
VERTEX
  5
285
  8
0
 10
-0.777732
 20
0.194035
 30
0.0
 70
    32
  0
VERTEX
  5
286
  8
0
 10
-0.7806890000000001
 20
0.191416
 30
0.0
 70
    32
  0
VERTEX
  5
287
  8
0
 10
-0.783601
 20
0.188336
 30
0.0
 70
    32
  0
VERTEX
  5
288
  8
0
 10
-0.786463
 20
0.184802
 30
0.0
 70
    32
  0
VERTEX
  5
289
  8
0
 10
-0.7892680000000001
 20
0.180822
 30
0.0
 70
    32
  0
VERTEX
  5
28A
  8
0
 10
-0.7920080000000001
 20
0.176407
 30
0.0
 70
    32
  0
VERTEX
  5
28B
  8
0
 10
-0.7946770000000001
 20
0.171567
 30
0.0
 70
    32
  0
VERTEX
  5
28C
  8
0
 10
-0.797268
 20
0.166314
 30
0.0
 70
    32
  0
VERTEX
  5
28D
  8
0
 10
-0.7997760000000002
 20
0.16066
 30
0.0
 70
    32
  0
VERTEX
  5
28E
  8
0
 10
-0.802195
 20
0.154618
 30
0.0
 70
    32
  0
VERTEX
  5
28F
  8
0
 10
-0.804518
 20
0.148204
 30
0.0
 70
    32
  0
VERTEX
  5
290
  8
0
 10
-0.8067389999999999
 20
0.141433
 30
0.0
 70
    32
  0
VERTEX
  5
291
  8
0
 10
-0.808854
 20
0.134322
 30
0.0
 70
    32
  0
VERTEX
  5
292
  8
0
 10
-0.8108579999999999
 20
0.126886
 30
0.0
 70
    32
  0
VERTEX
  5
293
  8
0
 10
-0.8127449999999999
 20
0.119145
 30
0.0
 70
    32
  0
VERTEX
  5
294
  8
0
 10
-0.814512
 20
0.111117
 30
0.0
 70
    32
  0
VERTEX
  5
295
  8
0
 10
-0.816153
 20
0.10282
 30
0.0
 70
    32
  0
VERTEX
  5
296
  8
0
 10
-0.817665
 20
0.0942765
 30
0.0
 70
    32
  0
VERTEX
  5
297
  8
0
 10
-0.819044
 20
0.0855054
 30
0.0
 70
    32
  0
VERTEX
  5
298
  8
0
 10
-0.820287
 20
0.0765283
 30
0.0
 70
    32
  0
VERTEX
  5
299
  8
0
 10
-0.821391
 20
0.0673666
 30
0.0
 70
    32
  0
VERTEX
  5
29A
  8
0
 10
-0.822353
 20
0.0580427
 30
0.0
 70
    32
  0
VERTEX
  5
29B
  8
0
 10
-0.8231719999999999
 20
0.0485788
 30
0.0
 70
    32
  0
VERTEX
  5
29C
  8
0
 10
-0.823844
 20
0.0389978
 30
0.0
 70
    32
  0
VERTEX
  5
29D
  8
0
 10
-0.8243679999999999
 20
0.0293227
 30
0.0
 70
    32
  0
VERTEX
  5
29E
  8
0
 10
-0.824744
 20
0.019577
 30
0.0
 70
    32
  0
VERTEX
  5
29F
  8
0
 10
-0.8249690000000001
 20
0.009784
 30
0.0
 70
    32
  0
VERTEX
  5
2A0
  8
0
 10
-0.825045
 20
-0.0000326384
 30
0.0
 70
    32
  0
VERTEX
  5
2A1
  8
0
 10
-0.8249690000000001
 20
-0.00984928
 30
0.0
 70
    32
  0
VERTEX
  5
2A2
  8
0
 10
-0.824744
 20
-0.0196423
 30
0.0
 70
    32
  0
VERTEX
  5
2A3
  8
0
 10
-0.8243679999999999
 20
-0.029388
 30
0.0
 70
    32
  0
VERTEX
  5
2A4
  8
0
 10
-0.823844
 20
-0.039063
 30
0.0
 70
    32
  0
VERTEX
  5
2A5
  8
0
 10
-0.8231719999999999
 20
-0.048644
 30
0.0
 70
    32
  0
VERTEX
  5
2A6
  8
0
 10
-0.822353
 20
-0.0581079
 30
0.0
 70
    32
  0
VERTEX
  5
2A7
  8
0
 10
-0.821391
 20
-0.0674319
 30
0.0
 70
    32
  0
VERTEX
  5
2A8
  8
0
 10
-0.820287
 20
-0.0765935
 30
0.0
 70
    32
  0
VERTEX
  5
2A9
  8
0
 10
-0.819044
 20
-0.0855707
 30
0.0
 70
    32
  0
VERTEX
  5
2AA
  8
0
 10
-0.817665
 20
-0.0943418
 30
0.0
 70
    32
  0
VERTEX
  5
2AB
  8
0
 10
-0.816153
 20
-0.102886
 30
0.0
 70
    32
  0
VERTEX
  5
2AC
  8
0
 10
-0.814512
 20
-0.111182
 30
0.0
 70
    32
  0
VERTEX
  5
2AD
  8
0
 10
-0.8127449999999999
 20
-0.11921
 30
0.0
 70
    32
  0
VERTEX
  5
2AE
  8
0
 10
-0.8108579999999999
 20
-0.126951
 30
0.0
 70
    32
  0
VERTEX
  5
2AF
  8
0
 10
-0.8088549999999999
 20
-0.134387
 30
0.0
 70
    32
  0
VERTEX
  5
2B0
  8
0
 10
-0.8067389999999999
 20
-0.141499
 30
0.0
 70
    32
  0
VERTEX
  5
2B1
  8
0
 10
-0.804518
 20
-0.14827
 30
0.0
 70
    32
  0
VERTEX
  5
2B2
  8
0
 10
-0.802195
 20
-0.154684
 30
0.0
 70
    32
  0
VERTEX
  5
2B3
  8
0
 10
-0.7997770000000001
 20
-0.160725
 30
0.0
 70
    32
  0
VERTEX
  5
2B4
  8
0
 10
-0.797269
 20
-0.166379
 30
0.0
 70
    32
  0
VERTEX
  5
2B5
  8
0
 10
-0.7946770000000001
 20
-0.171633
 30
0.0
 70
    32
  0
VERTEX
  5
2B6
  8
0
 10
-0.7920080000000001
 20
-0.176473
 30
0.0
 70
    32
  0
VERTEX
  5
2B7
  8
0
 10
-0.7892680000000001
 20
-0.180888
 30
0.0
 70
    32
  0
VERTEX
  5
2B8
  8
0
 10
-0.7864640000000001
 20
-0.184867
 30
0.0
 70
    32
  0
VERTEX
  5
2B9
  8
0
 10
-0.7836020000000001
 20
-0.188401
 30
0.0
 70
    32
  0
VERTEX
  5
2BA
  8
0
 10
-0.7806890000000001
 20
-0.191481
 30
0.0
 70
    32
  0
VERTEX
  5
2BB
  8
0
 10
-0.777732
 20
-0.1941
 30
0.0
 70
    32
  0
VERTEX
  5
2BC
  8
0
 10
-0.7747390000000001
 20
-0.196252
 30
0.0
 70
    32
  0
VERTEX
  5
2BD
  8
0
 10
-0.771717
 20
-0.197931
 30
0.0
 70
    32
  0
VERTEX
  5
2BE
  8
0
 10
-0.7686729999999999
 20
-0.199133
 30
0.0
 70
    32
  0
VERTEX
  5
2BF
  8
0
 10
-0.765613
 20
-0.199855
 30
0.0
 70
    32
  0
VERTEX
  5
2C0
  8
0
 10
-0.762547
 20
-0.200096
 30
0.0
 70
    32
  0
VERTEX
  5
2C1
  8
0
 10
-0.7594800000000002
 20
-0.199855
 30
0.0
 70
    32
  0
VERTEX
  5
2C2
  8
0
 10
-0.756421
 20
-0.199133
 30
0.0
 70
    32
  0
VERTEX
  5
2C3
  8
0
 10
-0.7533760000000001
 20
-0.197931
 30
0.0
 70
    32
  0
VERTEX
  5
2C4
  8
0
 10
-0.750354
 20
-0.196252
 30
0.0
 70
    32
  0
VERTEX
  5
2C5
  8
0
 10
-0.7473609999999999
 20
-0.1941
 30
0.0
 70
    32
  0
VERTEX
  5
2C6
  8
0
 10
-0.744404
 20
-0.191481
 30
0.0
 70
    32
  0
VERTEX
  5
2C7
  8
0
 10
-0.7414920000000002
 20
-0.188401
 30
0.0
 70
    32
  0
VERTEX
  5
2C8
  8
0
 10
-0.7386300000000001
 20
-0.184867
 30
0.0
 70
    32
  0
VERTEX
  5
2C9
  8
0
 10
-0.735825
 20
-0.180888
 30
0.0
 70
    32
  0
VERTEX
  5
2CA
  8
0
 10
-0.733085
 20
-0.176473
 30
0.0
 70
    32
  0
VERTEX
  5
2CB
  8
0
 10
-0.730416
 20
-0.171633
 30
0.0
 70
    32
  0
VERTEX
  5
2CC
  8
0
 10
-0.7278250000000001
 20
-0.166379
 30
0.0
 70
    32
  0
VERTEX
  5
2CD
  8
0
 10
-0.725317
 20
-0.160725
 30
0.0
 70
    32
  0
VERTEX
  5
2CE
  8
0
 10
-0.7228979999999999
 20
-0.154684
 30
0.0
 70
    32
  0
VERTEX
  5
2CF
  8
0
 10
-0.720576
 20
-0.14827
 30
0.0
 70
    32
  0
VERTEX
  5
2D0
  8
0
 10
-0.7183540000000001
 20
-0.141499
 30
0.0
 70
    32
  0
VERTEX
  5
2D1
  8
0
 10
-0.7162390000000001
 20
-0.134387
 30
0.0
 70
    32
  0
VERTEX
  5
2D2
  8
0
 10
-0.7142350000000001
 20
-0.126951
 30
0.0
 70
    32
  0
VERTEX
  5
2D3
  8
0
 10
-0.712348
 20
-0.11921
 30
0.0
 70
    32
  0
VERTEX
  5
2D4
  8
0
 10
-0.710581
 20
-0.111182
 30
0.0
 70
    32
  0
VERTEX
  5
2D5
  8
0
 10
-0.7089400000000001
 20
-0.102886
 30
0.0
 70
    32
  0
VERTEX
  5
2D6
  8
0
 10
-0.707428
 20
-0.0943419
 30
0.0
 70
    32
  0
VERTEX
  5
2D7
  8
0
 10
-0.706049
 20
-0.0855708
 30
0.0
 70
    32
  0
VERTEX
  5
2D8
  8
0
 10
-0.7048060000000002
 20
-0.0765936
 30
0.0
 70
    32
  0
VERTEX
  5
2D9
  8
0
 10
-0.7037020000000001
 20
-0.067432
 30
0.0
 70
    32
  0
VERTEX
  5
2DA
  8
0
 10
-0.70274
 20
-0.058108
 30
0.0
 70
    32
  0
VERTEX
  5
2DB
  8
0
 10
-0.7019220000000001
 20
-0.0486441
 30
0.0
 70
    32
  0
VERTEX
  5
2DC
  8
0
 10
-0.7012500000000002
 20
-0.0390631
 30
0.0
 70
    32
  0
VERTEX
  5
2DD
  8
0
 10
-0.7007250000000002
 20
-0.0293881
 30
0.0
 70
    32
  0
VERTEX
  5
2DE
  8
0
 10
-0.7003500000000001
 20
-0.0196423
 30
0.0
 70
    32
  0
VERTEX
  5
2DF
  8
0
 10
-0.700124
 20
-0.00984935
 30
0.0
 70
    32
  0
VERTEX
  5
2E0
  8
0
 10
-0.700049
 20
-0.0000327113
 30
0.0
 70
    32
  0
VERTEX
  5
2E1
  8
0
 10
-0.700124
 20
0.00978393
 30
0.0
 70
    32
  0
VERTEX
  5
2E2
  8
0
 10
-0.7003500000000001
 20
0.0195769
 30
0.0
 70
    32
  0
VERTEX
  5
2E3
  8
0
 10
-0.7007250000000002
 20
0.0293227
 30
0.0
 70
    32
  0
VERTEX
  5
2E4
  8
0
 10
-0.701249
 20
0.0389977
 30
0.0
 70
    32
  0
VERTEX
  5
2E5
  8
0
 10
-0.7019220000000001
 20
0.0485787
 30
0.0
 70
    32
  0
VERTEX
  5
2E6
  8
0
 10
-0.70274
 20
0.0580426
 30
0.0
 70
    32
  0
VERTEX
  5
2E7
  8
0
 10
-0.7037020000000001
 20
0.0673666
 30
0.0
 70
    32
  0
VERTEX
  5
2E8
  8
0
 10
-0.7048060000000002
 20
0.0765282
 30
0.0
 70
    32
  0
VERTEX
  5
2E9
  8
0
 10
-0.706049
 20
0.0855054
 30
0.0
 70
    32
  0
VERTEX
  5
2EA
  8
0
 10
-0.707428
 20
0.0942765
 30
0.0
 70
    32
  0
VERTEX
  5
2EB
  8
0
 10
-0.7089400000000001
 20
0.10282
 30
0.0
 70
    32
  0
VERTEX
  5
2EC
  8
0
 10
-0.710581
 20
0.111116
 30
0.0
 70
    32
  0
VERTEX
  5
2ED
  8
0
 10
-0.712348
 20
0.119145
 30
0.0
 70
    32
  0
VERTEX
  5
2EE
  8
0
 10
-0.7142350000000001
 20
0.126886
 30
0.0
 70
    32
  0
VERTEX
  5
2EF
  8
0
 10
-0.7162390000000001
 20
0.134322
 30
0.0
 70
    32
  0
VERTEX
  5
2F0
  8
0
 10
-0.7183540000000001
 20
0.141433
 30
0.0
 70
    32
  0
VERTEX
  5
2F1
  8
0
 10
-0.720575
 20
0.148204
 30
0.0
 70
    32
  0
VERTEX
  5
2F2
  8
0
 10
-0.7228979999999999
 20
0.154618
 30
0.0
 70
    32
  0
VERTEX
  5
2F3
  8
0
 10
-0.725316
 20
0.16066
 30
0.0
 70
    32
  0
VERTEX
  5
2F4
  8
0
 10
-0.7278240000000001
 20
0.166314
 30
0.0
 70
    32
  0
VERTEX
  5
2F5
  8
0
 10
-0.730416
 20
0.171567
 30
0.0
 70
    32
  0
VERTEX
  5
2F6
  8
0
 10
-0.733085
 20
0.176407
 30
0.0
 70
    32
  0
VERTEX
  5
2F7
  8
0
 10
-0.735825
 20
0.180822
 30
0.0
 70
    32
  0
VERTEX
  5
2F8
  8
0
 10
-0.7386300000000001
 20
0.184802
 30
0.0
 70
    32
  0
VERTEX
  5
2F9
  8
0
 10
-0.7414920000000002
 20
0.188336
 30
0.0
 70
    32
  0
VERTEX
  5
2FA
  8
0
 10
-0.744404
 20
0.191416
 30
0.0
 70
    32
  0
VERTEX
  5
2FB
  8
0
 10
-0.7473609999999999
 20
0.194035
 30
0.0
 70
    32
  0
VERTEX
  5
2FC
  8
0
 10
-0.750354
 20
0.196186
 30
0.0
 70
    32
  0
VERTEX
  5
2FD
  8
0
 10
-0.7533760000000001
 20
0.197865
 30
0.0
 70
    32
  0
VERTEX
  5
2FE
  8
0
 10
-0.756421
 20
0.199067
 30
0.0
 70
    32
  0
VERTEX
  5
2FF
  8
0
 10
-0.7594800000000002
 20
0.19979
 30
0.0
 70
    32
  0
VERTEX
  5
300
  8
0
 10
-0.7625460000000001
 20
0.200031
 30
0.0
 70
    32
  0
SEQEND
  5
301
  8
0
  0
LINE
  5
302
  8
0
 10
-0.7000486686819638
 20
-0.2000877657766296
 30
0.0
 11
-0.7000486686819638
 21
-0.2000877657766296
 31
0.0
  0
POLYLINE
  5
303
  8
0
 66
     1
 10
0.0
 20
0.0
 30
0.0
 70
     8
  0
VERTEX
  5
304
  8
0
 10
-0.26254
 20
0.20003
 30
0.0
 70
    32
  0
VERTEX
  5
305
  8
0
 10
-0.265609
 20
0.199789
 30
0.0
 70
    32
  0
VERTEX
  5
306
  8
0
 10
-0.26867
 20
0.199067
 30
0.0
 70
    32
  0
VERTEX
  5
307
  8
0
 10
-0.271716
 20
0.197866
 30
0.0
 70
    32
  0
VERTEX
  5
308
  8
0
 10
-0.274741
 20
0.196187
 30
0.0
 70
    32
  0
VERTEX
  5
309
  8
0
 10
-0.277736
 20
0.194036
 30
0.0
 70
    32
  0
VERTEX
  5
30A
  8
0
 10
-0.280694
 20
0.191418
 30
0.0
 70
    32
  0
VERTEX
  5
30B
  8
0
 10
-0.283609
 20
0.188339
 30
0.0
 70
    32
  0
VERTEX
  5
30C
  8
0
 10
-0.286473
 20
0.184806
 30
0.0
 70
    32
  0
VERTEX
  5
30D
  8
0
 10
-0.289279
 20
0.180828
 30
0.0
 70
    32
  0
VERTEX
  5
30E
  8
0
 10
-0.292021
 20
0.176414
 30
0.0
 70
    32
  0
VERTEX
  5
30F
  8
0
 10
-0.294692
 20
0.171575
 30
0.0
 70
    32
  0
VERTEX
  5
310
  8
0
 10
-0.297285
 20
0.166323
 30
0.0
 70
    32
  0
VERTEX
  5
311
  8
0
 10
-0.299795
 20
0.160671
 30
0.0
 70
    32
  0
VERTEX
  5
312
  8
0
 10
-0.302215
 20
0.154631
 30
0.0
 70
    32
  0
VERTEX
  5
313
  8
0
 10
-0.304539
 20
0.148219
 30
0.0
 70
    32
  0
VERTEX
  5
314
  8
0
 10
-0.306762
 20
0.14145
 30
0.0
 70
    32
  0
VERTEX
  5
315
  8
0
 10
-0.308879
 20
0.13434
 30
0.0
 70
    32
  0
VERTEX
  5
316
  8
0
 10
-0.310884
 20
0.126907
 30
0.0
 70
    32
  0
VERTEX
  5
317
  8
0
 10
-0.312772
 20
0.119168
 30
0.0
 70
    32
  0
VERTEX
  5
318
  8
0
 10
-0.31454
 20
0.111142
 30
0.0
 70
    32
  0
VERTEX
  5
319
  8
0
 10
-0.316182
 20
0.102848
 30
0.0
 70
    32
  0
VERTEX
  5
31A
  8
0
 10
-0.317695
 20
0.0943065
 30
0.0
 70
    32
  0
VERTEX
  5
31B
  8
0
 10
-0.319075
 20
0.085538
 30
0.0
 70
    32
  0
VERTEX
  5
31C
  8
0
 10
-0.320319
 20
0.0765634
 30
0.0
 70
    32
  0
VERTEX
  5
31D
  8
0
 10
-0.321424
 20
0.0674044
 30
0.0
 70
    32
  0
VERTEX
  5
31E
  8
0
 10
-0.322387
 20
0.0580831
 30
0.0
 70
    32
  0
VERTEX
  5
31F
  8
0
 10
-0.323206
 20
0.0486219
 30
0.0
 70
    32
  0
VERTEX
  5
320
  8
0
 10
-0.323878
 20
0.0390436
 30
0.0
 70
    32
  0
VERTEX
  5
321
  8
0
 10
-0.324403
 20
0.0293714
 30
0.0
 70
    32
  0
VERTEX
  5
322
  8
0
 10
-0.324779
 20
0.0196284
 30
0.0
 70
    32
  0
VERTEX
  5
323
  8
0
 10
-0.325005
 20
0.00983823
 30
0.0
 70
    32
  0
VERTEX
  5
324
  8
0
 10
-0.32508
 20
0.000024408
 30
0.0
 70
    32
  0
VERTEX
  5
325
  8
0
 10
-0.325005
 20
-0.00978942
 30
0.0
 70
    32
  0
VERTEX
  5
326
  8
0
 10
-0.324779
 20
-0.0195796
 30
0.0
 70
    32
  0
VERTEX
  5
327
  8
0
 10
-0.324403
 20
-0.0293226
 30
0.0
 70
    32
  0
VERTEX
  5
328
  8
0
 10
-0.323878
 20
-0.0389948
 30
0.0
 70
    32
  0
VERTEX
  5
329
  8
0
 10
-0.323206
 20
-0.0485731
 30
0.0
 70
    32
  0
VERTEX
  5
32A
  8
0
 10
-0.322387
 20
-0.0580342
 30
0.0
 70
    32
  0
VERTEX
  5
32B
  8
0
 10
-0.321424
 20
-0.0673556
 30
0.0
 70
    32
  0
VERTEX
  5
32C
  8
0
 10
-0.320319
 20
-0.0765145
 30
0.0
 70
    32
  0
VERTEX
  5
32D
  8
0
 10
-0.319075
 20
-0.0854891
 30
0.0
 70
    32
  0
VERTEX
  5
32E
  8
0
 10
-0.317695
 20
-0.0942577
 30
0.0
 70
    32
  0
VERTEX
  5
32F
  8
0
 10
-0.316182
 20
-0.102799
 30
0.0
 70
    32
  0
VERTEX
  5
330
  8
0
 10
-0.31454
 20
-0.111093
 30
0.0
 70
    32
  0
VERTEX
  5
331
  8
0
 10
-0.312773
 20
-0.119119
 30
0.0
 70
    32
  0
VERTEX
  5
332
  8
0
 10
-0.310884
 20
-0.126858
 30
0.0
 70
    32
  0
VERTEX
  5
333
  8
0
 10
-0.308879
 20
-0.134291
 30
0.0
 70
    32
  0
VERTEX
  5
334
  8
0
 10
-0.306762
 20
-0.141401
 30
0.0
 70
    32
  0
VERTEX
  5
335
  8
0
 10
-0.304539
 20
-0.14817
 30
0.0
 70
    32
  0
VERTEX
  5
336
  8
0
 10
-0.302215
 20
-0.154582
 30
0.0
 70
    32
  0
VERTEX
  5
337
  8
0
 10
-0.299795
 20
-0.160622
 30
0.0
 70
    32
  0
VERTEX
  5
338
  8
0
 10
-0.297285
 20
-0.166274
 30
0.0
 70
    32
  0
VERTEX
  5
339
  8
0
 10
-0.294692
 20
-0.171526
 30
0.0
 70
    32
  0
VERTEX
  5
33A
  8
0
 10
-0.292021
 20
-0.176365
 30
0.0
 70
    32
  0
VERTEX
  5
33B
  8
0
 10
-0.289279
 20
-0.180779
 30
0.0
 70
    32
  0
VERTEX
  5
33C
  8
0
 10
-0.286473
 20
-0.184757
 30
0.0
 70
    32
  0
VERTEX
  5
33D
  8
0
 10
-0.283609
 20
-0.18829
 30
0.0
 70
    32
  0
VERTEX
  5
33E
  8
0
 10
-0.280694
 20
-0.191369
 30
0.0
 70
    32
  0
VERTEX
  5
33F
  8
0
 10
-0.277736
 20
-0.193988
 30
0.0
 70
    32
  0
VERTEX
  5
340
  8
0
 10
-0.274741
 20
-0.196138
 30
0.0
 70
    32
  0
VERTEX
  5
341
  8
0
 10
-0.271717
 20
-0.197817
 30
0.0
 70
    32
  0
VERTEX
  5
342
  8
0
 10
-0.26867
 20
-0.199018
 30
0.0
 70
    32
  0
VERTEX
  5
343
  8
0
 10
-0.265609
 20
-0.199741
 30
0.0
 70
    32
  0
VERTEX
  5
344
  8
0
 10
-0.26254
 20
-0.199982
 30
0.0
 70
    32
  0
VERTEX
  5
345
  8
0
 10
-0.259471
 20
-0.199741
 30
0.0
 70
    32
  0
VERTEX
  5
346
  8
0
 10
-0.25641
 20
-0.199018
 30
0.0
 70
    32
  0
VERTEX
  5
347
  8
0
 10
-0.253364
 20
-0.197817
 30
0.0
 70
    32
  0
VERTEX
  5
348
  8
0
 10
-0.250339
 20
-0.196139
 30
0.0
 70
    32
  0
VERTEX
  5
349
  8
0
 10
-0.247344
 20
-0.193988
 30
0.0
 70
    32
  0
VERTEX
  5
34A
  8
0
 10
-0.244386
 20
-0.191369
 30
0.0
 70
    32
  0
VERTEX
  5
34B
  8
0
 10
-0.241471
 20
-0.18829
 30
0.0
 70
    32
  0
VERTEX
  5
34C
  8
0
 10
-0.238607
 20
-0.184757
 30
0.0
 70
    32
  0
VERTEX
  5
34D
  8
0
 10
-0.235801
 20
-0.180779
 30
0.0
 70
    32
  0
VERTEX
  5
34E
  8
0
 10
-0.233059
 20
-0.176365
 30
0.0
 70
    32
  0
VERTEX
  5
34F
  8
0
 10
-0.230388
 20
-0.171526
 30
0.0
 70
    32
  0
VERTEX
  5
350
  8
0
 10
-0.227795
 20
-0.166274
 30
0.0
 70
    32
  0
VERTEX
  5
351
  8
0
 10
-0.225285
 20
-0.160622
 30
0.0
 70
    32
  0
VERTEX
  5
352
  8
0
 10
-0.222865
 20
-0.154582
 30
0.0
 70
    32
  0
VERTEX
  5
353
  8
0
 10
-0.220541
 20
-0.14817
 30
0.0
 70
    32
  0
VERTEX
  5
354
  8
0
 10
-0.218318
 20
-0.141401
 30
0.0
 70
    32
  0
VERTEX
  5
355
  8
0
 10
-0.216201
 20
-0.134291
 30
0.0
 70
    32
  0
VERTEX
  5
356
  8
0
 10
-0.214196
 20
-0.126858
 30
0.0
 70
    32
  0
VERTEX
  5
357
  8
0
 10
-0.212307
 20
-0.119119
 30
0.0
 70
    32
  0
VERTEX
  5
358
  8
0
 10
-0.21054
 20
-0.111093
 30
0.0
 70
    32
  0
VERTEX
  5
359
  8
0
 10
-0.208898
 20
-0.102799
 30
0.0
 70
    32
  0
VERTEX
  5
35A
  8
0
 10
-0.207385
 20
-0.0942578
 30
0.0
 70
    32
  0
VERTEX
  5
35B
  8
0
 10
-0.206004
 20
-0.0854892
 30
0.0
 70
    32
  0
VERTEX
  5
35C
  8
0
 10
-0.204761
 20
-0.0765146
 30
0.0
 70
    32
  0
VERTEX
  5
35D
  8
0
 10
-0.203656
 20
-0.0673556
 30
0.0
 70
    32
  0
VERTEX
  5
35E
  8
0
 10
-0.202693
 20
-0.0580343
 30
0.0
 70
    32
  0
VERTEX
  5
35F
  8
0
 10
-0.201874
 20
-0.0485731
 30
0.0
 70
    32
  0
VERTEX
  5
360
  8
0
 10
-0.201202
 20
-0.0389949
 30
0.0
 70
    32
  0
VERTEX
  5
361
  8
0
 10
-0.200677
 20
-0.0293226
 30
0.0
 70
    32
  0
VERTEX
  5
362
  8
0
 10
-0.200301
 20
-0.0195797
 30
0.0
 70
    32
  0
VERTEX
  5
363
  8
0
 10
-0.200075
 20
-0.00978949
 30
0.0
 70
    32
  0
VERTEX
  5
364
  8
0
 10
-0.2
 20
0.0000243351
 30
0.0
 70
    32
  0
VERTEX
  5
365
  8
0
 10
-0.200075
 20
0.00983816
 30
0.0
 70
    32
  0
VERTEX
  5
366
  8
0
 10
-0.200301
 20
0.0196283
 30
0.0
 70
    32
  0
VERTEX
  5
367
  8
0
 10
-0.200677
 20
0.0293713
 30
0.0
 70
    32
  0
VERTEX
  5
368
  8
0
 10
-0.201202
 20
0.0390436
 30
0.0
 70
    32
  0
VERTEX
  5
369
  8
0
 10
-0.201874
 20
0.0486218
 30
0.0
 70
    32
  0
VERTEX
  5
36A
  8
0
 10
-0.202693
 20
0.058083
 30
0.0
 70
    32
  0
VERTEX
  5
36B
  8
0
 10
-0.203656
 20
0.0674043
 30
0.0
 70
    32
  0
VERTEX
  5
36C
  8
0
 10
-0.20476
 20
0.0765633
 30
0.0
 70
    32
  0
VERTEX
  5
36D
  8
0
 10
-0.206004
 20
0.0855379
 30
0.0
 70
    32
  0
VERTEX
  5
36E
  8
0
 10
-0.207385
 20
0.0943065
 30
0.0
 70
    32
  0
VERTEX
  5
36F
  8
0
 10
-0.208898
 20
0.102848
 30
0.0
 70
    32
  0
VERTEX
  5
370
  8
0
 10
-0.21054
 20
0.111142
 30
0.0
 70
    32
  0
VERTEX
  5
371
  8
0
 10
-0.212307
 20
0.119168
 30
0.0
 70
    32
  0
VERTEX
  5
372
  8
0
 10
-0.214196
 20
0.126907
 30
0.0
 70
    32
  0
VERTEX
  5
373
  8
0
 10
-0.216201
 20
0.13434
 30
0.0
 70
    32
  0
VERTEX
  5
374
  8
0
 10
-0.218317
 20
0.14145
 30
0.0
 70
    32
  0
VERTEX
  5
375
  8
0
 10
-0.220541
 20
0.148219
 30
0.0
 70
    32
  0
VERTEX
  5
376
  8
0
 10
-0.222865
 20
0.154631
 30
0.0
 70
    32
  0
VERTEX
  5
377
  8
0
 10
-0.225285
 20
0.160671
 30
0.0
 70
    32
  0
VERTEX
  5
378
  8
0
 10
-0.227794
 20
0.166323
 30
0.0
 70
    32
  0
VERTEX
  5
379
  8
0
 10
-0.230388
 20
0.171575
 30
0.0
 70
    32
  0
VERTEX
  5
37A
  8
0
 10
-0.233059
 20
0.176414
 30
0.0
 70
    32
  0
VERTEX
  5
37B
  8
0
 10
-0.235801
 20
0.180828
 30
0.0
 70
    32
  0
VERTEX
  5
37C
  8
0
 10
-0.238607
 20
0.184806
 30
0.0
 70
    32
  0
VERTEX
  5
37D
  8
0
 10
-0.241471
 20
0.188339
 30
0.0
 70
    32
  0
VERTEX
  5
37E
  8
0
 10
-0.244385
 20
0.191418
 30
0.0
 70
    32
  0
VERTEX
  5
37F
  8
0
 10
-0.247344
 20
0.194036
 30
0.0
 70
    32
  0
VERTEX
  5
380
  8
0
 10
-0.250339
 20
0.196187
 30
0.0
 70
    32
  0
VERTEX
  5
381
  8
0
 10
-0.253363
 20
0.197866
 30
0.0
 70
    32
  0
VERTEX
  5
382
  8
0
 10
-0.25641
 20
0.199067
 30
0.0
 70
    32
  0
VERTEX
  5
383
  8
0
 10
-0.259471
 20
0.199789
 30
0.0
 70
    32
  0
VERTEX
  5
384
  8
0
 10
-0.26254
 20
0.20003
 30
0.0
 70
    32
  0
SEQEND
  5
385
  8
0
  0
POLYLINE
  5
386
  8
0
 66
     1
 10
0.0
 20
0.0
 30
0.0
 70
     8
  0
VERTEX
  5
387
  8
0
 10
-0.387528
 20
0.20003
 30
0.0
 70
    32
  0
VERTEX
  5
388
  8
0
 10
-0.390595
 20
0.199789
 30
0.0
 70
    32
  0
VERTEX
  5
389
  8
0
 10
-0.393655
 20
0.199067
 30
0.0
 70
    32
  0
VERTEX
  5
38A
  8
0
 10
-0.3967
 20
0.197865
 30
0.0
 70
    32
  0
VERTEX
  5
38B
  8
0
 10
-0.399723
 20
0.196187
 30
0.0
 70
    32
  0
VERTEX
  5
38C
  8
0
 10
-0.402717
 20
0.194036
 30
0.0
 70
    32
  0
VERTEX
  5
38D
  8
0
 10
-0.405674
 20
0.191418
 30
0.0
 70
    32
  0
VERTEX
  5
38E
  8
0
 10
-0.408587
 20
0.188338
 30
0.0
 70
    32
  0
VERTEX
  5
38F
  8
0
 10
-0.41145
 20
0.184805
 30
0.0
 70
    32
  0
VERTEX
  5
390
  8
0
 10
-0.414255
 20
0.180826
 30
0.0
 70
    32
  0
VERTEX
  5
391
  8
0
 10
-0.416995
 20
0.176412
 30
0.0
 70
    32
  0
VERTEX
  5
392
  8
0
 10
-0.419665
 20
0.171573
 30
0.0
 70
    32
  0
VERTEX
  5
393
  8
0
 10
-0.4222570000000001
 20
0.166321
 30
0.0
 70
    32
  0
VERTEX
  5
394
  8
0
 10
-0.424765
 20
0.160668
 30
0.0
 70
    32
  0
VERTEX
  5
395
  8
0
 10
-0.427184
 20
0.154628
 30
0.0
 70
    32
  0
VERTEX
  5
396
  8
0
 10
-0.429507
 20
0.148215
 30
0.0
 70
    32
  0
VERTEX
  5
397
  8
0
 10
-0.431729
 20
0.141446
 30
0.0
 70
    32
  0
VERTEX
  5
398
  8
0
 10
-0.433845
 20
0.134335
 30
0.0
 70
    32
  0
VERTEX
  5
399
  8
0
 10
-0.435849
 20
0.126901
 30
0.0
 70
    32
  0
VERTEX
  5
39A
  8
0
 10
-0.437737
 20
0.119162
 30
0.0
 70
    32
  0
VERTEX
  5
39B
  8
0
 10
-0.4395030000000001
 20
0.111135
 30
0.0
 70
    32
  0
VERTEX
  5
39C
  8
0
 10
-0.4411450000000001
 20
0.102841
 30
0.0
 70
    32
  0
VERTEX
  5
39D
  8
0
 10
-0.442657
 20
0.0942986
 30
0.0
 70
    32
  0
VERTEX
  5
39E
  8
0
 10
-0.444036
 20
0.0855293
 30
0.0
 70
    32
  0
VERTEX
  5
39F
  8
0
 10
-0.44528
 20
0.076554
 30
0.0
 70
    32
  0
VERTEX
  5
3A0
  8
0
 10
-0.4463840000000001
 20
0.0673944
 30
0.0
 70
    32
  0
VERTEX
  5
3A1
  8
0
 10
-0.4473460000000001
 20
0.0580723
 30
0.0
 70
    32
  0
VERTEX
  5
3A2
  8
0
 10
-0.4481650000000001
 20
0.0486104
 30
0.0
 70
    32
  0
VERTEX
  5
3A3
  8
0
 10
-0.448837
 20
0.0390315
 30
0.0
 70
    32
  0
VERTEX
  5
3A4
  8
0
 10
-0.449361
 20
0.0293585
 30
0.0
 70
    32
  0
VERTEX
  5
3A5
  8
0
 10
-0.449737
 20
0.0196148
 30
0.0
 70
    32
  0
VERTEX
  5
3A6
  8
0
 10
-0.449963
 20
0.00982385
 30
0.0
 70
    32
  0
VERTEX
  5
3A7
  8
0
 10
-0.450038
 20
0.0000092732
 30
0.0
 70
    32
  0
VERTEX
  5
3A8
  8
0
 10
-0.449963
 20
-0.0098053
 30
0.0
 70
    32
  0
VERTEX
  5
3A9
  8
0
 10
-0.449737
 20
-0.0195962
 30
0.0
 70
    32
  0
VERTEX
  5
3AA
  8
0
 10
-0.449362
 20
-0.0293399
 30
0.0
 70
    32
  0
VERTEX
  5
3AB
  8
0
 10
-0.448837
 20
-0.0390129
 30
0.0
 70
    32
  0
VERTEX
  5
3AC
  8
0
 10
-0.4481650000000001
 20
-0.0485919
 30
0.0
 70
    32
  0
VERTEX
  5
3AD
  8
0
 10
-0.4473460000000001
 20
-0.0580538
 30
0.0
 70
    32
  0
VERTEX
  5
3AE
  8
0
 10
-0.4463840000000001
 20
-0.0673758
 30
0.0
 70
    32
  0
VERTEX
  5
3AF
  8
0
 10
-0.44528
 20
-0.0765355
 30
0.0
 70
    32
  0
VERTEX
  5
3B0
  8
0
 10
-0.444037
 20
-0.0855108
 30
0.0
 70
    32
  0
VERTEX
  5
3B1
  8
0
 10
-0.442657
 20
-0.09428
 30
0.0
 70
    32
  0
VERTEX
  5
3B2
  8
0
 10
-0.4411450000000001
 20
-0.102822
 30
0.0
 70
    32
  0
VERTEX
  5
3B3
  8
0
 10
-0.4395030000000001
 20
-0.111117
 30
0.0
 70
    32
  0
VERTEX
  5
3B4
  8
0
 10
-0.437737
 20
-0.119143
 30
0.0
 70
    32
  0
VERTEX
  5
3B5
  8
0
 10
-0.435849
 20
-0.126883
 30
0.0
 70
    32
  0
VERTEX
  5
3B6
  8
0
 10
-0.433845
 20
-0.134317
 30
0.0
 70
    32
  0
VERTEX
  5
3B7
  8
0
 10
-0.431729
 20
-0.141427
 30
0.0
 70
    32
  0
VERTEX
  5
3B8
  8
0
 10
-0.429507
 20
-0.148197
 30
0.0
 70
    32
  0
VERTEX
  5
3B9
  8
0
 10
-0.427184
 20
-0.154609
 30
0.0
 70
    32
  0
VERTEX
  5
3BA
  8
0
 10
-0.424765
 20
-0.160649
 30
0.0
 70
    32
  0
VERTEX
  5
3BB
  8
0
 10
-0.4222570000000001
 20
-0.166302
 30
0.0
 70
    32
  0
VERTEX
  5
3BC
  8
0
 10
-0.419665
 20
-0.171555
 30
0.0
 70
    32
  0
VERTEX
  5
3BD
  8
0
 10
-0.416995
 20
-0.176394
 30
0.0
 70
    32
  0
VERTEX
  5
3BE
  8
0
 10
-0.414255
 20
-0.180808
 30
0.0
 70
    32
  0
VERTEX
  5
3BF
  8
0
 10
-0.41145
 20
-0.184786
 30
0.0
 70
    32
  0
VERTEX
  5
3C0
  8
0
 10
-0.408587
 20
-0.188319
 30
0.0
 70
    32
  0
VERTEX
  5
3C1
  8
0
 10
-0.405674
 20
-0.191399
 30
0.0
 70
    32
  0
VERTEX
  5
3C2
  8
0
 10
-0.402717
 20
-0.194018
 30
0.0
 70
    32
  0
VERTEX
  5
3C3
  8
0
 10
-0.399723
 20
-0.196169
 30
0.0
 70
    32
  0
VERTEX
  5
3C4
  8
0
 10
-0.396701
 20
-0.197847
 30
0.0
 70
    32
  0
VERTEX
  5
3C5
  8
0
 10
-0.393655
 20
-0.199049
 30
0.0
 70
    32
  0
VERTEX
  5
3C6
  8
0
 10
-0.390596
 20
-0.199771
 30
0.0
 70
    32
  0
VERTEX
  5
3C7
  8
0
 10
-0.387528
 20
-0.200012
 30
0.0
 70
    32
  0
VERTEX
  5
3C8
  8
0
 10
-0.384461
 20
-0.199771
 30
0.0
 70
    32
  0
VERTEX
  5
3C9
  8
0
 10
-0.3814010000000001
 20
-0.199049
 30
0.0
 70
    32
  0
VERTEX
  5
3CA
  8
0
 10
-0.378356
 20
-0.197847
 30
0.0
 70
    32
  0
VERTEX
  5
3CB
  8
0
 10
-0.375333
 20
-0.196169
 30
0.0
 70
    32
  0
VERTEX
  5
3CC
  8
0
 10
-0.37234
 20
-0.194018
 30
0.0
 70
    32
  0
VERTEX
  5
3CD
  8
0
 10
-0.369383
 20
-0.191399
 30
0.0
 70
    32
  0
VERTEX
  5
3CE
  8
0
 10
-0.36647
 20
-0.188319
 30
0.0
 70
    32
  0
VERTEX
  5
3CF
  8
0
 10
-0.363607
 20
-0.184786
 30
0.0
 70
    32
  0
VERTEX
  5
3D0
  8
0
 10
-0.360802
 20
-0.180808
 30
0.0
 70
    32
  0
VERTEX
  5
3D1
  8
0
 10
-0.358062
 20
-0.176394
 30
0.0
 70
    32
  0
VERTEX
  5
3D2
  8
0
 10
-0.355392
 20
-0.171555
 30
0.0
 70
    32
  0
VERTEX
  5
3D3
  8
0
 10
-0.3528
 20
-0.166302
 30
0.0
 70
    32
  0
VERTEX
  5
3D4
  8
0
 10
-0.3502909999999999
 20
-0.160649
 30
0.0
 70
    32
  0
VERTEX
  5
3D5
  8
0
 10
-0.347873
 20
-0.154609
 30
0.0
 70
    32
  0
VERTEX
  5
3D6
  8
0
 10
-0.345549
 20
-0.148197
 30
0.0
 70
    32
  0
VERTEX
  5
3D7
  8
0
 10
-0.343327
 20
-0.141427
 30
0.0
 70
    32
  0
VERTEX
  5
3D8
  8
0
 10
-0.341212
 20
-0.134317
 30
0.0
 70
    32
  0
VERTEX
  5
3D9
  8
0
 10
-0.339208
 20
-0.126883
 30
0.0
 70
    32
  0
VERTEX
  5
3DA
  8
0
 10
-0.33732
 20
-0.119143
 30
0.0
 70
    32
  0
VERTEX
  5
3DB
  8
0
 10
-0.335553
 20
-0.111117
 30
0.0
 70
    32
  0
VERTEX
  5
3DC
  8
0
 10
-0.333912
 20
-0.102822
 30
0.0
 70
    32
  0
VERTEX
  5
3DD
  8
0
 10
-0.3324
 20
-0.0942801
 30
0.0
 70
    32
  0
VERTEX
  5
3DE
  8
0
 10
-0.33102
 20
-0.0855109
 30
0.0
 70
    32
  0
VERTEX
  5
3DF
  8
0
 10
-0.329777
 20
-0.0765356
 30
0.0
 70
    32
  0
VERTEX
  5
3E0
  8
0
 10
-0.328673
 20
-0.0673759
 30
0.0
 70
    32
  0
VERTEX
  5
3E1
  8
0
 10
-0.32771
 20
-0.0580539
 30
0.0
 70
    32
  0
VERTEX
  5
3E2
  8
0
 10
-0.326892
 20
-0.048592
 30
0.0
 70
    32
  0
VERTEX
  5
3E3
  8
0
 10
-0.3262199999999999
 20
-0.039013
 30
0.0
 70
    32
  0
VERTEX
  5
3E4
  8
0
 10
-0.325695
 20
-0.02934
 30
0.0
 70
    32
  0
VERTEX
  5
3E5
  8
0
 10
-0.32532
 20
-0.0195963
 30
0.0
 70
    32
  0
VERTEX
  5
3E6
  8
0
 10
-0.325094
 20
-0.00980537
 30
0.0
 70
    32
  0
VERTEX
  5
3E7
  8
0
 10
-0.325019
 20
0.00000920037
 30
0.0
 70
    32
  0
VERTEX
  5
3E8
  8
0
 10
-0.325094
 20
0.00982377
 30
0.0
 70
    32
  0
VERTEX
  5
3E9
  8
0
 10
-0.32532
 20
0.0196147
 30
0.0
 70
    32
  0
VERTEX
  5
3EA
  8
0
 10
-0.325695
 20
0.0293584
 30
0.0
 70
    32
  0
VERTEX
  5
3EB
  8
0
 10
-0.3262199999999999
 20
0.0390314
 30
0.0
 70
    32
  0
VERTEX
  5
3EC
  8
0
 10
-0.326892
 20
0.0486104
 30
0.0
 70
    32
  0
VERTEX
  5
3ED
  8
0
 10
-0.32771
 20
0.0580723
 30
0.0
 70
    32
  0
VERTEX
  5
3EE
  8
0
 10
-0.328673
 20
0.0673943
 30
0.0
 70
    32
  0
VERTEX
  5
3EF
  8
0
 10
-0.329777
 20
0.076554
 30
0.0
 70
    32
  0
VERTEX
  5
3F0
  8
0
 10
-0.33102
 20
0.0855293
 30
0.0
 70
    32
  0
VERTEX
  5
3F1
  8
0
 10
-0.3324
 20
0.0942985
 30
0.0
 70
    32
  0
VERTEX
  5
3F2
  8
0
 10
-0.333912
 20
0.102841
 30
0.0
 70
    32
  0
VERTEX
  5
3F3
  8
0
 10
-0.335553
 20
0.111135
 30
0.0
 70
    32
  0
VERTEX
  5
3F4
  8
0
 10
-0.33732
 20
0.119162
 30
0.0
 70
    32
  0
VERTEX
  5
3F5
  8
0
 10
-0.339208
 20
0.126901
 30
0.0
 70
    32
  0
VERTEX
  5
3F6
  8
0
 10
-0.341212
 20
0.134335
 30
0.0
 70
    32
  0
VERTEX
  5
3F7
  8
0
 10
-0.343327
 20
0.141446
 30
0.0
 70
    32
  0
VERTEX
  5
3F8
  8
0
 10
-0.345549
 20
0.148215
 30
0.0
 70
    32
  0
VERTEX
  5
3F9
  8
0
 10
-0.347872
 20
0.154628
 30
0.0
 70
    32
  0
VERTEX
  5
3FA
  8
0
 10
-0.3502909999999999
 20
0.160668
 30
0.0
 70
    32
  0
VERTEX
  5
3FB
  8
0
 10
-0.3528
 20
0.166321
 30
0.0
 70
    32
  0
VERTEX
  5
3FC
  8
0
 10
-0.355392
 20
0.171573
 30
0.0
 70
    32
  0
VERTEX
  5
3FD
  8
0
 10
-0.358061
 20
0.176412
 30
0.0
 70
    32
  0
VERTEX
  5
3FE
  8
0
 10
-0.360802
 20
0.180826
 30
0.0
 70
    32
  0
VERTEX
  5
3FF
  8
0
 10
-0.363607
 20
0.184805
 30
0.0
 70
    32
  0
VERTEX
  5
400
  8
0
 10
-0.366469
 20
0.188338
 30
0.0
 70
    32
  0
VERTEX
  5
401
  8
0
 10
-0.369383
 20
0.191418
 30
0.0
 70
    32
  0
VERTEX
  5
402
  8
0
 10
-0.37234
 20
0.194036
 30
0.0
 70
    32
  0
VERTEX
  5
403
  8
0
 10
-0.375333
 20
0.196187
 30
0.0
 70
    32
  0
VERTEX
  5
404
  8
0
 10
-0.378356
 20
0.197865
 30
0.0
 70
    32
  0
VERTEX
  5
405
  8
0
 10
-0.3814010000000001
 20
0.199067
 30
0.0
 70
    32
  0
VERTEX
  5
406
  8
0
 10
-0.384461
 20
0.199789
 30
0.0
 70
    32
  0
VERTEX
  5
407
  8
0
 10
-0.387528
 20
0.20003
 30
0.0
 70
    32
  0
SEQEND
  5
408
  8
0
  0
POLYLINE
  5
409
  8
0
 66
     1
 10
0.0
 20
0.0
 30
0.0
 70
     8
  0
VERTEX
  5
40A
  8
0
 10
-0.5125450000000001
 20
0.20003
 30
0.0
 70
    32
  0
VERTEX
  5
40B
  8
0
 10
-0.5156100000000001
 20
0.199789
 30
0.0
 70
    32
  0
VERTEX
  5
40C
  8
0
 10
-0.518667
 20
0.199067
 30
0.0
 70
    32
  0
VERTEX
  5
40D
  8
0
 10
-0.5217100000000001
 20
0.197865
 30
0.0
 70
    32
  0
VERTEX
  5
40E
  8
0
 10
-0.5247310000000001
 20
0.196187
 30
0.0
 70
    32
  0
VERTEX
  5
40F
  8
0
 10
-0.527722
 20
0.194036
 30
0.0
 70
    32
  0
VERTEX
  5
410
  8
0
 10
-0.5306770000000001
 20
0.191417
 30
0.0
 70
    32
  0
VERTEX
  5
411
  8
0
 10
-0.5335880000000001
 20
0.188337
 30
0.0
 70
    32
  0
VERTEX
  5
412
  8
0
 10
-0.536449
 20
0.184804
 30
0.0
 70
    32
  0
VERTEX
  5
413
  8
0
 10
-0.5392520000000001
 20
0.180825
 30
0.0
 70
    32
  0
VERTEX
  5
414
  8
0
 10
-0.5419900000000001
 20
0.17641
 30
0.0
 70
    32
  0
VERTEX
  5
415
  8
0
 10
-0.544658
 20
0.171571
 30
0.0
 70
    32
  0
VERTEX
  5
416
  8
0
 10
-0.547248
 20
0.166318
 30
0.0
 70
    32
  0
VERTEX
  5
417
  8
0
 10
-0.5497550000000001
 20
0.160665
 30
0.0
 70
    32
  0
VERTEX
  5
418
  8
0
 10
-0.5521720000000001
 20
0.154624
 30
0.0
 70
    32
  0
VERTEX
  5
419
  8
0
 10
-0.554493
 20
0.148211
 30
0.0
 70
    32
  0
VERTEX
  5
41A
  8
0
 10
-0.5567140000000002
 20
0.141441
 30
0.0
 70
    32
  0
VERTEX
  5
41B
  8
0
 10
-0.5588280000000001
 20
0.13433
 30
0.0
 70
    32
  0
VERTEX
  5
41C
  8
0
 10
-0.5608300000000001
 20
0.126896
 30
0.0
 70
    32
  0
VERTEX
  5
41D
  8
0
 10
-0.5627170000000001
 20
0.119156
 30
0.0
 70
    32
  0
VERTEX
  5
41E
  8
0
 10
-0.564482
 20
0.111128
 30
0.0
 70
    32
  0
VERTEX
  5
41F
  8
0
 10
-0.5661220000000001
 20
0.102833
 30
0.0
 70
    32
  0
VERTEX
  5
420
  8
0
 10
-0.5676330000000001
 20
0.0942906
 30
0.0
 70
    32
  0
VERTEX
  5
421
  8
0
 10
-0.569012
 20
0.0855207
 30
0.0
 70
    32
  0
VERTEX
  5
422
  8
0
 10
-0.5702540000000002
 20
0.0765447
 30
0.0
 70
    32
  0
VERTEX
  5
423
  8
0
 10
-0.5713580000000001
 20
0.0673843
 30
0.0
 70
    32
  0
VERTEX
  5
424
  8
0
 10
-0.5723189999999999
 20
0.0580616
 30
0.0
 70
    32
  0
VERTEX
  5
425
  8
0
 10
-0.573137
 20
0.048599
 30
0.0
 70
    32
  0
VERTEX
  5
426
  8
0
 10
-0.573809
 20
0.0390193
 30
0.0
 70
    32
  0
VERTEX
  5
427
  8
0
 10
-0.5743330000000001
 20
0.0293456
 30
0.0
 70
    32
  0
VERTEX
  5
428
  8
0
 10
-0.5747080000000001
 20
0.0196011
 30
0.0
 70
    32
  0
VERTEX
  5
429
  8
0
 10
-0.5749340000000001
 20
0.00980945
 30
0.0
 70
    32
  0
VERTEX
  5
42A
  8
0
 10
-0.5750090000000001
 20
-0.00000586502
 30
0.0
 70
    32
  0
VERTEX
  5
42B
  8
0
 10
-0.5749340000000001
 20
-0.00982118
 30
0.0
 70
    32
  0
VERTEX
  5
42C
  8
0
 10
-0.5747080000000001
 20
-0.0196129
 30
0.0
 70
    32
  0
VERTEX
  5
42D
  8
0
 10
-0.5743330000000001
 20
-0.0293573
 30
0.0
 70
    32
  0
VERTEX
  5
42E
  8
0
 10
-0.573809
 20
-0.039031
 30
0.0
 70
    32
  0
VERTEX
  5
42F
  8
0
 10
-0.573137
 20
-0.0486107
 30
0.0
 70
    32
  0
VERTEX
  5
430
  8
0
 10
-0.5723200000000001
 20
-0.0580734
 30
0.0
 70
    32
  0
VERTEX
  5
431
  8
0
 10
-0.5713580000000001
 20
-0.0673961
 30
0.0
 70
    32
  0
VERTEX
  5
432
  8
0
 10
-0.5702540000000002
 20
-0.0765565
 30
0.0
 70
    32
  0
VERTEX
  5
433
  8
0
 10
-0.569012
 20
-0.0855324
 30
0.0
 70
    32
  0
VERTEX
  5
434
  8
0
 10
-0.567634
 20
-0.0943023
 30
0.0
 70
    32
  0
VERTEX
  5
435
  8
0
 10
-0.5661220000000001
 20
-0.102845
 30
0.0
 70
    32
  0
VERTEX
  5
436
  8
0
 10
-0.564482
 20
-0.11114
 30
0.0
 70
    32
  0
VERTEX
  5
437
  8
0
 10
-0.5627170000000001
 20
-0.119167
 30
0.0
 70
    32
  0
VERTEX
  5
438
  8
0
 10
-0.5608310000000002
 20
-0.126908
 30
0.0
 70
    32
  0
VERTEX
  5
439
  8
0
 10
-0.5588280000000001
 20
-0.134342
 30
0.0
 70
    32
  0
VERTEX
  5
43A
  8
0
 10
-0.5567140000000002
 20
-0.141453
 30
0.0
 70
    32
  0
VERTEX
  5
43B
  8
0
 10
-0.554493
 20
-0.148223
 30
0.0
 70
    32
  0
VERTEX
  5
43C
  8
0
 10
-0.5521720000000001
 20
-0.154636
 30
0.0
 70
    32
  0
VERTEX
  5
43D
  8
0
 10
-0.5497550000000001
 20
-0.160677
 30
0.0
 70
    32
  0
VERTEX
  5
43E
  8
0
 10
-0.547248
 20
-0.16633
 30
0.0
 70
    32
  0
VERTEX
  5
43F
  8
0
 10
-0.544658
 20
-0.171583
 30
0.0
 70
    32
  0
VERTEX
  5
440
  8
0
 10
-0.5419900000000001
 20
-0.176422
 30
0.0
 70
    32
  0
VERTEX
  5
441
  8
0
 10
-0.5392520000000001
 20
-0.180837
 30
0.0
 70
    32
  0
VERTEX
  5
442
  8
0
 10
-0.536449
 20
-0.184815
 30
0.0
 70
    32
  0
VERTEX
  5
443
  8
0
 10
-0.533589
 20
-0.188349
 30
0.0
 70
    32
  0
VERTEX
  5
444
  8
0
 10
-0.5306770000000001
 20
-0.191429
 30
0.0
 70
    32
  0
VERTEX
  5
445
  8
0
 10
-0.5277230000000001
 20
-0.194047
 30
0.0
 70
    32
  0
VERTEX
  5
446
  8
0
 10
-0.5247310000000001
 20
-0.196199
 30
0.0
 70
    32
  0
VERTEX
  5
447
  8
0
 10
-0.5217100000000001
 20
-0.197877
 30
0.0
 70
    32
  0
VERTEX
  5
448
  8
0
 10
-0.518668
 20
-0.199079
 30
0.0
 70
    32
  0
VERTEX
  5
449
  8
0
 10
-0.5156100000000001
 20
-0.199801
 30
0.0
 70
    32
  0
VERTEX
  5
44A
  8
0
 10
-0.5125450000000001
 20
-0.200042
 30
0.0
 70
    32
  0
VERTEX
  5
44B
  8
0
 10
-0.5094800000000002
 20
-0.199801
 30
0.0
 70
    32
  0
VERTEX
  5
44C
  8
0
 10
-0.5064220000000002
 20
-0.199079
 30
0.0
 70
    32
  0
VERTEX
  5
44D
  8
0
 10
-0.5033800000000001
 20
-0.197877
 30
0.0
 70
    32
  0
VERTEX
  5
44E
  8
0
 10
-0.500359
 20
-0.196199
 30
0.0
 70
    32
  0
VERTEX
  5
44F
  8
0
 10
-0.4973670000000001
 20
-0.194047
 30
0.0
 70
    32
  0
VERTEX
  5
450
  8
0
 10
-0.494412
 20
-0.191429
 30
0.0
 70
    32
  0
VERTEX
  5
451
  8
0
 10
-0.4915010000000001
 20
-0.188349
 30
0.0
 70
    32
  0
VERTEX
  5
452
  8
0
 10
-0.488641
 20
-0.184815
 30
0.0
 70
    32
  0
VERTEX
  5
453
  8
0
 10
-0.4858380000000001
 20
-0.180837
 30
0.0
 70
    32
  0
VERTEX
  5
454
  8
0
 10
-0.483099
 20
-0.176422
 30
0.0
 70
    32
  0
VERTEX
  5
455
  8
0
 10
-0.480432
 20
-0.171583
 30
0.0
 70
    32
  0
VERTEX
  5
456
  8
0
 10
-0.477842
 20
-0.16633
 30
0.0
 70
    32
  0
VERTEX
  5
457
  8
0
 10
-0.4753350000000001
 20
-0.160677
 30
0.0
 70
    32
  0
VERTEX
  5
458
  8
0
 10
-0.4729180000000001
 20
-0.154636
 30
0.0
 70
    32
  0
VERTEX
  5
459
  8
0
 10
-0.4705960000000001
 20
-0.148223
 30
0.0
 70
    32
  0
VERTEX
  5
45A
  8
0
 10
-0.4683760000000001
 20
-0.141453
 30
0.0
 70
    32
  0
VERTEX
  5
45B
  8
0
 10
-0.4662620000000001
 20
-0.134342
 30
0.0
 70
    32
  0
VERTEX
  5
45C
  8
0
 10
-0.4642590000000001
 20
-0.126908
 30
0.0
 70
    32
  0
VERTEX
  5
45D
  8
0
 10
-0.4623730000000001
 20
-0.119167
 30
0.0
 70
    32
  0
VERTEX
  5
45E
  8
0
 10
-0.4606080000000001
 20
-0.11114
 30
0.0
 70
    32
  0
VERTEX
  5
45F
  8
0
 10
-0.458967
 20
-0.102845
 30
0.0
 70
    32
  0
VERTEX
  5
460
  8
0
 10
-0.457456
 20
-0.0943024
 30
0.0
 70
    32
  0
VERTEX
  5
461
  8
0
 10
-0.456078
 20
-0.0855325
 30
0.0
 70
    32
  0
VERTEX
  5
462
  8
0
 10
-0.4548350000000001
 20
-0.0765565
 30
0.0
 70
    32
  0
VERTEX
  5
463
  8
0
 10
-0.453732
 20
-0.0673962
 30
0.0
 70
    32
  0
VERTEX
  5
464
  8
0
 10
-0.4527700000000001
 20
-0.0580734
 30
0.0
 70
    32
  0
VERTEX
  5
465
  8
0
 10
-0.451952
 20
-0.0486108
 30
0.0
 70
    32
  0
VERTEX
  5
466
  8
0
 10
-0.451281
 20
-0.0390311
 30
0.0
 70
    32
  0
VERTEX
  5
467
  8
0
 10
-0.450757
 20
-0.0293574
 30
0.0
 70
    32
  0
VERTEX
  5
468
  8
0
 10
-0.4503810000000001
 20
-0.0196129
 30
0.0
 70
    32
  0
VERTEX
  5
469
  8
0
 10
-0.4501560000000001
 20
-0.00982126
 30
0.0
 70
    32
  0
VERTEX
  5
46A
  8
0
 10
-0.45008
 20
-0.00000593779
 30
0.0
 70
    32
  0
VERTEX
  5
46B
  8
0
 10
-0.4501560000000001
 20
0.00980938
 30
0.0
 70
    32
  0
VERTEX
  5
46C
  8
0
 10
-0.4503810000000001
 20
0.0196011
 30
0.0
 70
    32
  0
VERTEX
  5
46D
  8
0
 10
-0.450757
 20
0.0293455
 30
0.0
 70
    32
  0
VERTEX
  5
46E
  8
0
 10
-0.451281
 20
0.0390192
 30
0.0
 70
    32
  0
VERTEX
  5
46F
  8
0
 10
-0.451952
 20
0.0485989
 30
0.0
 70
    32
  0
VERTEX
  5
470
  8
0
 10
-0.4527700000000001
 20
0.0580615
 30
0.0
 70
    32
  0
VERTEX
  5
471
  8
0
 10
-0.453732
 20
0.0673843
 30
0.0
 70
    32
  0
VERTEX
  5
472
  8
0
 10
-0.4548350000000001
 20
0.0765447
 30
0.0
 70
    32
  0
VERTEX
  5
473
  8
0
 10
-0.456078
 20
0.0855206
 30
0.0
 70
    32
  0
VERTEX
  5
474
  8
0
 10
-0.457456
 20
0.0942905
 30
0.0
 70
    32
  0
VERTEX
  5
475
  8
0
 10
-0.458967
 20
0.102833
 30
0.0
 70
    32
  0
VERTEX
  5
476
  8
0
 10
-0.4606080000000001
 20
0.111128
 30
0.0
 70
    32
  0
VERTEX
  5
477
  8
0
 10
-0.4623730000000001
 20
0.119156
 30
0.0
 70
    32
  0
VERTEX
  5
478
  8
0
 10
-0.4642590000000001
 20
0.126896
 30
0.0
 70
    32
  0
VERTEX
  5
479
  8
0
 10
-0.4662620000000001
 20
0.13433
 30
0.0
 70
    32
  0
VERTEX
  5
47A
  8
0
 10
-0.4683760000000001
 20
0.141441
 30
0.0
 70
    32
  0
VERTEX
  5
47B
  8
0
 10
-0.4705960000000001
 20
0.148211
 30
0.0
 70
    32
  0
VERTEX
  5
47C
  8
0
 10
-0.4729180000000001
 20
0.154624
 30
0.0
 70
    32
  0
VERTEX
  5
47D
  8
0
 10
-0.4753350000000001
 20
0.160665
 30
0.0
 70
    32
  0
VERTEX
  5
47E
  8
0
 10
-0.477841
 20
0.166318
 30
0.0
 70
    32
  0
VERTEX
  5
47F
  8
0
 10
-0.480432
 20
0.171571
 30
0.0
 70
    32
  0
VERTEX
  5
480
  8
0
 10
-0.483099
 20
0.17641
 30
0.0
 70
    32
  0
VERTEX
  5
481
  8
0
 10
-0.4858380000000001
 20
0.180825
 30
0.0
 70
    32
  0
VERTEX
  5
482
  8
0
 10
-0.488641
 20
0.184804
 30
0.0
 70
    32
  0
VERTEX
  5
483
  8
0
 10
-0.4915010000000001
 20
0.188337
 30
0.0
 70
    32
  0
VERTEX
  5
484
  8
0
 10
-0.494412
 20
0.191417
 30
0.0
 70
    32
  0
VERTEX
  5
485
  8
0
 10
-0.4973670000000001
 20
0.194036
 30
0.0
 70
    32
  0
VERTEX
  5
486
  8
0
 10
-0.500359
 20
0.196187
 30
0.0
 70
    32
  0
VERTEX
  5
487
  8
0
 10
-0.503379
 20
0.197865
 30
0.0
 70
    32
  0
VERTEX
  5
488
  8
0
 10
-0.5064220000000002
 20
0.199067
 30
0.0
 70
    32
  0
VERTEX
  5
489
  8
0
 10
-0.5094800000000002
 20
0.199789
 30
0.0
 70
    32
  0
VERTEX
  5
48A
  8
0
 10
-0.5125450000000001
 20
0.20003
 30
0.0
 70
    32
  0
SEQEND
  5
48B
  8
0
  0
LINE
  5
48C
  8
0
 10
-0.2000241576072392
 20
0.2000302621866141
 30
0.0
 11
-0.1999999399037677
 21
0.0000319445110573
 31
0.0
  0
LINE
  5
48D
  8
0
 10
-0.1999999399037677
 20
0.0000319445110573
 30
0.0
 11
-0.2000000564844493
 21
-0.2000880570837014
 31
0.0
  0
ENDBLK
  5
48F
  8
0
  0
BLOCK
  8
0
  2
TERMINALE_DX
 70
     0
 10
0.0
 20
0.0
 30
0.0
  3
TERMINALE_DX
  1

  0
INSERT
  5
491
  8
0
  2
TERMINALE_SX
 10
-0.0000000000000004
 20
0.0000000000000004
 30
0.0
 50
180.0
  0
ENDBLK
  5
493
  8
0
  0
ENDSEC
  0
SECTION
  2
ENTITIES
  0
INSERT
  5
495
  8
0
  2
TERMINALE_DX
 10
0.0
 20
0.0
 30
0.0
  0
ENDSEC
  0
EOF
